<svg width="32" height="32" viewBox="0 0 32 32" fill="none" xmlns="http://www.w3.org/2000/svg">
<rect y="32" width="32" height="32" rx="3" transform="rotate(-90 0 32)" fill="black" fill-opacity="0.2"/>
<path d="M17.6994 21.6703C17.8517 21.5179 17.9373 21.3113 17.9373 21.0959C17.9373 20.8804 17.8517 20.6738 17.6994 20.5214L13.6775 16.4996L17.6994 12.4777C17.8474 12.3244 17.9293 12.1192 17.9274 11.9062C17.9256 11.6931 17.8401 11.4894 17.6895 11.3387C17.5388 11.1881 17.3351 11.1026 17.122 11.1008C16.909 11.0989 16.7037 11.1808 16.5505 11.3288L11.9542 15.9251C11.8019 16.0775 11.7163 16.2841 11.7163 16.4996C11.7163 16.715 11.8019 16.9216 11.9542 17.074L16.5505 21.6703C16.7029 21.8226 16.9095 21.9082 17.1249 21.9082C17.3404 21.9082 17.547 21.8226 17.6994 21.6703Z" fill="#FCFCFC"/>
</svg>
