<svg width="110" height="102" viewBox="0 0 110 102" fill="none" xmlns="http://www.w3.org/2000/svg">
<g clip-path="url(#clip0_2331_124088)">
<path d="M102.411 102C106.734 102 110.183 97.1319 109.992 91.3012C109.743 83.6775 106.855 72.9127 95.4737 62.1548C81.5945 49.036 87.8543 11.2644 58.3645 13.8706C28.8748 16.4769 34.9888 45.0771 16.9067 57.871C5.39635 66.0151 0.000708276 81.2635 0 91.7707C0 97.423 3.40185 102 7.58835 102H102.411Z" fill="#F3F5FD"/>
<path d="M66.8977 1.14551H36.5254C34.1995 1.14551 32.314 3.21958 32.314 5.77807V78.0327C32.314 80.5912 34.1995 82.6653 36.5254 82.6653H66.8977C69.2236 82.6653 71.1091 80.5912 71.1091 78.0327V5.77807C71.1091 3.21958 69.2236 1.14551 66.8977 1.14551Z" fill="white"/>
<path d="M66.8979 83.8111H36.5255C35.1328 83.8094 33.7975 83.2001 32.8127 82.1168C31.8279 81.0335 31.274 79.5648 31.2725 78.0328V5.77837C31.274 4.24637 31.8279 2.77759 32.8127 1.6943C33.7975 0.611015 35.1328 0.00168414 36.5255 0L66.8979 0C68.2906 0.00168414 69.6259 0.611015 70.6107 1.6943C71.5955 2.77759 72.1494 4.24637 72.151 5.77837V78.033C72.1494 79.565 71.5954 81.0337 70.6106 82.1169C69.6258 83.2001 68.2906 83.8094 66.8979 83.8111ZM36.5255 2.29135C35.6851 2.29238 34.8793 2.6601 34.2851 3.31382C33.6908 3.96754 33.3565 4.85388 33.3556 5.77837V78.033C33.3566 78.9575 33.6909 79.8437 34.2851 80.4974C34.8794 81.1511 35.6851 81.5187 36.5255 81.5198H66.8979C67.7383 81.5187 68.544 81.151 69.1382 80.4974C69.7325 79.8437 70.0667 78.9574 70.0677 78.033V5.77837C70.0668 4.85393 69.7325 3.96764 69.1383 3.31395C68.544 2.66026 67.7383 2.29255 66.8979 2.29148L36.5255 2.29135Z" fill="#DEE8F5"/>
<path d="M45.0615 1.14551H58.3619V3.98405C58.3619 4.54757 58.1584 5.08801 57.7961 5.48648C57.4339 5.88494 56.9426 6.1088 56.4303 6.1088H46.9931C46.4808 6.1088 45.9895 5.88494 45.6273 5.48648C45.265 5.08801 45.0615 4.54757 45.0615 3.98405V1.14551Z" fill="#DEE8F5"/>
<path d="M44.1259 10.2954H35.875V19.3715H44.1259V10.2954Z" fill="#DEE8F5"/>
<path d="M67.5487 15.5649H46.0454V17.9716H67.5487V15.5649Z" fill="#DEE8F5"/>
<path d="M61.3603 11.2544H46.0454V13.6611H61.3603V11.2544Z" fill="#DEE8F5"/>
<path d="M67.5488 21.9697H35.875V48.2244H67.5488V21.9697Z" fill="#0CBC8B"/>
<path d="M67.5488 51.6455H35.875V77.9002H67.5488V51.6455Z" fill="#DEE8F5"/>
<path d="M39.7144 40.3124L45.2995 34.9663L51.6283 40.3124H39.7144Z" fill="white"/>
<path d="M46.2905 40.3123L56.227 32.4629L63.7089 40.3123H46.2905Z" fill="white"/>
<path d="M49.5285 32.5988C50.2105 32.5988 50.7635 31.9906 50.7635 31.2403C50.7635 30.4901 50.2105 29.8818 49.5285 29.8818C48.8464 29.8818 48.2935 30.4901 48.2935 31.2403C48.2935 31.9906 48.8464 32.5988 49.5285 32.5988Z" fill="white"/>
<path d="M39.7144 69.9882L45.2995 64.6421L51.6283 69.9882H39.7144Z" fill="white"/>
<path d="M46.2905 69.988L56.227 62.1387L63.7089 69.988H46.2905Z" fill="white"/>
<path d="M49.5285 62.2746C50.2105 62.2746 50.7635 61.6664 50.7635 60.9161C50.7635 60.1658 50.2105 59.5576 49.5285 59.5576C48.8464 59.5576 48.2935 60.1658 48.2935 60.9161C48.2935 61.6664 48.8464 62.2746 49.5285 62.2746Z" fill="white"/>
<path d="M24.9866 100.595L22.5249 100.273C22.6357 99.2483 22.761 98.0172 22.7695 97.8154C22.7695 97.8284 22.7695 97.8389 22.7695 97.8471H25.2485C25.2479 97.9285 25.2479 98.1773 24.9866 100.595Z" fill="#E98862"/>
<path d="M15.1088 100.921L12.6299 100.912C12.6299 100.912 12.6381 98.0966 12.6381 97.8472H15.1171C15.1171 98.0974 15.1088 100.921 15.1088 100.921Z" fill="#E98862"/>
<path d="M21.5342 99.7341L25.9019 99.6522C25.6966 93.9347 25.6841 87.9373 25.6201 82.2059C24.7678 76.0284 24.3189 69.2446 23.2668 63.1115L23.2353 63.1216L23.1431 62.4296L14.1624 61.8193C14.1624 61.8193 13.8037 66.6598 13.7226 68.2729C13.2567 77.5444 12.5248 90.6016 11.9912 99.5792L16.3434 99.9837C17.1275 91.1817 18.1051 78.3562 18.8515 69.1096C19.7085 73.6114 20.5277 78.2729 21.2731 82.7361C21.4221 88.3231 21.5481 94.1636 21.5342 99.7341Z" fill="#262626"/>
<path d="M18.1225 101.976C18.1892 101.976 18.2551 101.96 18.3162 101.931C18.3772 101.901 18.4321 101.858 18.4773 101.804C18.5225 101.75 18.557 101.686 18.5789 101.617C18.6007 101.548 18.6092 101.474 18.604 101.401C18.5968 101.299 18.5634 101.202 18.5079 101.121C18.4523 101.04 18.3768 100.978 18.2902 100.943L15.4049 99.8797C15.349 99.8593 15.2898 99.8525 15.2313 99.8597C15.1728 99.8669 15.1163 99.8879 15.0659 99.9213C14.6692 100.224 14.1947 100.379 13.7121 100.363C13.3363 100.333 12.9755 100.188 12.6709 99.9444C12.6441 99.9202 12.6116 99.9049 12.5773 99.9003C12.5429 99.8956 12.5081 99.9019 12.4768 99.9182C12.4455 99.9345 12.4191 99.9603 12.4006 99.9925C12.3822 100.025 12.3724 100.062 12.3726 100.1V101.652C12.3726 101.698 12.3808 101.743 12.3967 101.786C12.4127 101.828 12.4361 101.866 12.4656 101.899C12.4951 101.931 12.5301 101.956 12.5686 101.974C12.6071 101.991 12.6484 102 12.69 102L18.1225 101.976Z" fill="#C1D8ED"/>
<path d="M28.0071 101.976C28.0738 101.976 28.1397 101.96 28.2007 101.931C28.2617 101.901 28.3164 101.858 28.3616 101.804C28.4068 101.75 28.4413 101.686 28.4632 101.617C28.485 101.548 28.4935 101.474 28.4884 101.401C28.4812 101.3 28.4478 101.203 28.3922 101.122C28.3366 101.04 28.261 100.978 28.1745 100.943L25.2892 99.8797C25.2333 99.8594 25.174 99.8525 25.1155 99.8597C25.057 99.8669 25.0005 99.8879 24.9501 99.9213C24.5534 100.224 24.0789 100.379 23.5963 100.363C23.2205 100.333 22.8597 100.188 22.5551 99.9444C22.5284 99.9202 22.4959 99.9049 22.4616 99.9003C22.4272 99.8956 22.3923 99.9019 22.361 99.9182C22.3298 99.9345 22.3034 99.9603 22.2849 99.9925C22.2665 100.025 22.2567 100.062 22.2568 100.1V101.652C22.2568 101.698 22.2651 101.743 22.281 101.786C22.297 101.828 22.3204 101.866 22.3499 101.899C22.3794 101.931 22.4144 101.956 22.4529 101.974C22.4914 101.991 22.5326 102 22.5743 102L28.0071 101.976Z" fill="#C1D8ED"/>
<path d="M29.3018 49.8029C29.3018 49.8029 29.4906 48.257 30.4875 48.4722C31.1167 48.6079 34.1493 48.8571 34.1608 49.1655C34.1892 49.9284 31.4103 49.7418 31.0832 50.4049L29.3018 49.8029Z" fill="#E98862"/>
<path d="M30.126 48.474C30.126 48.474 31.5816 48.1594 31.9158 48.2953C32.2117 48.4157 31.5163 48.8763 31.5163 48.8763L30.126 48.474Z" fill="#E98862"/>
<path d="M15.0803 43.2372C15.0622 41.3064 15.7559 40.11 16.6965 39.4531C17.6246 38.8049 20.5348 38.2407 21.6381 40.5937C22.3582 42.1292 22.074 42.6781 22.278 45.1373C22.4819 47.5966 23.2655 47.8547 24.0604 50.8356C24.6837 53.1738 21.1919 54.415 18.1685 54.3078C15.1451 54.2005 13.2283 53.4637 13.0529 51.3489C12.8007 48.3131 15.1159 47.0209 15.0803 43.2372Z" fill="#0F1011"/>
<path d="M16.8818 48.5753C16.8818 48.5753 17.7901 48.0337 17.5636 45.3017L19.4462 44.8979C19.4462 44.8979 19.2548 47.3515 20.2153 48.1201L16.8818 48.5753Z" fill="#E98862"/>
<g opacity="0.15">
<path d="M19.8248 47.6117L18.2471 46.3092L19.4775 46.2832C19.517 46.746 19.6348 47.1965 19.8248 47.6117Z" fill="black"/>
</g>
<path d="M16.4848 44.2524C16.6222 45.0806 17.0403 45.8625 17.7077 46.1231C18.4354 46.4324 19.2208 46.5411 19.9955 46.4397C22.0584 46.2319 21.607 41.0731 20.6185 40.08C19.63 39.0869 16.7584 39.7511 16.4228 41.4321C16.249 42.3016 16.3539 43.464 16.4848 44.2524Z" fill="#E98862"/>
<path d="M19.4313 43.5838C19.5258 43.5838 19.6024 43.4996 19.6024 43.3957C19.6024 43.2918 19.5258 43.2075 19.4313 43.2075C19.3368 43.2075 19.2603 43.2918 19.2603 43.3957C19.2603 43.4996 19.3368 43.5838 19.4313 43.5838Z" fill="#0F1011"/>
<path d="M20.7794 43.4486C20.8739 43.4486 20.9505 43.3643 20.9505 43.2604C20.9505 43.1565 20.8739 43.0723 20.7794 43.0723C20.685 43.0723 20.6084 43.1565 20.6084 43.2604C20.6084 43.3643 20.685 43.4486 20.7794 43.4486Z" fill="#0F1011"/>
<path d="M21.072 42.8563L20.619 42.8546C20.5976 42.8546 20.5772 42.8453 20.5621 42.8287C20.547 42.8121 20.5386 42.7896 20.5386 42.7662C20.5386 42.7427 20.547 42.7202 20.5621 42.7036C20.5772 42.6871 20.5976 42.6777 20.619 42.6777L21.072 42.6794C21.0933 42.6794 21.1138 42.6887 21.1289 42.7053C21.1439 42.7219 21.1524 42.7444 21.1524 42.7679C21.1524 42.7913 21.1439 42.8138 21.1289 42.8304C21.1138 42.847 21.0933 42.8563 21.072 42.8563Z" fill="#0F1011"/>
<path d="M19.0585 43.0584C19.0389 43.0583 19.0201 43.0503 19.0055 43.036C18.9909 43.0217 18.9815 43.002 18.9791 42.9807C18.9767 42.9593 18.9815 42.9378 18.9926 42.92C19.0036 42.9023 19.0201 42.8896 19.0391 42.8843L19.4847 42.7614C19.5052 42.7564 19.5267 42.7603 19.5445 42.7724C19.5624 42.7846 19.5752 42.8039 19.5803 42.8263C19.5854 42.8487 19.5823 42.8724 19.5717 42.8923C19.5611 42.9122 19.5439 42.9268 19.5237 42.933L19.0781 43.0557C19.0717 43.0575 19.0651 43.0584 19.0585 43.0584Z" fill="#0F1011"/>
<path d="M19.5229 44.8763C19.5229 44.8763 20.1548 44.9432 20.596 44.7686C20.596 44.7686 20.596 45.226 20.0971 45.2761C19.5983 45.3263 19.5229 44.8763 19.5229 44.8763Z" fill="white"/>
<path d="M17.8558 42.0891C17.9975 44.032 17.8208 45.9871 17.3342 47.8613C17.3342 47.8613 15.8704 45.1474 15.6265 42.8767C15.3985 40.7483 16.8152 39.4759 17.7776 39.2291C21.4346 38.2907 21.6885 41.2249 21.6885 41.2249C21.4524 42.2259 17.4598 42.847 17.4598 42.847" fill="#0F1011"/>
<path d="M18.5739 44.215C18.5902 44.4249 18.5303 44.6335 18.4073 44.795C18.2842 44.9566 18.1081 45.058 17.9173 45.0772C17.7265 45.0963 17.5365 45.0316 17.389 44.8972C17.2414 44.7628 17.1481 44.5696 17.1296 44.3599C17.1193 44.2552 17.1283 44.1494 17.1559 44.0486C17.1836 43.9479 17.2294 43.8542 17.2906 43.7734C17.3519 43.6925 17.4273 43.626 17.5123 43.5778C17.5974 43.5296 17.6904 43.5008 17.7859 43.493C18.3025 43.4692 18.5376 43.7762 18.5739 44.215Z" fill="#E98862"/>
<g opacity="0.15">
<path d="M20.1984 44.4313C20.1844 44.4312 20.1708 44.4256 20.1602 44.4156C20.1495 44.4055 20.1425 44.3915 20.1403 44.3763C20.1382 44.361 20.1411 44.3454 20.1484 44.3322C20.1558 44.3191 20.1672 44.3093 20.1806 44.3045L20.5274 44.1835L20.2795 43.5898C20.276 43.5821 20.274 43.5736 20.2735 43.5649C20.273 43.5563 20.2741 43.5476 20.2768 43.5394C20.2794 43.5312 20.2835 43.5237 20.2888 43.5173C20.2941 43.5108 20.3006 43.5057 20.3077 43.502C20.3149 43.4984 20.3227 43.4964 20.3306 43.4961C20.3384 43.4959 20.3463 43.4973 20.3537 43.5004C20.361 43.5036 20.3677 43.5083 20.3734 43.5143C20.3791 43.5204 20.3836 43.5276 20.3867 43.5356L20.6629 44.196C20.6665 44.2043 20.6683 44.2134 20.6684 44.2226C20.6685 44.2318 20.6668 44.2409 20.6635 44.2493C20.6601 44.2577 20.6552 44.2653 20.649 44.2714C20.6428 44.2776 20.6355 44.2822 20.6275 44.2851L20.217 44.4279C20.211 44.4301 20.2047 44.4312 20.1984 44.4313Z" fill="black"/>
</g>
<path d="M25.7446 58.7405C25.7266 58.7405 25.7086 58.7405 25.6905 58.7392C25.4694 58.729 25.2544 58.6563 25.0663 58.528C24.8783 58.3997 24.7234 58.2203 24.6168 58.007L20.8359 50.4432L23.0916 49.0797L25.8491 54.5963L29.2971 48.894L31.4402 50.462L26.8161 58.1094C26.6986 58.3036 26.5393 58.4628 26.3524 58.5729C26.1655 58.683 25.9567 58.7406 25.7446 58.7405Z" fill="#0EAF8F"/>
<path d="M26.7821 52.361L25.3511 52.1098C25.2949 52.0999 25.2412 52.077 25.1935 52.0427C25.1458 52.0083 25.1053 51.9633 25.0746 51.9105C25.0439 51.8577 25.0236 51.7984 25.0152 51.7364C25.0068 51.6744 25.0103 51.6112 25.0257 51.5508L25.926 47.9964C25.9527 47.8911 26.0136 47.8003 26.0972 47.7413C26.1809 47.6823 26.2813 47.6592 26.3794 47.6765L27.8104 47.9276C27.8666 47.9375 27.9203 47.9603 27.968 47.9946C28.0156 48.0289 28.0562 48.0738 28.0869 48.1265C28.1177 48.1793 28.138 48.2385 28.1465 48.3005C28.155 48.3624 28.1515 48.4256 28.1363 48.486L27.236 52.0404C27.2094 52.1459 27.1484 52.2369 27.0647 52.2961C26.981 52.3552 26.8803 52.3783 26.7821 52.361Z" fill="#262626"/>
<path d="M24.478 51.4296L25.3219 52.6892C25.3219 52.6892 27.5903 52.1891 27.803 50.2668C27.8276 50.0454 27.8063 49.4332 27.5571 49.5154C26.9079 49.7293 26.0999 50.8252 25.5334 50.971C25.6626 50.7163 25.8203 50.3567 25.7187 50.291C25.451 50.1179 24.7317 51.1613 24.478 51.4296Z" fill="#E98862"/>
<path d="M23.1436 56.5113C23.1454 56.3359 23.1514 56.1574 23.1603 55.9765L26.2259 53.0139L24.5271 50.8868L23.5339 51.8467C23.6455 49.6857 23.2991 47.93 20.9857 47.8204C20.9114 47.8165 20.7921 47.8139 20.6387 47.8113C20.608 48.5255 16.5873 48.5229 16.5023 47.7944C15.3667 47.7957 14.4354 48.1788 13.8959 48.7722C12.0367 50.8174 14.3185 54.3026 14.3185 57.0294C14.3185 59.7563 13.1971 60.9795 13.2797 62.3793C13.4095 64.579 23.1283 64.0596 23.6228 62.8091C24.1328 61.5211 23.0976 60.7264 23.1436 56.5113Z" fill="#0EAF8F"/>
<path d="M78.6863 86.3623H77.2412V102H78.6863V86.3623Z" fill="#C1D8ED"/>
<path d="M77.4969 86.3623H76.0518V102H77.4969V86.3623Z" fill="#DEE8F5"/>
<path d="M96.6863 86.3623H95.2412V102H96.6863V86.3623Z" fill="#C1D8ED"/>
<path d="M95.4969 86.3623H94.0518V102H95.4969V86.3623Z" fill="#DEE8F5"/>
<path d="M82.6502 86.3623H81.2051V102H82.6502V86.3623Z" fill="#C1D8ED"/>
<path d="M81.4607 86.3623H80.0156V102H81.4607V86.3623Z" fill="#DEE8F5"/>
<path d="M100.65 86.3623H99.2046V102H100.65V86.3623Z" fill="#C1D8ED"/>
<path d="M99.4603 86.3623H98.0151V102H99.4603V86.3623Z" fill="#DEE8F5"/>
<path d="M100.65 76.3525H81.2139V86.7374H100.65V76.3525Z" fill="#C1D8ED"/>
<path d="M95.4877 76.3525H76.0518V86.7374H95.4877V76.3525Z" fill="#DEE8F5"/>
<g opacity="0.53">
<path d="M94.4419 77.8286H77.0972V85.2149H94.4419V77.8286Z" fill="#F3F5FD"/>
</g>
<path d="M85.7699 82.3691C86.1953 82.3691 86.5402 81.9897 86.5402 81.5217C86.5402 81.0537 86.1953 80.6743 85.7699 80.6743C85.3444 80.6743 84.9995 81.0537 84.9995 81.5217C84.9995 81.9897 85.3444 82.3691 85.7699 82.3691Z" fill="white"/>
<path d="M95.4704 67.1841L94.0811 66.8228L92.3392 74.9269L93.7285 75.2883L95.4704 67.1841Z" fill="#F0F6FF"/>
<path d="M92.553 66.1931L91.7817 66.3496L92.9747 73.4629L93.7459 73.3064L92.553 66.1931Z" fill="#C1D8ED"/>
<path d="M92.5527 66.1903L91.7822 66.3516L91.918 67.1362L92.6884 66.9749L92.5527 66.1903Z" fill="#DEE8F5"/>
<path d="M94.9409 68.0026L92.4414 74.9819L92.8697 75.1676L95.3693 68.1882L94.9409 68.0026Z" fill="#0CBC8B"/>
<path d="M95.488 71.0552H91.7202V76.3522H95.488V71.0552Z" fill="#C1D8ED"/>
<path d="M20.6384 47.8113C20.6077 48.5255 20.2548 49.576 19.1652 49.6552C17.7132 49.7604 16.5871 48.5229 16.502 47.7944H16.5056C17.9351 47.7946 19.8049 47.7972 20.6384 47.8113Z" fill="#E98862"/>
</g>
<defs>
<clipPath id="clip0_2331_124088">
<rect width="110" height="102" fill="white"/>
</clipPath>
</defs>
</svg>
