<svg width="230" height="160" viewBox="0 0 230 160" fill="none" xmlns="http://www.w3.org/2000/svg">
<path opacity="0.2" d="M68.7834 20.743L68.6199 20.7017L16.7172 129.593L199.685 143.747L199.891 143.763L206.595 55.3676L206.609 55.1938L68.7834 20.743ZM121.344 90.7699L17.4373 129.041L68.7735 21.3386L121.344 90.7699ZM121.649 91.0979L198.938 143.273L17.9925 129.277L121.649 91.0979ZM121.745 90.6151L69.2518 21.2852L205.736 55.4007L121.745 90.6151ZM199.522 143.17L122.109 90.9102L206.158 55.672L199.522 143.17Z" fill="#367CFF"/>
<path d="M229.98 57.2083C229.815 61.4003 228.639 65.4899 226.553 69.1275C224.468 72.7651 221.534 75.8427 218.004 78.0972C214.473 80.3516 210.45 81.716 206.279 82.0736C202.108 82.4313 197.912 81.7716 194.051 80.1509C192.24 79.3903 190.522 78.4233 188.932 77.269C185.892 75.0698 183.362 72.2388 181.515 68.9694V68.9665C179.545 65.4697 178.412 61.5629 178.203 57.553C177.994 53.5431 178.717 49.5393 180.313 45.8563C181.909 42.1732 184.335 38.9113 187.402 36.3266C190.468 33.7419 194.091 31.905 197.985 30.9602C201.88 30.0153 205.94 29.9883 209.846 30.8812C213.753 31.7741 217.4 33.5625 220.5 36.1061C223.601 38.6497 226.07 41.8791 227.715 45.5405C229.36 49.202 230.135 53.1957 229.98 57.2081L229.98 57.2083Z" fill="white"/>
<path opacity="0.09" d="M229.98 57.2083C229.815 61.4003 228.639 65.4899 226.553 69.1275C224.468 72.7651 221.534 75.8427 218.004 78.0972C214.473 80.3516 210.45 81.716 206.279 82.0736C202.108 82.4313 197.912 81.7716 194.051 80.1509C192.24 79.3903 190.522 78.4233 188.932 77.269C185.892 75.0698 183.362 72.2388 181.515 68.9694V68.9665C179.545 65.4697 178.412 61.5629 178.203 57.553C177.994 53.5431 178.717 49.5393 180.313 45.8563C181.909 42.1732 184.335 38.9113 187.402 36.3266C190.468 33.7419 194.091 31.905 197.985 30.9602C201.88 30.0153 205.94 29.9883 209.846 30.8812C213.753 31.7741 217.4 33.5625 220.5 36.1061C223.601 38.6497 226.07 41.8791 227.715 45.5405C229.36 49.202 230.135 53.1957 229.98 57.2081L229.98 57.2083Z" fill="#367CFF"/>
<path d="M210.211 36.4233C210.211 36.4233 216.407 36.4994 214.271 45.0558L213.689 45.0843L212.508 45.142" fill="#0C0C0C"/>
<path d="M203.293 54.0328C203.322 54.0301 203.436 59.3671 209.627 59.1429C213.912 58.9883 215.612 54.5042 215.71 54.5079C215.253 54.392 214.483 54.2186 214.282 54.1016C213.624 53.7133 212.806 53.304 212.639 51.9859C212.544 51.2263 212.905 47.3735 212.869 46.6074L206.253 47.8194C206.282 49.4359 206.779 53.1994 204.505 53.7737C204.127 53.8687 203.72 53.9537 203.293 54.0328Z" fill="#E98862"/>
<path opacity="0.52" d="M205.987 52.3013C206.103 51.9735 206.182 51.6339 206.224 51.2887C206.327 50.5013 206.343 49.705 206.273 48.9141C207.613 48.7856 208.891 48.283 209.96 47.4634C210.064 47.918 210.658 49.9147 210.455 50.3358C210.074 51.1323 208.375 52.3943 205.987 52.3013Z" fill="#0C0C0C"/>
<path d="M207.489 51.3581C210.083 51.1722 213.212 49.5898 213.32 46.0679L213.418 42.8906C213.527 39.3693 211.769 36.4573 208.461 36.3548C205.153 36.2515 202.591 39.0301 202.483 42.5515L202.439 43.9582C202.433 44.4416 202.459 44.9249 202.518 45.4047C202.665 46.6736 202.893 48.6029 203.727 49.9203C204.514 51.1639 205.832 51.4766 207.489 51.3581Z" fill="#E98862"/>
<path d="M213.082 47.1352C214.087 47.1662 214.936 46.1135 214.967 45.1061C214.998 44.0986 214.2 43.5175 213.194 43.4863L212.655 44.1453L212.217 47.1083L213.082 47.1352Z" fill="#E98862"/>
<path d="M202.652 46.4679C202.834 46.6838 203.067 46.8506 203.329 46.9534C203.591 47.0561 203.875 47.0914 204.155 47.0561C204.753 46.9806 205.149 47.2266 205.649 47.1772C206.068 47.1358 206.14 46.9418 206.855 46.8994C209.616 46.7356 211.688 46.5611 211.822 43.0896L213.579 41.5259C213.579 41.5259 214.364 51.1459 209.172 52.4247C205.981 53.2099 202.989 52.9229 202.604 49.9201C202.291 47.4801 202.652 46.4679 202.652 46.4679Z" fill="#0C0C0C"/>
<path d="M203.961 44.4592C204.186 44.4592 204.369 44.2763 204.369 44.0506C204.369 43.825 204.186 43.6421 203.961 43.6421C203.736 43.6421 203.553 43.825 203.553 44.0506C203.553 44.2763 203.736 44.4592 203.961 44.4592Z" fill="#0C0C0C"/>
<path d="M207.603 44.383C207.828 44.383 208.011 44.2001 208.011 43.9745C208.011 43.7488 207.828 43.5659 207.603 43.5659C207.378 43.5659 207.195 43.7488 207.195 43.9745C207.195 44.2001 207.378 44.383 207.603 44.383Z" fill="#0C0C0C"/>
<path d="M212.111 45.4974C212.111 45.4974 211.862 40.5076 210.359 40.1722C209.358 39.9488 206.897 41.3321 204.649 40.8597C203.665 40.6531 202.724 40.8804 202.62 41.3462C202.579 41.5305 201.8 39.8957 203.383 37.9065C204.643 36.3227 208.739 35.8772 210.562 36.4372C215.608 37.9883 213.398 43.7099 213.398 43.7099L213.14 45.4238L212.111 45.4974Z" fill="#0C0C0C"/>
<path d="M214.404 41.4738C215.889 41.4738 217.093 40.2671 217.093 38.7786C217.093 37.2902 215.889 36.0835 214.404 36.0835C212.919 36.0835 211.714 37.2902 211.714 38.7786C211.714 40.2671 212.919 41.4738 214.404 41.4738Z" fill="#0C0C0C"/>
<g opacity="0.52">
<path d="M205.698 47.017H205.692C205.368 47.0077 204.826 46.956 204.832 46.7132C204.838 46.5119 205.449 44.3549 205.519 44.1094C205.525 44.0883 205.539 44.0705 205.558 44.0598C205.577 44.0491 205.6 44.0465 205.621 44.0525C205.642 44.0585 205.66 44.0726 205.67 44.0918C205.681 44.1109 205.684 44.1336 205.678 44.1547C205.406 45.11 205.001 46.581 204.997 46.7171C205.027 46.7754 205.361 46.8411 205.697 46.8508C205.718 46.8506 205.74 46.8591 205.755 46.8744C205.771 46.8897 205.78 46.9106 205.78 46.9326C205.78 46.9545 205.772 46.9756 205.757 46.9913C205.741 47.007 205.72 47.0159 205.698 47.0162V47.017Z" fill="#0C0C0C"/>
</g>
<path d="M204.712 42.6627C204.377 42.5633 204.022 42.5562 203.684 42.642C203.517 42.683 203.358 42.7489 203.211 42.8375C203.065 42.9243 202.931 43.0292 202.812 43.1497C202.791 43.1683 202.778 43.1944 202.777 43.2222C202.775 43.25 202.785 43.2773 202.803 43.298C202.822 43.3188 202.848 43.3313 202.876 43.3328C202.903 43.3343 202.931 43.3248 202.951 43.3062L202.958 43.3008C203.069 43.2002 203.193 43.1141 203.325 43.0444C203.456 42.975 203.596 42.9258 203.742 42.8985C204.029 42.8423 204.325 42.863 204.601 42.9586L204.612 42.9625C204.631 42.9701 204.652 42.9737 204.673 42.9731C204.694 42.9725 204.715 42.9678 204.734 42.9592C204.753 42.9505 204.77 42.9382 204.784 42.9228C204.798 42.9075 204.809 42.8894 204.817 42.8698C204.824 42.8501 204.827 42.8292 204.826 42.8082C204.825 42.7873 204.82 42.7667 204.811 42.7478C204.802 42.7288 204.79 42.7119 204.774 42.6978C204.759 42.6838 204.74 42.6731 204.721 42.6662L204.712 42.6627Z" fill="#0C0C0C"/>
<path d="M207.114 42.9591C207.38 42.8369 207.673 42.7873 207.964 42.8155C208.111 42.8284 208.256 42.8637 208.393 42.9203C208.531 42.9767 208.663 43.0503 208.783 43.1395L208.79 43.1441C208.812 43.1587 208.839 43.1642 208.866 43.1594C208.892 43.1546 208.915 43.1399 208.931 43.1182C208.947 43.0966 208.954 43.0697 208.951 43.043C208.947 43.0164 208.934 42.9921 208.913 42.975C208.783 42.8667 208.639 42.7753 208.486 42.7031C208.331 42.6293 208.166 42.5792 207.996 42.5545C207.651 42.5024 207.298 42.5443 206.975 42.6758C206.937 42.6922 206.907 42.723 206.891 42.7615C206.875 42.7999 206.876 42.843 206.892 42.8813C206.907 42.9196 206.938 42.9501 206.976 42.9662C207.014 42.9823 207.057 42.9827 207.095 42.9674L207.103 42.9641L207.114 42.9591Z" fill="#0C0C0C"/>
<path d="M223.631 67.3592C223.4 69.104 223.175 71.5005 222.974 73.9785C222.189 74.8161 221.349 75.6007 220.46 76.3273C219.895 76.7871 219.312 77.2243 218.711 77.6387C215.461 79.8623 211.748 81.3164 207.854 81.8908C203.96 82.4653 199.987 82.1451 196.235 80.9546C196.183 78.6529 196.114 75.5482 196.044 72.7038C195.965 69.4228 195.885 66.4851 195.842 65.5198C195.664 61.6889 194.651 59.1328 195.417 57.0428C195.646 56.4241 196.014 55.8666 196.493 55.4137C198.278 53.6632 202.711 53.7031 204.489 53.7723C204.52 53.7736 203.971 57.8861 209.822 57.8365C214.122 57.8012 214.444 54.1594 214.444 54.1594C214.444 54.1594 216.563 54.3803 217.971 54.6252C220.273 55.0292 221.769 55.8752 222.934 57.1387C224.02 58.3168 224.661 59.5674 223.631 67.3592Z" fill="#367CFF"/>
<path d="M189.235 54.178L189.412 49.7898C189.416 49.6933 189.4 49.597 189.365 49.507C189.33 49.4171 189.276 49.3355 189.208 49.2675C189.139 49.1994 189.058 49.1464 188.968 49.1118C188.878 49.0772 188.781 49.0618 188.685 49.0665C188.508 49.0808 188.342 49.1607 188.22 49.2905C188.098 49.4203 188.029 49.5909 188.025 49.7691L187.987 50.7102L186.751 47.6966C186.619 47.3591 186.242 47.0293 185.874 47.2023C185.728 47.2595 185.606 47.3647 185.527 47.5005C185.448 47.6364 185.418 47.795 185.441 47.9504C185.437 47.9508 185.434 47.9516 185.431 47.9526C185.428 47.954 185.426 47.9555 185.424 47.9572L185.221 47.4368C185.183 47.3404 185.125 47.2537 185.05 47.1829C184.974 47.1121 184.884 47.059 184.786 47.0275C184.687 46.9961 184.583 46.987 184.481 47.001C184.378 47.015 184.28 47.0517 184.194 47.1085C184.06 47.2005 183.961 47.336 183.915 47.4922C183.868 47.6485 183.877 47.816 183.939 47.9667L184.025 48.188C184.02 48.1935 184.016 48.1999 184.012 48.2068C183.919 48.0709 183.781 47.9726 183.623 47.9293C183.464 47.886 183.295 47.9007 183.146 47.9706C182.986 48.0522 182.862 48.1914 182.799 48.3606C182.736 48.5298 182.739 48.7165 182.808 48.8834L183.022 49.4335C183.014 49.4279 183.004 49.4243 182.994 49.4232C182.984 49.422 182.974 49.4233 182.964 49.4269C182.953 49.4318 182.943 49.4399 182.937 49.45C182.82 49.3519 182.675 49.2948 182.523 49.2875C182.371 49.2803 182.221 49.3232 182.096 49.4097C181.966 49.5034 181.872 49.6381 181.828 49.7921C181.785 49.9462 181.794 50.1105 181.855 50.2585L183.665 54.8996C183.918 55.5489 184.359 56.1076 184.931 56.5042C185.503 56.9007 186.181 57.117 186.876 57.1253C187.476 57.1324 188.055 56.9049 188.49 56.4911C188.925 56.0773 189.182 55.5098 189.206 54.9091L189.235 54.178Z" fill="#E98862"/>
<g opacity="0.2">
<path d="M186.65 50.9397C186.634 50.9458 186.617 50.9454 186.601 50.9388C186.586 50.9322 186.574 50.9197 186.567 50.9042L185.395 48.0365C185.392 48.0286 185.39 48.02 185.389 48.0113C185.389 48.0026 185.39 47.9939 185.394 47.9858C185.397 47.9776 185.402 47.9702 185.408 47.964C185.414 47.9578 185.421 47.9529 185.429 47.9496C185.437 47.9463 185.446 47.9447 185.454 47.9448C185.463 47.945 185.472 47.9469 185.48 47.9505C185.488 47.9541 185.495 47.9592 185.501 47.9657C185.507 47.9721 185.511 47.9797 185.514 47.9879L186.686 50.8556C186.689 50.8634 186.691 50.8717 186.691 50.8802C186.691 50.8886 186.689 50.897 186.686 50.9047C186.682 50.9125 186.678 50.9196 186.672 50.9255C186.666 50.9314 186.659 50.9361 186.651 50.9393L186.65 50.9397Z" fill="#0C0C0C"/>
</g>
<g opacity="0.2">
<path d="M185.402 51.4926C185.386 51.4987 185.369 51.4984 185.353 51.4917C185.338 51.485 185.326 51.4725 185.319 51.4569L184.012 48.2564C184.005 48.2408 184.006 48.2234 184.012 48.2079C184.019 48.1925 184.031 48.1802 184.047 48.1738C184.062 48.1682 184.079 48.1687 184.095 48.1752C184.11 48.1816 184.122 48.1936 184.129 48.2087L185.437 51.4091C185.443 51.4249 185.443 51.4425 185.437 51.4582C185.43 51.4739 185.418 51.4864 185.402 51.4928V51.4926Z" fill="#0C0C0C"/>
</g>
<g opacity="0.2">
<path d="M184.054 52.0992C184.038 52.1054 184.021 52.105 184.005 52.0984C183.99 52.0917 183.978 52.0791 183.971 52.0635L182.928 49.5107C182.922 49.495 182.922 49.4774 182.928 49.4617C182.935 49.446 182.947 49.4336 182.963 49.4271C182.979 49.4207 182.996 49.4208 183.012 49.4273C183.028 49.4339 183.04 49.4464 183.047 49.4622L184.09 52.0143C184.097 52.0301 184.097 52.0477 184.09 52.0634C184.084 52.0791 184.071 52.0915 184.055 52.098L184.054 52.0992Z" fill="#0C0C0C"/>
</g>
<path d="M203.731 61.0577L193.073 77.4773C192.686 78.0742 192.166 78.574 191.556 78.9384C190.648 78.4364 189.771 77.8789 188.931 77.2688C187.141 75.9746 185.524 74.4564 184.118 72.751L181.88 55.3584L190.838 53.9199L191.86 62.2918L195.953 55.9862L203.731 61.0577Z" fill="#367CFF"/>
<path d="M204.98 47.9129C205.958 47.978 206.929 47.7147 207.741 47.1646C207.769 47.1457 207.802 47.1352 207.836 47.1343C207.87 47.1335 207.903 47.1423 207.932 47.1598C207.961 47.1773 207.985 47.2027 208 47.2331C208.015 47.2635 208.021 47.2976 208.018 47.3314C207.952 47.91 207.667 48.9743 206.456 49.1098C205.674 49.1972 205.107 48.5953 204.821 48.195C204.801 48.1673 204.79 48.1345 204.788 48.1005C204.786 48.0665 204.794 48.0327 204.811 48.0031C204.828 47.9735 204.852 47.9493 204.882 47.9333C204.912 47.9173 204.946 47.9102 204.98 47.9129Z" fill="white"/>
<path d="M226.521 69.2047C224.946 71.9257 222.893 74.3387 220.46 76.3273C219.895 76.7872 219.312 77.2243 218.711 77.6387L214.549 61.7698L223.923 59.2988L226.521 69.2047Z" fill="#367CFF"/>
<path d="M218.802 77.5769C218.773 77.5964 218.741 77.6183 218.711 77.6389C218.682 77.6596 218.652 77.6803 218.622 77.6995L215.45 65.6104L215.65 65.5581L218.802 77.5769Z" fill="#0C0C0C"/>
<path d="M196.07 73.4514C196.044 73.4503 196.019 73.4396 196.001 73.4214C195.983 73.4031 195.972 73.3787 195.971 73.3528L195.766 68.8478C195.765 68.8204 195.775 68.7937 195.793 68.7734C195.812 68.7532 195.837 68.7411 195.865 68.7399C195.892 68.7386 195.919 68.7483 195.939 68.7668C195.959 68.7853 195.971 68.8111 195.972 68.8385L196.177 73.3435C196.178 73.3709 196.168 73.3976 196.15 73.4178C196.132 73.438 196.106 73.4501 196.079 73.4514H196.07Z" fill="#0C0C0C"/>
<path d="M118.971 115.139C133.562 115.139 145.391 103.285 145.391 88.6636C145.391 74.0418 133.562 62.1885 118.971 62.1885C104.38 62.1885 92.5515 74.0418 92.5515 88.6636C92.5515 103.285 104.38 115.139 118.971 115.139Z" fill="white"/>
<path opacity="0.09" d="M145.391 88.6629C145.391 93.8991 143.842 99.0177 140.939 103.371C138.036 107.725 133.909 111.119 129.082 113.122C124.255 115.126 118.943 115.65 113.818 114.629C108.693 113.607 103.985 111.086 100.291 107.383C96.5959 103.681 94.0797 98.9635 93.0603 93.8279C92.0409 88.6923 92.5641 83.3691 94.5637 78.5315C96.5633 73.6938 99.9495 69.559 104.294 66.65C108.639 63.7409 113.747 62.1882 118.972 62.1882C122.445 62.1753 125.886 62.8513 129.097 64.1772C132.308 65.5032 135.226 67.4528 137.682 69.9137C140.137 72.3747 142.083 75.2984 143.406 78.5163C144.729 81.7341 145.404 85.1826 145.391 88.6629Z" fill="#367CFF"/>
<path d="M107.276 73.0482C107.276 73.0482 107.011 77.0449 106.113 78.4949C103.53 82.6693 102.782 87.3655 105.369 89.8194C107.955 92.2734 124.455 92.3071 125.705 86.6639C126.757 81.913 124.499 81.4021 123.95 77.483C123.701 75.7097 123.017 71.9912 123.017 71.9912" fill="#0A0A0A"/>
<path d="M121.434 85.8358C121.406 85.832 121.09 91.0874 114.997 90.6301C110.78 90.3135 109.276 85.8292 109.179 85.8292C109.634 85.7324 110.4 85.5915 110.602 85.4836C111.266 85.1259 112.088 84.754 112.302 83.4613C112.426 82.7174 112.216 78.9055 112.282 78.1519L118.756 79.5999C118.665 81.1911 118.032 84.8819 120.251 85.5349C120.619 85.6421 121.017 85.7415 121.434 85.8358Z" fill="#F0C7B7"/>
<path opacity="0.5" d="M118.845 84.026C118.744 83.6984 118.678 83.3607 118.65 83.019C118.579 82.2391 118.593 81.4538 118.693 80.677C117.377 80.4992 116.137 79.955 115.115 79.1064C114.994 79.5514 114.333 81.4953 114.517 81.9183C114.863 82.7171 116.488 84.026 118.845 84.026Z" fill="#0C0C0C"/>
<path d="M118.008 82.3886C115.455 82.6366 112.153 81.6129 111.469 78.2066L110.851 75.1331C110.167 71.7269 111.398 68.6054 114.598 67.96C117.799 67.3145 120.746 69.5926 121.43 72.9997L121.703 74.3602C121.966 75.6673 122.562 81.947 118.008 82.3886Z" fill="#F0C7B7"/>
<path opacity="0.1" d="M116.385 77.9258C116.805 77.8756 117.116 77.5846 117.079 77.2757C117.042 76.9669 116.672 76.7573 116.252 76.8075C115.832 76.8577 115.521 77.1488 115.558 77.4576C115.595 77.7664 115.965 77.976 116.385 77.9258Z" fill="#0C0C0C"/>
<path opacity="0.1" d="M120.824 76.6907C120.862 76.9988 121.232 77.2073 121.652 77.1585C121.724 77.1498 121.796 77.1336 121.865 77.1102C121.885 76.7425 121.886 76.3887 121.875 76.0614C121.758 76.0322 121.637 76.0252 121.518 76.0407C121.098 76.0901 120.788 76.3811 120.824 76.6907Z" fill="#0C0C0C"/>
<path opacity="0.5" d="M118.968 77.6435H118.974C119.104 77.6162 119.232 77.5817 119.358 77.5402C119.546 77.4782 119.791 77.3738 119.757 77.2036C119.718 77.0093 118.767 75.0224 118.659 74.7963C118.649 74.7778 118.632 74.7638 118.612 74.7574C118.592 74.7509 118.57 74.7524 118.551 74.7616C118.532 74.7707 118.517 74.7868 118.509 74.8066C118.502 74.8264 118.502 74.8483 118.51 74.8678C118.916 75.7151 119.569 77.1054 119.596 77.236C119.575 77.297 119.263 77.416 118.942 77.4811C118.921 77.4858 118.903 77.4981 118.892 77.5155C118.88 77.533 118.875 77.5542 118.879 77.5749C118.882 77.5956 118.893 77.6143 118.91 77.6271C118.926 77.6399 118.947 77.646 118.968 77.6439V77.6435Z" fill="#0C0C0C"/>
<path d="M108.298 76.2365L111.167 75.6749C113.334 74.7656 113.949 70.9814 113.949 70.9814C113.949 70.9814 116.624 73.5342 123.017 71.9905C123.017 71.9905 121.628 63.0474 112.189 65.762C109.145 66.6372 106.989 69.7463 107.31 73.864C107.534 76.7503 108.298 76.2365 108.298 76.2365Z" fill="#0A0A0A"/>
<path d="M111.876 79.2044C110.903 79.4005 109.905 78.5169 109.711 77.5421C109.516 76.5673 110.195 75.8709 111.168 75.6748L111.8 76.2268L112.713 79.0358L111.876 79.2044Z" fill="#F0C7B7"/>
<path d="M119.349 73.2116C119.592 73.0389 119.877 72.9341 120.173 72.9078C120.323 72.8935 120.473 72.9018 120.62 72.9324C120.767 72.9625 120.911 73.0111 121.047 73.077L121.051 73.0789C121.066 73.085 121.083 73.085 121.098 73.0791C121.113 73.0732 121.125 73.0618 121.132 73.0472C121.139 73.0325 121.14 73.0158 121.135 73.0005C121.13 72.9851 121.119 72.9723 121.105 72.9646C120.961 72.8885 120.808 72.8308 120.65 72.7931C120.49 72.7542 120.326 72.7396 120.162 72.7497C119.831 72.7681 119.51 72.8751 119.234 73.0597C119.224 73.0665 119.214 73.0754 119.207 73.0859C119.2 73.0963 119.195 73.1081 119.192 73.1206C119.19 73.1331 119.19 73.1459 119.192 73.1584C119.195 73.1708 119.2 73.1827 119.207 73.1932C119.214 73.2037 119.223 73.2126 119.234 73.2195C119.245 73.2264 119.257 73.231 119.269 73.2332C119.282 73.2353 119.294 73.235 119.307 73.2321C119.319 73.2292 119.331 73.2238 119.341 73.2163L119.343 73.2149L119.349 73.2116Z" fill="#0C0C0C"/>
<path d="M116.728 73.5748C116.402 73.5099 116.065 73.5338 115.751 73.644C115.596 73.6975 115.45 73.7741 115.318 73.8713C115.186 73.967 115.067 74.0789 114.963 74.2044C114.953 74.2169 114.947 74.233 114.948 74.2494C114.949 74.2657 114.957 74.281 114.969 74.292C114.981 74.3031 114.997 74.309 115.013 74.3085C115.029 74.308 115.045 74.3013 115.056 74.2896L115.06 74.2861C115.16 74.1729 115.274 74.0728 115.399 73.9883C115.523 73.9036 115.658 73.8382 115.802 73.7942C116.086 73.7049 116.389 73.6925 116.68 73.7585L116.687 73.7601C116.699 73.7634 116.712 73.7641 116.724 73.7624C116.737 73.7606 116.749 73.7564 116.76 73.75C116.77 73.7435 116.78 73.7349 116.787 73.7248C116.795 73.7146 116.8 73.703 116.803 73.6908C116.806 73.6785 116.807 73.6657 116.805 73.6533C116.803 73.6408 116.798 73.6289 116.792 73.6182C116.785 73.6075 116.776 73.5982 116.766 73.5909C116.755 73.5836 116.744 73.5785 116.732 73.5758L116.728 73.5748Z" fill="#0C0C0C"/>
<path d="M111.169 75.6279C113.098 74.9086 113.738 73.5738 113.935 72.5804C114.062 71.918 114.051 71.2362 113.9 70.5786L113.84 70.5951C113.989 71.2441 114 71.9171 113.874 72.5707C113.679 73.5476 113.049 74.8611 111.147 75.5699L111.169 75.6279Z" fill="#0C0C0C"/>
<path d="M135.555 84.7891L136.709 80.8628C136.735 80.7765 136.778 80.6965 136.836 80.6278C136.894 80.5591 136.965 80.5033 137.046 80.4638C137.127 80.4244 137.214 80.4022 137.304 80.3986C137.394 80.3951 137.483 80.4103 137.567 80.4433C137.719 80.509 137.841 80.629 137.91 80.7801C137.979 80.9311 137.99 81.1024 137.94 81.2608L137.692 82.1027L139.683 79.8134C139.9 79.5549 140.331 79.3767 140.604 79.6398C140.716 79.7341 140.792 79.8635 140.821 80.007C140.85 80.1505 140.83 80.2995 140.763 80.4298C140.766 80.4312 140.769 80.433 140.771 80.435C140.773 80.4368 140.775 80.4388 140.776 80.441L141.11 80.0424C141.172 79.9686 141.25 79.9096 141.338 79.8698C141.425 79.8299 141.521 79.8101 141.617 79.8118C141.713 79.8136 141.808 79.8368 141.894 79.8798C141.98 79.9229 142.055 79.9846 142.115 80.0606C142.206 80.182 142.252 80.3311 142.247 80.4829C142.241 80.6347 142.184 80.78 142.084 80.8944L141.942 81.064C141.945 81.0705 141.947 81.0775 141.947 81.0847C142.07 80.9926 142.221 80.9471 142.374 80.9566C142.527 80.966 142.672 81.0297 142.782 81.1362C142.9 81.2562 142.968 81.4163 142.973 81.5844C142.978 81.7526 142.919 81.9164 142.809 82.0432L142.455 82.4643C142.465 82.4618 142.474 82.4616 142.483 82.4636C142.493 82.4656 142.501 82.4698 142.509 82.4759C142.517 82.4836 142.523 82.4936 142.526 82.5046C142.658 82.453 142.803 82.4464 142.94 82.4858C143.076 82.5252 143.196 82.6084 143.28 82.7226C143.366 82.8442 143.409 82.9913 143.402 83.1403C143.394 83.2893 143.337 83.4315 143.239 83.5437L140.256 87.0981C139.839 87.5952 139.283 87.9561 138.659 88.1345C138.036 88.3129 137.374 88.3007 136.758 88.0995C136.226 87.926 135.783 87.5517 135.523 87.0562C135.262 86.5606 135.205 85.9827 135.363 85.4455L135.555 84.7891Z" fill="#E98862"/>
<g opacity="0.2">
<path d="M138.803 82.7067C138.815 82.7164 138.83 82.7211 138.846 82.7198C138.861 82.7185 138.875 82.7114 138.885 82.6999L140.776 80.5203C140.786 80.5083 140.791 80.4927 140.79 80.4769C140.789 80.4611 140.782 80.4464 140.77 80.436C140.758 80.4256 140.742 80.4204 140.726 80.4215C140.711 80.4227 140.696 80.43 140.686 80.442L138.795 82.6213C138.79 82.6273 138.786 82.6341 138.784 82.6416C138.781 82.649 138.78 82.6569 138.781 82.6647C138.781 82.6726 138.784 82.6802 138.787 82.6872C138.791 82.6943 138.795 82.7005 138.801 82.7057L138.803 82.7067Z" fill="#0C0C0C"/>
</g>
<g opacity="0.2">
<path d="M139.739 83.5684C139.751 83.5782 139.766 83.583 139.782 83.5817C139.797 83.5804 139.812 83.5732 139.822 83.5616L141.931 81.1293C141.936 81.1234 141.94 81.1165 141.943 81.1091C141.945 81.1016 141.946 81.0938 141.946 81.0859C141.945 81.0781 141.943 81.0705 141.939 81.0634C141.936 81.0564 141.931 81.0501 141.925 81.045C141.913 81.0352 141.898 81.0303 141.882 81.0314C141.866 81.0325 141.852 81.0395 141.841 81.051L139.733 83.4833C139.728 83.4892 139.724 83.4961 139.722 83.5035C139.719 83.511 139.718 83.5189 139.719 83.5267C139.719 83.5345 139.721 83.5422 139.725 83.5492C139.728 83.5562 139.733 83.5625 139.739 83.5676L139.739 83.5684Z" fill="#0C0C0C"/>
</g>
<g opacity="0.2">
<path d="M140.748 84.5079C140.76 84.5177 140.775 84.5225 140.79 84.5212C140.806 84.5199 140.82 84.5127 140.83 84.5011L142.513 82.561C142.522 82.5489 142.527 82.5337 142.525 82.5185C142.524 82.5032 142.517 82.4891 142.505 82.4791C142.494 82.469 142.479 82.4638 142.463 82.4644C142.448 82.4651 142.434 82.4715 142.423 82.4825L140.74 84.4228C140.735 84.4287 140.731 84.4356 140.729 84.443C140.726 84.4505 140.725 84.4583 140.726 84.4662C140.726 84.474 140.728 84.4816 140.732 84.4887C140.735 84.4957 140.74 84.5019 140.746 84.5071L140.748 84.5079Z" fill="#0C0C0C"/>
</g>
<path d="M142.583 86.503L138.118 106.8C138.108 106.846 138.098 106.893 138.085 106.939C137.082 107.99 135.996 108.958 134.837 109.834C134.604 110.008 134.371 110.179 134.132 110.344C133.984 110.361 133.835 110.369 133.687 110.369C132.891 110.369 132.109 110.159 131.42 109.76C130.731 109.362 130.158 108.788 129.76 108.098L121.252 93.3444L129.108 88.7962L131.771 93.4128L133.722 84.5454L142.583 86.503Z" fill="#0CBC8B"/>
<path d="M128.842 95.7567C128.816 96.0789 128.762 96.6536 128.688 97.4099C128.317 101.276 127.448 109.894 127.046 113.876C121.966 115.503 116.515 115.559 111.403 114.035H111.401C107.625 112.903 104.151 110.937 101.234 108.282C101.251 104.721 101.199 100.716 100.96 98.1415C100.244 90.4476 100.921 89.243 102.032 88.1292C102.123 88.0383 102.218 87.9494 102.313 87.8626C103.461 86.817 104.903 86.135 107.004 85.8496C108.394 85.6618 110.485 85.5254 110.485 85.5254C110.485 85.5254 110.662 89.1168 114.884 89.3152C120.631 89.5861 120.247 85.5254 120.276 85.5254C121.722 85.5254 124.939 85.6163 126.968 86.6516C126.97 86.6516 126.97 86.6516 126.972 86.6537C127.381 86.853 127.752 87.1207 128.071 87.4452C130.395 89.9126 129.249 90.9678 128.842 95.7567Z" fill="#0CBC8B"/>
<path d="M119.824 78.3149C118.994 78.7374 118.048 78.8711 117.134 78.6947C117.103 78.6887 117.07 78.6919 117.04 78.7038C117.01 78.7157 116.984 78.736 116.966 78.7621C116.947 78.7883 116.936 78.8192 116.934 78.8514C116.932 78.8836 116.939 78.9157 116.955 78.944C117.227 79.4248 117.873 80.2471 118.981 79.9121C119.697 79.6958 119.967 78.958 120.068 78.5015C120.075 78.4699 120.072 78.437 120.061 78.4067C120.05 78.3763 120.031 78.3498 120.005 78.3302C119.979 78.3106 119.949 78.2987 119.917 78.296C119.884 78.2933 119.852 78.2999 119.824 78.3149Z" fill="white"/>
<path d="M119.875 74.619C120.097 74.619 120.276 74.4392 120.276 74.2174C120.276 73.9957 120.097 73.8159 119.875 73.8159C119.654 73.8159 119.475 73.9957 119.475 74.2174C119.475 74.4392 119.654 74.619 119.875 74.619Z" fill="#0C0C0C"/>
<path d="M116.025 75.2943C116.246 75.2943 116.425 75.1145 116.425 74.8927C116.425 74.671 116.246 74.4912 116.025 74.4912C115.803 74.4912 115.624 74.671 115.624 74.8927C115.624 75.1145 115.803 75.2943 116.025 75.2943Z" fill="#0C0C0C"/>
<path d="M127.956 104.425C127.954 104.425 127.951 104.425 127.949 104.425C127.932 104.423 127.918 104.414 127.908 104.401C127.898 104.388 127.893 104.371 127.896 104.355L128.604 97.2031C128.605 97.195 128.608 97.1871 128.612 97.18C128.616 97.1728 128.621 97.1666 128.628 97.1617C128.634 97.1567 128.642 97.1532 128.65 97.1512C128.658 97.1492 128.666 97.1489 128.674 97.1502C128.69 97.1525 128.705 97.1611 128.715 97.1742C128.725 97.1873 128.729 97.2038 128.727 97.22L128.018 104.372C128.016 104.387 128.009 104.4 127.997 104.41C127.986 104.42 127.971 104.425 127.956 104.425Z" fill="#0C0C0C"/>
<path d="M123.669 104.08L127.54 102.348C127.625 102.31 127.717 102.29 127.81 102.29C127.903 102.289 127.996 102.308 128.081 102.345C128.166 102.383 128.243 102.437 128.306 102.506C128.369 102.574 128.417 102.655 128.448 102.743C128.499 102.908 128.487 103.086 128.414 103.242C128.342 103.398 128.214 103.522 128.056 103.59L127.226 103.961L130.372 103.994C130.722 103.991 131.152 104.213 131.129 104.606C131.13 104.758 131.08 104.906 130.986 105.025C130.893 105.145 130.761 105.229 130.614 105.264C130.615 105.268 130.615 105.271 130.615 105.274C130.615 105.277 130.614 105.279 130.614 105.282L131.153 105.278C131.253 105.278 131.352 105.299 131.442 105.342C131.533 105.384 131.612 105.446 131.676 105.523C131.739 105.6 131.785 105.691 131.809 105.788C131.833 105.885 131.836 105.986 131.816 106.084C131.781 106.238 131.695 106.375 131.572 106.473C131.448 106.571 131.295 106.623 131.138 106.622L130.908 106.623C130.905 106.63 130.901 106.636 130.896 106.641C131.051 106.676 131.189 106.765 131.285 106.893C131.381 107.02 131.428 107.178 131.419 107.337C131.403 107.511 131.323 107.673 131.194 107.79C131.064 107.907 130.896 107.971 130.722 107.969L130.152 107.973C130.16 107.979 130.166 107.986 130.171 107.995C130.176 108.004 130.178 108.014 130.178 108.023C130.178 108.035 130.174 108.046 130.167 108.056C130.297 108.126 130.4 108.236 130.461 108.371C130.522 108.505 130.538 108.656 130.505 108.8C130.467 108.95 130.38 109.084 130.258 109.178C130.136 109.273 129.985 109.323 129.83 109.321L125.019 109.356C124.346 109.36 123.687 109.164 123.126 108.791C122.566 108.418 122.129 107.885 121.872 107.262C121.65 106.724 121.647 106.121 121.862 105.581C122.077 105.041 122.494 104.606 123.024 104.369L123.669 104.08Z" fill="#E98862"/>
<g opacity="0.2">
<path d="M127.5 105.247C127.5 105.263 127.506 105.279 127.518 105.291C127.529 105.302 127.545 105.309 127.562 105.309L130.553 105.336C130.57 105.336 130.586 105.329 130.597 105.318C130.609 105.307 130.616 105.291 130.616 105.275C130.616 105.258 130.61 105.243 130.598 105.231C130.587 105.219 130.571 105.213 130.554 105.212L127.562 105.186C127.546 105.186 127.53 105.192 127.518 105.204C127.507 105.215 127.5 105.231 127.5 105.247H127.5Z" fill="#0C0C0C"/>
</g>
<g opacity="0.2">
<path d="M127.451 106.57C127.451 106.586 127.458 106.602 127.47 106.613C127.481 106.625 127.497 106.632 127.513 106.632L130.852 106.661C130.868 106.661 130.884 106.655 130.896 106.643C130.907 106.632 130.914 106.616 130.914 106.6C130.913 106.584 130.907 106.568 130.895 106.557C130.884 106.545 130.868 106.539 130.852 106.538L127.513 106.508C127.497 106.508 127.481 106.515 127.469 106.526C127.458 106.538 127.451 106.554 127.451 106.57H127.451Z" fill="#0C0C0C"/>
</g>
<g opacity="0.2">
<path d="M127.391 108C127.391 108.017 127.397 108.032 127.409 108.044C127.421 108.055 127.436 108.062 127.453 108.062L130.116 108.086C130.132 108.086 130.148 108.08 130.16 108.068C130.171 108.056 130.178 108.041 130.178 108.024C130.178 108.008 130.171 107.992 130.16 107.981C130.148 107.969 130.132 107.963 130.116 107.963L127.453 107.939C127.436 107.939 127.421 107.945 127.409 107.957C127.397 107.969 127.391 107.984 127.391 108.001V108Z" fill="#0C0C0C"/>
</g>
<path d="M124.778 110.989L111.403 114.035H111.401C107.625 112.903 104.151 110.937 101.234 108.282C100.921 107.997 100.614 107.705 100.314 107.406C99.7919 106.883 99.2922 106.34 98.8151 105.775L100.688 90.6816C100.892 89.4649 101.57 88.3793 102.573 87.6637C103.576 86.9481 104.822 86.6611 106.036 86.8658C107.25 87.0705 108.333 87.7501 109.047 88.7552C109.761 89.7603 110.048 91.0085 109.844 92.2253L108.66 106.397L123.574 103.014L124.778 110.989Z" fill="#0CBC8B"/>
<path d="M105.643 106.954C105.635 106.954 105.627 106.953 105.619 106.951C105.611 106.948 105.604 106.944 105.598 106.939C105.592 106.934 105.587 106.927 105.583 106.92C105.58 106.913 105.577 106.905 105.577 106.896C105.576 106.888 105.577 106.88 105.58 106.872C105.582 106.865 105.586 106.857 105.592 106.851C105.597 106.845 105.603 106.84 105.611 106.836C105.618 106.833 105.626 106.83 105.634 106.83L108.624 106.189C108.632 106.188 108.64 106.188 108.648 106.19C108.656 106.192 108.664 106.196 108.67 106.201C108.677 106.205 108.682 106.211 108.686 106.218C108.691 106.225 108.693 106.233 108.695 106.241C108.696 106.249 108.695 106.258 108.693 106.265C108.691 106.273 108.688 106.281 108.683 106.287C108.678 106.294 108.672 106.299 108.665 106.304C108.658 106.308 108.65 106.311 108.642 106.312L105.651 106.952C105.649 106.953 105.646 106.954 105.643 106.954Z" fill="#0C0C0C"/>
<path d="M124.778 110.989C124.781 111.005 124.778 111.021 124.77 111.035C124.762 111.049 124.748 111.059 124.733 111.063L111.739 114.132C111.656 114.109 111.576 114.087 111.495 114.062L124.642 110.96L123.471 103.107L108.646 106.312C108.636 106.314 108.626 106.313 108.617 106.31C108.608 106.308 108.599 106.303 108.592 106.296C108.586 106.289 108.581 106.28 108.578 106.271C108.575 106.262 108.574 106.252 108.575 106.242L109.406 98.1436C109.408 98.1356 109.411 98.1279 109.415 98.1211C109.42 98.1142 109.426 98.1083 109.432 98.1037C109.439 98.0991 109.447 98.0958 109.454 98.0941C109.462 98.0924 109.471 98.0923 109.479 98.0938C109.495 98.0964 109.509 98.1052 109.519 98.1184C109.529 98.1316 109.533 98.1481 109.53 98.1643L108.712 106.18L123.497 102.969C123.505 102.967 123.514 102.966 123.522 102.968C123.53 102.969 123.538 102.972 123.545 102.977C123.552 102.981 123.558 102.986 123.563 102.993C123.568 102.999 123.572 103.006 123.574 103.014L124.778 110.989Z" fill="#0C0C0C"/>
<path d="M24.2252 145.643C37.6044 145.643 48.4504 134.774 48.4504 121.367C48.4504 107.96 37.6044 97.0908 24.2252 97.0908C10.846 97.0908 0 107.96 0 121.367C0 134.774 10.846 145.643 24.2252 145.643Z" fill="white"/>
<path opacity="0.09" d="M24.2252 145.643C37.6044 145.643 48.4504 134.774 48.4504 121.367C48.4504 107.96 37.6044 97.0908 24.2252 97.0908C10.846 97.0908 0 107.96 0 121.367C0 134.774 10.846 145.643 24.2252 145.643Z" fill="#367CFF"/>
<path d="M17.5538 107.597C17.5538 107.597 17.8163 114.909 22.6862 115.245L23.511 105.604L17.5538 107.597Z" fill="#0A0A0A"/>
<path d="M18.4917 116.739C20.0851 116.739 21.3767 115.444 21.3767 113.848C21.3767 112.251 20.0851 110.957 18.4917 110.957C16.8984 110.957 15.6068 112.251 15.6068 113.848C15.6068 115.444 16.8984 116.739 18.4917 116.739Z" fill="#0A0A0A"/>
<path d="M29.7799 118.639C29.7541 118.635 29.4691 123.376 23.973 122.963C20.1681 122.678 18.8116 118.632 18.7245 118.632C19.1593 118.56 19.5883 118.456 20.0078 118.321C20.6069 117.998 21.3483 117.662 21.5413 116.497C21.6526 115.824 21.4639 112.386 21.5219 111.707L27.3624 113.013C27.2799 114.449 26.7095 117.778 28.7115 118.367C29.0443 118.464 29.4031 118.554 29.7799 118.639Z" fill="#695046"/>
<path opacity="0.5" d="M27.4441 117.006C27.3525 116.71 27.2936 116.405 27.2684 116.097C27.2042 115.393 27.217 114.685 27.3065 113.984C26.1195 113.824 25.0011 113.333 24.0786 112.567C23.9701 112.968 23.3737 114.722 23.5389 115.103C23.8511 115.826 25.318 117.006 27.4441 117.006Z" fill="#0C0C0C"/>
<path d="M26.5291 115.729C24.2159 115.758 21.3241 114.588 20.9657 111.475L20.6424 108.664C20.2838 105.55 21.6252 102.837 24.551 102.499C27.4766 102.161 29.9539 104.432 30.3125 107.546L30.4557 108.79C30.5932 109.986 30.6563 115.676 26.5291 115.729Z" fill="#695046"/>
<path d="M29.6172 108.707C29.8175 108.707 29.9799 108.544 29.9799 108.343C29.9799 108.143 29.8175 107.98 29.6172 107.98C29.4169 107.98 29.2545 108.143 29.2545 108.343C29.2545 108.544 29.4169 108.707 29.6172 108.707Z" fill="#0C0C0C"/>
<path d="M25.9096 109.132C26.1099 109.132 26.2723 108.969 26.2723 108.768C26.2723 108.568 26.1099 108.405 25.9096 108.405C25.7093 108.405 25.5469 108.568 25.5469 108.768C25.5469 108.969 25.7093 109.132 25.9096 109.132Z" fill="#0C0C0C"/>
<path opacity="0.5" d="M27.7495 111.536H27.7552C27.8738 111.521 27.9914 111.5 28.1077 111.473C28.2813 111.43 28.5102 111.356 28.4923 111.2C28.4716 111.023 27.7666 109.164 27.6862 108.953C27.6827 108.944 27.6774 108.936 27.6707 108.929C27.664 108.921 27.656 108.916 27.6471 108.912C27.6382 108.908 27.6286 108.906 27.6188 108.905C27.6091 108.905 27.5994 108.907 27.5903 108.91C27.5811 108.914 27.5728 108.919 27.5657 108.926C27.5586 108.932 27.5529 108.94 27.549 108.949C27.545 108.958 27.5428 108.968 27.5425 108.978C27.5422 108.987 27.5439 108.997 27.5474 109.006C27.8482 109.798 28.331 111.098 28.3446 111.217C28.159 111.322 27.951 111.381 27.7381 111.388C27.7185 111.39 27.7003 111.399 27.6874 111.414C27.6746 111.429 27.6683 111.448 27.6698 111.468C27.6713 111.488 27.6805 111.506 27.6955 111.519C27.7104 111.532 27.7298 111.538 27.7495 111.536V111.536Z" fill="#0C0C0C"/>
<path opacity="0.5" d="M27.2265 112.832C27.7017 112.805 28.1638 112.666 28.5758 112.427C28.592 112.417 28.6037 112.401 28.6085 112.382C28.6134 112.364 28.6109 112.344 28.6017 112.328C28.5924 112.311 28.5771 112.298 28.5589 112.293C28.5407 112.287 28.521 112.288 28.5038 112.297C27.6142 112.79 26.7633 112.818 26.0436 112.379C26.0291 112.37 26.0141 112.361 25.9987 112.354C25.9808 112.347 25.961 112.347 25.9433 112.354C25.9256 112.362 25.9114 112.375 25.9036 112.393C25.8959 112.41 25.8951 112.43 25.9016 112.448C25.908 112.466 25.9211 112.481 25.9382 112.49C25.9438 112.493 25.9533 112.499 25.9663 112.507C26.3447 112.738 26.7835 112.852 27.2265 112.832Z" fill="#0C0C0C"/>
<path d="M18.2637 109.463L20.8853 109.175C22.9019 108.523 23.7398 105.166 23.7398 105.166C23.7398 105.166 25.5469 107.226 30.9019 106.285C30.9019 106.285 30.6945 99.3671 22.5501 100.341C19.7144 100.681 17.5761 103.53 17.5541 107.256C17.5388 109.867 18.2637 109.463 18.2637 109.463Z" fill="#0A0A0A"/>
<path d="M21.2567 112.402C20.3675 112.506 19.5371 111.635 19.4346 110.744C19.3321 109.853 19.9961 109.278 20.8853 109.176L21.4122 109.72L22.0212 112.314L21.2567 112.402Z" fill="#695046"/>
<path d="M28.3343 107.436C28.5966 107.291 28.893 107.219 29.1926 107.227C29.3405 107.231 29.4871 107.256 29.6275 107.303C29.7669 107.349 29.9 107.412 30.0236 107.492C30.036 107.5 30.0449 107.512 30.0484 107.526C30.0519 107.541 30.0497 107.556 30.0424 107.568C30.0351 107.581 30.0232 107.59 30.0091 107.595C29.9951 107.599 29.9799 107.597 29.9669 107.591L29.9632 107.588C29.8461 107.519 29.7207 107.464 29.59 107.426C29.4605 107.387 29.3259 107.368 29.1907 107.37C28.9218 107.371 28.6581 107.444 28.4263 107.58L28.4207 107.584C28.4111 107.59 28.4004 107.595 28.3891 107.597C28.3778 107.599 28.3663 107.598 28.3551 107.596C28.3439 107.593 28.3333 107.589 28.324 107.582C28.3147 107.575 28.3068 107.567 28.3009 107.557C28.2949 107.547 28.291 107.536 28.2893 107.525C28.2877 107.513 28.2883 107.502 28.2912 107.491C28.2941 107.48 28.2993 107.469 28.3063 107.46C28.3133 107.451 28.322 107.443 28.332 107.438L28.3343 107.436Z" fill="#0C0C0C"/>
<path d="M25.9847 107.87C25.7283 107.788 25.455 107.777 25.1926 107.836C25.0604 107.865 24.9334 107.913 24.8158 107.98C24.697 108.047 24.587 108.128 24.4883 108.222L24.4852 108.225C24.474 108.234 24.4602 108.237 24.4463 108.236C24.4324 108.235 24.4194 108.229 24.4099 108.218C24.4003 108.208 24.3948 108.195 24.3945 108.181C24.3941 108.167 24.3989 108.153 24.4079 108.143C24.5107 108.038 24.6263 107.946 24.7519 107.87C24.8783 107.793 25.0155 107.735 25.159 107.699C25.4491 107.623 25.7541 107.627 26.0422 107.71C26.0533 107.713 26.0638 107.718 26.0729 107.725C26.082 107.732 26.0897 107.741 26.0953 107.751C26.101 107.761 26.1046 107.772 26.1059 107.784C26.1072 107.795 26.1061 107.807 26.1029 107.818C26.0996 107.829 26.0941 107.839 26.0868 107.848C26.0795 107.857 26.0704 107.864 26.0602 107.869C26.05 107.875 26.0388 107.878 26.0274 107.879C26.0159 107.879 26.0044 107.878 25.9935 107.874H25.9913L25.9847 107.87Z" fill="#0C0C0C"/>
<path opacity="0.52" d="M27.2762 113.536C27.3622 113.532 27.4477 113.522 27.5319 113.503C27.5506 113.499 27.5668 113.487 27.577 113.471C27.5873 113.454 27.5908 113.435 27.5868 113.416C27.5828 113.397 27.5717 113.38 27.5557 113.369C27.5397 113.358 27.5202 113.354 27.5012 113.358C27.3697 113.396 27.2316 113.406 27.0961 113.387C26.9605 113.368 26.8306 113.319 26.7151 113.246C26.6998 113.233 26.6802 113.227 26.6606 113.229C26.641 113.231 26.623 113.241 26.6105 113.256C26.598 113.272 26.5922 113.291 26.5941 113.311C26.5961 113.331 26.6058 113.349 26.621 113.361C26.8127 113.494 27.0442 113.555 27.2762 113.536Z" fill="#0C0C0C"/>
<path opacity="0.1" d="M25.4072 111.594C25.7886 111.58 26.0898 111.342 26.0801 111.062C26.0703 110.781 25.7531 110.565 25.3717 110.578C24.9903 110.592 24.689 110.83 24.6988 111.11C24.7086 111.391 25.0258 111.607 25.4072 111.594Z" fill="#0C0C0C"/>
<path opacity="0.1" d="M29.4891 110.819C29.4999 111.099 29.8168 111.315 30.1983 111.303C30.2643 111.3 30.3298 111.291 30.3938 111.275C30.439 110.946 30.4666 110.628 30.4817 110.333C30.379 110.298 30.2706 110.283 30.1622 110.287C29.7816 110.3 29.4805 110.538 29.4891 110.819Z" fill="#0C0C0C"/>
<path d="M37.9884 123.632C37.9719 125.288 37.4048 127.261 37.2027 129.646C37.1491 130.282 35.7858 132.124 35.5878 134.172C35.3383 136.779 35.8932 140.846 35.9674 142.605C32.1355 144.73 27.8009 145.775 23.4239 145.629C19.0468 145.484 14.7909 144.153 11.1079 141.778C11.0089 137.261 10.8914 131.683 10.7409 130.346C10.2521 125.932 10.3841 123.14 11.0894 121.834C12.2421 119.702 14.294 119.051 16.4407 118.757C17.7523 118.58 19.7216 118.454 19.7216 118.454C19.7216 118.454 19.8887 121.837 23.8687 122.025C29.286 122.281 28.9251 118.454 28.9519 118.454C30.9172 118.454 34.6415 118.925 36.0685 119.9C37.5821 120.931 38.0069 122.155 37.9884 123.632Z" fill="#FFC239"/>
<path d="M19.272 126.207L11.9224 142.28C9.10055 140.61 6.64532 138.385 4.70483 135.739L10.8357 122.332L19.272 126.207Z" fill="#FFC239"/>
<path d="M43.9254 135.496C42.4856 137.509 40.7478 139.29 38.772 140.778C38.1217 141.27 37.4465 141.728 36.749 142.15L29.2056 125.531L37.6522 121.679L43.9254 135.496Z" fill="#FFC239"/>
<path d="M74.6417 50.5506C88.5716 50.5506 99.864 39.2345 99.864 25.2753C99.864 11.3161 88.5716 0 74.6417 0C60.7118 0 49.4194 11.3161 49.4194 25.2753C49.4194 39.2345 60.7118 50.5506 74.6417 50.5506Z" fill="white"/>
<path opacity="0.09" d="M74.6417 50.5506C88.5716 50.5506 99.864 39.2345 99.864 25.2753C99.864 11.3161 88.5716 0 74.6417 0C60.7118 0 49.4194 11.3161 49.4194 25.2753C49.4194 39.2345 60.7118 50.5506 74.6417 50.5506Z" fill="#367CFF"/>
<path d="M79.5187 10.14C79.5187 10.14 81.1159 8.40537 80.9924 5.10143C80.8969 2.54329 78.8933 4.57529 78.8933 4.57529C78.8933 4.57529 78.8065 2.73403 77.5322 3.1494C76.258 3.56477 75.8662 5.58664 75.8662 5.58664" fill="#0C0C0C"/>
<path d="M70.8127 4.58545C70.8127 4.58545 64.4519 6.45874 68.3878 14.8418L68.9687 14.776L70.1478 14.643" fill="#0C0C0C"/>
<path d="M79.8269 23.5375C79.798 23.5338 79.4763 28.8815 73.2768 28.4145C68.985 28.0923 67.4546 23.5293 67.3563 23.5293C67.819 23.4307 68.3909 23.2813 68.6181 23.2298C69.1134 23.1146 69.562 22.851 69.9042 22.4741C70.2464 22.0971 70.466 21.6247 70.5337 21.1197C70.6592 20.3617 70.4462 16.4837 70.5118 15.7168L77.0996 17.1902C77.0077 18.8102 76.3634 22.5652 78.6215 23.2298C78.9974 23.34 79.4023 23.4412 79.8269 23.5375Z" fill="#E98862"/>
<path opacity="0.52" d="M77.1922 21.6953C77.0891 21.362 77.0227 21.0185 76.994 20.6707C76.9217 19.8772 76.9361 19.078 77.0371 18.2876C75.6981 18.1065 74.4367 17.5526 73.3961 16.689C73.2737 17.1417 72.601 19.12 72.7872 19.5503C73.1394 20.3636 74.7939 21.6953 77.1922 21.6953Z" fill="#0C0C0C"/>
<path d="M76.1168 19.9927C73.5185 20.2269 70.1643 19.1628 69.4919 15.6919L68.885 12.5601C68.2125 9.08838 69.4865 5.92145 72.7476 5.28703C76.0088 4.6524 78.9915 6.9919 79.6642 10.4628L79.9323 11.8492C80.0164 12.3269 80.0678 12.8097 80.0861 13.2944C80.1442 14.5756 80.2278 16.5229 79.6132 17.9624C79.0334 19.3218 77.7773 19.8433 76.1168 19.9927Z" fill="#E98862"/>
<path opacity="0.5" d="M76.5096 16.5614C76.9855 16.5524 77.4526 16.4315 77.8733 16.2085C77.8825 16.2043 77.8907 16.1983 77.8975 16.1909C77.9043 16.1835 77.9095 16.1748 77.9128 16.1653C77.9162 16.1558 77.9175 16.1458 77.9169 16.1357C77.9163 16.1257 77.9136 16.1159 77.9091 16.1069C77.9046 16.0979 77.8983 16.0899 77.8906 16.0835C77.8829 16.077 77.874 16.0721 77.8644 16.0692C77.8548 16.0662 77.8447 16.0653 77.8347 16.0663C77.8247 16.0674 77.8151 16.0705 77.8063 16.0754C76.899 16.5343 76.0475 16.53 75.3449 16.0642C75.3307 16.0544 75.3161 16.0453 75.301 16.0369C75.2922 16.0326 75.2827 16.0301 75.2729 16.0295C75.2632 16.0288 75.2534 16.0301 75.2442 16.0333C75.235 16.0364 75.2264 16.0414 75.2191 16.0478C75.2118 16.0543 75.2058 16.0622 75.2015 16.0709C75.1972 16.0797 75.1946 16.0893 75.194 16.099C75.1934 16.1088 75.1947 16.1186 75.1978 16.1278C75.201 16.1371 75.2059 16.1456 75.2124 16.153C75.2188 16.1603 75.2266 16.1663 75.2354 16.1706C75.241 16.1737 75.25 16.1799 75.2628 16.1884C75.6321 16.4343 76.0662 16.5642 76.5096 16.5614Z" fill="#0C0C0C"/>
<path opacity="0.52" d="M76.5325 17.2673C76.6186 17.267 76.7045 17.2594 76.7893 17.2445C76.7989 17.2429 76.8081 17.2394 76.8163 17.2342C76.8246 17.229 76.8317 17.2222 76.8374 17.2142C76.843 17.2062 76.847 17.1972 76.8492 17.1877C76.8514 17.1782 76.8516 17.1683 76.85 17.1587C76.8483 17.149 76.8448 17.1398 76.8396 17.1316C76.8344 17.1233 76.8277 17.1161 76.8197 17.1105C76.8118 17.1048 76.8028 17.1008 76.7933 17.0986C76.7838 17.0964 76.7739 17.0962 76.7643 17.0978C76.6315 17.1312 76.4931 17.1358 76.3584 17.1113C76.2236 17.0869 76.0957 17.0339 75.9829 16.9561C75.9681 16.9435 75.9489 16.9373 75.9296 16.9387C75.9102 16.9401 75.8922 16.9491 75.8793 16.9637C75.8665 16.9783 75.8599 16.9973 75.8609 17.0168C75.8619 17.0362 75.8705 17.0545 75.8848 17.0676C76.0711 17.2073 76.3001 17.2778 76.5325 17.2673Z" fill="#0C0C0C"/>
<path d="M78.8836 12.7238C79.1096 12.7238 79.2928 12.5402 79.2928 12.3138C79.2928 12.0874 79.1096 11.9038 78.8836 11.9038C78.6577 11.9038 78.4745 12.0874 78.4745 12.3138C78.4745 12.5402 78.6577 12.7238 78.8836 12.7238Z" fill="#0C0C0C"/>
<path d="M74.9053 13.1896C75.1313 13.1896 75.3144 13.0061 75.3144 12.7796C75.3144 12.5532 75.1313 12.3696 74.9053 12.3696C74.6793 12.3696 74.4962 12.5532 74.4962 12.7796C74.4962 13.0061 74.6793 13.1896 74.9053 13.1896Z" fill="#0C0C0C"/>
<path d="M69.8993 16.7101C68.9083 16.9029 67.899 15.9968 67.7064 15.0036C67.5138 14.0104 68.2115 13.3066 69.2023 13.1138L69.8416 13.6798L70.751 16.5444L69.8993 16.7101Z" fill="#E98862"/>
<path d="M70.5986 14.9313C70.5986 14.9313 70.0449 9.94789 71.4796 9.37381C72.435 8.9913 75.0954 9.96504 77.2469 9.13513C78.188 8.77184 79.1573 8.84582 79.3346 9.29033C79.4049 9.46619 79.5381 6.73033 77.6515 5.0145C76.1494 3.64854 72.091 3.92194 70.3753 4.77045C65.6246 7.11987 69.0367 13.3671 69.0367 13.3671L69.5667 15.0237L70.5986 14.9313Z" fill="#0C0C0C"/>
<g opacity="0.52">
<path d="M77.1196 15.3273H77.126C77.4457 15.2653 77.9748 15.1275 77.9303 14.888C77.8921 14.6894 76.9404 12.651 76.8324 12.4193C76.8278 12.4095 76.8213 12.4006 76.8132 12.3933C76.8052 12.3859 76.7958 12.3802 76.7856 12.3765C76.7753 12.3728 76.7645 12.3712 76.7536 12.3717C76.7428 12.3722 76.7321 12.3748 76.7223 12.3794C76.7124 12.3841 76.7036 12.3906 76.6963 12.3986C76.6889 12.4067 76.6832 12.4161 76.6795 12.4263C76.6759 12.4366 76.6742 12.4475 76.6747 12.4584C76.6752 12.4692 76.6778 12.4799 76.6825 12.4898C77.1044 13.3924 77.7416 14.7836 77.7676 14.919C77.747 14.981 77.4269 15.1006 77.0961 15.1641C77.0743 15.1673 77.0546 15.1792 77.0414 15.197C77.0282 15.2148 77.0227 15.2371 77.0259 15.259C77.0292 15.2809 77.041 15.3007 77.0587 15.3139C77.0765 15.3271 77.0988 15.3326 77.1207 15.3294L77.1196 15.3273Z" fill="#0C0C0C"/>
</g>
<path d="M77.3456 10.3326C77.6654 10.179 78.0206 10.1147 78.3738 10.1466C78.5471 10.1613 78.7172 10.2018 78.8785 10.2669C79.0377 10.3304 79.1883 10.4137 79.3268 10.5149C79.3525 10.5327 79.3703 10.5598 79.3764 10.5905C79.3826 10.6212 79.3766 10.6531 79.3598 10.6795C79.3429 10.7058 79.3166 10.7246 79.2862 10.7319C79.2558 10.7392 79.2238 10.7344 79.1969 10.7184L79.1876 10.7151C79.062 10.6348 78.9269 10.5706 78.7854 10.524C78.6463 10.4774 78.5009 10.4523 78.3543 10.4494C78.0651 10.4413 77.779 10.51 77.5248 10.6484L77.5143 10.6544C77.4936 10.6662 77.4709 10.6739 77.4472 10.6769C77.4236 10.6799 77.3996 10.6782 77.3767 10.6719C77.3537 10.6656 77.3322 10.6548 77.3134 10.6402C77.2945 10.6256 77.2788 10.6074 77.267 10.5867C77.2552 10.566 77.2475 10.5431 77.2445 10.5195C77.2415 10.4958 77.2432 10.4718 77.2495 10.4488C77.2558 10.4257 77.2665 10.4042 77.2811 10.3853C77.2957 10.3665 77.3138 10.3507 77.3345 10.3388L77.3456 10.3326Z" fill="#0C0C0C"/>
<path d="M74.9999 10.9681C74.7214 10.89 74.4273 10.8869 74.1472 10.9592C74.0049 10.9947 73.8687 11.0516 73.7434 11.128C73.6155 11.205 73.4978 11.2977 73.3929 11.4039L73.3863 11.4105C73.3637 11.4325 73.3334 11.4447 73.302 11.4446C73.2705 11.4445 73.2403 11.4321 73.2179 11.41C73.1954 11.3879 73.1824 11.3579 73.1817 11.3264C73.181 11.2949 73.1926 11.2644 73.2141 11.2413C73.3264 11.1115 73.4546 10.9964 73.5958 10.8989C73.7386 10.7994 73.8955 10.7219 74.0612 10.6689C74.2269 10.6141 74.3992 10.5824 74.5734 10.5746C74.7519 10.5648 74.9308 10.5804 75.1049 10.6209C75.1517 10.6319 75.1922 10.661 75.2176 10.702C75.243 10.7429 75.2511 10.7922 75.2402 10.8392C75.2292 10.8861 75.2001 10.9267 75.1593 10.9521C75.1184 10.9776 75.0692 10.9857 75.0224 10.9747L75.0117 10.9718L74.9999 10.9681Z" fill="#0C0C0C"/>
<path d="M76.2547 7.03099C76.9621 6.74369 77.1935 5.6649 76.7715 4.62144C76.3495 3.57798 75.4339 2.96498 74.7265 3.25227C74.0191 3.53956 73.7877 4.61835 74.2097 5.66182C74.6317 6.70528 75.5473 7.31828 76.2547 7.03099Z" fill="#0C0C0C"/>
<path d="M88.3952 29.0637C88.4199 30.7769 87.7518 32.7029 87.5291 35.3108C87.4837 35.8398 87.3765 37.0054 87.2342 38.5242C87.0012 41.0392 86.6712 44.5171 86.3825 47.652C82.2538 49.8236 77.6058 50.8075 72.9534 50.4945C68.301 50.1816 63.8258 48.584 60.0238 45.879C59.933 45.8108 59.8423 45.7446 59.7516 45.6806C59.5103 42.1365 59.2257 38.4168 58.9659 36.0672C58.4771 31.68 57.8111 29.4956 58.1843 28.0202C58.2142 27.8945 58.2542 27.7715 58.3039 27.6523C59.3783 25.0402 62.7995 23.8747 65.1174 23.5606C66.532 23.3684 68.6602 23.23 68.6602 23.23C68.6602 23.23 68.8396 26.8836 73.1351 27.0861C78.9834 27.363 78.5937 23.23 78.6225 23.23C79.5691 23.23 84.7266 23.9202 86.0154 24.7633C86.2315 24.9039 86.4382 25.0585 86.6341 25.2262C87.1941 25.6943 87.6428 26.2816 87.9474 26.9455C88.2521 27.6094 88.4051 28.3331 88.3952 29.0637Z" fill="#383838"/>
<path d="M66.8619 31.7127L60.0238 45.8787C59.933 45.8105 59.8423 45.7443 59.7515 45.6803C57.1007 43.7325 54.8525 41.2873 53.132 38.4806L58.1843 28.0199L58.3843 27.6045L66.8619 31.7127Z" fill="#383838"/>
<path d="M66.202 33.3434L59.9825 45.8479C59.9413 45.8169 59.9021 45.788 59.8608 45.7611L66.0721 33.2793C66.081 33.262 66.0964 33.2488 66.1149 33.2426C66.1334 33.2364 66.1536 33.2377 66.1711 33.2463C66.188 33.2551 66.2008 33.2702 66.2066 33.2884C66.2124 33.3066 66.2108 33.3264 66.202 33.3434Z" fill="white"/>
<path d="M97.7368 35.451C96.4972 38.2663 94.7565 40.832 92.5999 43.0227L87.2341 38.5239L80.4186 32.8079L86.634 25.2259L86.6526 25.2031L97.7368 35.451Z" fill="#383838"/>
<path d="M87.3168 38.5791C87.3344 38.5782 87.351 38.571 87.3636 38.5588C87.3762 38.5466 87.384 38.5302 87.3855 38.5127L87.7396 34.3529C87.7412 34.3336 87.7352 34.3146 87.7229 34.2998C87.7105 34.285 87.6928 34.2758 87.6736 34.2741C87.6545 34.2727 87.6356 34.2789 87.621 34.2912C87.6064 34.3036 87.5971 34.3212 87.5952 34.3402L87.2412 38.5003C87.2396 38.5195 87.2456 38.5385 87.258 38.5533C87.2703 38.568 87.288 38.5772 87.3071 38.5789L87.3168 38.5791Z" fill="white"/>
<path d="M193.407 160C206.693 160 217.464 149.207 217.464 135.893C217.464 122.579 206.693 111.786 193.407 111.786C180.121 111.786 169.35 122.579 169.35 135.893C169.35 149.207 180.121 160 193.407 160Z" fill="white"/>
<path opacity="0.09" d="M169.35 135.892C169.35 140.66 170.761 145.321 173.404 149.285C176.047 153.25 179.804 156.339 184.2 158.164C188.596 159.989 193.433 160.466 198.099 159.536C202.766 158.606 207.052 156.31 210.416 152.938C213.781 149.567 216.072 145.272 217 140.595C217.928 135.919 217.452 131.072 215.631 126.667C213.81 122.262 210.727 118.497 206.771 115.848C202.815 113.199 198.164 111.785 193.406 111.785C190.244 111.774 187.11 112.389 184.186 113.597C181.263 114.804 178.606 116.579 176.37 118.82C174.134 121.061 172.362 123.723 171.157 126.653C169.952 129.583 169.338 132.723 169.35 135.892Z" fill="#367CFF"/>
<path d="M204.323 122.589C203.939 127.053 204.295 128.567 206.144 131.124C207.704 133.28 198.828 131.447 194.901 130.746L198.366 120.596C198.366 120.596 204.458 121.022 204.323 122.589Z" fill="#0A0A0A"/>
<path d="M190.773 120.732C189.614 125.059 189.745 126.398 187.477 128.67C185.598 130.554 192.922 130.937 196.852 131.621L197.051 120.896C197.051 120.896 191.18 119.213 190.773 120.732Z" fill="#0A0A0A"/>
<path d="M191.164 133.318C191.189 133.314 191.477 138.1 197.025 137.682C200.865 137.394 202.234 133.311 202.323 133.311C201.884 133.238 201.451 133.133 201.027 132.996C200.423 132.671 199.674 132.332 199.479 131.155C199.367 130.477 199.558 127.006 199.499 126.319L193.604 127.638C193.686 129.087 194.264 132.448 192.243 133.042C191.906 133.141 191.544 133.232 191.164 133.318Z" fill="#FFE5D3"/>
<path opacity="0.5" d="M193.521 131.67C193.614 131.372 193.673 131.064 193.699 130.753C193.763 130.043 193.751 129.328 193.66 128.62C194.858 128.458 195.987 127.963 196.918 127.19C197.028 127.595 197.63 129.365 197.463 129.75C197.148 130.478 195.667 131.67 193.521 131.67Z" fill="#0C0C0C"/>
<path d="M194.284 130.179C196.608 130.404 199.615 129.472 200.238 126.371L200.8 123.572C201.423 120.471 200.302 117.628 197.388 117.041C194.474 116.453 191.791 118.528 191.168 121.629L190.919 122.869C190.68 124.059 190.137 129.777 194.284 130.179Z" fill="#FFE5D3"/>
<path d="M203.613 124.456L200.991 124.168C195.861 123.223 194.605 119.075 194.605 119.075C194.605 119.075 192.453 121.953 190.626 121.292C190.626 121.292 191.215 114.351 199.326 115.571C202.513 116.05 204.322 118.697 204.322 122.248C204.322 124.859 203.613 124.456 203.613 124.456Z" fill="#0A0A0A"/>
<path opacity="0.1" d="M196.513 125.687C196.546 125.406 196.263 125.141 195.881 125.095C195.498 125.05 195.161 125.241 195.128 125.522C195.094 125.803 195.377 126.068 195.76 126.114C196.142 126.159 196.479 125.968 196.513 125.687Z" fill="#0C0C0C"/>
<path opacity="0.1" d="M191.721 124.99C191.686 125.271 191.349 125.462 190.967 125.416C190.9 125.408 190.835 125.394 190.772 125.372C190.755 125.037 190.754 124.715 190.763 124.417C190.869 124.391 190.98 124.384 191.088 124.398C191.47 124.444 191.753 124.708 191.721 124.99Z" fill="#0C0C0C"/>
<path opacity="0.5" d="M193.41 125.858H193.404C193.286 125.833 193.169 125.802 193.055 125.765C192.884 125.707 192.66 125.613 192.691 125.458C192.726 125.281 193.592 123.472 193.691 123.266C193.695 123.257 193.701 123.249 193.708 123.242C193.716 123.235 193.724 123.23 193.734 123.226C193.743 123.223 193.753 123.221 193.763 123.222C193.773 123.222 193.783 123.225 193.792 123.229C193.801 123.233 193.809 123.24 193.816 123.247C193.822 123.255 193.827 123.263 193.831 123.273C193.834 123.283 193.835 123.293 193.834 123.303C193.834 123.313 193.831 123.322 193.826 123.331C193.457 124.102 192.862 125.369 192.838 125.488C193.016 125.609 193.22 125.685 193.433 125.711C193.452 125.715 193.469 125.726 193.48 125.742C193.491 125.758 193.495 125.777 193.492 125.796C193.489 125.815 193.479 125.833 193.463 125.844C193.448 125.856 193.429 125.861 193.41 125.859V125.858Z" fill="#0C0C0C"/>
<path d="M199.867 127.279C200.753 127.458 201.661 126.653 201.84 125.766C202.018 124.878 201.398 124.244 200.513 124.065L199.937 124.568L199.106 127.126L199.867 127.279Z" fill="#FFE5D3"/>
<path d="M193.063 121.823C192.954 121.745 192.834 121.682 192.709 121.637C192.581 121.589 192.447 121.558 192.312 121.547C192.176 121.534 192.039 121.542 191.906 121.57C191.771 121.597 191.64 121.641 191.517 121.702L191.513 121.703C191.499 121.708 191.485 121.708 191.471 121.702C191.458 121.697 191.448 121.687 191.441 121.674C191.435 121.661 191.434 121.646 191.438 121.633C191.443 121.619 191.452 121.607 191.464 121.6C191.595 121.531 191.734 121.478 191.878 121.444C192.023 121.408 192.173 121.395 192.322 121.404C192.624 121.421 192.916 121.519 193.168 121.687C193.186 121.7 193.198 121.72 193.202 121.742C193.206 121.764 193.201 121.787 193.188 121.806C193.176 121.824 193.156 121.837 193.134 121.842C193.112 121.846 193.09 121.842 193.071 121.83L193.069 121.829L193.063 121.823Z" fill="#0C0C0C"/>
<path d="M195.45 122.153C195.746 122.094 196.053 122.116 196.339 122.216C196.48 122.265 196.613 122.334 196.734 122.423C196.854 122.51 196.962 122.612 197.057 122.726C197.067 122.737 197.072 122.752 197.072 122.767C197.071 122.783 197.064 122.797 197.053 122.807C197.042 122.817 197.027 122.823 197.012 122.822C196.997 122.821 196.982 122.815 196.972 122.803L196.969 122.8C196.878 122.697 196.774 122.606 196.66 122.529C196.547 122.452 196.423 122.393 196.293 122.353C196.034 122.271 195.758 122.26 195.493 122.32L195.487 122.322C195.465 122.327 195.441 122.323 195.422 122.312C195.402 122.3 195.388 122.281 195.383 122.258C195.377 122.236 195.381 122.213 195.392 122.193C195.404 122.173 195.423 122.159 195.446 122.154L195.45 122.153Z" fill="#0C0C0C"/>
<path d="M182.229 157.243C181.283 156.83 180.576 156.388 178.961 155.169C177.796 154.292 176.713 153.311 175.726 152.237L184.018 136.425L184.378 135.738L191.857 139.679L185.37 152.051L185.34 152.105L185.396 152.325" fill="#EA394A"/>
<path d="M209.806 144.524C209.588 146.869 209.541 150.515 209.556 153.757C206.429 156.599 202.611 158.566 198.485 159.46C194.36 160.355 190.071 160.144 186.052 158.851C185.561 153.962 184.829 146.777 184.417 142.352C183.999 137.77 182.77 136.256 186.124 134.062C187.971 133.119 190.901 133.036 192.217 133.036C191.77 137.38 200.905 137.915 201.132 133.036C207.965 133.676 211.128 133.835 209.806 144.524Z" fill="#EA394A"/>
<path d="M192.63 126.47C193.385 126.855 194.247 126.976 195.079 126.815C195.108 126.81 195.138 126.813 195.165 126.824C195.192 126.835 195.216 126.853 195.233 126.877C195.25 126.901 195.26 126.929 195.262 126.958C195.264 126.988 195.257 127.017 195.243 127.043C194.995 127.481 194.406 128.229 193.397 127.924C192.746 127.727 192.499 127.056 192.407 126.64C192.401 126.611 192.403 126.581 192.413 126.553C192.423 126.526 192.441 126.501 192.464 126.483C192.488 126.465 192.516 126.455 192.545 126.452C192.575 126.45 192.604 126.456 192.63 126.47Z" fill="white"/>
<path d="M192.583 123.104C192.785 123.104 192.948 122.941 192.948 122.739C192.948 122.537 192.785 122.373 192.583 122.373C192.382 122.373 192.218 122.537 192.218 122.739C192.218 122.941 192.382 123.104 192.583 123.104Z" fill="#0C0C0C"/>
<path d="M196.09 123.719C196.291 123.719 196.454 123.555 196.454 123.353C196.454 123.151 196.291 122.988 196.09 122.988C195.888 122.988 195.725 123.151 195.725 123.353C195.725 123.555 195.888 123.719 196.09 123.719Z" fill="#0C0C0C"/>
<path d="M185.225 150.244H185.232C185.246 150.242 185.26 150.234 185.269 150.222C185.278 150.21 185.282 150.195 185.28 150.18L184.635 143.668C184.634 143.661 184.631 143.653 184.628 143.647C184.624 143.64 184.619 143.635 184.613 143.63C184.607 143.626 184.6 143.623 184.593 143.621C184.586 143.619 184.578 143.619 184.571 143.62C184.564 143.621 184.557 143.623 184.55 143.627C184.544 143.631 184.538 143.636 184.534 143.642C184.529 143.648 184.526 143.654 184.524 143.661C184.522 143.669 184.522 143.676 184.523 143.684L185.168 150.196C185.17 150.209 185.177 150.222 185.187 150.231C185.198 150.239 185.211 150.244 185.225 150.244Z" fill="#0C0C0C"/>
<path d="M184.381 145.285H177.797V153.377H184.381V145.285Z" fill="white"/>
<path d="M181.685 149.331C181.685 148.797 181.843 148.274 182.14 147.83C182.436 147.386 182.857 147.039 183.35 146.835C183.843 146.63 184.385 146.577 184.908 146.681C185.431 146.786 185.912 147.043 186.289 147.421C186.666 147.799 186.922 148.281 187.026 148.805C187.13 149.329 187.077 149.872 186.873 150.366C186.669 150.86 186.323 151.282 185.88 151.578C185.436 151.875 184.915 152.034 184.381 152.034C183.666 152.033 182.981 151.748 182.475 151.241C181.97 150.734 181.686 150.047 181.685 149.331ZM182.789 149.331C182.789 149.646 182.883 149.955 183.058 150.217C183.233 150.48 183.481 150.684 183.772 150.805C184.063 150.926 184.383 150.957 184.692 150.896C185.001 150.834 185.284 150.682 185.507 150.459C185.73 150.236 185.881 149.952 185.943 149.642C186.004 149.333 185.973 149.012 185.852 148.72C185.732 148.429 185.528 148.18 185.266 148.004C185.004 147.829 184.696 147.736 184.381 147.736C183.959 147.736 183.555 147.904 183.256 148.203C182.958 148.502 182.79 148.908 182.789 149.331Z" fill="white"/>
<path d="M184.329 150.332C184.351 150.196 184.421 150.071 184.525 149.98C184.63 149.889 184.763 149.839 184.902 149.836C184.898 149.831 184.895 149.825 184.894 149.818L184.698 149.776C184.561 149.748 184.438 149.675 184.349 149.567C184.26 149.46 184.211 149.325 184.21 149.185C184.212 149.097 184.232 149.011 184.271 148.933C184.309 148.854 184.365 148.785 184.433 148.73C184.502 148.676 184.581 148.637 184.666 148.617C184.752 148.597 184.84 148.597 184.925 148.615L185.388 148.715C185.388 148.714 185.388 148.712 185.388 148.71C185.389 148.706 185.39 148.703 185.392 148.699C185.272 148.643 185.174 148.547 185.115 148.427C185.056 148.307 185.039 148.171 185.067 148.041C185.117 147.698 185.528 147.585 185.828 147.65L187.027 147.865L186.622 147.596C186.495 147.508 186.405 147.374 186.372 147.222C186.339 147.07 186.365 146.911 186.445 146.778C186.488 146.71 186.545 146.652 186.611 146.607C186.678 146.562 186.752 146.532 186.831 146.517C186.91 146.502 186.991 146.503 187.069 146.521C187.147 146.538 187.221 146.571 187.286 146.618L192.116 152.157L191.043 151.669C190.71 152.16 190.239 152.539 189.69 152.76C189.14 152.98 188.537 153.031 187.959 152.905L185.34 152.333C185.203 152.306 185.08 152.233 184.991 152.125C184.902 152.017 184.853 151.882 184.852 151.743C184.854 151.617 184.896 151.495 184.972 151.394C185.048 151.294 185.154 151.22 185.275 151.185C185.271 151.176 185.27 151.166 185.271 151.157C185.272 151.148 185.276 151.139 185.282 151.132C185.287 151.125 185.294 151.119 185.303 151.115L184.819 151.011C184.667 150.981 184.532 150.894 184.441 150.768C184.35 150.643 184.31 150.487 184.329 150.332Z" fill="#E98862"/>
<path opacity="0.2" d="M186.263 148.91C186.275 148.907 186.287 148.9 186.295 148.89C186.303 148.88 186.307 148.868 186.307 148.855C186.306 148.842 186.302 148.829 186.293 148.82C186.285 148.81 186.273 148.803 186.261 148.801L185.452 148.664C185.444 148.662 185.437 148.662 185.429 148.664C185.422 148.665 185.415 148.668 185.409 148.672C185.403 148.676 185.398 148.682 185.394 148.688C185.39 148.694 185.387 148.702 185.386 148.709C185.384 148.716 185.385 148.724 185.386 148.731C185.388 148.738 185.391 148.745 185.396 148.751C185.4 148.757 185.406 148.762 185.412 148.766C185.419 148.77 185.426 148.772 185.433 148.773L186.242 148.911C186.249 148.912 186.256 148.912 186.263 148.91Z" fill="#0C0C0C"/>
<path opacity="0.2" d="M186.067 150.057C186.08 150.054 186.091 150.047 186.099 150.037C186.107 150.027 186.112 150.015 186.111 150.002C186.111 149.989 186.107 149.976 186.098 149.967C186.09 149.957 186.078 149.95 186.066 149.948L184.958 149.751C184.95 149.749 184.943 149.749 184.935 149.75C184.928 149.752 184.921 149.755 184.914 149.759C184.908 149.763 184.903 149.768 184.899 149.775C184.895 149.781 184.892 149.788 184.89 149.795C184.889 149.803 184.889 149.81 184.891 149.818C184.893 149.825 184.896 149.832 184.9 149.838C184.905 149.844 184.911 149.849 184.917 149.853C184.924 149.857 184.931 149.859 184.938 149.86L186.046 150.057C186.053 150.059 186.06 150.058 186.067 150.057Z" fill="#0C0C0C"/>
<path opacity="0.2" d="M185.864 151.3C185.877 151.297 185.888 151.29 185.896 151.28C185.904 151.27 185.908 151.257 185.908 151.244C185.907 151.231 185.903 151.219 185.894 151.209C185.885 151.199 185.874 151.193 185.861 151.191L185.335 151.11C185.321 151.109 185.307 151.113 185.296 151.122C185.285 151.13 185.277 151.143 185.275 151.157C185.273 151.171 185.276 151.185 185.284 151.197C185.292 151.209 185.305 151.217 185.318 151.22L185.844 151.301C185.851 151.302 185.857 151.301 185.864 151.3Z" fill="#0C0C0C"/>
<path d="M213.16 149.648C210.197 153.918 205.94 157.116 201.019 158.768L201.017 158.767C199.924 158.552 189.498 154.427 188.119 154.156L189.628 147.101C193.503 147.874 200.57 150.852 204.467 151.628L201.717 139.137C201.618 138.585 201.628 138.019 201.749 137.471C201.869 136.923 202.097 136.405 202.419 135.946C202.74 135.488 203.15 135.098 203.623 134.799C204.096 134.5 204.624 134.298 205.176 134.205C205.728 134.112 206.293 134.129 206.837 134.257C207.382 134.384 207.897 134.619 208.35 134.947C208.804 135.275 209.189 135.69 209.481 136.168C209.774 136.646 209.968 137.177 210.054 137.731L213.16 149.648Z" fill="#EA394A"/>
<path d="M207.42 152.547C207.434 152.547 207.448 152.541 207.458 152.532C207.468 152.522 207.474 152.509 207.475 152.495C207.477 152.481 207.472 152.467 207.464 152.456C207.455 152.445 207.443 152.437 207.429 152.435L204.499 151.439C204.491 151.438 204.484 151.438 204.477 151.44C204.469 151.441 204.463 151.444 204.457 151.449C204.451 151.453 204.446 151.459 204.442 151.465C204.438 151.472 204.436 151.479 204.435 151.486C204.432 151.501 204.436 151.516 204.445 151.528C204.454 151.54 204.467 151.548 204.482 151.55L207.412 152.546C207.415 152.547 207.417 152.547 207.42 152.547Z" fill="#0C0C0C"/>
<path d="M204.544 151.487C204.545 151.504 204.54 151.522 204.529 151.536C204.522 151.542 204.514 151.546 204.506 151.549C204.498 151.552 204.489 151.552 204.48 151.551L189.722 147.186L188.243 154.129L200.951 158.789C200.912 158.802 200.87 158.815 200.831 158.828C200.803 158.838 200.775 158.847 200.745 158.855L188.16 154.224C188.146 154.22 188.134 154.211 188.126 154.199C188.118 154.186 188.116 154.171 188.119 154.156L189.628 147.102C189.63 147.094 189.633 147.088 189.637 147.082C189.642 147.076 189.648 147.071 189.654 147.068C189.66 147.063 189.667 147.06 189.675 147.059C189.682 147.058 189.69 147.058 189.697 147.06L204.42 151.431L202.753 144.544C202.751 144.53 202.755 144.515 202.764 144.503C202.772 144.491 202.786 144.483 202.8 144.481C202.807 144.479 202.815 144.479 202.822 144.481C202.829 144.482 202.836 144.485 202.842 144.489C202.849 144.493 202.854 144.499 202.858 144.505C202.862 144.511 202.865 144.518 202.866 144.526L204.544 151.487Z" fill="#0C0C0C"/>
<path d="M12.0981 142.488C12.0844 142.488 12.0708 142.485 12.0581 142.48C12.0457 142.474 12.0343 142.467 12.0248 142.457C12.0153 142.447 12.0077 142.436 12.0026 142.423C11.9975 142.411 11.9949 142.397 11.995 142.384C11.9951 142.37 11.9978 142.357 12.0031 142.344L16.0437 132.72C16.0543 132.695 16.0746 132.675 16.0999 132.664C16.1253 132.654 16.1537 132.654 16.1789 132.665C16.2041 132.676 16.2241 132.696 16.2344 132.721C16.2447 132.747 16.2445 132.775 16.2338 132.8L12.1932 142.424C12.1854 142.443 12.1722 142.459 12.1552 142.47C12.1383 142.482 12.1185 142.488 12.0981 142.488Z" fill="#0C0C0C"/>
<path d="M35.8746 142.597H35.8701C35.8566 142.597 35.8431 142.595 35.8303 142.591C35.8176 142.586 35.8059 142.579 35.7959 142.57C35.7859 142.561 35.7778 142.55 35.7721 142.537C35.7663 142.525 35.7631 142.512 35.7625 142.498L35.3121 132.655C35.3117 132.627 35.3217 132.601 35.3399 132.581C35.3581 132.561 35.3833 132.549 35.4102 132.547C35.4238 132.546 35.4373 132.548 35.4501 132.553C35.4628 132.557 35.4746 132.564 35.4846 132.573C35.4946 132.583 35.5027 132.594 35.5085 132.606C35.5142 132.618 35.5175 132.632 35.5181 132.645L35.9685 142.489C35.9698 142.515 35.9608 142.542 35.9433 142.562C35.9258 142.582 35.9012 142.594 35.8746 142.597Z" fill="#0C0C0C"/>
</svg>
