<svg width="32" height="32" viewBox="0 0 32 32" fill="none" xmlns="http://www.w3.org/2000/svg">
<rect y="32" width="32" height="32" rx="3" transform="rotate(-90 0 32)" fill="black" fill-opacity="0.2"/>
<path d="M17.7784 9.7069C17.7785 9.9405 17.7326 10.1718 17.6432 10.3877C17.5539 10.6035 17.4229 10.7997 17.2578 10.9649C17.0927 11.1301 16.8966 11.2612 16.6808 11.3507C16.465 11.4402 16.2337 11.4863 16.0001 11.4863C15.7665 11.4864 15.5352 11.4405 15.3193 11.3511C15.1035 11.2618 14.9074 11.1308 14.7421 10.9657C14.5769 10.8006 14.4458 10.6045 14.3563 10.3887C14.2669 10.1729 14.2208 9.94165 14.2207 9.70804C14.2206 9.23626 14.4078 8.78374 14.7413 8.45003C15.0748 8.11633 15.5272 7.92877 15.999 7.92861C16.4708 7.92846 16.9233 8.11573 17.257 8.44922C17.5907 8.78272 17.7783 9.23512 17.7784 9.7069Z" fill="#FCFCFC"/>
<path d="M17.7783 15.8116C17.7783 14.8294 16.9821 14.0333 16 14.0333C15.0178 14.0333 14.2217 14.8294 14.2217 15.8116C14.2217 16.7937 15.0178 17.5898 16 17.5898C16.9821 17.5898 17.7783 16.7937 17.7783 15.8116Z" fill="#FCFCFC"/>
<path d="M17.7787 21.918C17.7787 20.9359 16.9826 20.1397 16.0005 20.1397C15.0183 20.1397 14.2222 20.9359 14.2222 21.918C14.2222 22.9001 15.0183 23.6963 16.0005 23.6963C16.9826 23.6963 17.7787 22.9001 17.7787 21.918Z" fill="#FCFCFC"/>
</svg>
