<svg width="56" height="66" viewBox="0 0 56 66" fill="none" xmlns="http://www.w3.org/2000/svg">
<g clip-path="url(#clip0_3286_139201)">
<path opacity="0.2" d="M25.1882 62.6409C39.0993 62.6409 50.3765 51.3837 50.3765 37.4972C50.3765 23.6107 39.0993 12.3535 25.1882 12.3535C11.2772 12.3535 0 23.6107 0 37.4972C0 51.3837 11.2772 62.6409 25.1882 62.6409Z" fill="#0EAF8F"/>
<path d="M1.96245 58.5857C0.884978 56.2675 0.326276 53.7429 0.325197 51.1873C0.324118 48.6318 0.880688 46.1067 1.9562 43.7876C3.03172 41.4685 4.60037 39.4111 6.55307 37.7584C8.50577 36.1058 10.7957 34.8976 13.2635 34.2178L14.7623 39.6265C13.0811 40.0891 11.5211 40.9117 10.1908 42.0371C8.86042 43.1625 7.79163 44.5637 7.05874 46.1432C6.32585 47.7227 5.94647 49.4427 5.94698 51.1834C5.94749 52.9241 6.32787 54.6439 7.06168 56.223L1.96245 58.5857Z" fill="#0EAF8F"/>
<path d="M2.25653 66.0003C1.94516 66.0006 1.6398 65.9147 1.37429 65.7524C1.10878 65.59 0.893479 65.3574 0.752251 65.0804C0.357651 64.3069 0.119548 63.4633 0.0515349 62.5979C-0.0164782 61.7325 0.086931 60.8622 0.355858 60.0367C0.898982 58.3695 2.08333 56.9859 3.64835 56.1904C4.42327 55.7965 5.26832 55.5588 6.13526 55.491C7.0022 55.4231 7.87405 55.5263 8.70102 55.7947C10.3712 56.3369 11.7572 57.5192 12.5541 59.0814C12.6566 59.2786 12.7189 59.4941 12.7376 59.7155C12.7562 59.9369 12.7308 60.1598 12.6628 60.3713C12.5947 60.5828 12.4854 60.7788 12.3412 60.948C12.1969 61.1172 12.0205 61.2562 11.8222 61.357C11.6239 61.4578 11.4075 61.5184 11.1856 61.5354C10.9637 61.5523 10.7406 61.5253 10.5292 61.4558C10.3178 61.3863 10.1223 61.2757 9.95394 61.1304C9.78556 60.9851 9.64764 60.808 9.54815 60.6093C9.35514 60.2288 9.08884 59.8901 8.76451 59.6125C8.44017 59.3349 8.06417 59.1238 7.65802 58.9915C7.25187 58.8591 6.82357 58.8081 6.39762 58.8412C5.97167 58.8743 5.55645 58.991 5.17573 59.1845C4.79501 59.378 4.45626 59.6446 4.1789 59.969C3.90153 60.2934 3.69098 60.6692 3.55931 61.0749C3.42763 61.4806 3.37743 61.9083 3.41155 62.3334C3.44568 62.7585 3.56348 63.1727 3.7582 63.5524C3.88897 63.809 3.95166 64.0947 3.94029 64.3824C3.92892 64.6701 3.84387 64.95 3.69325 65.1956C3.54264 65.4411 3.33149 65.644 3.07996 65.7848C2.82844 65.9257 2.54494 66 2.25653 66.0003Z" fill="#292A2E"/>
<path d="M45.8485 37.3289C43.4795 39.3487 40.613 40.7001 37.5454 41.2436L36.5557 35.719C39.2831 35.2283 41.7564 33.8109 43.5562 31.7072C45.356 29.6035 46.3713 26.9431 46.4299 24.1772L52.0504 24.2943C51.9633 28.8015 50.1391 33.1018 46.9571 36.3008C46.6003 36.6607 46.2308 37.0034 45.8485 37.3289Z" fill="#0EAF8F"/>
<path d="M53.6662 24.1338C52.7096 24.9451 51.5417 25.4683 50.2986 25.6424C49.0555 25.8165 47.7885 25.6343 46.6451 25.1171C45.5017 24.5999 44.5292 23.769 43.8408 22.7212C43.1524 21.6734 42.7765 20.4519 42.7569 19.199C42.7526 18.7541 42.9248 18.3257 43.2358 18.0072C43.5469 17.6887 43.9716 17.506 44.4172 17.4991C44.8628 17.4922 45.293 17.6615 45.6139 17.9702C45.9347 18.2789 46.1202 18.7018 46.1297 19.1465C46.1431 20.0065 46.4982 20.8259 47.1168 21.4246C47.7355 22.0232 48.567 22.3521 49.4286 22.3387C50.2901 22.3253 51.111 21.9709 51.7107 21.3533C52.3104 20.7358 52.6398 19.9057 52.6264 19.0457C52.6194 18.5992 52.7904 18.1683 53.1018 17.8477C53.4131 17.5271 53.8393 17.3431 54.2865 17.3361C54.7338 17.3292 55.1655 17.4999 55.4866 17.8107C55.8078 18.1215 55.9922 18.5469 55.9991 18.9933C56.015 19.8616 55.8582 20.7244 55.5378 21.5318C55.2174 22.3392 54.7398 23.0751 54.1325 23.697C53.9833 23.8508 53.8278 23.9964 53.6662 24.1338Z" fill="#292A2E"/>
<path d="M41.6364 0.128479L40.1066 4.55732C40.0968 4.58554 40.0939 4.61565 40.098 4.64523C40.102 4.67481 40.113 4.70301 40.13 4.72758C40.147 4.75214 40.1695 4.77237 40.1958 4.78663C40.2221 4.8009 40.2513 4.8088 40.2812 4.8097L41.3133 4.84044C41.3436 4.84135 41.3732 4.84943 41.3998 4.86404C41.4263 4.87864 41.449 4.89934 41.4659 4.92443C41.4828 4.94951 41.4935 4.97826 41.4971 5.00829C41.5006 5.03832 41.497 5.06876 41.4865 5.09711L39.7839 9.67268C39.768 9.71549 39.768 9.76258 39.784 9.80536C39.8 9.84813 39.8308 9.88376 39.8709 9.90574C39.911 9.92773 39.9576 9.9346 40.0024 9.92512C40.0471 9.91563 40.0869 9.89042 40.1146 9.85407L44.1234 4.57986C44.1411 4.55649 44.1533 4.52935 44.1588 4.50054C44.1643 4.47172 44.1631 4.44203 44.1552 4.41377C44.1473 4.38551 44.133 4.35944 44.1134 4.33761C44.0938 4.31577 44.0694 4.29875 44.0421 4.28789L42.8414 3.80967C42.8179 3.80032 42.7966 3.78641 42.7785 3.76873C42.7605 3.75105 42.7461 3.72997 42.7363 3.70671C42.7265 3.68345 42.7214 3.65848 42.7214 3.63324C42.7213 3.608 42.7263 3.58301 42.736 3.55971L44.0824 0.331111C44.0943 0.302657 44.099 0.271754 44.0963 0.241057C44.0935 0.210361 44.0834 0.180787 44.0667 0.154875C44.05 0.128964 44.0272 0.107489 44.0003 0.0922951C43.9735 0.077101 43.9433 0.0686415 43.9125 0.0676431L41.8229 9.90706e-05C41.7822 -0.00121352 41.7421 0.0105458 41.7085 0.0336513C41.6749 0.0567567 41.6497 0.0899918 41.6364 0.128479Z" fill="#0EAF8F"/>
<path d="M2.56134 20.4543L4.34393 23.9149C4.35525 23.937 4.36122 23.9614 4.36137 23.9862C4.36151 24.011 4.35583 24.0354 4.34477 24.0576C4.33371 24.0798 4.31759 24.0991 4.2977 24.114C4.27781 24.1288 4.25471 24.1388 4.23026 24.1431L3.38535 24.2902C3.36057 24.2945 3.33718 24.3047 3.31712 24.3199C3.29705 24.335 3.28088 24.3547 3.26994 24.3773C3.259 24.3999 3.2536 24.4248 3.2542 24.4499C3.25479 24.475 3.26136 24.4996 3.27335 24.5217L5.21563 28.0825C5.23343 28.1159 5.23873 28.1544 5.23056 28.1913C5.22238 28.2282 5.20128 28.2609 5.17105 28.2836C5.14082 28.3063 5.10346 28.3175 5.0657 28.3152C5.02794 28.3128 4.99228 28.297 4.96513 28.2707L1.04419 24.4078C1.02686 24.3906 1.01373 24.3697 1.00581 24.3467C0.997883 24.3237 0.995381 24.2992 0.998495 24.275C1.00161 24.2509 1.01026 24.2278 1.02377 24.2075C1.03727 24.1873 1.05528 24.1704 1.07638 24.1582L2.00688 23.6232C2.02505 23.6127 2.04097 23.5988 2.05369 23.5821C2.06641 23.5654 2.0757 23.5464 2.081 23.5261C2.0863 23.5058 2.08752 23.4847 2.08459 23.464C2.08165 23.4432 2.07462 23.4232 2.0639 23.4052L0.574367 20.9097C0.561326 20.8877 0.553812 20.8629 0.552466 20.8374C0.551119 20.8119 0.555982 20.7864 0.566637 20.7632C0.577293 20.7399 0.593425 20.7196 0.613656 20.7039C0.633887 20.6883 0.657616 20.6777 0.682816 20.6732L2.39289 20.3711C2.42618 20.3652 2.46048 20.3701 2.49078 20.3851C2.52109 20.4 2.54581 20.4243 2.56134 20.4543Z" fill="#292A2E"/>
<path d="M9.48828 34.5125L13.2152 55.5531C13.697 58.2731 15.123 60.7367 17.2431 62.5117C19.3631 64.2867 22.0417 65.2596 24.8087 65.2596C27.5064 65.2597 30.1223 64.335 32.2187 62.6402C34.3151 60.9454 35.7649 58.5834 36.3255 55.9493L40.8878 34.5122L9.48828 34.5125Z" fill="#0EAF8F"/>
<path d="M25.188 39.1459C33.8587 39.1459 40.8878 37.0714 40.8878 34.5124C40.8878 31.9534 33.8587 29.8789 25.188 29.8789C16.5173 29.8789 9.48828 31.9534 9.48828 34.5124C9.48828 37.0714 16.5173 39.1459 25.188 39.1459Z" fill="#292A2E"/>
<path d="M30.774 46.4019H19.7852C18.7442 46.4019 17.9004 47.2442 17.9004 48.2833V53.5899C17.9004 54.629 18.7442 55.4714 19.7852 55.4714H30.774C31.815 55.4714 32.6588 54.629 32.6588 53.5899V48.2833C32.6588 47.2442 31.815 46.4019 30.774 46.4019Z" fill="#292A2E"/>
<path d="M24.0893 51.1062H23.436C23.436 50.247 23.826 49.063 25.6837 48.3013C26.7719 47.8551 26.4116 46.2064 26.4077 46.1898L27.0445 46.0439C27.0652 46.1337 27.5335 48.2479 25.9319 48.9041C24.7092 49.4054 24.0893 50.1466 24.0893 51.1062Z" fill="#0EAF8F"/>
<path d="M29.9503 55.8528C29.315 54.6636 29.0499 54.6872 27.9319 54.7863C27.5679 54.8187 27.1151 54.8589 26.5622 54.8589C24.0876 54.8589 23.8301 53.0608 23.8276 53.0428L24.4756 52.9606L24.1516 53.0017L24.4752 52.9575C24.4827 53.0086 24.6806 54.2068 26.562 54.2068C27.0858 54.2068 27.5046 54.1695 27.8738 54.1368C29.1316 54.025 29.7217 54.0392 30.5265 55.5459L29.9503 55.8528Z" fill="#0EAF8F"/>
<path d="M22.3987 51.4403C22.3764 51.4403 22.3544 51.4349 22.3346 51.4247L21.6285 51.0613C21.5955 51.0443 21.5706 51.0149 21.5594 50.9796C21.5481 50.9443 21.5513 50.9059 21.5683 50.873C21.5854 50.8401 21.6148 50.8152 21.6502 50.804C21.6856 50.7927 21.724 50.7959 21.757 50.8129L22.4631 51.1763C22.4911 51.1906 22.5134 51.214 22.5265 51.2425C22.5395 51.271 22.5426 51.3031 22.5352 51.3336C22.5277 51.3641 22.5102 51.3912 22.4855 51.4106C22.4607 51.4299 22.4302 51.4404 22.3987 51.4403Z" fill="white"/>
<path d="M21.5458 52.8235C21.5132 52.8234 21.4816 52.8119 21.4565 52.791C21.4314 52.7701 21.4145 52.7412 21.4086 52.7091C21.4027 52.677 21.4082 52.6439 21.4241 52.6155C21.4401 52.587 21.4655 52.5651 21.496 52.5534L22.2386 52.2712C22.2728 52.2599 22.31 52.2623 22.3425 52.2777C22.375 52.2932 22.4003 52.3205 22.4132 52.3541C22.426 52.3877 22.4254 52.4249 22.4114 52.458C22.3975 52.4912 22.3713 52.5177 22.3383 52.532L21.5957 52.8143C21.5797 52.8204 21.5629 52.8235 21.5458 52.8235Z" fill="white"/>
<path d="M26.0114 52.249C25.9763 52.2489 25.9425 52.2357 25.9167 52.212C25.8909 52.1883 25.875 52.1557 25.8721 52.1208C25.8692 52.0859 25.8795 52.0512 25.901 52.0235C25.9225 51.9959 25.9536 51.9773 25.9882 51.9714L26.7722 51.8392C26.8087 51.8333 26.8461 51.842 26.8762 51.8635C26.9063 51.8849 26.9267 51.9174 26.9329 51.9539C26.939 51.9903 26.9305 52.0277 26.9091 52.0578C26.8878 52.088 26.8553 52.1085 26.8189 52.1148L26.0349 52.247C26.0271 52.2483 26.0193 52.249 26.0114 52.249Z" fill="white"/>
<path d="M25.4383 51.3023C25.4132 51.3022 25.3887 51.2955 25.3671 51.2828C25.3456 51.2701 25.3278 51.2519 25.3157 51.23C25.3037 51.2081 25.2977 51.1834 25.2984 51.1584C25.2991 51.1334 25.3066 51.1091 25.3199 51.088L25.7441 50.4172C25.7537 50.4013 25.7664 50.3874 25.7814 50.3765C25.7965 50.3655 25.8136 50.3577 25.8317 50.3534C25.8498 50.3491 25.8686 50.3485 25.887 50.3515C25.9053 50.3546 25.9229 50.3612 25.9387 50.3712C25.9544 50.3811 25.968 50.394 25.9787 50.4093C25.9894 50.4245 25.9969 50.4417 26.0008 50.4599C26.0048 50.478 26.005 50.4968 26.0016 50.5151C25.9982 50.5333 25.9911 50.5507 25.9809 50.5663L25.5567 51.237C25.5441 51.257 25.5266 51.2735 25.5059 51.2849C25.4852 51.2963 25.4619 51.3023 25.4383 51.3023Z" fill="white"/>
<path d="M33.4296 50.6179C32.0705 50.6179 30.9366 50.2473 30.0504 49.5117C28.4129 48.1524 28.2374 46.0545 28.2305 45.9659L28.8819 45.917L28.5562 45.9415L28.8818 45.9165C28.8834 45.9351 29.0483 47.8357 30.4729 49.0145C31.4062 49.7864 32.6785 50.0908 34.257 49.9192L34.3278 50.5675C34.0295 50.6005 33.7296 50.6173 33.4296 50.6179Z" fill="#0EAF8F"/>
<path d="M16.397 54.671L16.2764 54.03C18.781 53.5599 18.7792 52.5197 18.777 51.3155C18.7756 50.5044 18.7739 49.5851 19.7311 49.0476C21.5114 48.0478 21.3688 45.7818 21.3672 45.7589L22.0186 45.71C22.0269 45.8196 22.1988 48.4099 20.0514 49.6158C19.4581 49.949 19.4288 50.4782 19.4303 51.3141C19.4326 52.5557 19.4353 54.1006 16.397 54.671Z" fill="#0EAF8F"/>
<path d="M35.704 35.9579C35.6914 35.9579 35.6789 35.9567 35.6666 35.9542C34.9595 35.8122 33.6253 35.2089 33.6373 33.9404C33.6363 33.6917 33.6955 33.4465 33.8099 33.2256C33.9242 33.0047 34.0904 32.8147 34.2941 32.6716C34.0856 32.2859 34.0239 31.8378 34.1205 31.4102C34.3872 30.0229 35.7864 29.7798 36.4893 29.8456C36.5385 29.8503 36.5837 29.8743 36.6152 29.9123C36.6467 29.9503 36.6618 29.9991 36.6572 30.0482C36.6527 30.0973 36.6289 30.1426 36.591 30.1741C36.5531 30.2057 36.5042 30.221 36.455 30.2167C36.386 30.2103 34.7564 30.0803 34.487 31.4805C34.4076 31.8184 34.4527 32.1736 34.6143 32.4809C35.3072 32.1472 36.2563 32.1455 36.692 32.478C36.7792 32.5377 36.8472 32.6215 36.8875 32.7191C36.9277 32.8168 36.9386 32.924 36.9186 33.0277C36.8315 33.4814 36.298 33.7078 35.6225 33.5783C35.1972 33.5009 34.8082 33.289 34.5127 32.974C34.3563 33.0827 34.2289 33.2279 34.1414 33.3969C34.0539 33.566 34.009 33.7537 34.0106 33.944C33.9986 35.2203 35.7231 35.5854 35.7405 35.589C35.7859 35.5981 35.8263 35.6237 35.8538 35.6609C35.8814 35.698 35.8941 35.7441 35.8895 35.7901C35.8849 35.8361 35.8634 35.8788 35.829 35.9098C35.7947 35.9409 35.75 35.958 35.7037 35.958L35.704 35.9579ZM34.8493 32.7836C35.0847 33.0028 35.3773 33.1514 35.6934 33.2122C36.1387 33.2972 36.5083 33.1879 36.5526 32.9573C36.5593 32.9215 36.5545 32.8845 36.5389 32.8516C36.5232 32.8186 36.4976 32.7915 36.4656 32.7739C36.1839 32.5587 35.4494 32.5237 34.8493 32.7836Z" fill="white"/>
<path d="M19.7494 34.5586C19.7102 34.5586 19.672 34.5463 19.6402 34.5235C19.6084 34.5006 19.5847 34.4683 19.5723 34.4312C19.5599 34.3941 19.5595 34.3541 19.5712 34.3168C19.5829 34.2794 19.606 34.2467 19.6374 34.2232C19.6776 34.193 20.6173 33.4697 20.083 32.5922C19.9684 32.3875 19.7886 32.2268 19.5721 32.1357C19.3388 32.6668 18.8112 33.1326 18.3968 33.1673C18.3095 33.1789 18.2207 33.1648 18.1413 33.1268C18.0619 33.0887 17.9953 33.0283 17.9498 32.953C17.8987 32.8643 17.8727 32.7634 17.8748 32.6611C17.8769 32.5588 17.9069 32.459 17.9615 32.3724C18.1696 31.9932 18.687 31.7097 19.1916 31.6983C19.2336 31.6976 19.2756 31.6983 19.3167 31.701C19.3401 31.5744 19.3337 31.4441 19.2979 31.3203C19.262 31.1966 19.1979 31.083 19.1104 30.9883C18.4965 30.2982 17.3879 30.945 17.3769 30.9516C17.3559 30.9641 17.3325 30.9724 17.3083 30.9759C17.284 30.9794 17.2593 30.9781 17.2355 30.9721C17.2118 30.9661 17.1894 30.9555 17.1698 30.9409C17.1501 30.9262 17.1336 30.9079 17.121 30.8869C17.1085 30.8658 17.1002 30.8425 17.0967 30.8183C17.0931 30.7941 17.0944 30.7694 17.1004 30.7457C17.1065 30.722 17.1171 30.6997 17.1318 30.6801C17.1464 30.6605 17.1648 30.6439 17.1859 30.6314C17.2419 30.5979 18.5731 29.823 19.3895 30.7408C19.5161 30.8789 19.6085 31.0447 19.6594 31.2249C19.7103 31.4051 19.7182 31.5946 19.6825 31.7784C19.9861 31.8971 20.24 32.1157 20.402 32.3982C20.9713 33.3324 20.2971 34.1951 19.8613 34.5208C19.8291 34.5453 19.7898 34.5586 19.7494 34.5586ZM19.1894 32.0718C18.7831 32.0848 18.4133 32.325 18.2887 32.5521C18.2668 32.5817 18.2534 32.6167 18.2499 32.6534C18.2463 32.69 18.2528 32.7269 18.2686 32.7602C18.2779 32.7759 18.2944 32.8016 18.3658 32.7963C18.5998 32.777 18.9841 32.4665 19.1892 32.0718H19.1894Z" fill="white"/>
<path d="M40.1887 19.0446C41.1443 25.7897 34.8036 29.9957 26.4148 31.1798C18.0259 32.3639 10.7658 30.0782 9.81029 23.3326C8.85478 16.5871 14.5657 7.9362 22.9545 6.75209C31.3433 5.56797 39.2332 12.2991 40.1887 19.0446Z" fill="#0EAF8F"/>
<path d="M32.1412 11.8316L23.5013 13.051C20.7931 13.4333 18.9081 15.9347 19.291 18.6381C19.6739 21.3416 22.1798 23.2232 24.888 22.841L33.5279 21.6215C36.2361 21.2393 38.1211 18.7378 37.7382 16.0344C37.3552 13.331 34.8494 11.4493 32.1412 11.8316Z" fill="white"/>
<path d="M22.2115 1.53198L21.5415 1.66016L22.8354 8.39894L23.5053 8.27076L22.2115 1.53198Z" fill="#0EAF8F"/>
<path d="M21.9723 3.33907C22.6608 3.33907 23.219 2.7819 23.219 2.09458C23.219 1.40727 22.6608 0.850098 21.9723 0.850098C21.2837 0.850098 20.7256 1.40727 20.7256 2.09458C20.7256 2.7819 21.2837 3.33907 21.9723 3.33907Z" fill="#292A2E"/>
<path d="M26.6519 19.7671C26.5307 19.7671 26.4127 19.7276 26.316 19.6547L22.6471 16.9001C22.5873 16.8564 22.5368 16.8012 22.4985 16.7379C22.4602 16.6745 22.4349 16.6042 22.424 16.5309C22.4131 16.4577 22.417 16.3831 22.4352 16.3114C22.4535 16.2396 22.4859 16.1722 22.5304 16.1131C22.575 16.054 22.6309 16.0042 22.6949 15.9668C22.7588 15.9294 22.8296 15.905 22.9031 15.8952C22.9766 15.8853 23.0513 15.89 23.1229 15.9092C23.1945 15.9283 23.2616 15.9615 23.3203 16.0068L26.989 18.7615C27.083 18.832 27.1525 18.9302 27.1875 19.0423C27.2226 19.1544 27.2213 19.2746 27.184 19.386C27.1467 19.4973 27.0753 19.5941 26.9798 19.6626C26.8843 19.7312 26.7696 19.7679 26.6519 19.7677V19.7671Z" fill="#292A2E"/>
<path d="M23.4375 20.2205C23.3334 20.2204 23.2315 20.1914 23.1431 20.1368C23.0546 20.0821 22.9832 20.0039 22.9368 19.911C22.8903 19.818 22.8708 19.714 22.8803 19.6106C22.8897 19.5072 22.9279 19.4085 22.9904 19.3255L25.7503 15.6632C25.84 15.5461 25.9725 15.4691 26.1189 15.449C26.2652 15.429 26.4136 15.4675 26.5317 15.5561C26.6497 15.6448 26.7279 15.7764 26.7492 15.9224C26.7704 16.0683 26.733 16.2167 26.6452 16.3353L23.8854 19.9976C23.8333 20.0669 23.7656 20.1232 23.6878 20.1619C23.6101 20.2006 23.5244 20.2207 23.4375 20.2205Z" fill="#292A2E"/>
<path d="M34.6187 18.6424C34.4975 18.6424 34.3795 18.603 34.2828 18.53L30.6141 15.7752C30.5548 15.7312 30.5049 15.676 30.4671 15.6127C30.4293 15.5494 30.4045 15.4793 30.3939 15.4064C30.3834 15.3335 30.3874 15.2592 30.4057 15.1879C30.424 15.1165 30.4563 15.0494 30.5006 14.9906C30.545 14.9317 30.6006 14.8821 30.6642 14.8448C30.7278 14.8074 30.7982 14.783 30.8713 14.7729C30.9444 14.7628 31.0188 14.7672 31.0902 14.7858C31.1615 14.8045 31.2285 14.8371 31.2873 14.8817L34.9559 17.6366C35.05 17.707 35.1195 17.8053 35.1545 17.9174C35.1896 18.0294 35.1883 18.1497 35.151 18.261C35.1137 18.3724 35.0423 18.4692 34.9467 18.5377C34.8512 18.6062 34.7365 18.643 34.6189 18.6428L34.6187 18.6424Z" fill="#292A2E"/>
<path d="M31.4044 19.0962C31.3003 19.0961 31.1984 19.0671 31.1099 19.0125C31.0215 18.9578 30.95 18.8796 30.9036 18.7867C30.8572 18.6937 30.8376 18.5897 30.8471 18.4863C30.8565 18.3829 30.8947 18.2842 30.9572 18.2012L33.717 14.5389C33.8062 14.4204 33.939 14.3422 34.0861 14.3214C34.2331 14.3007 34.3824 14.3391 34.5011 14.4282C34.6198 14.5173 34.6982 14.6499 34.7189 14.7967C34.7397 14.9435 34.7013 15.0925 34.612 15.211L31.8522 18.8733C31.8001 18.9426 31.7324 18.9988 31.6547 19.0375C31.5769 19.0762 31.4912 19.0963 31.4044 19.0962Z" fill="#292A2E"/>
<path d="M29.2905 24.3698C29.4591 24.147 29.6875 23.9767 29.9493 23.8786C30.2111 23.7805 30.4954 23.7587 30.7692 23.8157C31.0429 23.8727 31.2948 24.0062 31.4954 24.2007C31.696 24.3951 31.8372 24.6424 31.9024 24.9138C31.9143 24.9619 31.9165 25.0118 31.909 25.0606C31.9015 25.1095 31.8843 25.1564 31.8585 25.1987C31.8328 25.2409 31.7989 25.2777 31.7588 25.3068C31.7188 25.3359 31.6734 25.3568 31.6252 25.3684C31.577 25.3799 31.527 25.3818 31.4781 25.374C31.4292 25.3661 31.3823 25.3487 31.3401 25.3227C31.298 25.2967 31.2614 25.2627 31.2325 25.2225C31.2036 25.1824 31.1829 25.1369 31.1717 25.0887C31.1495 24.9965 31.1094 24.9095 31.0535 24.8327C30.9977 24.7559 30.9272 24.6909 30.8462 24.6413C30.7652 24.5917 30.6752 24.5585 30.5813 24.5437C30.4875 24.5288 30.3916 24.5325 30.2992 24.5547C30.2068 24.5768 30.1196 24.6169 30.0427 24.6726C29.9658 24.7283 29.9007 24.7986 29.851 24.8795C29.8013 24.9604 29.7681 25.0502 29.7532 25.1439C29.7383 25.2376 29.742 25.3333 29.7642 25.4256C29.7867 25.5221 29.77 25.6235 29.7179 25.7078C29.6657 25.7921 29.5823 25.8523 29.4858 25.8754C29.3893 25.8985 29.2876 25.8826 29.2028 25.8311C29.1181 25.7795 29.0572 25.6966 29.0334 25.6005C28.9878 25.4124 28.9799 25.2172 29.0104 25.0262C29.0408 24.8351 29.1089 24.652 29.2107 24.4873C29.2355 24.4467 29.2621 24.4075 29.2905 24.3698Z" fill="#292A2E"/>
</g>
<defs>
<clipPath id="clip0_3286_139201">
<rect width="56" height="66" fill="white"/>
</clipPath>
</defs>
</svg>
