<?xml version="1.0" encoding="utf-8"?>
<!-- Generator: Adobe Illustrator 23.0.5, SVG Export Plug-In . SVG Version: 6.00 Build 0)  -->
<svg version="1.1" id="Layer_1" xmlns="http://www.w3.org/2000/svg" xmlns:xlink="http://www.w3.org/1999/xlink" x="0px" y="0px"
	 viewBox="0 0 512 512" style="enable-background:new 0 0 512 512;" xml:space="preserve">

	<g>
		<path class="st0" fill="#EF4444" d="M243.4,186.2c-8.6,5.3-12,15.8-8.8,25c-0.1,0-0.2,0.1-0.2,0.1L192,237.6c-16.1-29.9-8.5-66.9,17.4-88.2
			c1.7-1.4,2.1-3.7,0.9-5.6l-0.5-0.7c-1.4-2.2-4.4-2.7-6.4-1c-30.8,25.2-38.8,69.9-17.2,104.6c21.6,34.7,65.2,47.2,101.4,30.8
			c2.4-1.1,3.3-4,1.9-6.2l-0.5-0.7c-1.1-1.8-3.5-2.5-5.4-1.6c-30.6,13.8-67.1,4.3-86.8-23.4l42.4-26.3c0.1,0,0.1-0.1,0.2-0.1
			c6.8,6.9,17.7,8.5,26.3,3.1c9.9-6.2,12.9-19.2,6.8-29.1C266.3,183.1,253.3,180,243.4,186.2z M260.7,214.1
			c-5.5,3.4-12.7,1.7-16.1-3.8c-3.4-5.5-1.7-12.7,3.8-16.1c5.5-3.4,12.7-1.7,16.1,3.7C267.9,203.5,266.2,210.7,260.7,214.1z"/>
		<g>
			<path class="st1" fill="#5DC091" d="M306.3,172.6c16.1,25.8,11.2,58.7-10.1,78.9c-2.2,2-5.7,1.5-7.2-1l0,0c-1.2-1.9-0.8-4.4,0.8-6
				c17.9-17.1,22.1-45,8.4-66.9s-40.5-30.5-63.8-22c-2.1,0.8-4.5,0-5.7-1.9c-1.4-2.2-0.7-5.2,1.5-6.5c0.3-0.2,0.5-0.3,0.8-0.4
				C258.6,136.6,290.3,146.8,306.3,172.6z"/>
			<path class="st1" fill="#5DC091" d="M289.2,183.2c10.2,16.5,8.6,36.9-2.6,51.4c-2,2.6-6,2.3-7.7-0.4h0c-1.1-1.7-0.9-3.9,0.3-5.5
				c8.8-11.5,10-27.6,1.9-40.6c-8.1-13-23.1-19-37.2-16.2c-2,0.4-4-0.4-5-2.1l0,0c-1.7-2.8-0.2-6.5,3-7.1
				C259.9,159.2,279,166.8,289.2,183.2z"/>
			<path class="st1" fill="#5DC091" d="M322.2,162c21.6,34.7,13.5,79.6-17.4,104.7c-2,1.6-5,1.2-6.3-1l-0.5-0.8c-1.1-1.8-0.7-4.2,0.9-5.5
				c27.2-22.2,34.3-61.7,15.3-92.4c-17.3-27.8-50.7-39.5-80.7-30.5c-3,0.9-6,2-9,3.4c-1.9,0.9-4.2,0.3-5.3-1.5l0,0
				c-0.4-0.7-0.8-1.4-1-2.2c-0.5-2,0.5-4,2.4-4.9c3.1-1.4,6.3-2.6,9.6-3.6C264.4,117.1,302.5,130.3,322.2,162z"/>
		</g>
	</g>
</svg>
