<svg width="24" height="24" viewBox="0 0 24 24" fill="none" xmlns="http://www.w3.org/2000/svg">
<path d="M12.0001 3.25244C12.5533 3.25244 13.006 3.70511 13.006 4.25838C13.006 4.81164 12.5533 5.26432 12.0001 5.26432C11.4468 5.26432 10.9941 4.81164 10.9941 4.25838C10.9941 3.70511 11.4468 3.25244 12.0001 3.25244Z" fill="#E7ECED"/>
<path d="M13.76 15.3237H10.2393V17.0841H13.76V15.3237Z" fill="#AFB6BB"/>
<path d="M13.76 17.084H10.2393V20.3533H13.76V17.084Z" fill="#7C8287"/>
<path d="M8.73102 10.2941V8.78516H15.2696V10.2941H16.0241V12.3059H7.97656V10.2941H8.73102Z" fill="#E7ECED"/>
<path d="M15.2696 18.8443V20.3532H13.7607V17.0839V15.3235H10.2399V17.0839V20.3532H8.73102V18.8443H7.97656V12.3057H16.0241V18.8443H15.2696Z" fill="#C7CAC7"/>
<path d="M20.8022 20.3535V21.8624H3.19824V20.3535H3.70121H8.73095H10.2399H13.7606H15.2695H20.2993H20.8022Z" fill="#8A9095"/>
<path d="M22.0593 22.3653V23.6227H1.94043V22.3653C1.94043 22.0886 2.16679 21.8623 2.4434 21.8623H3.19785H20.8019H21.5563C21.833 21.8623 22.0593 22.0887 22.0593 22.3653Z" fill="#AFB6BB"/>
<path d="M20.2993 18.8442H15.2695V20.3531H20.2993V18.8442Z" fill="#E7ECED"/>
<path d="M8.73091 18.8447V20.3536H3.70117V18.8447H4.45563H7.97645H8.73091Z" fill="#E7ECED"/>
<path d="M16.024 10.2941H15.2695V8.78516H20.2993V10.2941H19.5448H16.024Z" fill="#E7ECED"/>
<path d="M3.70117 8.78516H8.73091V10.2941H7.97645H4.45563H3.70117V8.78516Z" fill="#E7ECED"/>
<path d="M19.5442 10.2944V18.8449H16.0234V12.3063V10.2944H19.5442Z" fill="#A4A9AB"/>
<path d="M7.97591 10.2944V12.3063V18.8449H4.45508V10.2944H7.97591Z" fill="#A4A9AB"/>
<path d="M22.0593 7.52787V8.78529H20.2989H15.2691H8.73056H3.70082H1.94043V7.52787C1.94043 7.25121 2.16679 7.0249 2.4434 7.0249H3.9523H20.0474H21.5563C21.833 7.0249 22.0593 7.25126 22.0593 7.52787Z" fill="#A4A9AB"/>
<path d="M20.0472 7.02492H3.95215L11.9997 0.486328L20.0472 7.02492ZM13.0056 4.25859C13.0056 3.70533 12.553 3.25266 11.9997 3.25266C11.4464 3.25266 10.9938 3.70533 10.9938 4.25859C10.9938 4.81186 11.4464 5.26453 11.9997 5.26453C12.553 5.26453 13.0056 4.81186 13.0056 4.25859Z" fill="#E7ECED"/>
<path d="M12.0004 2.875C11.2377 2.875 10.6172 3.49548 10.6172 4.25819C10.6172 5.02089 11.2377 5.64137 12.0004 5.64137C12.7631 5.64137 13.3836 5.02089 13.3836 4.25819C13.3836 3.49548 12.763 2.875 12.0004 2.875ZM12.0004 4.88692C11.6537 4.88692 11.3716 4.60492 11.3716 4.25819C11.3716 3.91145 11.6537 3.62945 12.0004 3.62945C12.3471 3.62945 12.6291 3.91145 12.6291 4.25819C12.6291 4.60492 12.347 4.88692 12.0004 4.88692Z" fill="black"/>
<path d="M20.6765 10.6712V9.16233H22.4369V7.52766C22.4369 7.04236 22.042 6.64744 21.5566 6.64744H20.1817L12.0002 0L3.81873 6.64748H2.44374C1.95845 6.64748 1.56352 7.04236 1.56352 7.5277V9.16238H3.32391V10.6713H4.07837V18.4673H3.32391V19.9763H2.82095V21.4852H2.4437C1.9584 21.4852 1.56348 21.88 1.56348 22.3654V24H22.4368V22.3653C22.4368 21.88 22.0419 21.4851 21.5566 21.4851H21.1794V19.9762H20.6764V18.4673H19.9219V10.6712H20.6765ZM19.922 9.91678H15.6467V9.16233H19.922V9.91678ZM18.1616 17.3356V10.6712H19.1675V18.4673H16.4012V10.6712H17.4071V17.3356H18.1616V17.3356ZM15.6467 18.4673H14.8923V19.9762H14.1378V14.9465H9.86256V19.9763H9.1081V18.4673H8.35365V12.6832H15.6467V18.4673V18.4673ZM13.3834 16.7069H10.6171V15.701H13.3834V16.7069ZM10.617 17.4614H13.3833V19.9762H10.617V17.4614V17.4614ZM15.6467 11.9287H8.35365V10.6712H9.1081V9.16233H14.8923V10.6712H15.6467V11.9287ZM12.0002 0.972094L18.9853 6.64744H5.01512L12.0002 0.972094ZM2.31798 8.40787V7.52766C2.31798 7.4595 2.37559 7.40189 2.44374 7.40189H21.5566C21.6248 7.40189 21.6824 7.4595 21.6824 7.52766V8.40787H2.31798ZM4.07841 9.16233H8.3537V9.91678H4.07841V9.16233ZM6.59326 17.3356V10.6712H7.5992V18.4673H4.83287V10.6712H5.83881V17.3356H6.59326V17.3356ZM4.07841 19.2217H8.3537V19.9762H4.07841V19.2217ZM21.5566 22.2396C21.6248 22.2396 21.6824 22.2972 21.6824 22.3654V23.2456H2.31798V22.3654C2.31798 22.2972 2.37559 22.2396 2.44374 22.2396H21.5566ZM20.425 20.7307V21.4852H3.5754V20.7307H20.425ZM19.922 19.9763H15.6467V19.2218H19.922V19.9763Z" fill="black"/>
<path d="M12.754 10.168H11.2451V10.9224H12.754V10.168Z" fill="black"/>
</svg>
