<svg width="13" height="16" viewBox="0 0 13 16" fill="none" xmlns="http://www.w3.org/2000/svg">
<path d="M6.53218 0.149902C3.44114 0.149902 0.933105 2.40738 0.933105 5.18907C0.933105 9.66834 6.53218 15.8273 6.53218 15.8273C6.53218 15.8273 12.1313 9.66834 12.1313 5.18907C12.1313 2.40738 9.62322 0.149902 6.53218 0.149902ZM6.53218 7.98861C6.08923 7.98861 5.65622 7.85726 5.28791 7.61117C4.91961 7.36507 4.63255 7.01529 4.46303 6.60605C4.29352 6.19681 4.24917 5.7465 4.33559 5.31205C4.422 4.8776 4.63531 4.47854 4.94852 4.16532C5.26174 3.8521 5.66081 3.6388 6.09525 3.55238C6.5297 3.46597 6.98001 3.51032 7.38925 3.67983C7.79849 3.84934 8.14827 4.1364 8.39437 4.50471C8.64046 4.87301 8.77181 5.30602 8.77181 5.74898C8.77117 6.34277 8.535 6.91205 8.11513 7.33192C7.69525 7.7518 7.12597 7.98796 6.53218 7.98861Z" fill="#0EAF8F"/>
</svg>
