<svg width="14" height="16" viewBox="0 0 14 16" fill="none" xmlns="http://www.w3.org/2000/svg">
<path d="M6.27556 1.44994C6.6697 1.03572 7.3303 1.03572 7.72444 1.44994L8.77159 2.55042C8.95768 2.74599 9.21495 2.85801 9.4849 2.86102L10.9704 2.87756C11.5145 2.88362 11.954 3.32368 11.9592 3.86783L11.976 5.60402C11.9784 5.85014 12.0715 6.08675 12.2374 6.26853L13.3846 7.52523C13.7332 7.9071 13.7332 8.49174 13.3846 8.87361L12.2374 10.1303C12.0715 10.3121 11.9784 10.5487 11.976 10.7948L11.9592 12.531C11.954 13.0752 11.5145 13.5152 10.9704 13.5213L9.4849 13.5378C9.21495 13.5408 8.95768 13.6528 8.77159 13.8484L7.72444 14.9489C7.3303 15.3631 6.6697 15.3631 6.27556 14.9489L5.22841 13.8484C5.04232 13.6528 4.78505 13.5408 4.5151 13.5378L3.0296 13.5213C2.48546 13.5152 2.04604 13.0752 2.04078 12.531L2.02399 10.7948C2.02161 10.5487 1.92854 10.3121 1.76259 10.1303L0.615429 8.87361C0.266841 8.49174 0.266841 7.9071 0.615428 7.52523L1.76259 6.26853C1.92854 6.08675 2.02161 5.85014 2.02399 5.60402L2.04078 3.86783C2.04604 3.32368 2.48546 2.88362 3.0296 2.87756L4.5151 2.86102C4.78505 2.85801 5.04232 2.74599 5.22841 2.55042L6.27556 1.44994Z" fill="#0EAF8F"/>
<path d="M8.94555 6.94763L6.22332 9.86851L5.05664 8.6167" stroke="white" stroke-width="1.5" stroke-linecap="round" stroke-linejoin="round"/>
</svg>
