<svg width="20" height="21" viewBox="0 0 20 21" fill="none" xmlns="http://www.w3.org/2000/svg">
<path d="M14.1075 9.78945H10.7146V6.39659C10.7146 6.29838 10.6342 6.21802 10.536 6.21802H9.4646C9.36639 6.21802 9.28603 6.29838 9.28603 6.39659V9.78945H5.89317C5.79496 9.78945 5.7146 9.8698 5.7146 9.96802V11.0394C5.7146 11.1377 5.79496 11.218 5.89317 11.218H9.28603V14.6109C9.28603 14.7091 9.36639 14.7894 9.4646 14.7894H10.536C10.6342 14.7894 10.7146 14.7091 10.7146 14.6109V11.218H14.1075C14.2057 11.218 14.286 11.1377 14.286 11.0394V9.96802C14.286 9.8698 14.2057 9.78945 14.1075 9.78945Z" fill="#0EAF8F"/>
<path d="M10.0005 0.502686C4.47817 0.502686 0.000488281 4.98036 0.000488281 10.5027C0.000488281 16.025 4.47817 20.5027 10.0005 20.5027C15.5228 20.5027 20.0005 16.025 20.0005 10.5027C20.0005 4.98036 15.5228 0.502686 10.0005 0.502686ZM10.0005 18.8063C5.41567 18.8063 1.69692 15.0875 1.69692 10.5027C1.69692 5.91786 5.41567 2.19911 10.0005 2.19911C14.5853 2.19911 18.3041 5.91786 18.3041 10.5027C18.3041 15.0875 14.5853 18.8063 10.0005 18.8063Z" fill="#0EAF8F"/>
</svg>
