<svg width="18" height="18" viewBox="0 0 18 18" fill="none" xmlns="http://www.w3.org/2000/svg">
<g clip-path="url(#clip0_3071_134948)">
<rect width="18" height="18" fill="white" fill-opacity="0.01"/>
<path d="M9.60252 1.7688H8.39716C8.29002 1.7688 8.23645 1.82237 8.23645 1.92951V8.23755H2.25031C2.14317 8.23755 2.0896 8.29112 2.0896 8.39826V9.60362C2.0896 9.71076 2.14317 9.76434 2.25031 9.76434H8.23645V16.0724C8.23645 16.1795 8.29002 16.2331 8.39716 16.2331H9.60252C9.70967 16.2331 9.76324 16.1795 9.76324 16.0724V9.76434H15.7503C15.8575 9.76434 15.911 9.71076 15.911 9.60362V8.39826C15.911 8.29112 15.8575 8.23755 15.7503 8.23755H9.76324V1.92951C9.76324 1.82237 9.70967 1.7688 9.60252 1.7688Z" fill="black" fill-opacity="0.85"/>
</g>
<defs>
<clipPath id="clip0_3071_134948">
<rect width="18" height="18" fill="white"/>
</clipPath>
</defs>
</svg>
