<svg width="10" height="10" viewBox="0 0 10 10" fill="none" xmlns="http://www.w3.org/2000/svg">
<g clip-path="url(#clip0_2517_132472)">
<rect width="10" height="10" fill="white" fill-opacity="0.01"/>
<path d="M8.98459 4.72998L4.76807 1.07038C4.7357 1.04248 4.69441 1.02686 4.65088 1.02686H3.66316C3.58057 1.02686 3.54262 1.12953 3.60512 1.18311L7.5136 4.57596H0.982352C0.933245 4.57596 0.893066 4.61614 0.893066 4.66525V5.33489C0.893066 5.384 0.933245 5.42418 0.982352 5.42418H7.51249L3.604 8.81703C3.5415 8.87172 3.57945 8.97328 3.66204 8.97328H4.68325C4.70445 8.97328 4.72566 8.96547 4.74128 8.95096L8.98459 5.27016C9.02322 5.23656 9.0542 5.19507 9.07543 5.14847C9.09666 5.10188 9.10765 5.05127 9.10765 5.00007C9.10765 4.94887 9.09666 4.89826 9.07543 4.85167C9.0542 4.80508 9.02322 4.76358 8.98459 4.72998Z" fill="#0EAF8F"/>
</g>
<defs>
<clipPath id="clip0_2517_132472">
<rect width="10" height="10" fill="white"/>
</clipPath>
</defs>
</svg>
