<svg width="15" height="13" viewBox="0 0 15 13" fill="none" xmlns="http://www.w3.org/2000/svg">
<path fill-rule="evenodd" clip-rule="evenodd" d="M2.48518 0.406252C2.49453 0.406253 2.5039 0.406254 2.5133 0.406254L12.5946 0.406252C12.8666 0.40622 13.1159 0.406191 13.3187 0.433317C13.5421 0.463187 13.7782 0.533467 13.9723 0.726606C14.1665 0.919746 14.2371 1.15457 14.2672 1.37675C14.2944 1.57851 14.2944 1.82653 14.2944 2.09704V2.15297C14.2944 2.42348 14.2944 2.6715 14.2672 2.87326C14.2371 3.09543 14.1665 3.33026 13.9723 3.5234C13.7877 3.70701 13.5653 3.77958 13.3519 3.81196V7.16026C13.3519 8.30886 13.3519 9.21863 13.2557 9.93064C13.1566 10.6634 12.948 11.2565 12.4777 11.7242C12.0075 12.192 11.4113 12.3995 10.6746 12.498C9.95882 12.5938 9.04421 12.5938 7.8895 12.5938H7.19029C6.03558 12.5938 5.12096 12.5938 4.40517 12.498C3.66851 12.3995 3.07226 12.192 2.60204 11.7242C2.13183 11.2565 1.92315 10.6634 1.82411 9.93064C1.72787 9.21864 1.72788 8.30886 1.72789 7.16026L1.72789 3.81196C1.5145 3.77958 1.29204 3.70701 1.10746 3.5234C0.913294 3.33026 0.842641 3.09543 0.812611 2.87326C0.785341 2.6715 0.785371 2.42348 0.785403 2.15297C0.785404 2.14368 0.785405 2.13435 0.785405 2.125C0.785405 2.11566 0.785404 2.10633 0.785403 2.09704C0.785371 1.82653 0.785341 1.57851 0.812611 1.37675C0.842641 1.15457 0.913294 0.919746 1.10746 0.726606C1.30163 0.533467 1.53771 0.463187 1.76106 0.433317C1.96389 0.406191 2.21323 0.40622 2.48518 0.406252ZM2.67038 3.84375V7.125C2.67038 8.31677 2.67138 9.16343 2.75819 9.80572C2.84318 10.4345 3.00257 10.7968 3.26848 11.0613C3.53439 11.3258 3.8986 11.4844 4.53075 11.5689C5.17646 11.6553 6.02763 11.6563 7.22573 11.6563H7.85405C9.05216 11.6563 9.90333 11.6553 10.549 11.5689C11.1812 11.4844 11.5454 11.3258 11.8113 11.0613C12.0772 10.7968 12.2366 10.4345 12.3216 9.80572C12.4084 9.16343 12.4094 8.31677 12.4094 7.125V3.84375H2.67038ZM1.77391 1.38953L1.77544 1.38867C1.77665 1.38804 1.77874 1.38703 1.78191 1.38573C1.79559 1.38013 1.82598 1.37057 1.88665 1.36246C2.01905 1.34475 2.20378 1.34375 2.5133 1.34375H12.5665C12.876 1.34375 13.0607 1.34475 13.1931 1.36246C13.2538 1.37057 13.2842 1.38013 13.2979 1.38573C13.3011 1.38703 13.3031 1.38804 13.3043 1.38867L13.3059 1.38952L13.3067 1.39105C13.3074 1.39226 13.3084 1.39433 13.3097 1.39748C13.3153 1.41109 13.3249 1.44132 13.3331 1.50167C13.3509 1.63337 13.3519 1.81712 13.3519 2.125C13.3519 2.43288 13.3509 2.61664 13.3331 2.74834C13.3249 2.80869 13.3153 2.83891 13.3097 2.85253C13.3084 2.85568 13.3074 2.85775 13.3067 2.85896L13.3059 2.86049L13.3043 2.86134C13.3031 2.86197 13.3011 2.86298 13.2979 2.86428C13.2842 2.86988 13.2538 2.87944 13.1931 2.88755C13.0607 2.90526 12.876 2.90625 12.5665 2.90625H2.5133C2.20378 2.90625 2.01905 2.90526 1.88665 2.88755C1.82598 2.87944 1.79559 2.86988 1.78191 2.86428C1.77874 2.86298 1.77665 2.86197 1.77544 2.86134L1.77391 2.86048L1.77304 2.85896C1.77241 2.85775 1.77139 2.85568 1.77009 2.85253C1.76446 2.83891 1.75485 2.80869 1.74669 2.74834C1.72889 2.61664 1.72789 2.43288 1.72789 2.125C1.72789 1.81713 1.72889 1.63337 1.74669 1.50167C1.75485 1.44132 1.76446 1.41109 1.77009 1.39748C1.77139 1.39433 1.77241 1.39226 1.77304 1.39105L1.77391 1.38953ZM1.77391 2.86048C1.77366 2.86023 1.77374 2.86027 1.77391 2.86048V2.86048ZM9.42456 5.52535C9.6187 5.69777 9.63556 5.99409 9.46222 6.1872L7.21821 8.6872C7.1288 8.78681 7.00093 8.84375 6.86669 8.84375C6.73245 8.84375 6.60458 8.78681 6.51517 8.6872L5.61756 7.6872C5.44423 7.49409 5.46109 7.19777 5.65523 7.02535C5.84936 6.85293 6.14726 6.8697 6.3206 7.06281L6.86669 7.67119L8.75919 5.56281C8.93252 5.3697 9.23042 5.35293 9.42456 5.52535Z" fill="#00AEEF"/>
</svg>
