<svg width="22" height="22" viewBox="0 0 22 22" fill="none" xmlns="http://www.w3.org/2000/svg">
<g clip-path="url(#clip0_1400_99744)">
<rect width="22" height="22" fill="white" fill-opacity="0.01"/>
<g clip-path="url(#clip1_1400_99744)">
<path d="M21.6699 10.8267L12.1824 1.34409L11.5464 0.708156C11.4015 0.564215 11.2056 0.483429 11.0013 0.483429C10.7971 0.483429 10.6011 0.564215 10.4562 0.708156L0.332803 10.8267C0.18433 10.9746 0.0669894 11.1507 -0.0122926 11.3447C-0.0915745 11.5387 -0.131191 11.7466 -0.128804 11.9561C-0.118983 12.8204 0.600437 13.5104 1.46472 13.5104H2.50825V21.5075H19.4944V13.5104H20.56C20.9799 13.5104 21.3752 13.3459 21.6723 13.0488C21.8186 12.903 21.9345 12.7296 22.0133 12.5386C22.0921 12.3477 22.1323 12.1431 22.1315 11.9365C22.1315 11.5191 21.967 11.1238 21.6699 10.8267V10.8267ZM12.3763 19.7396H9.62633V14.7307H12.3763V19.7396ZM17.7266 11.7425V19.7396H13.9478V14.1414C13.9478 13.5988 13.5082 13.1593 12.9656 13.1593H9.03704C8.49441 13.1593 8.0549 13.5988 8.0549 14.1414V19.7396H4.27611V11.7425H1.91896L11.0038 2.66508L11.571 3.23226L20.0862 11.7425H17.7266Z" fill="#0EAF8F"/>
</g>
</g>
<defs>
<clipPath id="clip0_1400_99744">
<rect width="22" height="22" fill="white"/>
</clipPath>
<clipPath id="clip1_1400_99744">
<rect width="22" height="22" fill="white"/>
</clipPath>
</defs>
</svg>
