<svg width="18" height="18" viewBox="0 0 18 18" fill="none" xmlns="http://www.w3.org/2000/svg">
<g clip-path="url(#clip0_3286_140110)">
<rect width="18" height="18" fill="white" fill-opacity="0.01"/>
<path d="M2.33043 2.25H1.12507C1.03668 2.25 0.964355 2.32232 0.964355 2.41071V15.5893C0.964355 15.6777 1.03668 15.75 1.12507 15.75H2.33043C2.41882 15.75 2.49114 15.6777 2.49114 15.5893V2.41071C2.49114 2.32232 2.41882 2.25 2.33043 2.25ZM16.8751 2.25H15.6697C15.5813 2.25 15.509 2.32232 15.509 2.41071V15.5893C15.509 15.6777 15.5813 15.75 15.6697 15.75H16.8751C16.9635 15.75 17.0358 15.6777 17.0358 15.5893V2.41071C17.0358 2.32232 16.9635 2.25 16.8751 2.25ZM14.4905 8.84531L11.9271 6.82232C11.9056 6.80545 11.8799 6.79496 11.8527 6.79206C11.8256 6.78916 11.7982 6.79396 11.7737 6.80591C11.7491 6.81786 11.7285 6.83648 11.714 6.85963C11.6996 6.88279 11.692 6.90954 11.692 6.93683V8.27679H6.30811V7.01518C6.30811 6.89464 6.16748 6.82634 6.07306 6.90067L3.50967 8.92567C3.49232 8.93907 3.47828 8.95627 3.46862 8.97595C3.45895 8.99563 3.45393 9.01725 3.45393 9.03918C3.45393 9.0611 3.45895 9.08272 3.46862 9.1024C3.47828 9.12208 3.49232 9.13928 3.50967 9.15268L6.07105 11.1777C6.16547 11.252 6.3061 11.1857 6.3061 11.0632V9.72322H11.69V10.9848C11.69 11.1054 11.8307 11.1737 11.9251 11.0993L14.4865 9.07433C14.5628 9.01607 14.5628 8.90357 14.4905 8.84531Z" fill="black" fill-opacity="0.85"/>
</g>
<defs>
<clipPath id="clip0_3286_140110">
<rect width="18" height="18" fill="white"/>
</clipPath>
</defs>
</svg>
