<svg width="24" height="26" viewBox="0 0 24 26" fill="none" xmlns="http://www.w3.org/2000/svg">
<g filter="url(#filter0_d_2255_123252)">
<rect width="24" height="24" rx="2" fill="#34C759"/>
<path d="M12.2734 7.92871L8.97852 17H7.63184L11.4258 7.04688H12.2939L12.2734 7.92871ZM15.0352 17L11.7334 7.92871L11.7129 7.04688H12.5811L16.3887 17H15.0352ZM14.8643 13.3154V14.3955H9.27246V13.3154H14.8643Z" fill="white"/>
<g clip-path="url(#clip0_2255_123252)">
<rect width="14" height="14" transform="translate(5 5)" fill="#34C759"/>
<path d="M18.2507 6.96875H17.1586C17.0054 6.96875 16.8601 7.03906 16.7664 7.15937L10.3242 15.3203L7.23512 11.4063C7.18839 11.3469 7.12882 11.2989 7.0609 11.2659C6.99297 11.2329 6.91845 11.2157 6.84293 11.2156H5.75074C5.64605 11.2156 5.58824 11.3359 5.6523 11.4172L9.93199 16.8391C10.132 17.0922 10.5164 17.0922 10.7179 16.8391L18.3492 7.16875C18.4132 7.08906 18.3554 6.96875 18.2507 6.96875Z" fill="white"/>
</g>
<rect x="0.5" y="0.5" width="23" height="23" rx="1.5" stroke="#34C759"/>
</g>
<defs>
<filter id="filter0_d_2255_123252" x="0" y="0" width="24" height="26" filterUnits="userSpaceOnUse" color-interpolation-filters="sRGB">
<feFlood flood-opacity="0" result="BackgroundImageFix"/>
<feColorMatrix in="SourceAlpha" type="matrix" values="0 0 0 0 0 0 0 0 0 0 0 0 0 0 0 0 0 0 127 0" result="hardAlpha"/>
<feOffset dy="2"/>
<feColorMatrix type="matrix" values="0 0 0 0 0 0 0 0 0 0 0 0 0 0 0 0 0 0 0.043 0"/>
<feBlend mode="normal" in2="BackgroundImageFix" result="effect1_dropShadow_2255_123252"/>
<feBlend mode="normal" in="SourceGraphic" in2="effect1_dropShadow_2255_123252" result="shape"/>
</filter>
<clipPath id="clip0_2255_123252">
<rect width="14" height="14" fill="white" transform="translate(5 5)"/>
</clipPath>
</defs>
</svg>
