<svg width="24" height="26" viewBox="0 0 24 26" fill="none" xmlns="http://www.w3.org/2000/svg">
<g filter="url(#filter0_d_2202_122424)">
<rect width="24" height="24" rx="2" fill="white"/>
<path d="M12.2734 7.92871L8.97852 17H7.63184L11.4258 7.04688H12.2939L12.2734 7.92871ZM15.0352 17L11.7334 7.92871L11.7129 7.04688H12.5811L16.3887 17H15.0352ZM14.8643 13.3154V14.3955H9.27246V13.3154H14.8643Z" fill="#0E0D0D"/>
<g clip-path="url(#clip0_2202_122424)">
<rect width="14" height="14" transform="translate(5 5)" fill="white"/>
<path d="M17.4688 11.2713H16.2032C16.1313 11.2713 16.0626 11.3025 16.0141 11.3572L12.5938 15.2994V6.50098C12.5938 6.43223 12.5376 6.37598 12.4688 6.37598H11.5313C11.4626 6.37598 11.4063 6.43223 11.4063 6.50098V15.2994L7.98602 11.3572C7.93914 11.3025 7.87039 11.2713 7.79695 11.2713H6.53133C6.42508 11.2713 6.36727 11.3979 6.43758 11.4775L11.6235 17.4541C11.6704 17.5082 11.7283 17.5516 11.7935 17.5813C11.8586 17.611 11.9293 17.6264 12.0009 17.6264C12.0724 17.6264 12.1432 17.611 12.2083 17.5813C12.2734 17.5516 12.3313 17.5082 12.3782 17.4541L17.5626 11.4775C17.6329 11.3963 17.5751 11.2713 17.4688 11.2713Z" fill="#0E0D0D"/>
</g>
<rect x="0.5" y="0.5" width="23" height="23" rx="1.5" stroke="#A5A5A9"/>
</g>
<defs>
<filter id="filter0_d_2202_122424" x="0" y="0" width="24" height="26" filterUnits="userSpaceOnUse" color-interpolation-filters="sRGB">
<feFlood flood-opacity="0" result="BackgroundImageFix"/>
<feColorMatrix in="SourceAlpha" type="matrix" values="0 0 0 0 0 0 0 0 0 0 0 0 0 0 0 0 0 0 127 0" result="hardAlpha"/>
<feOffset dy="2"/>
<feColorMatrix type="matrix" values="0 0 0 0 0 0 0 0 0 0 0 0 0 0 0 0 0 0 0.043 0"/>
<feBlend mode="normal" in2="BackgroundImageFix" result="effect1_dropShadow_2202_122424"/>
<feBlend mode="normal" in="SourceGraphic" in2="effect1_dropShadow_2202_122424" result="shape"/>
</filter>
<clipPath id="clip0_2202_122424">
<rect width="14" height="14" fill="white" transform="translate(5 5)"/>
</clipPath>
</defs>
</svg>
