<svg width="24" height="26" viewBox="0 0 24 26" fill="none" xmlns="http://www.w3.org/2000/svg">
<g filter="url(#filter0_d_2202_122423)">
<rect width="24" height="24" rx="2" fill="white"/>
<path d="M12.2734 7.92871L8.97852 17H7.63184L11.4258 7.04688H12.2939L12.2734 7.92871ZM15.0352 17L11.7334 7.92871L11.7129 7.04688H12.5811L16.3887 17H15.0352ZM14.8643 13.3154V14.3955H9.27246V13.3154H14.8643Z" fill="#0E0D0D"/>
<g clip-path="url(#clip0_2202_122423)">
<rect width="14" height="14" transform="translate(5 5)" fill="white"/>
<path d="M17.5628 12.5229L12.3769 6.54631C12.33 6.49223 12.272 6.44886 12.2069 6.41913C12.1418 6.38941 12.0711 6.37402 11.9995 6.37402C11.9279 6.37402 11.8572 6.38941 11.7921 6.41913C11.727 6.44886 11.669 6.49223 11.6222 6.54631L6.43779 12.5229C6.42212 12.5409 6.41197 12.563 6.40853 12.5866C6.40509 12.6103 6.40851 12.6344 6.41839 12.6561C6.42827 12.6779 6.44419 12.6963 6.46425 12.7092C6.48431 12.7222 6.50767 12.7291 6.53154 12.7291H7.79716C7.86904 12.7291 7.93779 12.6979 7.98623 12.6432L11.4065 8.701V17.4994C11.4065 17.5682 11.4628 17.6244 11.5315 17.6244H12.469C12.5378 17.6244 12.594 17.5682 12.594 17.4994V8.701L16.0144 12.6432C16.0612 12.6979 16.13 12.7291 16.2034 12.7291H17.469C17.5753 12.7291 17.6331 12.6041 17.5628 12.5229Z" fill="#0E0D0D"/>
</g>
<rect x="0.5" y="0.5" width="23" height="23" rx="1.5" stroke="#A5A5A9"/>
</g>
<defs>
<filter id="filter0_d_2202_122423" x="0" y="0" width="24" height="26" filterUnits="userSpaceOnUse" color-interpolation-filters="sRGB">
<feFlood flood-opacity="0" result="BackgroundImageFix"/>
<feColorMatrix in="SourceAlpha" type="matrix" values="0 0 0 0 0 0 0 0 0 0 0 0 0 0 0 0 0 0 127 0" result="hardAlpha"/>
<feOffset dy="2"/>
<feColorMatrix type="matrix" values="0 0 0 0 0 0 0 0 0 0 0 0 0 0 0 0 0 0 0.043 0"/>
<feBlend mode="normal" in2="BackgroundImageFix" result="effect1_dropShadow_2202_122423"/>
<feBlend mode="normal" in="SourceGraphic" in2="effect1_dropShadow_2202_122423" result="shape"/>
</filter>
<clipPath id="clip0_2202_122423">
<rect width="14" height="14" fill="white" transform="translate(5 5)"/>
</clipPath>
</defs>
</svg>
