<svg width="24" height="26" viewBox="0 0 24 26" fill="none" xmlns="http://www.w3.org/2000/svg">
<g filter="url(#filter0_d_2202_122425)">
<rect width="24" height="24" rx="2" fill="white"/>
<path d="M12.2734 7.92871L8.97852 17H7.63184L11.4258 7.04688H12.2939L12.2734 7.92871ZM15.0352 17L11.7334 7.92871L11.7129 7.04688H12.5811L16.3887 17H15.0352ZM14.8643 13.3154V14.3955H9.27246V13.3154H14.8643Z" fill="#0E0D0D"/>
<g clip-path="url(#clip0_2202_122425)">
<rect width="14" height="14" transform="translate(5 5)" fill="white"/>
<g clip-path="url(#clip1_2202_122425)">
<path d="M18.2075 11.9106L16.2138 10.3372C16.1971 10.3241 16.177 10.3159 16.1559 10.3137C16.1348 10.3114 16.1135 10.3151 16.0944 10.3244C16.0754 10.3337 16.0593 10.3482 16.0481 10.3662C16.0368 10.3842 16.0309 10.405 16.031 10.4263V11.4372H12.5622V7.96845H13.5747C13.6684 7.96845 13.7216 7.85908 13.6638 7.78564L12.0888 5.79189C12.0783 5.7784 12.065 5.76747 12.0497 5.75996C12.0344 5.75244 12.0175 5.74854 12.0005 5.74854C11.9834 5.74854 11.9666 5.75244 11.9513 5.75996C11.936 5.76747 11.9226 5.7784 11.9122 5.79189L10.3372 7.78564C10.3241 7.80232 10.3159 7.82236 10.3137 7.84346C10.3114 7.86457 10.3151 7.88588 10.3244 7.90496C10.3337 7.92404 10.3482 7.94011 10.3662 7.95134C10.3842 7.96257 10.405 7.9685 10.4263 7.96845H11.4372V11.4372H7.96845V10.4247C7.96845 10.331 7.85908 10.2778 7.78564 10.3356L5.79189 11.9106C5.7784 11.9211 5.76747 11.9344 5.75996 11.9497C5.75244 11.965 5.74854 11.9819 5.74854 11.9989C5.74854 12.016 5.75244 12.0328 5.75996 12.0481C5.76747 12.0634 5.7784 12.0768 5.79189 12.0872L7.78408 13.6622C7.85751 13.72 7.96689 13.6685 7.96689 13.5731V12.5622H11.4356V16.031H10.4231C10.3294 16.031 10.2763 16.1403 10.3341 16.2138L11.9091 18.206C11.9544 18.2638 12.0419 18.2638 12.0856 18.206L13.6606 16.2138C13.7185 16.1403 13.6669 16.031 13.5716 16.031H12.5622V12.5622H16.031V13.5747C16.031 13.6685 16.1403 13.7216 16.2138 13.6638L18.2059 12.0888C18.2194 12.0782 18.2303 12.0647 18.2378 12.0494C18.2454 12.034 18.2494 12.0172 18.2495 12.0001C18.2497 11.983 18.246 11.9661 18.2387 11.9506C18.2314 11.9351 18.2208 11.9214 18.2075 11.9106Z" fill="#0E0D0D"/>
</g>
</g>
<rect x="0.5" y="0.5" width="23" height="23" rx="1.5" stroke="#A5A5A9"/>
</g>
<defs>
<filter id="filter0_d_2202_122425" x="0" y="0" width="24" height="26" filterUnits="userSpaceOnUse" color-interpolation-filters="sRGB">
<feFlood flood-opacity="0" result="BackgroundImageFix"/>
<feColorMatrix in="SourceAlpha" type="matrix" values="0 0 0 0 0 0 0 0 0 0 0 0 0 0 0 0 0 0 127 0" result="hardAlpha"/>
<feOffset dy="2"/>
<feColorMatrix type="matrix" values="0 0 0 0 0 0 0 0 0 0 0 0 0 0 0 0 0 0 0.043 0"/>
<feBlend mode="normal" in2="BackgroundImageFix" result="effect1_dropShadow_2202_122425"/>
<feBlend mode="normal" in="SourceGraphic" in2="effect1_dropShadow_2202_122425" result="shape"/>
</filter>
<clipPath id="clip0_2202_122425">
<rect width="14" height="14" fill="white" transform="translate(5 5)"/>
</clipPath>
<clipPath id="clip1_2202_122425">
<rect width="14" height="14" fill="white" transform="translate(5 5)"/>
</clipPath>
</defs>
</svg>
