<svg width="22" height="22" viewBox="0 0 22 22" fill="none" xmlns="http://www.w3.org/2000/svg">
<g clip-path="url(#clip0_2517_132470)">
<rect width="22" height="22" fill="white" fill-opacity="0.01"/>
<path d="M19.5919 6.09932V6.11006L17.9505 18.5839C17.929 18.7558 17.7808 18.8847 17.6089 18.8847H4.39385C4.21982 18.8847 4.07373 18.7536 4.0501 18.5839L2.40869 6.11006V6.09717V6.13154L4.0501 18.6054C4.07373 18.7751 4.21982 18.9062 4.39385 18.9062H17.6089C17.7808 18.9062 17.929 18.7772 17.9505 18.6054L19.5919 6.13154C19.594 6.1208 19.594 6.11006 19.5919 6.09932Z" fill="#FFD633"/>
<path d="M16.6203 17.4154L17.7783 8.61973L14.7748 10.4695L11 5.43359L7.22519 10.4695L4.22168 8.61973L5.37754 17.4154H16.6203ZM8.58086 13.3549C8.58086 12.0207 9.66582 10.9357 11 10.9357C12.3342 10.9357 13.4191 12.0207 13.4191 13.3549V13.3764C13.4191 14.7105 12.3342 15.7955 11 15.7955C9.66582 15.7955 8.58086 14.7105 8.58086 13.3764V13.3549Z" fill="#FFD633"/>
<path d="M10.9998 15.7739C12.3297 15.7739 13.4125 14.6954 13.4189 13.3655V13.3547C13.4189 12.0206 12.334 10.9356 10.9998 10.9356C9.66559 10.9356 8.58063 12.0206 8.58063 13.3547V13.3655C8.58707 14.6954 9.66989 15.7739 10.9998 15.7739ZM10.9998 12.317C11.5713 12.317 12.0353 12.7811 12.0353 13.3547C12.0353 13.9262 11.5713 14.3924 10.9998 14.3924C10.4283 14.3924 9.96423 13.9284 9.96423 13.3547C9.96423 12.7833 10.4283 12.317 10.9998 12.317Z" fill="#997A00"/>
<path d="M4.04971 18.584C4.07335 18.7537 4.21944 18.8848 4.39346 18.8848H17.6085C17.7804 18.8848 17.9286 18.7558 17.9501 18.584L19.5915 6.11014V6.0994C19.598 5.9619 19.4476 5.86737 19.3273 5.94042L15.1464 8.51639L11.1374 3.16893C11.1213 3.14741 11.1004 3.12994 11.0763 3.11791C11.0523 3.10587 11.0257 3.09961 10.9988 3.09961C10.9719 3.09961 10.9454 3.10587 10.9214 3.11791C10.8973 3.12994 10.8764 3.14741 10.8603 3.16893L6.85342 8.51639L2.67042 5.94042C2.55225 5.86737 2.39971 5.95975 2.40831 6.09725V6.11014L4.04971 18.584ZM7.2251 10.4693L10.9999 5.43339L14.7747 10.4693L17.7782 8.61952L16.6202 17.4152H5.37745L4.22159 8.61952L7.2251 10.4693Z" fill="#997A00"/>
</g>
<defs>
<clipPath id="clip0_2517_132470">
<rect width="22" height="22" fill="white"/>
</clipPath>
</defs>
</svg>
