<svg width="18" height="18" viewBox="0 0 18 18" fill="none" xmlns="http://www.w3.org/2000/svg">
<g clip-path="url(#clip0_3071_134953)">
<rect width="18" height="18" fill="white" fill-opacity="0.01"/>
<g clip-path="url(#clip1_3071_134953)">
<path d="M16.9811 8.88511L14.4177 6.86211C14.3962 6.84524 14.3705 6.83476 14.3433 6.83185C14.3162 6.82895 14.2888 6.83375 14.2643 6.8457C14.2398 6.85765 14.2191 6.87627 14.2046 6.89943C14.1902 6.92258 14.1826 6.94934 14.1827 6.97662V8.2764H9.72283V3.81658H11.0246C11.1452 3.81658 11.2135 3.67595 11.1391 3.58153L9.11412 1.01814C9.10072 1.00079 9.08352 0.986751 9.06384 0.977089C9.04417 0.967426 9.02254 0.962402 9.00062 0.962402C8.9787 0.962402 8.95707 0.967426 8.93739 0.977089C8.91772 0.986751 8.90052 1.00079 8.88711 1.01814L6.86211 3.58153C6.84524 3.60298 6.83476 3.62875 6.83185 3.65588C6.82895 3.68301 6.83375 3.71042 6.8457 3.73495C6.85765 3.75948 6.87627 3.78015 6.89943 3.79458C6.92258 3.80902 6.94934 3.81664 6.97662 3.81658H8.2764V8.2764H3.81658V6.97462C3.81658 6.85408 3.67595 6.78578 3.58153 6.86011L1.01814 8.88511C1.00079 8.89851 0.986751 8.91571 0.977089 8.93538C0.967426 8.95506 0.962402 8.97669 0.962402 8.99861C0.962402 9.02053 0.967426 9.04216 0.977089 9.06184C0.986751 9.08151 1.00079 9.09871 1.01814 9.11211L3.57952 11.1371C3.67394 11.2114 3.81457 11.1452 3.81457 11.0226V9.72283H8.27439V14.1827H6.97261C6.85207 14.1827 6.78377 14.3233 6.8581 14.4177L8.8831 16.9791C8.94136 17.0534 9.05385 17.0534 9.11011 16.9791L11.1351 14.4177C11.2094 14.3233 11.1431 14.1827 11.0206 14.1827H9.72283V9.72283H14.1827V11.0246C14.1827 11.1452 14.3233 11.2135 14.4177 11.1391L16.9791 9.11412C16.9964 9.10054 17.0104 9.08323 17.0201 9.06349C17.0298 9.04376 17.0349 9.02209 17.0351 9.0001C17.0353 8.97811 17.0306 8.95635 17.0212 8.93645C17.0118 8.91654 16.9981 8.89899 16.9811 8.88511Z" fill="black" fill-opacity="0.85"/>
</g>
</g>
<defs>
<clipPath id="clip0_3071_134953">
<rect width="18" height="18" fill="white"/>
</clipPath>
<clipPath id="clip1_3071_134953">
<rect width="18" height="18" fill="white"/>
</clipPath>
</defs>
</svg>
