<svg width="15" height="14" viewBox="0 0 15 14" fill="none" xmlns="http://www.w3.org/2000/svg">
<path fill-rule="evenodd" clip-rule="evenodd" d="M4.39851 0.09375C4.65877 0.09375 4.86975 0.303617 4.86975 0.5625V1.0392C5.28572 1.03124 5.74401 1.03125 6.24804 1.03125H8.83223C9.33626 1.03125 9.79454 1.03124 10.2105 1.0392V0.5625C10.2105 0.303617 10.4215 0.09375 10.6818 0.09375C10.942 0.09375 11.153 0.303617 11.153 0.5625V1.07943C11.3163 1.09182 11.471 1.10739 11.6173 1.12696C12.354 1.22548 12.9503 1.43305 13.4205 1.90078C13.8907 2.3685 14.0994 2.9616 14.1984 3.69436C14.2301 3.92854 14.2513 4.18412 14.2655 4.46255C14.2844 4.51316 14.2946 4.56788 14.2946 4.625C14.2946 4.66833 14.2887 4.71028 14.2776 4.7501C14.2946 5.25134 14.2946 5.82047 14.2946 6.46474V7.78526C14.2946 8.93386 14.2946 9.84363 14.1984 10.5556C14.0994 11.2884 13.8907 11.8815 13.4205 12.3492C12.9503 12.8169 12.354 13.0245 11.6173 13.123C10.9015 13.2188 9.98694 13.2188 8.83223 13.2188H6.24804C5.09333 13.2188 4.17872 13.2188 3.46292 13.123C2.72626 13.0245 2.13001 12.8169 1.6598 12.3492C1.18958 11.8815 0.980905 11.2884 0.881863 10.5556C0.785627 9.84363 0.785635 8.93386 0.785645 7.78526V6.46474C0.785639 5.82047 0.785634 5.25134 0.802615 4.75011C0.791554 4.71028 0.785645 4.66833 0.785645 4.625C0.785645 4.56788 0.795914 4.51316 0.814716 4.46254C0.82897 4.18411 0.850211 3.92854 0.881863 3.69436C0.980905 2.9616 1.18958 2.3685 1.6598 1.90078C2.13001 1.43305 2.72626 1.22548 3.46292 1.12696C3.60927 1.10739 3.76394 1.09182 3.92727 1.07943V0.5625C3.92727 0.303617 4.13825 0.09375 4.39851 0.09375ZM1.73635 5.09375C1.72833 5.50171 1.72813 5.96624 1.72813 6.5V7.75C1.72813 8.94176 1.72913 9.78843 1.81595 10.4307C1.90094 11.0595 2.06032 11.4218 2.32624 11.6863C2.59215 11.9508 2.95635 12.1094 3.5885 12.1939C4.23421 12.2803 5.08538 12.2812 6.28348 12.2812H8.79678C9.99488 12.2812 10.8461 12.2803 11.4918 12.1939C12.1239 12.1094 12.4881 11.9508 12.754 11.6863C13.0199 11.4218 13.1793 11.0595 13.2643 10.4307C13.3511 9.78843 13.3521 8.94176 13.3521 7.75V6.5C13.3521 5.96624 13.3519 5.50171 13.3439 5.09375H1.73635ZM13.3008 4.15625H1.77946C1.78952 4.03788 1.80155 3.92577 1.81595 3.81928C1.90094 3.19047 2.06032 2.8282 2.32624 2.56369C2.59215 2.29918 2.95635 2.14064 3.58851 2.0561C4.23421 1.96975 5.08538 1.96875 6.28348 1.96875H8.79678C9.99488 1.96875 10.8461 1.96975 11.4918 2.0561C12.1239 2.14064 12.4881 2.29918 12.754 2.56369C13.0199 2.8282 13.1793 3.19047 13.2643 3.81928C13.2787 3.92577 13.2907 4.03788 13.3008 4.15625ZM10.3676 8.84375C10.1073 8.84375 9.89635 9.05362 9.89635 9.3125C9.89635 9.57138 10.1073 9.78125 10.3676 9.78125C10.6279 9.78125 10.8388 9.57138 10.8388 9.3125C10.8388 9.05362 10.6279 8.84375 10.3676 8.84375ZM8.95386 9.3125C8.95386 8.53585 9.58681 7.90625 10.3676 7.90625C11.1484 7.90625 11.7813 8.53585 11.7813 9.3125C11.7813 10.0892 11.1484 10.7188 10.3676 10.7188C9.58681 10.7188 8.95386 10.0892 8.95386 9.3125Z" fill="#00AEEF"/>
</svg>
