<svg width="24" height="26" viewBox="0 0 24 26" fill="none" xmlns="http://www.w3.org/2000/svg">
<g clip-path="url(#clip0_5758_1159)">
<path d="M16.5 8.9375C16.5 8.72201 16.579 8.51535 16.7197 8.36298C16.8603 8.2106 17.0511 8.125 17.25 8.125H20.25C20.4489 8.125 20.6397 8.2106 20.7803 8.36298C20.921 8.51535 21 8.72201 21 8.9375V10.5625C21 10.778 20.921 10.9847 20.7803 11.137C20.6397 11.2894 20.4489 11.375 20.25 11.375H17.25C17.0511 11.375 16.8603 11.2894 16.7197 11.137C16.579 10.9847 16.5 10.778 16.5 10.5625V8.9375Z" fill="#0EAF8F"/>
<path d="M3 3.25C2.20435 3.25 1.44129 3.59241 0.87868 4.2019C0.316071 4.8114 0 5.63805 0 6.5L0 19.5C0 20.362 0.316071 21.1886 0.87868 21.7981C1.44129 22.4076 2.20435 22.75 3 22.75H21C21.7956 22.75 22.5587 22.4076 23.1213 21.7981C23.6839 21.1886 24 20.362 24 19.5V6.5C24 5.63805 23.6839 4.8114 23.1213 4.2019C22.5587 3.59241 21.7956 3.25 21 3.25H3ZM22.5 6.5V14.625H1.5V6.5C1.5 6.06902 1.65804 5.6557 1.93934 5.35095C2.22064 5.0462 2.60218 4.875 3 4.875H21C21.3978 4.875 21.7794 5.0462 22.0607 5.35095C22.342 5.6557 22.5 6.06902 22.5 6.5ZM21 21.125H3C2.60218 21.125 2.22064 20.9538 1.93934 20.649C1.65804 20.3443 1.5 19.931 1.5 19.5V17.875H22.5V19.5C22.5 19.931 22.342 20.3443 22.0607 20.649C21.7794 20.9538 21.3978 21.125 21 21.125Z" fill="#0EAF8F"/>
</g>
<defs>
<clipPath id="clip0_5758_1159">
<rect width="24" height="26" fill="white"/>
</clipPath>
</defs>
</svg>
