<svg width="21" height="19" viewBox="0 0 21 19" fill="none" xmlns="http://www.w3.org/2000/svg">
<path d="M19.3805 13.3312H6.09307L6.76024 11.9723L17.8454 11.9522C18.2203 11.9522 18.5416 11.6845 18.6085 11.3141L20.1437 2.7213C20.1838 2.49594 20.1236 2.26388 19.9763 2.08761C19.9035 2.00085 19.8127 1.93097 19.7102 1.88281C19.6078 1.83465 19.496 1.80936 19.3828 1.80869L5.28088 1.76183L5.16039 1.19508C5.08452 0.833607 4.75875 0.570312 4.38835 0.570312H0.940974C0.732075 0.570313 0.531732 0.653297 0.384019 0.801011C0.236305 0.948724 0.15332 1.14907 0.15332 1.35797C0.15332 1.56686 0.236305 1.76721 0.384019 1.91492C0.531732 2.06263 0.732075 2.14562 0.940974 2.14562H3.7502L4.27679 4.64915L5.57318 10.9258L3.90416 13.6503C3.81748 13.7673 3.76528 13.9062 3.75345 14.0513C3.74162 14.1964 3.77064 14.3419 3.83722 14.4714C3.9711 14.7369 4.24109 14.9043 4.54008 14.9043H5.94135C5.64261 15.301 5.48126 15.7843 5.4817 16.281C5.4817 17.5439 6.5081 18.5703 7.77102 18.5703C9.03395 18.5703 10.0603 17.5439 10.0603 16.281C10.0603 15.7834 9.89523 15.2992 9.6007 14.9043H13.1953C12.8966 15.301 12.7353 15.7843 12.7357 16.281C12.7357 17.5439 13.7621 18.5703 15.025 18.5703C16.2879 18.5703 17.3143 17.5439 17.3143 16.281C17.3143 15.7834 17.1492 15.2992 16.8547 14.9043H19.3828C19.8156 14.9043 20.1704 14.5517 20.1704 14.1166C20.1691 13.9079 20.0854 13.7082 19.9374 13.5611C19.7894 13.4139 19.5892 13.3313 19.3805 13.3312ZM5.60888 3.31483L18.4568 3.35722L17.1983 10.4037L7.10609 10.4216L5.60888 3.31483ZM7.77102 16.9861C7.38277 16.9861 7.06593 16.6692 7.06593 16.281C7.06593 15.8927 7.38277 15.5759 7.77102 15.5759C8.15927 15.5759 8.47612 15.8927 8.47612 16.281C8.47612 16.468 8.40183 16.6473 8.2696 16.7796C8.13737 16.9118 7.95803 16.9861 7.77102 16.9861ZM15.025 16.9861C14.6368 16.9861 14.3199 16.6692 14.3199 16.281C14.3199 15.8927 14.6368 15.5759 15.025 15.5759C15.4133 15.5759 15.7301 15.8927 15.7301 16.281C15.7301 16.468 15.6558 16.6473 15.5236 16.7796C15.3914 16.9118 15.212 16.9861 15.025 16.9861Z" fill="#0EAF8F" fill-opacity="0.85"/>
</svg>
