<svg width="16" height="15" viewBox="0 0 16 15" fill="none" xmlns="http://www.w3.org/2000/svg">
<path fill-rule="evenodd" clip-rule="evenodd" d="M2.48542 1.40625C2.49477 1.40625 2.50414 1.40625 2.51354 1.40625L12.5948 1.40625C12.8668 1.40622 13.1161 1.40619 13.319 1.43332C13.5423 1.46319 13.7784 1.53347 13.9726 1.72661C14.1667 1.91975 14.2374 2.15457 14.2674 2.37675C14.2947 2.57851 14.2947 2.82653 14.2946 3.09704V3.15297C14.2947 3.42348 14.2947 3.6715 14.2674 3.87326C14.2374 4.09543 14.1667 4.33026 13.9726 4.5234C13.788 4.70701 13.5655 4.77958 13.3521 4.81196V8.16026C13.3521 9.30886 13.3522 10.2186 13.2559 10.9306C13.1569 11.6634 12.9482 12.2565 12.478 12.7242C12.0078 13.192 11.4115 13.3995 10.6749 13.498C9.95906 13.5938 9.04445 13.5938 7.88974 13.5938H7.19053C6.03582 13.5938 5.12121 13.5938 4.40541 13.498C3.66875 13.3995 3.0725 13.192 2.60229 12.7242C2.13207 12.2565 1.9234 11.6634 1.82435 10.9306C1.72812 10.2186 1.72813 9.30886 1.72814 8.16026L1.72814 4.81196C1.51474 4.77958 1.29228 4.70701 1.1077 4.5234C0.913538 4.33026 0.842885 4.09543 0.812855 3.87326C0.785585 3.6715 0.785615 3.42348 0.785647 3.15297C0.785648 3.14368 0.785649 3.13435 0.785649 3.125C0.785649 3.11566 0.785648 3.10633 0.785647 3.09704C0.785615 2.82653 0.785585 2.57851 0.812855 2.37675C0.842885 2.15457 0.913538 1.91975 1.1077 1.72661C1.30187 1.53347 1.53795 1.46319 1.76131 1.43332C1.96414 1.40619 2.21348 1.40622 2.48542 1.40625ZM2.67062 4.84375V8.125C2.67062 9.31677 2.67162 10.1634 2.75844 10.8057C2.84343 11.4345 3.00281 11.7968 3.26873 12.0613C3.53464 12.3258 3.89885 12.4844 4.531 12.5689C5.1767 12.6553 6.02787 12.6563 7.22597 12.6563H7.8543C9.0524 12.6563 9.90357 12.6553 10.5493 12.5689C11.1814 12.4844 11.5456 12.3258 11.8115 12.0613C12.0775 11.7968 12.2368 11.4345 12.3218 10.8057C12.4087 10.1634 12.4097 9.31677 12.4097 8.125V4.84375H2.67062ZM1.77415 2.38953L1.77568 2.38867C1.7769 2.38804 1.77898 2.38703 1.78215 2.38573C1.79583 2.38013 1.82622 2.37057 1.88689 2.36246C2.01929 2.34475 2.20402 2.34375 2.51354 2.34375H12.5667C12.8763 2.34375 13.061 2.34475 13.1934 2.36246C13.2541 2.37057 13.2844 2.38013 13.2981 2.38573C13.3013 2.38703 13.3034 2.38804 13.3046 2.38867L13.3061 2.38952L13.307 2.39105C13.3076 2.39226 13.3086 2.39433 13.3099 2.39748C13.3156 2.41109 13.3252 2.44132 13.3333 2.50167C13.3511 2.63337 13.3521 2.81712 13.3521 3.125C13.3521 3.43288 13.3511 3.61664 13.3333 3.74834C13.3252 3.80869 13.3156 3.83891 13.3099 3.85253C13.3086 3.85568 13.3076 3.85775 13.307 3.85896L13.3061 3.86049L13.3046 3.86134C13.3034 3.86197 13.3013 3.86298 13.2981 3.86428C13.2844 3.86988 13.2541 3.87944 13.1934 3.88755C13.061 3.90526 12.8763 3.90625 12.5667 3.90625H2.51354C2.20402 3.90625 2.01929 3.90526 1.88689 3.88755C1.82622 3.87944 1.79583 3.86988 1.78215 3.86428C1.77898 3.86298 1.7769 3.86197 1.77568 3.86134L1.77415 3.86048L1.77329 3.85896C1.77265 3.85775 1.77164 3.85568 1.77033 3.85253C1.7647 3.83891 1.75509 3.80869 1.74694 3.74834C1.72914 3.61664 1.72814 3.43288 1.72814 3.125C1.72814 2.81713 1.72914 2.63337 1.74694 2.50167C1.75509 2.44132 1.7647 2.41109 1.77033 2.39748C1.77164 2.39433 1.77265 2.39226 1.77329 2.39105L1.77415 2.38953ZM1.77415 3.86048C1.7739 3.86023 1.77398 3.86027 1.77415 3.86048V3.86048ZM9.4248 6.52535C9.61894 6.69777 9.6358 6.99409 9.46247 7.1872L7.21845 9.6872C7.12904 9.78681 7.00117 9.84375 6.86693 9.84375C6.73269 9.84375 6.60482 9.78681 6.51541 9.6872L5.61781 8.6872C5.44447 8.49409 5.46133 8.19777 5.65547 8.02535C5.84961 7.85293 6.14751 7.8697 6.32084 8.06281L6.86693 8.67119L8.75943 6.56281C8.93277 6.3697 9.23067 6.35293 9.4248 6.52535Z" fill="#00AEEF"/>
</svg>
