<svg width="14" height="14" viewBox="0 0 14 14" fill="none" xmlns="http://www.w3.org/2000/svg">
<g clip-path="url(#clip0_7468_16112)">
<path d="M9.05936 7.27072C9.23022 7.10077 9.23022 6.82523 9.05936 6.65528L7.60103 5.20466C7.43017 5.03471 7.15316 5.03471 6.98231 5.20466C6.81145 5.37461 6.81145 5.65015 6.98231 5.8201L7.69378 6.52781H3.5C3.25838 6.52781 3.0625 6.72265 3.0625 6.963C3.0625 7.20334 3.25838 7.39818 3.5 7.39818H7.69378L6.98231 8.10589C6.81145 8.27584 6.81145 8.55139 6.98231 8.72134C7.15316 8.89129 7.43017 8.89129 7.60103 8.72134L9.05936 7.27072Z" fill="white"/>
<path fill-rule="evenodd" clip-rule="evenodd" d="M8.13466 0.725342H8.78201C9.57977 0.72533 10.2228 0.725321 10.7285 0.792955C11.2536 0.863174 11.6957 1.0134 12.0468 1.36266C12.3979 1.71192 12.5489 2.15167 12.6195 2.67396C12.6875 3.17701 12.6875 3.81663 12.6875 4.61017V9.31582C12.6875 10.1094 12.6875 10.749 12.6195 11.252C12.5489 11.7743 12.3979 12.2141 12.0468 12.5633C11.6957 12.9126 11.2536 13.0628 10.7285 13.133C10.2228 13.2007 9.57977 13.2007 8.78201 13.2007H8.13466C7.3369 13.2007 6.69388 13.2007 6.18815 13.133C5.66308 13.0628 5.22099 12.9126 4.86987 12.5633C4.63665 12.3314 4.49171 12.0594 4.39998 11.7499C3.84508 11.7492 3.38276 11.7431 3.00818 11.693C2.56255 11.6334 2.17618 11.5045 1.86778 11.1977C1.55937 10.8909 1.42971 10.5066 1.36979 10.0633C1.31248 9.63925 1.31249 9.1021 1.3125 8.44479V5.48123C1.31249 4.82391 1.31248 4.28675 1.36979 3.86267C1.42971 3.41939 1.55937 3.03507 1.86778 2.7283C2.17618 2.42153 2.56255 2.29255 3.00818 2.23295C3.38276 2.18286 3.84508 2.17678 4.39998 2.17606C4.49171 1.86655 4.63665 1.59464 4.86987 1.36266C5.22099 1.0134 5.66308 0.863174 6.18815 0.792955C6.69388 0.725321 7.3369 0.72533 8.13466 0.725342ZM4.22917 9.31583C4.22916 9.92503 4.22915 10.4435 4.25991 10.8791C3.77317 10.8773 3.41132 10.8688 3.12478 10.8304C2.77617 10.7838 2.60523 10.7004 2.4865 10.5823C2.36776 10.4641 2.28386 10.2941 2.23699 9.94735C2.18843 9.58806 2.1875 9.10975 2.1875 8.41361V5.51238C2.1875 4.81625 2.18843 4.33793 2.23699 3.97865C2.28386 3.63188 2.36776 3.46185 2.4865 3.34374C2.60523 3.22564 2.77617 3.14218 3.12478 3.09556C3.41132 3.05724 3.77317 3.04874 4.25991 3.04686C4.22915 3.48248 4.22916 4.00097 4.22917 4.61017L4.22917 4.64201C4.22917 4.88236 4.42504 5.07719 4.66667 5.07719C4.90829 5.07719 5.10417 4.88236 5.10417 4.64201C5.10417 3.80911 5.1051 3.22822 5.16434 2.78993C5.22188 2.36416 5.32715 2.13869 5.48859 1.9781C5.65004 1.81751 5.8767 1.71281 6.30474 1.65556C6.74536 1.59664 7.32934 1.59571 8.16667 1.59571H8.75C9.58733 1.59571 10.1713 1.59664 10.6119 1.65556C11.04 1.71281 11.2666 1.81751 11.4281 1.9781C11.5895 2.13869 11.6948 2.36416 11.7523 2.78993C11.8116 3.22822 11.8125 3.80911 11.8125 4.64201V9.28399C11.8125 10.1169 11.8116 10.6978 11.7523 11.1361C11.6948 11.5618 11.5895 11.7873 11.4281 11.9479C11.2666 12.1085 11.04 12.2132 10.6119 12.2704C10.1713 12.3294 9.58733 12.3303 8.75 12.3303H8.16667C7.32934 12.3303 6.74536 12.3294 6.30474 12.2704C5.8767 12.2132 5.65004 12.1085 5.48859 11.9479C5.32715 11.7873 5.22188 11.5618 5.16434 11.1361C5.1051 10.6978 5.10417 10.1169 5.10417 9.28399C5.10417 9.04364 4.90829 8.8488 4.66667 8.8488C4.42504 8.8488 4.22917 9.04364 4.22917 9.28399L4.22917 9.31583Z" fill="white"/>
</g>
<defs>
<clipPath id="clip0_7468_16112">
<rect width="14" height="13.9259" rx="5" fill="white"/>
</clipPath>
</defs>
</svg>
