<svg width="18" height="19" viewBox="0 0 18 19" fill="none" xmlns="http://www.w3.org/2000/svg">
<g clip-path="url(#clip0_570_12455)">
<rect width="18" height="18" transform="translate(0 0.968872)" fill="white" fill-opacity="0.01"/>
<g clip-path="url(#clip1_570_12455)">
<path d="M15.4287 1.93316H13.2591V1.12959C13.2591 1.04119 13.1867 0.968872 13.0984 0.968872H11.9734C11.885 0.968872 11.8126 1.04119 11.8126 1.12959V1.93316H8.75907V1.12959C8.75907 1.04119 8.68675 0.968872 8.59835 0.968872H7.47335C7.38496 0.968872 7.31264 1.04119 7.31264 1.12959V1.93316H5.143C4.78742 1.93316 4.50014 2.22043 4.50014 2.57601V4.98673H2.57157C2.21599 4.98673 1.92871 5.27401 1.92871 5.62959V18.326C1.92871 18.6816 2.21599 18.9689 2.57157 18.9689H12.8573C13.2129 18.9689 13.5001 18.6816 13.5001 18.326V16.3974H15.4287C15.7843 16.3974 16.0716 16.1102 16.0716 15.7546V2.57601C16.0716 2.22043 15.7843 1.93316 15.4287 1.93316ZM12.0537 17.5224H3.37514V6.43316H7.7546V9.92869C7.7546 10.3727 8.1142 10.7323 8.55818 10.7323H12.0537V17.5224ZM12.0537 9.44655H9.04032V6.43316H9.04434L12.0537 9.44253V9.44655ZM14.6251 14.951H13.5001V8.84387L9.643 4.98673H5.94657V3.37959H7.31264V4.02244C7.31264 4.11084 7.38496 4.18316 7.47335 4.18316H8.59835C8.68675 4.18316 8.75907 4.11084 8.75907 4.02244V3.37959H11.8126V4.02244C11.8126 4.11084 11.885 4.18316 11.9734 4.18316H13.0984C13.1867 4.18316 13.2591 4.11084 13.2591 4.02244V3.37959H14.6251V14.951Z" fill="#0EAF8F"/>
</g>
</g>
<defs>
<clipPath id="clip0_570_12455">
<rect width="18" height="18" fill="white" transform="translate(0 0.968872)"/>
</clipPath>
<clipPath id="clip1_570_12455">
<rect width="18" height="18" fill="white" transform="translate(0 0.968872)"/>
</clipPath>
</defs>
</svg>
