<svg width="12" height="14" viewBox="0 0 12 14" fill="none" xmlns="http://www.w3.org/2000/svg">
<path fill-rule="evenodd" clip-rule="evenodd" d="M3.23663 1.901C3.30685 1.24231 3.86434 0.729248 4.54167 0.729248H7.45833C8.13566 0.729248 8.69315 1.24231 8.76338 1.901C9.20855 1.91006 9.59347 1.93308 9.92213 1.99345C10.3643 2.07467 10.7406 2.2294 11.0468 2.5356C11.3979 2.88672 11.5489 3.32882 11.6195 3.85388C11.6875 4.35961 11.6875 5.00263 11.6875 5.80039V9.36441C11.6875 10.1622 11.6875 10.8052 11.6195 11.3109C11.5489 11.836 11.3979 12.2781 11.0468 12.6292C10.6957 12.9803 10.2536 13.1313 9.72852 13.2019C9.22279 13.2699 8.57977 13.2699 7.78201 13.2699H4.21799C3.42023 13.2699 2.77721 13.2699 2.27148 13.2019C1.74642 13.1313 1.30432 12.9803 0.953205 12.6292C0.602087 12.2781 0.451065 11.836 0.380472 11.3109C0.312479 10.8052 0.312488 10.1622 0.3125 9.36441V5.80039C0.312488 5.00263 0.312479 4.35961 0.380472 3.85388C0.451065 3.32882 0.602087 2.88672 0.953205 2.5356C1.25941 2.2294 1.63571 2.07467 2.07787 1.99345C2.40653 1.93308 2.79145 1.91006 3.23663 1.901ZM3.23778 2.77624C2.8189 2.78519 2.4961 2.80627 2.23595 2.85405C1.90531 2.91479 1.71394 3.01231 1.57192 3.15432C1.41048 3.31577 1.30522 3.54244 1.24767 3.97047C1.18843 4.41109 1.1875 4.99507 1.1875 5.8324V9.3324C1.1875 10.1697 1.18843 10.7537 1.24767 11.1943C1.30522 11.6224 1.41048 11.849 1.57192 12.0105C1.73337 12.1719 1.96004 12.2772 2.38807 12.3347C2.82869 12.394 3.41267 12.3949 4.25 12.3949H7.75C8.58733 12.3949 9.17131 12.394 9.61193 12.3347C10.04 12.2772 10.2666 12.1719 10.4281 12.0105C10.5895 11.849 10.6948 11.6224 10.7523 11.1943C10.8116 10.7537 10.8125 10.1697 10.8125 9.3324V5.8324C10.8125 4.99507 10.8116 4.41109 10.7523 3.97047C10.6948 3.54244 10.5895 3.31577 10.4281 3.15432C10.2861 3.01231 10.0947 2.91479 9.76405 2.85405C9.5039 2.80627 9.18111 2.78519 8.76222 2.77624C8.68727 3.42992 8.13209 3.93758 7.45833 3.93758H4.54167C3.86792 3.93758 3.31274 3.42992 3.23778 2.77624ZM4.54167 1.60425C4.30004 1.60425 4.10417 1.80012 4.10417 2.04175V2.62508C4.10417 2.86671 4.30004 3.06258 4.54167 3.06258H7.45833C7.69996 3.06258 7.89583 2.86671 7.89583 2.62508V2.04175C7.89583 1.80012 7.69996 1.60425 7.45833 1.60425H4.54167ZM8.06984 6.11823C8.2347 6.29487 8.22516 6.57172 8.04852 6.73658L5.54852 9.06992C5.38042 9.2268 5.11958 9.2268 4.95149 9.06992L3.95149 8.13658C3.77485 7.97172 3.7653 7.69487 3.93016 7.51823C4.09503 7.34159 4.37187 7.33205 4.54852 7.49691L5.25 8.15163L7.45149 6.09691C7.62813 5.93205 7.90497 5.94159 8.06984 6.11823Z" fill="white"/>
</svg>
