<svg width="18" height="18" viewBox="0 0 18 18" fill="none" xmlns="http://www.w3.org/2000/svg">
<g clip-path="url(#clip0_3071_134963)">
<rect width="18" height="18" fill="white" fill-opacity="0.01"/>
<path d="M15.5894 2.57017H14.4644V1.12374C14.4644 0.856557 14.2495 0.641602 13.9823 0.641602H2.08944C1.82226 0.641602 1.6073 0.856557 1.6073 1.12374V6.58803C1.6073 6.85522 1.82226 7.07017 2.08944 7.07017H13.9823C14.2495 7.07017 14.4644 6.85522 14.4644 6.58803V3.85589H15.1073V7.87374H8.05596C7.61199 7.87374 7.25239 8.23334 7.25239 8.67732V11.4095H6.36846C6.28007 11.4095 6.20775 11.4818 6.20775 11.5702V16.1505C6.20775 16.1626 6.20976 16.1766 6.21176 16.1887C6.19489 16.4201 6.2259 16.6524 6.30287 16.8713C6.37983 17.0901 6.50109 17.2907 6.65908 17.4606C6.81707 17.6304 7.00838 17.7659 7.22107 17.8585C7.43377 17.9511 7.66327 17.9988 7.89525 17.9987C8.82739 17.9987 9.58275 17.2434 9.58275 16.3112C9.58275 16.2691 9.58074 16.2289 9.57873 16.1887C9.58074 16.1766 9.58275 16.1646 9.58275 16.1505V11.5702C9.58275 11.4818 9.51043 11.4095 9.42203 11.4095H8.5381V9.15946H15.5894C16.0334 9.15946 16.393 8.79986 16.393 8.35589V3.37374C16.393 2.92977 16.0334 2.57017 15.5894 2.57017ZM13.1787 5.78446H2.89301V1.92732H13.1787V5.78446ZM8.29703 16.3112C8.29703 16.5322 8.11623 16.713 7.89525 16.713C7.67426 16.713 7.49346 16.5322 7.49346 16.3112V12.6952H8.29703V16.3112Z" fill="black" fill-opacity="0.85"/>
</g>
<defs>
<clipPath id="clip0_3071_134963">
<rect width="18" height="18" fill="white"/>
</clipPath>
</defs>
</svg>
