<svg width="15" height="14" viewBox="0 0 15 14" fill="none" xmlns="http://www.w3.org/2000/svg">
<g clip-path="url(#clip0_7468_16092)">
<path fill-rule="evenodd" clip-rule="evenodd" d="M7.4021 0.729248H7.47323C8.90395 0.729241 10.0252 0.729235 10.9 0.839934C11.7954 0.95324 12.502 1.18969 13.0566 1.71166C13.6112 2.23363 13.8624 2.89865 13.9828 3.74141C14.1004 4.56478 14.1004 5.62005 14.1004 6.96661V7.03355C14.1004 8.38011 14.1004 9.43539 13.9828 10.2588C13.8624 11.1015 13.6112 11.7665 13.0566 12.2885C12.502 12.8105 11.7954 13.0469 10.9 13.1602C10.0252 13.2709 8.90395 13.2709 7.47322 13.2709H7.4021C5.97138 13.2709 4.85015 13.2709 3.97532 13.1602C3.07989 13.0469 2.37331 12.8105 1.81872 12.2885C1.26412 11.7665 1.01289 11.1015 0.892506 10.2588C0.774888 9.43539 0.774894 8.38012 0.774902 7.03355V6.96661C0.774894 5.62005 0.774888 4.56478 0.892506 3.74141C1.01289 2.89865 1.26412 2.23363 1.81872 1.71166C2.37331 1.18969 3.07989 0.95324 3.97532 0.839934C4.85015 0.729235 5.97138 0.729241 7.4021 0.729248ZM4.0992 1.70713C3.30686 1.80739 2.82917 1.99808 2.4761 2.33038C2.12304 2.66268 1.92043 3.11227 1.8139 3.858C1.70558 4.61632 1.70459 5.61278 1.70459 7.00008C1.70459 8.38738 1.70558 9.38384 1.8139 10.1422C1.92043 10.8879 2.12304 11.3375 2.4761 11.6698C2.82917 12.0021 3.30686 12.1928 4.0992 12.293C4.90492 12.395 5.96366 12.3959 7.43766 12.3959C8.91167 12.3959 9.97041 12.395 10.7761 12.293C11.5685 12.1928 12.0462 12.0021 12.3992 11.6698C12.7523 11.3375 12.9549 10.8879 13.0614 10.1422C13.1697 9.38384 13.1707 8.38738 13.1707 7.00008C13.1707 5.61278 13.1697 4.61632 13.0614 3.858C12.9549 3.11227 12.7523 2.66268 12.3992 2.33038C12.0462 1.99808 11.5685 1.80739 10.7761 1.70713C9.97041 1.60518 8.91167 1.60425 7.43766 1.60425C5.96366 1.60425 4.90492 1.60518 4.0992 1.70713ZM6.51866 3.7666C6.70457 3.93324 6.71174 4.21017 6.53469 4.38514L4.76386 6.13514C4.67612 6.22184 4.55446 6.27092 4.42725 6.27092C4.30003 6.27092 4.17837 6.22184 4.09064 6.13514L3.3823 5.43514C3.20525 5.26017 3.21243 4.98324 3.39833 4.81661C3.58424 4.64997 3.87847 4.65672 4.05552 4.83169L4.42725 5.19904L5.86147 3.78169C6.03852 3.60672 6.33276 3.59997 6.51866 3.7666ZM7.59261 5.25008C7.59261 5.00846 7.80073 4.81258 8.05745 4.81258H11.1564C11.4131 4.81258 11.6213 5.00846 11.6213 5.25008C11.6213 5.49171 11.4131 5.68758 11.1564 5.68758H8.05745C7.80073 5.68758 7.59261 5.49171 7.59261 5.25008ZM6.51866 7.84994C6.70457 8.01658 6.71174 8.2935 6.53469 8.46847L4.76386 10.2185C4.67612 10.3052 4.55446 10.3542 4.42725 10.3542C4.30003 10.3542 4.17837 10.3052 4.09064 10.2185L3.3823 9.51847C3.20525 9.3435 3.21243 9.06658 3.39833 8.89994C3.58424 8.7333 3.87847 8.74006 4.05552 8.91502L4.42725 9.28237L5.86147 7.86502C6.03852 7.69005 6.33276 7.6833 6.51866 7.84994ZM7.59261 9.33342C7.59261 9.09179 7.80073 8.89592 8.05745 8.89592H11.1564C11.4131 8.89592 11.6213 9.09179 11.6213 9.33342C11.6213 9.57504 11.4131 9.77092 11.1564 9.77092H8.05745C7.80073 9.77092 7.59261 9.57504 7.59261 9.33342Z" fill="#00AEEF"/>
</g>
<defs>
<clipPath id="clip0_7468_16092">
<rect width="14.875" height="14" fill="white"/>
</clipPath>
</defs>
</svg>
