<svg width="20" height="20" viewBox="0 0 20 20" fill="none" xmlns="http://www.w3.org/2000/svg">
<rect width="20" height="20" transform="translate(-0.000488281)" fill="white" fill-opacity="0.01"/>
<g clip-path="url(#clip0_2204_122908)">
<path d="M14.7139 6.4668H12.8924L12.4585 5.25073C12.4285 5.16751 12.3736 5.09559 12.3012 5.04477C12.2288 4.99395 12.1425 4.96672 12.054 4.9668H7.94512C7.76431 4.9668 7.60226 5.08064 7.54199 5.25073L7.10672 6.4668H5.2853C4.69333 6.4668 4.21387 6.94626 4.21387 7.53823V13.6454C4.21387 14.2373 4.69333 14.7168 5.2853 14.7168H14.7139C15.3058 14.7168 15.7853 14.2373 15.7853 13.6454V7.53823C15.7853 6.94626 15.3058 6.4668 14.7139 6.4668ZM14.821 13.6454C14.821 13.7043 14.7728 13.7525 14.7139 13.7525H5.2853C5.22637 13.7525 5.17815 13.7043 5.17815 13.6454V7.53823C5.17815 7.4793 5.22637 7.43108 5.2853 7.43108H7.78574L8.01476 6.7909L8.32146 5.93108H11.6764L11.9831 6.7909L12.2121 7.43108H14.7139C14.7728 7.43108 14.821 7.4793 14.821 7.53823V13.6454ZM9.99958 8.28823C8.81565 8.28823 7.85672 9.24715 7.85672 10.4311C7.85672 11.615 8.81565 12.5739 9.99958 12.5739C11.1835 12.5739 12.1424 11.615 12.1424 10.4311C12.1424 9.24715 11.1835 8.28823 9.99958 8.28823ZM9.99958 11.7168C9.28976 11.7168 8.71387 11.1409 8.71387 10.4311C8.71387 9.72126 9.28976 9.14537 9.99958 9.14537C10.7094 9.14537 11.2853 9.72126 11.2853 10.4311C11.2853 11.1409 10.7094 11.7168 9.99958 11.7168Z" fill="white"/>
</g>
<defs>
<clipPath id="clip0_2204_122908">
<rect width="12" height="12" fill="white" transform="translate(3.99951 4)"/>
</clipPath>
</defs>
</svg>
