<svg width="15" height="15" viewBox="0 0 15 15" fill="none" xmlns="http://www.w3.org/2000/svg">
<path fill-rule="evenodd" clip-rule="evenodd" d="M4.375 1.09375C4.63388 1.09375 4.84375 1.30362 4.84375 1.5625V2.0392C5.25752 2.03124 5.71338 2.03125 6.21474 2.03125H8.78526C9.28662 2.03125 9.74248 2.03124 10.1563 2.0392V1.5625C10.1563 1.30362 10.3661 1.09375 10.625 1.09375C10.8839 1.09375 11.0938 1.30362 11.0938 1.5625V2.07943C11.2562 2.09182 11.4101 2.10739 11.5556 2.12696C12.2884 2.22548 12.8815 2.43305 13.3492 2.90078C13.8169 3.3685 14.0245 3.9616 14.123 4.69436C14.1545 4.92854 14.1757 5.18412 14.1898 5.46255C14.2085 5.51316 14.2188 5.56788 14.2188 5.625C14.2188 5.66833 14.2129 5.71028 14.2019 5.7501C14.2188 6.25134 14.2188 6.82047 14.2188 7.46474V8.78526C14.2188 9.93386 14.2188 10.8436 14.123 11.5556C14.0245 12.2884 13.8169 12.8815 13.3492 13.3492C12.8815 13.8169 12.2884 14.0245 11.5556 14.123C10.8436 14.2188 9.93386 14.2188 8.78526 14.2188H6.21474C5.06614 14.2188 4.15637 14.2188 3.44436 14.123C2.7116 14.0245 2.1185 13.8169 1.65078 13.3492C1.18305 12.8815 0.975477 12.2884 0.87696 11.5556C0.781232 10.8436 0.78124 9.93386 0.78125 8.78526V7.46474C0.781245 6.82047 0.78124 6.25134 0.798131 5.75011C0.787128 5.71028 0.78125 5.66833 0.78125 5.625C0.78125 5.56788 0.791465 5.51316 0.810168 5.46254C0.824346 5.18411 0.845475 4.92854 0.87696 4.69436C0.975477 3.9616 1.18305 3.3685 1.65078 2.90078C2.1185 2.43305 2.7116 2.22548 3.44436 2.12696C3.58994 2.10739 3.74379 2.09182 3.90625 2.07943V1.5625C3.90625 1.30362 4.11612 1.09375 4.375 1.09375ZM1.72693 6.09375C1.71895 6.50171 1.71875 6.96624 1.71875 7.5V8.75C1.71875 9.94176 1.71975 10.7884 1.8061 11.4307C1.89064 12.0595 2.04918 12.4218 2.31369 12.6863C2.5782 12.9508 2.94047 13.1094 3.56928 13.1939C4.21157 13.2803 5.05824 13.2812 6.25 13.2812H8.75C9.94176 13.2812 10.7884 13.2803 11.4307 13.1939C12.0595 13.1094 12.4218 12.9508 12.6863 12.6863C12.9508 12.4218 13.1094 12.0595 13.1939 11.4307C13.2803 10.7884 13.2812 9.94176 13.2812 8.75V7.5C13.2812 6.96624 13.2811 6.50171 13.2731 6.09375H1.72693ZM13.2302 5.15625H1.7698C1.77981 5.03788 1.79178 4.92577 1.8061 4.81928C1.89064 4.19047 2.04918 3.8282 2.31369 3.56369C2.5782 3.29918 2.94047 3.14064 3.56928 3.0561C4.21157 2.96975 5.05824 2.96875 6.25 2.96875H8.75C9.94176 2.96875 10.7884 2.96975 11.4307 3.0561C12.0595 3.14064 12.4218 3.29918 12.6863 3.56369C12.9508 3.8282 13.1094 4.19047 13.1939 4.81928C13.2082 4.92577 13.2202 5.03788 13.2302 5.15625ZM6.74188 7.69193C6.91704 7.76448 7.03125 7.93541 7.03125 8.125V10.625C7.03125 10.8839 6.82138 11.0938 6.5625 11.0938C6.30362 11.0938 6.09375 10.8839 6.09375 10.625V9.25666L5.95646 9.39396C5.7734 9.57701 5.4766 9.57701 5.29354 9.39396C5.11049 9.2109 5.11049 8.9141 5.29354 8.73104L6.23104 7.79354C6.36511 7.65948 6.56672 7.61938 6.74188 7.69193ZM8.75 8.59375C8.66371 8.59375 8.59375 8.66371 8.59375 8.75V10C8.59375 10.0863 8.66371 10.1562 8.75 10.1562C8.8363 10.1562 8.90625 10.0863 8.90625 10V8.75C8.90625 8.66371 8.8363 8.59375 8.75 8.59375ZM7.65625 8.75C7.65625 8.14594 8.14594 7.65625 8.75 7.65625C9.35406 7.65625 9.84375 8.14594 9.84375 8.75V10C9.84375 10.6041 9.35406 11.0938 8.75 11.0938C8.14594 11.0938 7.65625 10.6041 7.65625 10V8.75Z" fill="#00AEEF"/>
</svg>
