<svg width="24" height="24" viewBox="0 0 24 24" fill="none" xmlns="http://www.w3.org/2000/svg">
<rect width="24" height="24" rx="2" fill="#0EAF8F" fill-opacity="0.1"/>
<g clip-path="url(#clip0_1387_99998)">
<rect width="18" height="18" transform="translate(3 3)" fill="white" fill-opacity="0.01"/>
<g clip-path="url(#clip1_1387_99998)">
<path d="M19.3347 6.51199L17.1952 4.37449C16.934 4.11333 16.5844 3.96667 16.2148 3.96667C15.8452 3.96667 15.4956 4.11132 15.2344 4.37449L12.9302 6.67471C12.669 6.93587 12.5224 7.28743 12.5224 7.65708C12.5224 8.02873 12.667 8.37627 12.9302 8.63944L14.7302 10.4415C14.3201 11.3969 13.731 12.2649 12.9945 12.9988C12.2572 13.7401 11.3954 14.3247 10.4391 14.7386L8.63913 12.9365C8.37797 12.6754 8.02842 12.5287 7.65878 12.5287C7.47645 12.5281 7.29583 12.5638 7.12749 12.6338C6.95914 12.7038 6.80647 12.8068 6.67842 12.9365L4.37217 15.2368C4.11101 15.4979 3.96436 15.8495 3.96436 16.2191C3.96436 16.5908 4.109 16.9383 4.37217 17.2015L6.50967 19.339C6.95565 19.785 7.57038 20.0401 8.20119 20.0401C8.33177 20.0401 8.45833 20.0301 8.5869 20.008C11.2467 19.57 13.8865 18.1537 16.0179 16.0243C18.1474 13.8908 19.5617 11.2511 20.0036 8.58922C20.1302 7.83386 19.8771 7.05641 19.3347 6.51199ZM18.5793 8.35016C18.1876 10.7187 16.9139 13.0812 14.9954 14.9997C13.0769 16.9182 10.7164 18.1919 8.34784 18.5836C8.05052 18.6339 7.74516 18.5334 7.52819 18.3185L5.42886 16.2191L7.65476 13.9912L10.0615 16.4019L10.0795 16.42L10.5135 16.2593C11.8292 15.7756 13.0239 15.0115 14.015 14.0201C15.0061 13.0287 15.7697 11.8337 16.253 10.5178L16.4137 10.0839L13.9869 7.65909L16.2128 5.43118L18.3121 7.53051C18.5291 7.74748 18.6295 8.05284 18.5793 8.35016Z" fill="#0EAF8F"/>
</g>
</g>
<defs>
<clipPath id="clip0_1387_99998">
<rect width="18" height="18" fill="white" transform="translate(3 3)"/>
</clipPath>
<clipPath id="clip1_1387_99998">
<rect width="18" height="18" fill="white" transform="translate(3 3)"/>
</clipPath>
</defs>
</svg>
