<svg width="14" height="14" viewBox="0 0 14 14" fill="none" xmlns="http://www.w3.org/2000/svg">
<g clip-path="url(#clip0_1668_354)">
<rect width="14" height="14" fill="white" fill-opacity="0.01"/>
<g clip-path="url(#clip1_1668_354)">
<path d="M8.28594 8.39563C8.57947 8.07296 8.74167 7.65215 8.74063 7.21594C8.74063 6.24876 7.96094 5.46594 7 5.46594C6.03906 5.46594 5.25938 6.24876 5.25938 7.21594C5.25938 7.67063 5.43125 8.08313 5.71406 8.39563C5.3752 8.60562 5.0922 8.8945 4.88922 9.2376C4.68624 9.58071 4.56932 9.96784 4.54844 10.3659C4.54759 10.3829 4.5502 10.3998 4.5561 10.4157C4.562 10.4316 4.57107 10.4461 4.58276 10.4584C4.59446 10.4707 4.60853 10.4804 4.62411 10.4871C4.6397 10.4938 4.65648 10.4972 4.67344 10.4972H5.35938C5.425 10.4972 5.47813 10.4456 5.48281 10.38C5.54219 9.58938 6.20156 8.96594 7.00156 8.96594C7.80156 8.96594 8.46094 9.59094 8.52031 10.38C8.525 10.4456 8.57812 10.4972 8.64375 10.4972H9.32812C9.34508 10.4972 9.36186 10.4938 9.37745 10.4871C9.39304 10.4804 9.40711 10.4707 9.4188 10.4584C9.43049 10.4461 9.43956 10.4316 9.44547 10.4157C9.45137 10.3998 9.45397 10.3829 9.45312 10.3659C9.40938 9.53313 8.95312 8.80813 8.28594 8.39563ZM7 8.02844C6.55469 8.02844 6.19219 7.66438 6.19219 7.21594C6.19219 6.76751 6.55469 6.40344 7 6.40344C7.44531 6.40344 7.80781 6.76751 7.80781 7.21594C7.80781 7.66438 7.44531 8.02844 7 8.02844ZM13.5 2.49719H11V1.62219C11 1.55344 10.9438 1.49719 10.875 1.49719H10C9.93125 1.49719 9.875 1.55344 9.875 1.62219V2.49719H7.5625V1.62219C7.5625 1.55344 7.50625 1.49719 7.4375 1.49719H6.5625C6.49375 1.49719 6.4375 1.55344 6.4375 1.62219V2.49719H4.125V1.62219C4.125 1.55344 4.06875 1.49719 4 1.49719H3.125C3.05625 1.49719 3 1.55344 3 1.62219V2.49719H0.5C0.223437 2.49719 0 2.72063 0 2.99719V11.9972C0 12.2738 0.223437 12.4972 0.5 12.4972H13.5C13.7766 12.4972 14 12.2738 14 11.9972V2.99719C14 2.72063 13.7766 2.49719 13.5 2.49719ZM12.875 11.3722H1.125V3.62219H3V4.49719C3 4.56594 3.05625 4.62219 3.125 4.62219H4C4.06875 4.62219 4.125 4.56594 4.125 4.49719V3.62219H6.4375V4.49719C6.4375 4.56594 6.49375 4.62219 6.5625 4.62219H7.4375C7.50625 4.62219 7.5625 4.56594 7.5625 4.49719V3.62219H9.875V4.49719C9.875 4.56594 9.93125 4.62219 10 4.62219H10.875C10.9438 4.62219 11 4.56594 11 4.49719V3.62219H12.875V11.3722Z" fill="white"/>
</g>
</g>
<defs>
<clipPath id="clip0_1668_354">
<rect width="14" height="14" fill="white"/>
</clipPath>
<clipPath id="clip1_1668_354">
<rect width="14" height="14" fill="white"/>
</clipPath>
</defs>
</svg>
