<svg width="22" height="22" viewBox="0 0 22 22" fill="none" xmlns="http://www.w3.org/2000/svg">
<g clip-path="url(#clip0_1521_99381)">
<rect width="22" height="22" fill="white" fill-opacity="0.01"/>
<g clip-path="url(#clip1_1521_99381)">
<path d="M15.9478 13.1523C15.6801 13.0148 14.3469 12.3617 14.0989 12.2733C13.8509 12.18 13.6692 12.1358 13.49 12.4108C13.3083 12.6833 12.7926 13.2898 12.6306 13.4739C12.4734 13.6556 12.3138 13.6777 12.0462 13.5427C10.4551 12.7472 9.41161 12.1235 8.36317 10.3237C8.08572 9.84492 8.64063 9.8793 9.15871 8.8456C9.2471 8.6639 9.20291 8.50921 9.13416 8.37171C9.06541 8.23421 8.52523 6.90341 8.29933 6.36077C8.08081 5.83287 7.85492 5.90653 7.69041 5.89671C7.53326 5.88689 7.35402 5.88689 7.17233 5.88689C6.99063 5.88689 6.69844 5.95564 6.45045 6.22327C6.20246 6.49582 5.50268 7.1514 5.50268 8.4822C5.50268 9.81301 6.47255 11.1021 6.60514 11.2838C6.74264 11.4655 8.51295 14.1958 11.231 15.3719C12.9498 16.1135 13.6225 16.1773 14.4819 16.0496C15.0049 15.971 16.0828 15.3965 16.3063 14.7606C16.5297 14.1271 16.5297 13.5844 16.4634 13.4715C16.3971 13.3512 16.2154 13.2824 15.9478 13.1523Z" fill="#0EAF8F"/>
<path d="M21.1457 6.7375C20.5908 5.41897 19.7952 4.23549 18.7812 3.21897C17.7742 2.20834 16.5788 1.40501 15.2626 0.854464C13.9122 0.287277 12.4783 0 11.0001 0H10.951C9.46309 0.00736607 8.02179 0.302009 6.66643 0.881473C5.36155 1.43766 4.17735 2.24242 3.17983 3.25089C2.17559 4.26496 1.38742 5.44353 0.842327 6.75714C0.277595 8.11741 -0.00722677 9.56361 0.000139299 11.0516C0.00847094 12.7567 0.411883 14.4368 1.17871 15.9598V19.692C1.17871 19.9915 1.29771 20.2788 1.50952 20.4906C1.72134 20.7024 2.00862 20.8214 2.30818 20.8214H6.04277C7.56582 21.5883 9.24586 21.9917 10.951 22H11.0026C12.4734 22 13.8999 21.7152 15.243 21.1578C16.5525 20.6138 17.7435 19.8199 18.7492 18.8203C19.7633 17.8161 20.5613 16.6424 21.1187 15.3337C21.6981 13.9783 21.9928 12.5371 22.0001 11.0491C22.0075 9.55379 21.7178 8.10268 21.1457 6.7375ZM17.4356 17.492C15.7144 19.196 13.4309 20.1339 11.0001 20.1339H10.9584C9.47782 20.1266 8.00706 19.7583 6.70818 19.0658L6.50192 18.9554H3.04478V15.4982L2.93429 15.292C2.24188 13.9931 1.87358 12.5223 1.86621 11.0417C1.85639 8.59375 2.79188 6.29554 4.50818 4.56451C6.22202 2.83348 8.51286 1.87589 10.9609 1.86607H11.0026C12.2303 1.86607 13.4211 2.10424 14.5432 2.57567C15.6383 3.03482 16.6205 3.69531 17.4651 4.53996C18.3073 5.38214 18.9702 6.36674 19.4294 7.46183C19.9057 8.59621 20.1439 9.79933 20.139 11.0417C20.1242 13.4873 19.1642 15.7781 17.4356 17.492Z" fill="#0EAF8F"/>
</g>
</g>
<defs>
<clipPath id="clip0_1521_99381">
<rect width="22" height="22" fill="white"/>
</clipPath>
<clipPath id="clip1_1521_99381">
<rect width="22" height="22" fill="white"/>
</clipPath>
</defs>
</svg>
