<svg width="24" height="24" viewBox="0 0 24 24" fill="none" xmlns="http://www.w3.org/2000/svg">
<path d="M9.866 3.3C9.52825 3.8337 9.32067 4.43932 9.26 5.068C9.21 5.916 9.34 6.752 9.866 7.384C10.416 8.044 11.21 8.26 11.996 8.26C12.802 8.26 13.59 8.014 14.132 7.36C14.654 6.728 14.796 5.898 14.738 5.056C14.669 4.43822 14.4612 3.84405 14.13 3.318C13.766 2.738 13.076 2 11.996 2C10.928 2 10.236 2.714 9.866 3.3ZM7 10C6.20435 10 5.44129 10.3161 4.87868 10.8787C4.31607 11.4413 4 12.2044 4 13V13.012L7.734 15.924C7.81889 15.9897 7.92268 16.0264 8.03002 16.0285C8.13735 16.0307 8.24253 15.9983 8.33 15.936L10.55 14.356C10.9734 14.0545 11.4802 13.8925 12 13.8925C12.5198 13.8925 13.0266 14.0545 13.45 14.356L15.67 15.936C15.7575 15.9983 15.8626 16.0307 15.97 16.0285C16.0773 16.0264 16.1811 15.9897 16.266 15.924L20 13.012V13C20 12.2044 19.6839 11.4413 19.1213 10.8787C18.5587 10.3161 17.7956 10 17 10H7ZM17.498 17.5L20 15.548V20H21C21.2652 20 21.5196 20.1054 21.7071 20.2929C21.8946 20.4804 22 20.7348 22 21C22 21.2652 21.8946 21.5196 21.7071 21.7071C21.5196 21.8946 21.2652 22 21 22H3C2.73478 22 2.48043 21.8946 2.29289 21.7071C2.10536 21.5196 2 21.2652 2 21C2 20.7348 2.10536 20.4804 2.29289 20.2929C2.48043 20.1054 2.73478 20 3 20H4V15.548L6.502 17.5C6.92668 17.8318 7.44723 18.0175 7.98604 18.0294C8.52486 18.0413 9.05309 17.8788 9.492 17.566L11.71 15.986C11.7947 15.9257 11.896 15.8933 12 15.8933C12.104 15.8933 12.2053 15.9257 12.29 15.986L14.51 17.566C14.9487 17.8783 15.4766 18.0406 16.0149 18.0287C16.5533 18.0168 17.0735 17.8314 17.498 17.5Z" fill="#0EAF8F"/>
</svg>
