<svg width="14" height="14" viewBox="0 0 14 14" fill="none" xmlns="http://www.w3.org/2000/svg">
<g clip-path="url(#clip0_3217_2613)">
<rect width="14" height="14" fill="white"/>
<path d="M12.4686 6.27104H11.203C11.1311 6.27104 11.0623 6.30229 11.0139 6.35698L7.59359 10.2992V1.50073C7.59359 1.43198 7.53734 1.37573 7.46859 1.37573H6.53109C6.46234 1.37573 6.40609 1.43198 6.40609 1.50073V10.2992L2.98577 6.35698C2.9389 6.30229 2.87015 6.27104 2.79671 6.27104H1.53109C1.42484 6.27104 1.36702 6.39761 1.43734 6.47729L6.62327 12.4539C6.67015 12.5079 6.72811 12.5513 6.79321 12.581C6.85831 12.6108 6.92905 12.6261 7.00062 12.6261C7.07219 12.6261 7.14292 12.6108 7.20802 12.581C7.27313 12.5513 7.33108 12.5079 7.37796 12.4539L12.5623 6.47729C12.6326 6.39604 12.5748 6.27104 12.4686 6.27104Z" fill="#0EAF8F"/>
</g>
<defs>
<clipPath id="clip0_3217_2613">
<rect width="14" height="14" fill="white"/>
</clipPath>
</defs>
</svg>
