<svg width="18" height="18" viewBox="0 0 18 18" fill="none" xmlns="http://www.w3.org/2000/svg">
<path fill-rule="evenodd" clip-rule="evenodd" d="M7.47807 2.86719C6.83309 3.38244 6.08321 4.16584 5.03086 5.26771C3.97852 6.36958 3.23033 7.15476 2.73823 7.83009C2.25609 8.49175 2.07337 8.97791 2.07337 9.47366C2.07337 9.96941 2.25609 10.4556 2.73823 11.1172C3.23033 11.7926 3.97852 12.5777 5.03086 13.6796C6.08321 14.7815 6.83309 15.5649 7.47807 16.0801C8.10999 16.585 8.57431 16.7763 9.04777 16.7763C9.52123 16.7763 9.98555 16.585 10.6175 16.0801C11.2624 15.5649 12.0123 14.7815 13.0647 13.6796C14.117 12.5777 14.8652 11.7926 15.3573 11.1172C15.8394 10.4556 16.0222 9.96941 16.0222 9.47366C16.0222 8.97791 15.8394 8.49175 15.3573 7.83008C14.8652 7.15476 14.117 6.36958 13.0647 5.26771C12.0123 4.16584 11.2624 3.38244 10.6175 2.86719C9.98555 2.36235 9.52123 2.17103 9.04777 2.17103C8.57431 2.17103 8.10999 2.36235 7.47807 2.86719ZM6.79204 1.92571C7.52456 1.34051 8.22759 0.986816 9.04777 0.986816C9.86795 0.986816 10.571 1.34051 11.3035 1.92571C12.0159 2.49487 12.8188 3.33552 13.8343 4.39878L13.8946 4.46192C14.91 5.52516 15.7129 6.36579 16.2565 7.11177C16.8154 7.87877 17.1532 8.61488 17.1532 9.47366C17.1532 10.3324 16.8154 11.0686 16.2565 11.8356C15.7129 12.5815 14.91 13.4222 13.8946 14.4854L13.8342 14.5486C12.8188 15.6118 12.0159 16.4525 11.3035 17.0216C10.571 17.6068 9.86795 17.9605 9.04777 17.9605C8.22759 17.9605 7.52456 17.6068 6.79204 17.0216C6.07959 16.4525 5.27674 15.6118 4.26129 14.5485L4.20099 14.4854C3.18552 13.4222 2.38265 12.5815 1.83908 11.8356C1.28018 11.0686 0.942383 10.3324 0.942383 9.47366C0.942383 8.61488 1.28018 7.87877 1.83908 7.11177C2.38265 6.3658 3.1855 5.52517 4.20097 4.46194L4.26131 4.39876C5.27676 3.3355 6.0796 2.49486 6.79204 1.92571Z" fill="#00AEEF"/>
<path fill-rule="evenodd" clip-rule="evenodd" d="M9.64054 6.70027C9.85415 6.46171 10.212 6.44962 10.4399 6.67328L12.4505 8.64696C12.5645 8.7589 12.6292 8.91526 12.6292 9.07892C12.6292 9.24259 12.5645 9.39895 12.4505 9.51089L10.4399 11.4846C10.212 11.7082 9.85415 11.6961 9.64054 11.4576C9.42694 11.219 9.43848 10.8443 9.66633 10.6206L10.6337 9.67103H8.04245C7.79078 9.67103 7.40596 9.74973 7.10218 9.96443C6.82864 10.1578 6.5973 10.4727 6.5973 11.0526C6.5973 11.3796 6.34412 11.6447 6.03181 11.6447C5.7195 11.6447 5.46632 11.3796 5.46632 11.0526C5.46632 10.0536 5.9052 9.38167 6.46942 8.98289C7.00341 8.60549 7.62391 8.48682 8.04245 8.48682H10.6337L9.66633 7.5372C9.43848 7.31355 9.42694 6.93884 9.64054 6.70027Z" fill="#00AEEF"/>
</svg>
