<svg width="14" height="14" viewBox="0 0 14 14" fill="none" xmlns="http://www.w3.org/2000/svg">
<g clip-path="url(#clip0_3217_2624)">
<rect width="14" height="14" fill="white"/>
<path d="M12.4362 11.1877H1.56431C1.49399 11.1877 1.43774 11.244 1.43774 11.3127V12.2502C1.43774 12.319 1.49399 12.3752 1.56431 12.3752H12.4362C12.5065 12.3752 12.5627 12.319 12.5627 12.2502V11.3127C12.5627 11.244 12.5065 11.1877 12.4362 11.1877ZM6.90181 9.45337C6.9135 9.46831 6.92844 9.48039 6.94549 9.4887C6.96255 9.49701 6.98127 9.50133 7.00024 9.50133C7.01922 9.50133 7.03794 9.49701 7.05499 9.4887C7.07205 9.48039 7.08699 9.46831 7.09868 9.45337L8.84868 7.23931C8.91274 7.15806 8.85493 7.03774 8.75025 7.03774H7.59243V1.75024C7.59243 1.68149 7.53618 1.62524 7.46743 1.62524H6.52993C6.46118 1.62524 6.40493 1.68149 6.40493 1.75024V7.03618H5.25024C5.14556 7.03618 5.08774 7.15649 5.15181 7.23774L6.90181 9.45337Z" fill="#0EAF8F"/>
</g>
<defs>
<clipPath id="clip0_3217_2624">
<rect width="14" height="14" fill="white"/>
</clipPath>
</defs>
</svg>
