<svg width="18" height="18" viewBox="0 0 18 18" fill="none" xmlns="http://www.w3.org/2000/svg">
<g clip-path="url(#clip0_3071_134958)">
<rect width="18" height="18" fill="white" fill-opacity="0.01"/>
<path d="M5.94612 2.40883H5.7854C5.87379 2.40883 5.94612 2.33651 5.94612 2.24812V2.40883H12.0533V2.24812C12.0533 2.33651 12.1256 2.40883 12.214 2.40883H12.0533V3.85526H13.4997V2.24812C13.4997 1.53896 12.9231 0.962402 12.214 0.962402H5.7854C5.07625 0.962402 4.49969 1.53896 4.49969 2.24812V3.85526H5.94612V2.40883ZM16.0711 3.85526H1.92826C1.57268 3.85526 1.2854 4.14254 1.2854 4.49812V5.14097C1.2854 5.22937 1.35772 5.30169 1.44611 5.30169H2.65951L3.15571 15.8084C3.18786 16.4934 3.75437 17.0338 4.43942 17.0338H13.56C14.247 17.0338 14.8115 16.4954 14.8437 15.8084L15.3399 5.30169H16.5533C16.6417 5.30169 16.714 5.22937 16.714 5.14097V4.49812C16.714 4.14254 16.4267 3.85526 16.0711 3.85526ZM13.4053 15.5874H4.59411L4.10795 5.30169H13.8914L13.4053 15.5874Z" fill="black" fill-opacity="0.85"/>
</g>
<defs>
<clipPath id="clip0_3071_134958">
<rect width="18" height="18" fill="white"/>
</clipPath>
</defs>
</svg>
