<svg width="18" height="19" viewBox="0 0 18 19" fill="none" xmlns="http://www.w3.org/2000/svg">
<g clip-path="url(#clip0_501_12908)">
<rect width="18" height="18" transform="translate(0 0.35144)" fill="white" fill-opacity="0.01"/>
<g clip-path="url(#clip1_501_12908)">
<path d="M9 0.35144C4.02991 0.35144 0 4.38135 0 9.35144C0 14.3215 4.02991 18.3514 9 18.3514C13.9701 18.3514 18 14.3215 18 9.35144C18 4.38135 13.9701 0.35144 9 0.35144ZM9 16.8247C4.87366 16.8247 1.52679 13.4778 1.52679 9.35144C1.52679 5.2251 4.87366 1.87823 9 1.87823C13.1263 1.87823 16.4732 5.2251 16.4732 9.35144C16.4732 13.4778 13.1263 16.8247 9 16.8247ZM9.95826 8.88537L9.44799 8.76684V6.06885C10.2114 6.17332 10.6835 6.65144 10.7638 7.23805C10.7739 7.3184 10.8422 7.37666 10.9225 7.37666H11.8246C11.919 7.37666 11.9933 7.2943 11.9853 7.19988C11.8627 5.94832 10.8321 5.14474 9.45603 5.00613V4.34921C9.45603 4.26082 9.38371 4.18849 9.29531 4.18849H8.7308C8.64241 4.18849 8.57009 4.26082 8.57009 4.34921V5.01215C7.14777 5.15077 6.03482 5.93626 6.03482 7.40278C6.03482 8.76082 7.03527 9.41573 8.08594 9.66684L8.58214 9.7934V12.6601C7.6942 12.5416 7.19598 12.0675 7.09353 11.4287C7.08147 11.3523 7.01317 11.2961 6.93482 11.2961H6.0067C5.91228 11.2961 5.83795 11.3764 5.84598 11.4709C5.93638 12.5758 6.77411 13.5923 8.56205 13.7229V14.3537C8.56205 14.4421 8.63438 14.5144 8.72277 14.5144H9.2933C9.3817 14.5144 9.45402 14.4421 9.45402 14.3517L9.45 13.7148C11.023 13.5762 12.148 12.7345 12.148 11.2238C12.146 9.82957 11.26 9.2068 9.95826 8.88537ZM8.58013 8.55992C8.46763 8.52778 8.37321 8.49765 8.27879 8.45948C7.59978 8.21439 7.28438 7.81863 7.28438 7.30836C7.28438 6.57912 7.83683 6.16327 8.58013 6.06885V8.55992ZM9.44799 12.6662V9.98024C9.51027 9.99831 9.56652 10.0124 9.62478 10.0244C10.575 10.3137 10.8944 10.7155 10.8944 11.3322C10.8944 12.1177 10.3038 12.5898 9.44799 12.6662Z" fill="#EF4444"/>
</g>
</g>
<defs>
<clipPath id="clip0_501_12908">
<rect width="18" height="18" fill="white" transform="translate(0 0.35144)"/>
</clipPath>
<clipPath id="clip1_501_12908">
<rect width="18" height="18" fill="white" transform="translate(0 0.35144)"/>
</clipPath>
</defs>
</svg>
