<svg width="15" height="15" viewBox="0 0 15 15" fill="none" xmlns="http://www.w3.org/2000/svg">
<path d="M7.7375 9.39319C7.74919 9.40813 7.76413 9.42021 7.78119 9.42852C7.79824 9.43683 7.81697 9.44115 7.83594 9.44115C7.85491 9.44115 7.87363 9.43683 7.89069 9.42852C7.90774 9.42021 7.92268 9.40813 7.93437 9.39319L9.68437 7.17913C9.74844 7.09788 9.69063 6.97756 9.58594 6.97756H8.42813V1.69006C8.42813 1.62131 8.37188 1.56506 8.30313 1.56506H7.36562C7.29688 1.56506 7.24062 1.62131 7.24062 1.69006V6.976H6.08594C5.98125 6.976 5.92344 7.09631 5.9875 7.17756L7.7375 9.39319ZM13.5547 8.84631H12.6172C12.5484 8.84631 12.4922 8.90256 12.4922 8.97131V11.3776H3.17969V8.97131C3.17969 8.90256 3.12344 8.84631 3.05469 8.84631H2.11719C2.04844 8.84631 1.99219 8.90256 1.99219 8.97131V12.0651C1.99219 12.3416 2.21562 12.5651 2.49219 12.5651H13.1797C13.4563 12.5651 13.6797 12.3416 13.6797 12.0651V8.97131C13.6797 8.90256 13.6234 8.84631 13.5547 8.84631Z" fill="white"/>
</svg>
