<svg width="24" height="24" viewBox="0 0 24 24" fill="none" xmlns="http://www.w3.org/2000/svg">
<rect x="0.987305" y="0.500061" width="22.1887" height="23" rx="1.5" fill="white"/>
<path d="M12.3551 7.92877L9.06018 17.0001H7.7135L11.5074 7.04694H12.3756L12.3551 7.92877ZM15.1168 17.0001L11.8151 7.92877L11.7946 7.04694H12.6627L16.4703 17.0001H15.1168ZM14.9459 13.3155V14.3956H9.35413V13.3155H14.9459Z" fill="#0E0D0D"/>
<g clip-path="url(#clip0_1400_100058)">
<rect width="18" height="18" transform="translate(3.4873 3.00006)" fill="white"/>
<path d="M8.22832 7.26918C8.35627 7.34305 8.49752 7.39099 8.644 7.41027C8.79048 7.42955 8.93932 7.41979 9.08203 7.38155C9.22474 7.34331 9.35851 7.27733 9.47572 7.18739C9.59293 7.09745 9.69128 6.9853 9.76515 6.85735C9.83902 6.7294 9.88696 6.58815 9.90624 6.44167C9.92552 6.29519 9.91576 6.14635 9.87752 6.00364C9.83928 5.86093 9.7733 5.72715 9.68336 5.60994C9.59342 5.49273 9.48127 5.39439 9.35332 5.32052C9.09491 5.17133 8.78782 5.13091 8.49961 5.20814C8.2114 5.28538 7.96567 5.47394 7.81649 5.73235C7.6673 5.99076 7.62688 6.29784 7.70412 6.58606C7.78135 6.87427 7.96991 7.11999 8.22832 7.26918ZM8.22832 12.9745C8.35627 13.0484 8.49752 13.0963 8.644 13.1156C8.79048 13.1349 8.93932 13.1252 9.08203 13.0869C9.22474 13.0487 9.35851 12.9827 9.47572 12.8927C9.59293 12.8028 9.69128 12.6907 9.76515 12.5627C9.83902 12.4348 9.88696 12.2935 9.90624 12.147C9.92552 12.0005 9.91576 11.8517 9.87752 11.709C9.83928 11.5663 9.7733 11.4325 9.68336 11.3153C9.59342 11.1981 9.48127 11.0997 9.35332 11.0259C9.09491 10.8767 8.78782 10.8363 8.49961 10.9135C8.2114 10.9907 7.96567 11.1793 7.81649 11.4377C7.6673 11.6961 7.62688 12.0032 7.70412 12.2914C7.78135 12.5796 7.96991 12.8254 8.22832 12.9745ZM15.0587 6.29485C15.0587 6.59322 15.1772 6.87936 15.3882 7.09034C15.5992 7.30132 15.8853 7.41985 16.1837 7.41985C16.482 7.41985 16.7682 7.30132 16.9792 7.09034C17.1901 6.87936 17.3087 6.59322 17.3087 6.29485C17.3087 5.99648 17.1901 5.71033 16.9792 5.49935C16.7682 5.28837 16.482 5.16985 16.1837 5.16985C15.8853 5.16985 15.5992 5.28837 15.3882 5.49935C15.1772 5.71033 15.0587 5.99648 15.0587 6.29485ZM15.0587 12.0002C15.0587 12.2986 15.1772 12.5847 15.3882 12.7957C15.5992 13.0067 15.8853 13.1252 16.1837 13.1252C16.482 13.1252 16.7682 13.0067 16.9792 12.7957C17.1901 12.5847 17.3087 12.2986 17.3087 12.0002C17.3087 11.7018 17.1901 11.4157 16.9792 11.2047C16.7682 10.9937 16.482 10.8752 16.1837 10.8752C15.8853 10.8752 15.5992 10.9937 15.3882 11.2047C15.1772 11.4157 15.0587 11.7018 15.0587 12.0002ZM8.22832 18.6799C8.35627 18.7538 8.49752 18.8017 8.644 18.821C8.79048 18.8403 8.93932 18.8305 9.08203 18.7923C9.22474 18.754 9.35851 18.688 9.47572 18.5981C9.59293 18.5082 9.69128 18.396 9.76515 18.2681C9.83902 18.1401 9.88696 17.9989 9.90624 17.8524C9.92552 17.7059 9.91576 17.5571 9.87752 17.4144C9.83928 17.2716 9.7733 17.1379 9.68336 17.0207C9.59342 16.9034 9.48127 16.8051 9.35332 16.7312C9.09491 16.582 8.78782 16.5416 8.49961 16.6189C8.2114 16.6961 7.96567 16.8847 7.81649 17.1431C7.6673 17.4015 7.62688 17.7086 7.70412 17.9968C7.78135 18.285 7.96991 18.5307 8.22832 18.6799ZM15.0587 17.7056C15.0587 18.0039 15.1772 18.2901 15.3882 18.5011C15.5992 18.712 15.8853 18.8306 16.1837 18.8306C16.482 18.8306 16.7682 18.712 16.9792 18.5011C17.1901 18.2901 17.3087 18.0039 17.3087 17.7056C17.3087 17.4072 17.1901 17.121 16.9792 16.9101C16.7682 16.6991 16.482 16.5806 16.1837 16.5806C15.8853 16.5806 15.5992 16.6991 15.3882 16.9101C15.1772 17.121 15.0587 17.4072 15.0587 17.7056Z" fill="#0E0D0D"/>
</g>
<rect x="0.987305" y="0.500061" width="22.1887" height="23" rx="1.5" stroke="white"/>
<defs>
<clipPath id="clip0_1400_100058">
<rect width="18" height="18" fill="white" transform="translate(3.4873 3.00006)"/>
</clipPath>
</defs>
</svg>
