<svg width="19" height="18" viewBox="0 0 19 18" fill="none" xmlns="http://www.w3.org/2000/svg">
<g clip-path="url(#clip0_1400_99514)">
<rect width="18" height="18" transform="translate(0.666992)" fill="white" fill-opacity="0.01"/>
<path d="M4.55787 13.8195C4.59805 13.8195 4.63823 13.8155 4.6784 13.8095L8.05742 13.2169C8.0976 13.2088 8.13577 13.1908 8.1639 13.1606L16.6797 4.64477C16.6984 4.62618 16.7131 4.60411 16.7232 4.57981C16.7333 4.5555 16.7385 4.52945 16.7385 4.50314C16.7385 4.47683 16.7333 4.45078 16.7232 4.42647C16.7131 4.40217 16.6984 4.3801 16.6797 4.36151L13.3409 1.02066C13.3027 0.982492 13.2525 0.962402 13.1983 0.962402C13.144 0.962402 13.0938 0.982492 13.0556 1.02066L4.53979 9.53651C4.50965 9.56664 4.49157 9.6028 4.48354 9.64298L3.8909 13.022C3.87136 13.1296 3.87834 13.2404 3.91125 13.3447C3.94415 13.449 4.00199 13.5437 4.07974 13.6207C4.21233 13.7492 4.37907 13.8195 4.55787 13.8195ZM5.91189 10.316L13.1983 3.0316L14.6708 4.50414L7.38443 11.7885L5.59849 12.1039L5.91189 10.316ZM17.0594 15.507H2.27372C1.91814 15.507 1.63086 15.7943 1.63086 16.1499V16.8731C1.63086 16.9615 1.70318 17.0338 1.79157 17.0338H17.5416C17.63 17.0338 17.7023 16.9615 17.7023 16.8731V16.1499C17.7023 15.7943 17.415 15.507 17.0594 15.507Z" fill="#0EAF8F"/>
</g>
<defs>
<clipPath id="clip0_1400_99514">
<rect width="18" height="18" fill="white" transform="translate(0.666992)"/>
</clipPath>
</defs>
</svg>
