<svg width="19" height="15" viewBox="0 0 19 15" fill="none" xmlns="http://www.w3.org/2000/svg">
<path d="M17.8571 0.424927H1.14286C0.787277 0.424927 0.5 0.712204 0.5 1.06778V13.9249C0.5 14.2805 0.787277 14.5678 1.14286 14.5678H17.8571C18.2127 14.5678 18.5 14.2805 18.5 13.9249V1.06778C18.5 0.712204 18.2127 0.424927 17.8571 0.424927ZM17.0536 2.65082V13.1214H1.94643V2.65082L1.39196 2.2189L2.18147 1.20439L3.04129 1.87336H15.9607L16.8205 1.20439L17.61 2.2189L17.0536 2.65082ZM15.9607 1.87136L9.5 6.89368L3.03929 1.87136L2.17946 1.20238L1.38996 2.21689L1.94442 2.64881L8.80692 7.98453C9.00428 8.13785 9.24707 8.22108 9.49699 8.22108C9.7469 8.22108 9.9897 8.13785 10.1871 7.98453L17.0536 2.65082L17.608 2.2189L16.8185 1.20439L15.9607 1.87136Z" fill="#0EAF8F"/>
</svg>
