<svg width="12" height="12" viewBox="0 0 12 12" fill="none" xmlns="http://www.w3.org/2000/svg">
<g clip-path="url(#clip0_2182_121452)">
<rect width="11.4122" height="12" fill="white" fill-opacity="0.01"/>
<path d="M5.70605 1.64062C3.29902 1.64062 1.34668 3.59297 1.34668 6C1.34668 8.40703 3.29902 10.3594 5.70605 10.3594C8.11309 10.3594 10.0654 8.40703 10.0654 6C10.0654 3.59297 8.11309 1.64062 5.70605 1.64062ZM5.33105 3.46875C5.33105 3.41719 5.37324 3.375 5.4248 3.375H5.9873C6.03887 3.375 6.08105 3.41719 6.08105 3.46875V6.65625C6.08105 6.70781 6.03887 6.75 5.9873 6.75H5.4248C5.37324 6.75 5.33105 6.70781 5.33105 6.65625V3.46875ZM5.70605 8.625C5.55886 8.622 5.4187 8.56141 5.31567 8.45625C5.21263 8.35109 5.15492 8.20973 5.15492 8.0625C5.15492 7.91527 5.21263 7.77391 5.31567 7.66875C5.4187 7.56359 5.55886 7.503 5.70605 7.5C5.85325 7.503 5.9934 7.56359 6.09644 7.66875C6.19948 7.77391 6.25719 7.91527 6.25719 8.0625C6.25719 8.20973 6.19948 8.35109 6.09644 8.45625C5.9934 8.56141 5.85325 8.622 5.70605 8.625Z" fill="#E6F7FF"/>
<path d="M5.70605 0.75C2.80684 0.75 0.456055 3.10078 0.456055 6C0.456055 8.89922 2.80684 11.25 5.70605 11.25C8.60527 11.25 10.9561 8.89922 10.9561 6C10.9561 3.10078 8.60527 0.75 5.70605 0.75ZM5.70605 10.3594C3.29902 10.3594 1.34668 8.40703 1.34668 6C1.34668 3.59297 3.29902 1.64062 5.70605 1.64062C8.11309 1.64062 10.0654 3.59297 10.0654 6C10.0654 8.40703 8.11309 10.3594 5.70605 10.3594Z" fill="#1890FF"/>
<path d="M5.4248 6.75H5.9873C6.03887 6.75 6.08105 6.70781 6.08105 6.65625V3.46875C6.08105 3.41719 6.03887 3.375 5.9873 3.375H5.4248C5.37324 3.375 5.33105 3.41719 5.33105 3.46875V6.65625C5.33105 6.70781 5.37324 6.75 5.4248 6.75ZM5.14355 8.0625C5.14355 8.21168 5.20282 8.35476 5.30831 8.46025C5.4138 8.56574 5.55687 8.625 5.70605 8.625C5.85524 8.625 5.99831 8.56574 6.1038 8.46025C6.20929 8.35476 6.26855 8.21168 6.26855 8.0625C6.26855 7.91332 6.20929 7.77024 6.1038 7.66475C5.99831 7.55926 5.85524 7.5 5.70605 7.5C5.55687 7.5 5.4138 7.55926 5.30831 7.66475C5.20282 7.77024 5.14355 7.91332 5.14355 8.0625Z" fill="#1890FF"/>
</g>
<defs>
<clipPath id="clip0_2182_121452">
<rect width="11.4122" height="12" fill="white"/>
</clipPath>
</defs>
</svg>
