<svg width="15" height="15" viewBox="0 0 15 15" fill="none" xmlns="http://www.w3.org/2000/svg">
<path fill-rule="evenodd" clip-rule="evenodd" d="M7.45997 1.47586e-07L8.54651 3.13925e-07C8.8355 3.13925e-07 9.06977 0.23427 9.06977 0.523256C9.06977 0.812242 8.8355 1.04651 8.54651 1.04651H7.5C5.84077 1.04651 4.64899 1.04762 3.74203 1.16956C2.85012 1.28947 2.31241 1.51754 1.91497 1.91497C1.51754 2.31241 1.28947 2.85012 1.16956 3.74203C1.04762 4.64899 1.04651 5.84077 1.04651 7.5C1.04651 9.15923 1.04762 10.351 1.16956 11.258C1.28947 12.1499 1.51754 12.6876 1.91497 13.085C2.31241 13.4825 2.85012 13.7105 3.74203 13.8304C4.64899 13.9524 5.84077 13.9535 7.5 13.9535C9.15923 13.9535 10.351 13.9524 11.258 13.8304C12.1499 13.7105 12.6876 13.4825 13.085 13.085C13.4825 12.6876 13.7105 12.1499 13.8304 11.258C13.9524 10.351 13.9535 9.15923 13.9535 7.5V6.45349C13.9535 6.1645 14.1878 5.93023 14.4767 5.93023C14.7657 5.93023 15 6.1645 15 6.45349V7.54003C15 9.15054 15 10.4127 14.8676 11.3974C14.7321 12.4054 14.4493 13.2007 13.825 13.825C13.2007 14.4493 12.4054 14.7321 11.3974 14.8676C10.4127 15 9.15054 15 7.54003 15H7.45997C5.84946 15 4.58734 15 3.60258 14.8676C2.59463 14.7321 1.79926 14.4493 1.17498 13.825C0.550693 13.2007 0.267897 12.4054 0.132381 11.3974C-1.59442e-05 10.4127 -8.83469e-06 9.15054 1.47586e-07 7.54003V7.45997C-8.83469e-06 5.84946 -1.59442e-05 4.58734 0.132381 3.60258C0.267897 2.59463 0.550693 1.79926 1.17498 1.17498C1.79926 0.550693 2.59463 0.267897 3.60258 0.132381C4.58734 -1.59442e-05 5.84946 -8.83469e-06 7.45997 1.47586e-07ZM10.8283 0.715755C11.7826 -0.238584 13.3299 -0.238584 14.2842 0.715755C15.2386 1.67009 15.2386 3.21738 14.2842 4.17172L9.64603 8.80993C9.387 9.069 9.22474 9.23129 9.04366 9.37253C8.83038 9.53887 8.59962 9.6815 8.35545 9.79786C8.14815 9.89666 7.93043 9.96921 7.58287 10.085L5.55646 10.7605C5.18233 10.8852 4.76986 10.7878 4.49101 10.509C4.21215 10.2301 4.11478 9.81766 4.23949 9.44354L4.91495 7.41714C5.03078 7.06957 5.10334 6.85185 5.20214 6.64455C5.3185 6.40038 5.46112 6.16961 5.62747 5.95634C5.76871 5.77526 5.931 5.61299 6.19008 5.35395L10.8283 0.715755ZM13.5442 1.45575C12.9986 0.910099 12.1139 0.910099 11.5683 1.45575L11.3055 1.71851C11.3214 1.78539 11.3435 1.86507 11.3743 1.95395C11.4743 2.24213 11.6635 2.62166 12.0209 2.97906C12.3783 3.33647 12.7579 3.52567 13.046 3.62565C13.1349 3.65649 13.2146 3.67865 13.2815 3.69449L13.5442 3.43173C14.0899 2.88608 14.0899 2.0014 13.5442 1.45575ZM12.4571 4.5189C12.0971 4.36409 11.6778 4.1159 11.2809 3.71906C10.8841 3.32222 10.6359 2.9029 10.4811 2.54292L6.95407 6.06995C6.66348 6.36054 6.54952 6.47578 6.45266 6.59996C6.33305 6.75331 6.23051 6.91922 6.14685 7.09478C6.07909 7.23695 6.02698 7.39042 5.89703 7.78029L5.5957 8.68425L6.31574 9.40429L7.21971 9.10297C7.60958 8.97301 7.76305 8.92091 7.90522 8.85315C8.08077 8.76949 8.24669 8.66694 8.40003 8.54734C8.52422 8.45048 8.63946 8.33652 8.93005 8.04592L12.4571 4.5189Z" fill="#00AEEF"/>
<path fill-rule="evenodd" clip-rule="evenodd" d="M7.45997 1.47586e-07L8.54651 3.13925e-07C8.8355 3.13925e-07 9.06977 0.23427 9.06977 0.523256C9.06977 0.812242 8.8355 1.04651 8.54651 1.04651H7.5C5.84077 1.04651 4.64899 1.04762 3.74203 1.16956C2.85012 1.28947 2.31241 1.51754 1.91497 1.91497C1.51754 2.31241 1.28947 2.85012 1.16956 3.74203C1.04762 4.64899 1.04651 5.84077 1.04651 7.5C1.04651 9.15923 1.04762 10.351 1.16956 11.258C1.28947 12.1499 1.51754 12.6876 1.91497 13.085C2.31241 13.4825 2.85012 13.7105 3.74203 13.8304C4.64899 13.9524 5.84077 13.9535 7.5 13.9535C9.15923 13.9535 10.351 13.9524 11.258 13.8304C12.1499 13.7105 12.6876 13.4825 13.085 13.085C13.4825 12.6876 13.7105 12.1499 13.8304 11.258C13.9524 10.351 13.9535 9.15923 13.9535 7.5V6.45349C13.9535 6.1645 14.1878 5.93023 14.4767 5.93023C14.7657 5.93023 15 6.1645 15 6.45349V7.54003C15 9.15054 15 10.4127 14.8676 11.3974C14.7321 12.4054 14.4493 13.2007 13.825 13.825C13.2007 14.4493 12.4054 14.7321 11.3974 14.8676C10.4127 15 9.15054 15 7.54003 15H7.45997C5.84946 15 4.58734 15 3.60258 14.8676C2.59463 14.7321 1.79926 14.4493 1.17498 13.825C0.550693 13.2007 0.267897 12.4054 0.132381 11.3974C-1.59442e-05 10.4127 -8.83469e-06 9.15054 1.47586e-07 7.54003V7.45997C-8.83469e-06 5.84946 -1.59442e-05 4.58734 0.132381 3.60258C0.267897 2.59463 0.550693 1.79926 1.17498 1.17498C1.79926 0.550693 2.59463 0.267897 3.60258 0.132381C4.58734 -1.59442e-05 5.84946 -8.83469e-06 7.45997 1.47586e-07ZM10.8283 0.715755C11.7826 -0.238584 13.3299 -0.238584 14.2842 0.715755C15.2386 1.67009 15.2386 3.21738 14.2842 4.17172L9.64603 8.80993C9.387 9.069 9.22474 9.23129 9.04366 9.37253C8.83038 9.53887 8.59962 9.6815 8.35545 9.79786C8.14815 9.89666 7.93043 9.96921 7.58287 10.085L5.55646 10.7605C5.18233 10.8852 4.76986 10.7878 4.49101 10.509C4.21215 10.2301 4.11478 9.81766 4.23949 9.44354L4.91495 7.41714C5.03078 7.06957 5.10334 6.85185 5.20214 6.64455C5.3185 6.40038 5.46112 6.16961 5.62747 5.95634C5.76871 5.77526 5.931 5.61299 6.19008 5.35395L10.8283 0.715755ZM13.5442 1.45575C12.9986 0.910099 12.1139 0.910099 11.5683 1.45575L11.3055 1.71851C11.3214 1.78539 11.3435 1.86507 11.3743 1.95395C11.4743 2.24213 11.6635 2.62166 12.0209 2.97906C12.3783 3.33647 12.7579 3.52567 13.046 3.62565C13.1349 3.65649 13.2146 3.67865 13.2815 3.69449L13.5442 3.43173C14.0899 2.88608 14.0899 2.0014 13.5442 1.45575ZM12.4571 4.5189C12.0971 4.36409 11.6778 4.1159 11.2809 3.71906C10.8841 3.32222 10.6359 2.9029 10.4811 2.54292L6.95407 6.06995C6.66348 6.36054 6.54952 6.47578 6.45266 6.59996C6.33305 6.75331 6.23051 6.91922 6.14685 7.09478C6.07909 7.23695 6.02698 7.39042 5.89703 7.78029L5.5957 8.68425L6.31574 9.40429L7.21971 9.10297C7.60958 8.97301 7.76305 8.92091 7.90522 8.85315C8.08077 8.76949 8.24669 8.66694 8.40003 8.54734C8.52422 8.45048 8.63946 8.33652 8.93005 8.04592L12.4571 4.5189Z" fill="#0EAF8F" fill-opacity="0.2"/>
</svg>
