<svg width="16" height="16" viewBox="0 0 16 16" fill="none" xmlns="http://www.w3.org/2000/svg">
<g clip-path="url(#clip0_2390_124783)">
<rect width="16" height="16" fill="white" fill-opacity="0.01"/>
<path d="M7.99972 1.14062C4.21222 1.14062 1.14258 4.21027 1.14258 7.99777V14.4263C1.14258 14.6638 1.33365 14.8549 1.57115 14.8549H4.85686C5.48722 14.8549 5.99972 14.3424 5.99972 13.7121V9.99777C5.99972 9.36741 5.48722 8.85491 4.85686 8.85491H2.42829V7.99777C2.42829 4.92098 4.92294 2.42634 7.99972 2.42634C11.0765 2.42634 13.5712 4.92098 13.5712 7.99777V8.85491H11.1426C10.5122 8.85491 9.99972 9.36741 9.99972 9.99777V13.7121C9.99972 14.3424 10.5122 14.8549 11.1426 14.8549H14.4283C14.6658 14.8549 14.8569 14.6638 14.8569 14.4263V7.99777C14.8569 4.21027 11.7872 1.14062 7.99972 1.14062ZM4.71401 10.1406V13.5692H2.42829V10.1406H4.71401ZM13.5712 13.5692H11.2854V10.1406H13.5712V13.5692Z" fill="#0E0D0D"/>
</g>
<defs>
<clipPath id="clip0_2390_124783">
<rect width="16" height="16" fill="white"/>
</clipPath>
</defs>
</svg>
