<svg width="18" height="18" viewBox="0 0 18 18" fill="none" xmlns="http://www.w3.org/2000/svg">
<g clip-path="url(#clip0_3170_135804)">
<rect width="18" height="18" fill="white" fill-opacity="0.01"/>
<g clip-path="url(#clip1_3170_135804)">
<path d="M16.3929 0.966797H1.60721C1.25163 0.966797 0.964355 1.25407 0.964355 1.60965V16.3954C0.964355 16.7509 1.25163 17.0382 1.60721 17.0382H8.83936C8.92775 17.0382 9.00007 16.9659 9.00007 16.8775V15.7525C9.00007 15.6641 8.92775 15.5918 8.83936 15.5918H2.41078V2.41323H15.5894V8.8418C15.5894 8.93019 15.6617 9.00251 15.7501 9.00251H16.8751C16.9635 9.00251 17.0358 8.93019 17.0358 8.8418V1.60965C17.0358 1.25407 16.7485 0.966797 16.3929 0.966797ZM11.8387 10.7583L12.8873 9.70965C12.9086 9.68831 12.9234 9.66142 12.9301 9.63207C12.9369 9.60271 12.9352 9.57206 12.9254 9.54359C12.9155 9.51513 12.8979 9.48999 12.8745 9.47105C12.8511 9.45211 12.8228 9.44012 12.7929 9.43644L9.18891 9.01456C9.08645 9.00251 8.99806 9.0889 9.01011 9.19336L9.43199 12.7974C9.44806 12.93 9.61078 12.9862 9.7052 12.8918L10.7579 11.8391L15.9048 16.986C15.967 17.0483 16.0695 17.0483 16.1318 16.986L16.9836 16.1342C17.0458 16.0719 17.0458 15.9695 16.9836 15.9072L11.8387 10.7583Z" fill="black" fill-opacity="0.85"/>
</g>
</g>
<defs>
<clipPath id="clip0_3170_135804">
<rect width="18" height="18" fill="white"/>
</clipPath>
<clipPath id="clip1_3170_135804">
<rect width="18" height="18" fill="white"/>
</clipPath>
</defs>
</svg>
