<svg width="22" height="22" viewBox="0 0 22 22" fill="none" xmlns="http://www.w3.org/2000/svg">
<g clip-path="url(#clip0_1400_99760)">
<rect width="22" height="22" fill="white" fill-opacity="0.01"/>
<path d="M20.0361 5.92039H13.7504V3.14584C13.7504 2.71124 13.3993 2.36012 12.9647 2.36012H2.94681V1.37798C2.94681 1.26994 2.85842 1.18155 2.75038 1.18155H1.37538C1.26735 1.18155 1.17896 1.26994 1.17896 1.37798V20.628C1.17896 20.736 1.26735 20.8244 1.37538 20.8244H2.75038C2.85842 20.8244 2.94681 20.736 2.94681 20.628V14.1458H9.0361V16.9204C9.0361 17.355 9.38721 17.7061 9.82181 17.7061H20.0361C20.4707 17.7061 20.8218 17.355 20.8218 16.9204V6.7061C20.8218 6.2715 20.4707 5.92039 20.0361 5.92039ZM2.94681 12.378V4.12798H11.9825V12.378H2.94681ZM19.054 15.9382H10.804V14.1458H13.554C13.662 14.1458 13.7504 14.0574 13.7504 13.9494V7.68825H19.054V15.9382Z" fill="#0EAF8F"/>
</g>
<defs>
<clipPath id="clip0_1400_99760">
<rect width="22" height="22" fill="white"/>
</clipPath>
</defs>
</svg>
