<svg width="24" height="25" viewBox="0 0 24 25" fill="none" xmlns="http://www.w3.org/2000/svg">
<g clip-path="url(#clip0_2220_26552)">
<path d="M23.8931 17.1693L23.8877 17.164C22.7065 14.6649 20.877 13.3791 18.4422 13.3791C16.0074 13.3791 14.1779 14.6675 12.994 17.164V17.1667C12.9225 17.3192 12.8855 17.4857 12.8855 17.6541C12.8855 17.8226 12.9225 17.9891 12.994 18.1416C14.1779 20.6381 16.0074 21.9238 18.4422 21.9238C20.877 21.9238 22.7065 20.6354 23.8904 18.139C24.035 17.8309 24.035 17.4747 23.8931 17.1693ZM18.4422 20.2095C16.7788 20.2095 15.5654 19.4059 14.6627 17.6515C15.5627 15.897 16.7788 15.0934 18.4422 15.0934C20.1056 15.0934 21.319 15.897 22.2216 17.6515C21.3216 19.4059 20.1056 20.2095 18.4422 20.2095Z" fill="black" fill-opacity="0.85"/>
<path d="M16.9554 17.6649C16.9554 18.0627 17.1134 18.4442 17.3947 18.7255C17.676 19.0068 18.0575 19.1649 18.4554 19.1649C18.8532 19.1649 19.2347 19.0068 19.516 18.7255C19.7973 18.4442 19.9554 18.0627 19.9554 17.6649C19.9554 17.267 19.7973 16.8855 19.516 16.6042C19.2347 16.3229 18.8532 16.1649 18.4554 16.1649C18.0575 16.1649 17.676 16.3229 17.3947 16.6042C17.1134 16.8855 16.9554 17.267 16.9554 17.6649ZM1.92857 4.99522H20.7857V11.772H22.7143V3.92379C22.7143 3.44969 22.3313 3.06665 21.8571 3.06665H0.857143C0.383036 3.06665 0 3.44969 0 3.92379V17.8524C0 18.3265 0.383036 18.7095 0.857143 18.7095H10.2857V16.7809H1.92857V4.99522Z" fill="black" fill-opacity="0.85"/>
<path d="M17.7028 7.84107L16.7171 6.85535C16.6768 6.81547 16.6224 6.7931 16.5657 6.7931C16.5091 6.7931 16.4547 6.81547 16.4144 6.85535L11.4912 11.7839L9.18494 9.475C9.14466 9.43512 9.09028 9.41274 9.0336 9.41274C8.97692 9.41274 8.92253 9.43512 8.88226 9.475L5.01708 13.3402C4.9772 13.3804 4.95483 13.4348 4.95483 13.4915C4.95483 13.5482 4.9772 13.6026 5.01708 13.6429L6.0028 14.6286C6.08583 14.7116 6.22244 14.7116 6.30547 14.6286L9.03226 11.9018L11.3385 14.2107C11.4215 14.2937 11.5582 14.2937 11.6412 14.2107L17.7028 8.14375C17.7885 8.06071 17.7885 7.9241 17.7028 7.84107Z" fill="black" fill-opacity="0.85"/>
</g>
<defs>
<clipPath id="clip0_2220_26552">
<rect width="24" height="24" fill="white" transform="translate(0 0.5)"/>
</clipPath>
</defs>
</svg>
