<svg width="51" height="51" viewBox="0 0 51 51" fill="none" xmlns="http://www.w3.org/2000/svg">
<rect width="51" height="51" rx="5" fill="#15CFAA" fill-opacity="0.1"/>
<g clip-path="url(#clip0_5521_1542)">
<path d="M18.5 16.75C18.5 15.7554 18.8951 14.8016 19.5983 14.0983C20.3016 13.3951 21.2554 13 22.25 13C23.2446 13 24.1984 13.3951 24.9017 14.0983C25.6049 14.8016 26 15.7554 26 16.75C26 15.7554 26.3951 14.8016 27.0983 14.0983C27.8016 13.3951 28.7554 13 29.75 13C30.7446 13 31.6984 13.3951 32.4016 14.0983C33.1049 14.8016 33.5 15.7554 33.5 16.75V16.759C33.5 16.864 33.5 17.164 33.443 17.5H36.5C36.8978 17.5 37.2794 17.658 37.5607 17.9393C37.842 18.2206 38 18.6022 38 19V20.5C38 20.8978 37.842 21.2794 37.5607 21.5607C37.2794 21.842 36.8978 22 36.5 22H15.5C15.1022 22 14.7206 21.842 14.4393 21.5607C14.158 21.2794 14 20.8978 14 20.5V19C14 18.6022 14.158 18.2206 14.4393 17.9393C14.7206 17.658 15.1022 17.5 15.5 17.5H18.557C18.5174 17.255 18.4983 17.0072 18.5 16.759V16.75ZM20.102 17.5H24.5V16.75C24.5 16.4545 24.4418 16.1619 24.3287 15.889C24.2157 15.616 24.0499 15.3679 23.841 15.159C23.6321 14.9501 23.384 14.7843 23.111 14.6713C22.8381 14.5582 22.5455 14.5 22.25 14.5C21.9545 14.5 21.6619 14.5582 21.389 14.6713C21.116 14.7843 20.8679 14.9501 20.659 15.159C20.4501 15.3679 20.2843 15.616 20.1713 15.889C20.0582 16.1619 20 16.4545 20 16.75C20 16.8775 20.003 17.161 20.0675 17.395C20.0765 17.4308 20.088 17.4659 20.102 17.5ZM27.5 17.5H31.898C31.9118 17.4658 31.9233 17.4307 31.9325 17.395C31.997 17.161 32 16.8775 32 16.75C32 16.1533 31.7629 15.581 31.341 15.159C30.919 14.7371 30.3467 14.5 29.75 14.5C29.1533 14.5 28.581 14.7371 28.159 15.159C27.7371 15.581 27.5 16.1533 27.5 16.75V17.5ZM36.5 23.5V34.75C36.5 35.3467 36.2629 35.919 35.841 36.341C35.419 36.7629 34.8467 37 34.25 37H27.5V23.5H36.5ZM17.75 37C17.1533 37 16.581 36.7629 16.159 36.341C15.7371 35.919 15.5 35.3467 15.5 34.75V23.5H24.5V37H17.75Z" fill="#0EAF8F"/>
</g>
<defs>
<clipPath id="clip0_5521_1542">
<rect width="24" height="24" fill="white" transform="translate(14 13)"/>
</clipPath>
</defs>
</svg>
