<svg width="22" height="22" viewBox="0 0 22 22" fill="none" xmlns="http://www.w3.org/2000/svg">
<g clip-path="url(#clip0_1400_100048)">
<rect width="22" height="22" fill="white" fill-opacity="0.01"/>
<g clip-path="url(#clip1_1400_100048)">
<path d="M21.2143 2.35266H0.785714C0.351116 2.35266 0 2.70378 0 3.13838V18.8527C0 19.2873 0.351116 19.6384 0.785714 19.6384H21.2143C21.6489 19.6384 22 19.2873 22 18.8527V3.13838C22 2.70378 21.6489 2.35266 21.2143 2.35266ZM20.2321 17.8705H1.76786V4.12052H20.2321V17.8705ZM13.4136 10.1116H16.4435C16.4754 10.1116 16.5 10.0232 16.5 9.91516V8.73659C16.5 8.62855 16.4754 8.54016 16.4435 8.54016H13.4136C13.3817 8.54016 13.3571 8.62855 13.3571 8.73659V9.91516C13.3571 10.0232 13.3817 10.1116 13.4136 10.1116ZM13.5315 13.6473H18.0911C18.1868 13.6473 18.2654 13.5589 18.2654 13.4509V12.2723C18.2654 12.1643 18.1868 12.0759 18.0911 12.0759H13.5315C13.4357 12.0759 13.3571 12.1643 13.3571 12.2723V13.4509C13.3571 13.5589 13.4357 13.6473 13.5315 13.6473ZM3.92857 14.9486H5.00647C5.1096 14.9486 5.19308 14.8676 5.20045 14.7645C5.29375 13.5245 6.32991 12.5424 7.58705 12.5424C8.8442 12.5424 9.88036 13.5245 9.97366 14.7645C9.98103 14.8676 10.0645 14.9486 10.1676 14.9486H11.2455C11.2722 14.9487 11.2985 14.9433 11.323 14.9328C11.3475 14.9223 11.3696 14.907 11.388 14.8877C11.4064 14.8684 11.4207 14.8456 11.4299 14.8206C11.4392 14.7956 11.4433 14.769 11.442 14.7424C11.3732 13.4337 10.6562 12.2944 9.61027 11.6462C10.0715 11.1391 10.3264 10.4779 10.3248 9.79239C10.3248 8.27253 9.09955 7.04239 7.58951 7.04239C6.07946 7.04239 4.85424 8.27253 4.85424 9.79239C4.85424 10.5069 5.12433 11.1551 5.56875 11.6462C5.03625 11.9762 4.59153 12.4301 4.27257 12.9693C3.9536 13.5085 3.76986 14.1168 3.73705 14.7424C3.72723 14.8553 3.81562 14.9486 3.92857 14.9486ZM7.58705 8.51561C8.28683 8.51561 8.85647 9.08771 8.85647 9.79239C8.85647 10.4971 8.28683 11.0692 7.58705 11.0692C6.88728 11.0692 6.31763 10.4971 6.31763 9.79239C6.31763 9.08771 6.88728 8.51561 7.58705 8.51561Z" fill="#0EAF8F"/>
</g>
</g>
<defs>
<clipPath id="clip0_1400_100048">
<rect width="22" height="22" fill="white"/>
</clipPath>
<clipPath id="clip1_1400_100048">
<rect width="22" height="22" fill="white"/>
</clipPath>
</defs>
</svg>
