<svg width="15" height="14" viewBox="0 0 15 14" fill="none" xmlns="http://www.w3.org/2000/svg">
<g clip-path="url(#clip0_215_81282)">
<path d="M14.2899 6.88972L8.25239 0.855343L7.8477 0.450656C7.75549 0.359057 7.63079 0.307648 7.50082 0.307648C7.37085 0.307648 7.24616 0.359057 7.15395 0.450656L0.711761 6.88972C0.617278 6.98383 0.542607 7.09592 0.492155 7.21937C0.441702 7.34282 0.416492 7.47512 0.418011 7.60847C0.424261 8.15847 0.882073 8.59753 1.43207 8.59753H2.09614V13.6866H12.9055V8.59753H13.5836C13.8508 8.59753 14.1024 8.49284 14.2914 8.30378C14.3845 8.21099 14.4583 8.10065 14.5085 7.97915C14.5586 7.85765 14.5842 7.72741 14.5836 7.59597C14.5836 7.33034 14.4789 7.07878 14.2899 6.88972ZM8.37582 12.5616H6.62582V9.37409H8.37582V12.5616ZM11.7805 7.47253V12.5616H9.37582V8.99909C9.37582 8.65378 9.09614 8.37409 8.75082 8.37409H6.25082C5.90551 8.37409 5.62582 8.65378 5.62582 8.99909V12.5616H3.22114V7.47253H1.72114L7.50239 1.69597L7.86332 2.05691L13.2821 7.47253H11.7805Z" fill="black" fill-opacity="0.85"/>
</g>
<defs>
<clipPath id="clip0_215_81282">
<rect width="14" height="14" fill="white" transform="translate(0.5)"/>
</clipPath>
</defs>
</svg>
