<svg width="24" height="24" viewBox="0 0 24 24" fill="none" xmlns="http://www.w3.org/2000/svg">
<g clip-path="url(#clip0_2330_124066)">
<rect width="24" height="24" fill="white" fill-opacity="0.01"/>
<path d="M20.747 10.4604L20.7423 10.4416L18.1126 3.75957C17.9954 3.38223 17.6462 3.12207 17.2501 3.12207H6.5907C6.19227 3.12207 5.83836 3.38691 5.72586 3.76895L3.26727 10.383L3.26023 10.3994L3.25555 10.4182C3.22508 10.533 3.2157 10.6502 3.23211 10.765C3.22977 10.8025 3.22742 10.84 3.22742 10.8775V19.4533C3.22804 19.8311 3.37837 20.1932 3.64548 20.4603C3.91258 20.7274 4.27468 20.8777 4.65242 20.8783H19.3524C20.1376 20.8783 20.7774 20.2385 20.7798 19.4533V10.8775C20.7798 10.8471 20.7798 10.8166 20.7774 10.7908C20.7868 10.676 20.7774 10.5658 20.747 10.4604ZM13.8141 9.45254L13.8071 9.82051C13.7884 10.8729 13.0618 11.5807 12.0001 11.5807C11.4821 11.5807 11.0368 11.4143 10.7157 11.0979C10.3946 10.7814 10.2188 10.3408 10.2095 9.82051L10.2024 9.45254H5.37898L7.24227 4.92207H16.5985L18.5134 9.45254H13.8141ZM5.02508 11.2525H8.7118C9.28133 12.5908 10.493 13.3807 12.0024 13.3807C12.7923 13.3807 13.5259 13.1604 14.1188 12.7432C14.6391 12.3775 15.0446 11.8666 15.3071 11.2525H18.9751V19.0783H5.02508V11.2525Z" fill="#0EAF8F"/>
</g>
<defs>
<clipPath id="clip0_2330_124066">
<rect width="24" height="24" fill="white"/>
</clipPath>
</defs>
</svg>
