<svg width="15" height="14" viewBox="0 0 15 14" fill="none" xmlns="http://www.w3.org/2000/svg">
<g clip-path="url(#clip0_1885_7138)">
<path d="M13.627 1.49725H0.626953C0.350391 1.49725 0.126953 1.72069 0.126953 1.99725V11.9973C0.126953 12.2738 0.350391 12.4973 0.626953 12.4973H13.627C13.9035 12.4973 14.127 12.2738 14.127 11.9973V1.99725C14.127 1.72069 13.9035 1.49725 13.627 1.49725ZM13.002 11.3723H1.25195V2.62225H13.002V11.3723ZM8.66289 6.43475H10.591C10.6113 6.43475 10.627 6.3785 10.627 6.30975V5.55975C10.627 5.491 10.6113 5.43475 10.591 5.43475H8.66289C8.64258 5.43475 8.62695 5.491 8.62695 5.55975V6.30975C8.62695 6.3785 8.64258 6.43475 8.66289 6.43475ZM8.73789 8.68475H11.6395C11.7004 8.68475 11.7504 8.6285 11.7504 8.55975V7.80975C11.7504 7.741 11.7004 7.68475 11.6395 7.68475H8.73789C8.67695 7.68475 8.62695 7.741 8.62695 7.80975V8.55975C8.62695 8.6285 8.67695 8.68475 8.73789 8.68475ZM2.62695 9.51288H3.31289C3.37852 9.51288 3.43164 9.46132 3.43633 9.39569C3.4957 8.60663 4.15508 7.98163 4.95508 7.98163C5.75508 7.98163 6.41445 8.60663 6.47383 9.39569C6.47852 9.46132 6.53164 9.51288 6.59727 9.51288H7.2832C7.30016 9.5129 7.31694 9.50947 7.33253 9.5028C7.34811 9.49613 7.36218 9.48636 7.37388 9.47409C7.38557 9.46181 7.39464 9.44728 7.40054 9.43139C7.40645 9.41549 7.40905 9.39856 7.4082 9.38163C7.36445 8.54882 6.9082 7.82382 6.24258 7.41132C6.53611 7.08865 6.69831 6.66784 6.69727 6.23163C6.69727 5.26444 5.91758 4.48163 4.95664 4.48163C3.9957 4.48163 3.21602 5.26444 3.21602 6.23163C3.21602 6.68632 3.38789 7.09882 3.6707 7.41132C3.33184 7.6213 3.04884 7.91018 2.84586 8.25329C2.64288 8.59639 2.52596 8.98353 2.50508 9.38163C2.49883 9.4535 2.55508 9.51288 2.62695 9.51288ZM4.95508 5.41913C5.40039 5.41913 5.76289 5.78319 5.76289 6.23163C5.76289 6.68007 5.40039 7.04413 4.95508 7.04413C4.50977 7.04413 4.14727 6.68007 4.14727 6.23163C4.14727 5.78319 4.50977 5.41913 4.95508 5.41913Z" fill="white"/>
</g>
<defs>
<clipPath id="clip0_1885_7138">
<rect width="14" height="14" fill="white" transform="translate(0.126953)"/>
</clipPath>
</defs>
</svg>
