<svg width="15" height="14" viewBox="0 0 15 14" fill="none" xmlns="http://www.w3.org/2000/svg">
<g clip-path="url(#clip0_3562_24702)">
<path d="M12.5323 6.33338C12.229 5.65066 11.788 5.03788 11.237 4.53338L10.7823 4.11619C10.7669 4.10242 10.7483 4.09264 10.7282 4.08772C10.7081 4.0828 10.6871 4.08289 10.6671 4.08798C10.647 4.09307 10.6285 4.10301 10.6132 4.11692C10.5979 4.13083 10.5862 4.14828 10.5792 4.16776L10.3761 4.75057C10.2495 5.11619 10.0167 5.48963 9.68701 5.85682C9.66514 5.88026 9.64014 5.88651 9.62295 5.88807C9.60576 5.88963 9.5792 5.88651 9.55576 5.86463C9.53389 5.84588 9.52295 5.81775 9.52451 5.78963C9.58232 4.849 9.30108 3.78807 8.68545 2.63338C8.17608 1.674 7.46826 0.925567 6.58389 0.403692L5.93857 0.0240049C5.8542 -0.0259951 5.74639 0.0396298 5.75107 0.138067L5.78545 0.888067C5.80889 1.40057 5.74951 1.85369 5.60889 2.23025C5.43701 2.69119 5.19014 3.11932 4.87451 3.50369C4.65486 3.77082 4.4059 4.01244 4.13232 4.22401C3.47343 4.73051 2.93766 5.37953 2.56514 6.12244C2.19353 6.87184 1.99997 7.69691 1.99951 8.53338C1.99951 9.27088 2.14482 9.98494 2.43232 10.6584C2.70993 11.3068 3.11054 11.8952 3.61201 12.3912C4.11826 12.8912 4.70576 13.2849 5.36045 13.5584C6.03857 13.8428 6.75732 13.9865 7.49951 13.9865C8.2417 13.9865 8.96045 13.8428 9.63858 13.5599C10.2917 13.2881 10.8855 12.8917 11.387 12.3928C11.8933 11.8928 12.2901 11.3084 12.5667 10.6599C12.8538 9.98835 13.001 9.26532 12.9995 8.53494C12.9995 7.77244 12.8433 7.03182 12.5323 6.33338ZM10.6401 11.6349C9.80107 12.4662 8.68701 12.9224 7.49951 12.9224C6.31201 12.9224 5.19795 12.4662 4.35889 11.6349C3.52295 10.8053 3.06201 9.70525 3.06201 8.53494C3.06201 7.85525 3.21514 7.20369 3.5167 6.59744C3.81045 6.00526 4.24795 5.47557 4.7792 5.06776C5.11801 4.80868 5.42531 4.51082 5.69482 4.18025C6.08545 3.70369 6.3917 3.17244 6.6042 2.60213C6.69137 2.36688 6.7547 2.12347 6.79326 1.87557C7.16982 2.22244 7.48545 2.64119 7.74951 3.13182C8.27139 4.10994 8.51201 4.98026 8.46514 5.72088C8.45394 5.89531 8.48243 6.07001 8.54846 6.23185C8.61449 6.39369 8.71636 6.53845 8.84639 6.65525C8.95907 6.75705 9.09086 6.83543 9.2341 6.88586C9.37733 6.93629 9.52916 6.95775 9.68076 6.94901C9.98857 6.93338 10.2714 6.79744 10.4776 6.56776C10.6854 6.33494 10.8651 6.09744 11.0151 5.85526C11.2339 6.13494 11.4167 6.43963 11.562 6.76776C11.8105 7.32713 11.937 7.92244 11.937 8.53494C11.937 9.70525 11.4761 10.8068 10.6401 11.6349Z" fill="white"/>
</g>
<defs>
<clipPath id="clip0_3562_24702">
<rect width="14" height="14" fill="white" transform="translate(0.5)"/>
</clipPath>
</defs>
</svg>
