<svg width="22" height="22" viewBox="0 0 22 22" fill="none" xmlns="http://www.w3.org/2000/svg">
<g clip-path="url(#clip0_1521_99388)">
<rect width="22" height="22" fill="white" fill-opacity="0.01"/>
<path d="M12.5218 14.7647C12.4849 14.7281 12.4351 14.7076 12.3831 14.7076C12.3311 14.7076 12.2813 14.7281 12.2444 14.7647L9.39124 17.6178C8.07026 18.9388 5.8408 19.0787 4.38231 17.6178C2.92138 16.1569 3.06133 13.9299 4.38231 12.6089L7.23544 9.75575C7.31156 9.67963 7.31156 9.55441 7.23544 9.47829L6.25821 8.50106C6.22129 8.4645 6.17143 8.444 6.11948 8.444C6.06752 8.444 6.01767 8.4645 5.98075 8.50106L3.12763 11.3542C1.05039 13.4314 1.05039 16.7928 3.12763 18.8676C5.20486 20.9424 8.56624 20.9448 10.641 18.8676L13.4941 16.0145C13.5703 15.9383 13.5703 15.8131 13.4941 15.737L12.5218 14.7647ZM18.8714 3.12628C16.7941 1.04905 13.4328 1.04905 11.358 3.12628L8.5024 5.97941C8.46585 6.01633 8.44534 6.06618 8.44534 6.11814C8.44534 6.17009 8.46585 6.21995 8.5024 6.25686L9.47718 7.23164C9.5533 7.30776 9.67852 7.30776 9.75464 7.23164L12.6078 4.37852C13.9287 3.05753 16.1582 2.91758 17.6167 4.37852C19.0776 5.83945 18.9377 8.06646 17.6167 9.38744L14.7636 12.2406C14.727 12.2775 14.7065 12.3273 14.7065 12.3793C14.7065 12.4313 14.727 12.4811 14.7636 12.518L15.7408 13.4953C15.8169 13.5714 15.9421 13.5714 16.0183 13.4953L18.8714 10.6421C20.9462 8.5649 20.9462 5.20352 18.8714 3.12628ZM13.4082 7.56802C13.3713 7.53147 13.3214 7.51096 13.2695 7.51096C13.2175 7.51096 13.1677 7.53147 13.1308 7.56802L7.56937 13.127C7.53281 13.1639 7.51231 13.2137 7.51231 13.2657C7.51231 13.3176 7.53281 13.3675 7.56937 13.4044L8.54169 14.3767C8.61781 14.4528 8.74303 14.4528 8.81915 14.3767L14.3781 8.8178C14.4542 8.74169 14.4542 8.61646 14.3781 8.54035L13.4082 7.56802Z" fill="#0EAF8F"/>
</g>
<defs>
<clipPath id="clip0_1521_99388">
<rect width="22" height="22" fill="white"/>
</clipPath>
</defs>
</svg>
