<svg width="16" height="18" viewBox="0 0 16 18" fill="none" xmlns="http://www.w3.org/2000/svg">
<path d="M15.1399 4.52329C14.7555 3.65118 14.2014 2.86155 13.5087 2.19896C12.8138 1.53039 11.9946 0.999749 11.0958 0.636016C10.1608 0.25432 9.16866 0.0614624 8.1459 0.0614624C7.12314 0.0614624 6.131 0.25432 5.19602 0.634007C4.29167 1.00164 3.48122 1.52798 2.78305 2.19695C2.09084 2.85991 1.53678 3.64945 1.15194 4.52128C0.75386 5.4253 0.551758 6.38557 0.551758 7.37396C0.551758 8.79227 0.896761 10.2045 1.57452 11.5666C2.11958 12.6615 2.88104 13.7282 3.84051 14.7427C5.47978 16.4744 7.19867 17.5331 7.68658 17.8164C7.82507 17.8969 7.98302 17.9392 8.14386 17.9389C8.30309 17.9389 8.46028 17.8987 8.60114 17.8164C9.08904 17.5331 10.8079 16.4744 12.4472 14.7427C13.4067 13.7302 14.1681 12.6615 14.7132 11.5666C15.395 10.2066 15.74 8.79628 15.74 7.37597C15.74 6.38758 15.5379 5.42731 15.1399 4.52329ZM8.1459 16.3981C6.80059 15.5563 2.02159 12.2235 2.02159 7.37597C2.02159 5.81102 2.65648 4.34048 3.80989 3.23155C4.96738 2.12061 6.50663 1.50789 8.1459 1.50789C9.78517 1.50789 11.3244 2.12061 12.4819 3.23356C13.6353 4.34048 14.2702 5.81102 14.2702 7.37597C14.2702 12.2235 9.4912 15.5563 8.1459 16.3981ZM8.1459 3.99896C6.16162 3.99896 4.55297 5.582 4.55297 7.53468C4.55297 9.48736 6.16162 11.0704 8.1459 11.0704C10.1302 11.0704 11.7388 9.48736 11.7388 7.53468C11.7388 5.582 10.1302 3.99896 8.1459 3.99896ZM9.76272 9.12575C9.55066 9.33503 9.29864 9.50099 9.02116 9.61407C8.74369 9.72716 8.44623 9.78514 8.1459 9.78468C7.53551 9.78468 6.96187 9.54963 6.52908 9.12575C6.31641 8.91706 6.14777 8.66906 6.03286 8.396C5.91794 8.12295 5.85902 7.83022 5.85949 7.53468C5.85949 6.93401 6.09834 6.3695 6.52908 5.9436C6.96187 5.51771 7.53551 5.28468 8.1459 5.28468C8.75629 5.28468 9.32993 5.51771 9.76272 5.9436C10.1955 6.3695 10.4323 6.93401 10.4323 7.53468C10.4323 8.13535 10.1955 8.69986 9.76272 9.12575Z" fill="#EF4444"/>
</svg>
