<svg width="59" height="37" viewBox="0 0 59 37" fill="none" xmlns="http://www.w3.org/2000/svg">
<path d="M28.1298 9.63833C26.8533 10.4251 26.3486 11.9836 26.8236 13.3493C26.8087 13.3493 26.7939 13.3641 26.7939 13.3641L20.5001 17.268C18.1103 12.8297 19.2384 7.33755 23.083 4.17583C23.3353 3.96802 23.3947 3.62662 23.2165 3.34458L23.1423 3.24068C22.9345 2.91412 22.4892 2.8399 22.1923 3.09224C17.6205 6.83287 16.433 13.468 19.6392 18.6188C22.8455 23.7696 29.3173 25.6251 34.6908 23.1907C35.047 23.0274 35.1806 22.5969 34.9728 22.2704L34.8986 22.1665C34.7353 21.8993 34.379 21.7954 34.097 21.929C29.5548 23.9774 24.1369 22.5672 21.2126 18.4555L27.5064 14.5516C27.5212 14.5516 27.5212 14.5368 27.5361 14.5368C28.5455 15.561 30.1634 15.7985 31.44 14.9969C32.9095 14.0766 33.3548 12.1469 32.4494 10.6774C31.529 9.17818 29.5994 8.71802 28.1298 9.63833ZM30.6978 13.7797C29.8814 14.2844 28.8126 14.0321 28.308 13.2157C27.8033 12.3993 28.0556 11.3305 28.872 10.8258C29.6884 10.3211 30.7572 10.5735 31.2619 11.3751C31.7665 12.2063 31.5142 13.2751 30.6978 13.7797Z" fill="#EF4444"/>
<path d="M37.468 7.62005C39.8579 11.4497 39.1305 16.3333 35.9688 19.3318C35.6422 19.6286 35.1227 19.5544 34.9 19.1833C34.7219 18.9013 34.7813 18.5302 35.0188 18.2927C37.6758 15.7544 38.2993 11.613 36.2657 8.36224C34.2321 5.11146 30.2539 3.8349 26.7954 5.09662C26.4836 5.21537 26.1274 5.09661 25.9493 4.81458C25.7415 4.48802 25.8454 4.04271 26.1719 3.84974C26.2165 3.82005 26.2461 3.80521 26.2907 3.79037C30.3875 2.2763 35.093 3.79037 37.468 7.62005Z" fill="#5DC091"/>
<path d="M34.929 9.19259C36.4431 11.6418 36.2056 14.6699 34.5431 16.8223C34.2462 17.2082 33.6524 17.1637 33.4001 16.7629C33.2368 16.5106 33.2665 16.184 33.4446 15.9465C34.7509 14.2395 34.929 11.8496 33.7266 9.91994C32.5243 7.99025 30.2977 7.09962 28.2048 7.51525C27.9079 7.57462 27.611 7.45588 27.4626 7.20353C27.2102 6.78791 27.4329 6.23869 27.9079 6.14962C30.5798 5.63009 33.4149 6.75822 34.929 9.19259Z" fill="#5DC091"/>
<path d="M39.8276 6.04594C43.0338 11.1967 41.8315 17.8616 37.2448 21.5873C36.9479 21.8248 36.5026 21.7655 36.3096 21.4389L36.2354 21.3202C36.0721 21.053 36.1315 20.6967 36.369 20.5037C40.4065 17.2084 41.4604 11.3452 38.6401 6.78813C36.0721 2.66156 31.1143 0.924844 26.6612 2.26078C26.2159 2.39438 25.7706 2.55766 25.3252 2.76547C25.0432 2.89906 24.7018 2.81 24.5385 2.54281C24.4791 2.43891 24.4198 2.335 24.3901 2.21625C24.3159 1.91937 24.4643 1.6225 24.7463 1.48891C25.2065 1.28109 25.6815 1.10297 26.1713 0.954531C31.2479 -0.618907 36.9034 1.34047 39.8276 6.04594Z" fill="#5DC091"/>
<path d="M6.17578 29.0078V30.0914H4.05312V36.0734H2.73203V30.0914H0.609375V29.0078H6.17578Z" fill="#EF4444"/>
<path d="M6.16016 36.0738V31.0566H6.87266C6.99141 31.0566 7.08047 31.0863 7.125 31.1309C7.16953 31.1754 7.19922 31.2496 7.22891 31.3684L7.30312 31.977C7.48125 31.6652 7.68906 31.4277 7.92656 31.2496C8.16406 31.0715 8.43125 30.9824 8.74297 30.9824C8.99531 30.9824 9.18828 31.0418 9.35156 31.1605L9.18828 32.066C9.17344 32.1254 9.15859 32.1699 9.12891 32.1848C9.09922 32.2145 9.05469 32.2145 8.99531 32.2145C8.95078 32.2145 8.87656 32.1996 8.80234 32.1848C8.71328 32.1551 8.60938 32.1551 8.46094 32.1551C8.20859 32.1551 8.00078 32.2293 7.82266 32.3629C7.64453 32.4965 7.49609 32.7043 7.3625 32.9715V36.0887H6.16016V36.0738Z" fill="#EF4444"/>
<path d="M11.2672 31.0566V34.248C11.2672 34.5598 11.3414 34.7973 11.475 34.9605C11.6086 35.1238 11.8312 35.2129 12.1133 35.2129C12.3211 35.2129 12.5141 35.1684 12.6922 35.0793C12.8703 34.9902 13.0484 34.8566 13.2117 34.6934V31.0715H14.4141V36.0887H13.6719C13.5086 36.0887 13.4195 36.0145 13.3602 35.866L13.2711 35.4652C13.1672 35.5691 13.0633 35.6582 12.9445 35.7473C12.8406 35.8363 12.7219 35.9105 12.5883 35.9699C12.4695 36.0293 12.3211 36.0738 12.1875 36.1184C12.0539 36.1629 11.8906 36.1629 11.7273 36.1629C11.4602 36.1629 11.2078 36.1184 11 36.0293C10.7922 35.9402 10.6141 35.8066 10.4656 35.6434C10.3172 35.4801 10.2133 35.2723 10.1391 35.0348C10.0648 34.7973 10.0352 34.5449 10.0352 34.2629V31.0715H11.2672V31.0566Z" fill="#EF4444"/>
<path d="M17.7836 30.9824C18.0953 30.9824 18.3922 31.027 18.6594 31.1309C18.9266 31.2348 19.1492 31.3832 19.3422 31.5762C19.5352 31.7691 19.6836 32.0066 19.7875 32.2887C19.8914 32.5707 19.9508 32.8973 19.9508 33.2535C19.9508 33.3426 19.9508 33.4168 19.9359 33.4762C19.9211 33.5355 19.9062 33.5801 19.8914 33.6246C19.8766 33.6543 19.8469 33.684 19.8023 33.6988C19.7727 33.7137 19.7281 33.7137 19.6687 33.7137H16.5664C16.5961 34.2332 16.7445 34.6043 16.982 34.8418C17.2195 35.0793 17.5461 35.198 17.932 35.198C18.125 35.198 18.3031 35.1684 18.4367 35.1238C18.5703 35.0793 18.7039 35.0348 18.8078 34.9754C18.9117 34.916 19.0008 34.8715 19.0898 34.827C19.1641 34.7824 19.2531 34.7527 19.3273 34.7527C19.3719 34.7527 19.4164 34.7676 19.4609 34.7824C19.4906 34.7973 19.5203 34.827 19.55 34.8715L19.9062 35.3168C19.7727 35.4801 19.6242 35.5988 19.4609 35.7027C19.2977 35.8066 19.1195 35.8957 18.9414 35.9551C18.7633 36.0145 18.5703 36.059 18.3922 36.0887C18.1992 36.1184 18.0211 36.1332 17.843 36.1332C17.5016 36.1332 17.175 36.0738 16.8781 35.9551C16.5813 35.8363 16.3141 35.673 16.0914 35.4355C15.8688 35.2129 15.6906 34.9309 15.5719 34.5895C15.4383 34.2629 15.3789 33.8621 15.3789 33.4316C15.3789 33.0902 15.4383 32.7637 15.5422 32.4668C15.6461 32.1699 15.8094 31.9027 16.0172 31.6801C16.225 31.4574 16.4773 31.2793 16.7742 31.1457C17.0711 31.0121 17.4125 30.9824 17.7836 30.9824ZM17.7984 31.8434C17.4422 31.8434 17.175 31.9473 16.9672 32.1402C16.7742 32.3332 16.6406 32.6152 16.5813 32.9863H18.8672C18.8672 32.823 18.8523 32.6895 18.8078 32.541C18.7633 32.4074 18.7039 32.2887 18.6148 32.1699C18.5258 32.066 18.4219 31.977 18.2883 31.9176C18.1398 31.873 17.9914 31.8434 17.7984 31.8434Z" fill="#EF4444"/>
<path d="M27.7438 34.4117C27.818 34.4117 27.8773 34.4414 27.9367 34.5008L28.4563 35.0648C28.1742 35.4211 27.818 35.6883 27.4023 35.8813C26.9867 36.0742 26.482 36.1633 25.9031 36.1633C25.3836 36.1633 24.9086 36.0742 24.493 35.8961C24.0773 35.718 23.7211 35.4656 23.4242 35.1539C23.1273 34.8422 22.9047 34.4563 22.7414 34.0109C22.5781 33.5656 22.5039 33.0906 22.5039 32.5563C22.5039 32.0219 22.593 31.5469 22.7711 31.1016C22.9492 30.6562 23.2016 30.2852 23.5133 29.9586C23.825 29.6469 24.2109 29.3945 24.6562 29.2164C25.1016 29.0383 25.5914 28.9492 26.1258 28.9492C26.6453 28.9492 27.1055 29.0383 27.5062 29.2016C27.8922 29.3648 28.2336 29.5875 28.5156 29.8695L28.0703 30.4781C28.0406 30.5227 28.0109 30.5523 27.9664 30.582C27.9219 30.6117 27.8625 30.6266 27.8031 30.6266C27.7289 30.6266 27.6547 30.5969 27.5805 30.5375C27.5062 30.4781 27.4023 30.4188 27.2836 30.3445C27.1648 30.2703 27.0164 30.2109 26.8234 30.1516C26.6453 30.0922 26.4078 30.0625 26.1258 30.0625C25.7992 30.0625 25.4875 30.1219 25.2055 30.2406C24.9234 30.3594 24.6859 30.5227 24.493 30.7305C24.3 30.9383 24.1367 31.2055 24.018 31.5172C23.8992 31.8289 23.8547 32.1703 23.8547 32.5563C23.8547 32.957 23.9141 33.3133 24.018 33.6102C24.1367 33.9219 24.2852 34.1742 24.4781 34.3969C24.6711 34.6047 24.8937 34.768 25.1609 34.8867C25.4281 35.0055 25.6953 35.05 26.007 35.05C26.1852 35.05 26.3484 35.0352 26.4969 35.0203C26.6453 35.0055 26.7789 34.9758 26.8977 34.9313C27.0164 34.8867 27.1352 34.8273 27.2391 34.768C27.343 34.7086 27.4617 34.6195 27.5656 34.5156C27.5953 34.4859 27.625 34.4563 27.6695 34.4414C27.6547 34.4117 27.6992 34.4117 27.7438 34.4117Z" fill="#5DC091"/>
<path d="M31.4996 30.9824C31.8707 30.9824 32.2121 31.0418 32.5238 31.1605C32.8355 31.2793 33.0879 31.4574 33.2957 31.6801C33.5035 31.9027 33.6816 32.1699 33.8004 32.4965C33.9191 32.8082 33.9785 33.1793 33.9785 33.5652C33.9785 33.966 33.9191 34.3223 33.8004 34.634C33.6816 34.9605 33.5184 35.2277 33.2957 35.4504C33.0879 35.673 32.8207 35.8512 32.5238 35.9699C32.2121 36.0887 31.8855 36.148 31.4996 36.148C31.1137 36.148 30.7871 36.0887 30.4754 35.9699C30.1637 35.8512 29.9113 35.673 29.6887 35.4504C29.466 35.2277 29.3027 34.9605 29.184 34.634C29.0652 34.3223 29.0059 33.9512 29.0059 33.5652C29.0059 33.1645 29.0652 32.8082 29.184 32.4965C29.3027 32.1848 29.466 31.9027 29.6887 31.6801C29.9113 31.4574 30.1637 31.2941 30.4754 31.1605C30.7871 31.027 31.1285 30.9824 31.4996 30.9824ZM31.4996 35.2129C31.9152 35.2129 32.227 35.0793 32.4199 34.7973C32.6129 34.5152 32.7168 34.0996 32.7168 33.5652C32.7168 33.0309 32.6129 32.6152 32.4199 32.3332C32.227 32.0512 31.9152 31.9027 31.4996 31.9027C31.0691 31.9027 30.7574 32.0512 30.5645 32.3332C30.3566 32.6152 30.2676 33.0309 30.2676 33.5652C30.2676 34.0996 30.3715 34.5152 30.5645 34.7973C30.7723 35.0793 31.084 35.2129 31.4996 35.2129Z" fill="#5DC091"/>
<path d="M34.9141 36.0738V31.0566H35.6562C35.8195 31.0566 35.9086 31.1309 35.968 31.2793L36.057 31.6801C36.1609 31.5762 36.2648 31.4871 36.3836 31.398C36.5023 31.309 36.6211 31.2348 36.7398 31.1754C36.8586 31.116 36.9922 31.0715 37.1406 31.027C37.2891 30.9973 37.4375 30.9824 37.6156 30.9824C37.8828 30.9824 38.1352 31.027 38.343 31.116C38.5508 31.2051 38.7289 31.3387 38.8773 31.502C39.0258 31.6652 39.1297 31.873 39.2039 32.0957C39.2781 32.3332 39.3078 32.5855 39.3078 32.8676V36.059H38.1055V32.8676C38.1055 32.5559 38.0313 32.3184 37.8977 32.1551C37.7641 31.9918 37.5414 31.9027 37.2594 31.9027C37.0516 31.9027 36.8586 31.9473 36.6805 32.0512C36.5023 32.1402 36.3242 32.2738 36.1609 32.4371V36.059H34.9141V36.0738Z" fill="#5DC091"/>
<path d="M40.4648 36.0738V31.0566H41.207C41.3703 31.0566 41.4594 31.1309 41.5188 31.2793L41.6078 31.6801C41.7117 31.5762 41.8156 31.4871 41.9344 31.398C42.0531 31.309 42.1719 31.2348 42.2906 31.1754C42.4094 31.116 42.543 31.0715 42.6914 31.027C42.8398 30.9973 42.9883 30.9824 43.1664 30.9824C43.4336 30.9824 43.6859 31.027 43.8938 31.116C44.1016 31.2051 44.2797 31.3387 44.4281 31.502C44.5766 31.6652 44.6805 31.873 44.7547 32.0957C44.8289 32.3332 44.8586 32.5855 44.8586 32.8676V36.059H43.6562V32.8676C43.6562 32.5559 43.582 32.3184 43.4484 32.1551C43.3148 31.9918 43.0922 31.9027 42.8102 31.9027C42.6023 31.9027 42.4094 31.9473 42.2312 32.0512C42.0531 32.1402 41.875 32.2738 41.7117 32.4371V36.059H40.4648V36.0738Z" fill="#5DC091"/>
<path d="M48.0941 30.9824C48.4059 30.9824 48.7027 31.027 48.9699 31.1309C49.2371 31.2348 49.4598 31.3832 49.6527 31.5762C49.8457 31.7691 49.9941 32.0066 50.098 32.2887C50.202 32.5707 50.2613 32.8973 50.2613 33.2535C50.2613 33.3426 50.2613 33.4168 50.2465 33.4762C50.2316 33.5355 50.2168 33.5801 50.202 33.6246C50.1871 33.6691 50.1574 33.684 50.1129 33.6988C50.0832 33.7137 50.0387 33.7137 49.9793 33.7137H46.877C46.9066 34.2332 47.0551 34.6043 47.2926 34.8418C47.5301 35.0793 47.8566 35.198 48.2426 35.198C48.4355 35.198 48.6137 35.1684 48.7473 35.1238C48.8809 35.0793 49.0144 35.0348 49.1184 34.9754C49.2223 34.916 49.3113 34.8715 49.4004 34.827C49.4746 34.7824 49.5637 34.7527 49.6379 34.7527C49.6824 34.7527 49.727 34.7676 49.7715 34.7824C49.8012 34.7973 49.8309 34.827 49.8605 34.8715L50.2168 35.3168C50.0832 35.4801 49.9348 35.5988 49.7715 35.7027C49.6082 35.8066 49.4301 35.8957 49.252 35.9551C49.0738 36.0145 48.8809 36.059 48.7027 36.0887C48.5098 36.1184 48.3316 36.1332 48.1535 36.1332C47.8121 36.1332 47.4855 36.0738 47.1887 35.9551C46.8918 35.8363 46.6246 35.673 46.402 35.4355C46.1793 35.2129 46.0012 34.9309 45.8824 34.5895C45.7488 34.2629 45.6895 33.8621 45.6895 33.4316C45.6895 33.0902 45.7488 32.7637 45.8527 32.4668C45.9566 32.1699 46.1199 31.9027 46.3277 31.6801C46.5355 31.4574 46.7879 31.2793 47.0848 31.1457C47.3816 31.0121 47.723 30.9824 48.0941 30.9824ZM48.1238 31.8434C47.7676 31.8434 47.5004 31.9473 47.2926 32.1402C47.0848 32.3332 46.966 32.6152 46.9066 32.9863H49.1777C49.1777 32.823 49.1629 32.6895 49.1184 32.541C49.0738 32.4074 49.0145 32.2887 48.9254 32.1699C48.8363 32.066 48.7324 31.977 48.5988 31.9176C48.4652 31.8582 48.302 31.8434 48.1238 31.8434Z" fill="#5DC091"/>
<path d="M54.759 32.1258C54.7293 32.1703 54.6848 32.2 54.6551 32.2297C54.6254 32.2594 54.566 32.2742 54.5066 32.2742C54.4473 32.2742 54.3879 32.2594 54.3285 32.2148C54.2691 32.1703 54.1949 32.1406 54.1207 32.0813C54.0465 32.0367 53.9426 31.9922 53.8238 31.9477C53.7051 31.9031 53.5715 31.8883 53.4082 31.8883C53.2004 31.8883 53.0074 31.9328 52.8441 32.007C52.6809 32.0813 52.5473 32.2 52.4434 32.3336C52.3395 32.482 52.2652 32.6453 52.2059 32.8531C52.1465 33.0609 52.1316 33.2836 52.1316 33.5508C52.1316 33.818 52.1613 34.0555 52.2207 34.2633C52.2801 34.4711 52.3543 34.6492 52.473 34.7828C52.5918 34.9164 52.7105 35.0352 52.859 35.1094C53.0074 35.1836 53.1855 35.2133 53.3785 35.2133C53.5715 35.2133 53.7199 35.1836 53.8387 35.1391C53.9574 35.0945 54.0613 35.0352 54.1355 34.9758C54.2098 34.9164 54.284 34.8719 54.3434 34.8125C54.4027 34.768 54.477 34.7383 54.5512 34.7383C54.6551 34.7383 54.7293 34.7828 54.7738 34.857L55.1152 35.3023C54.9816 35.4656 54.8332 35.5844 54.6848 35.6883C54.5215 35.7922 54.373 35.8813 54.1949 35.9406C54.0168 36 53.8535 36.0445 53.6754 36.0742C53.4973 36.1039 53.3191 36.1188 53.141 36.1188C52.8293 36.1188 52.5473 36.0594 52.2652 35.9406C51.998 35.8219 51.7605 35.6586 51.5527 35.4359C51.3449 35.2133 51.1816 34.9461 51.0629 34.6195C50.9441 34.293 50.8848 33.9367 50.8848 33.5211C50.8848 33.15 50.9441 32.8086 51.048 32.4969C51.1519 32.1852 51.3152 31.918 51.5082 31.6805C51.716 31.4578 51.9684 31.2648 52.2652 31.1461C52.5621 31.0273 52.9184 30.9531 53.3043 30.9531C53.6754 30.9531 54.002 31.0125 54.284 31.1313C54.566 31.25 54.8184 31.4281 55.041 31.6508L54.759 32.1258Z" fill="#5DC091"/>
<path d="M57.55 36.1488C57.1195 36.1488 56.7781 36.0301 56.5555 35.7777C56.318 35.5254 56.1992 35.1988 56.1992 34.7535V31.948H55.6945C55.6352 31.948 55.5758 31.9332 55.5312 31.8887C55.4867 31.8441 55.457 31.7848 55.457 31.6957V31.2207L56.2586 31.0871L56.5109 29.7215C56.5258 29.6621 56.5555 29.6027 56.6 29.573C56.6445 29.5434 56.7039 29.5137 56.7781 29.5137H57.4016V31.0871H58.7227V31.948H57.4016V34.6645C57.4016 34.8277 57.4461 34.9465 57.5203 35.0355C57.5945 35.1246 57.6984 35.1691 57.832 35.1691C57.9062 35.1691 57.9656 35.1543 58.025 35.1395C58.0695 35.1246 58.1141 35.1098 58.1586 35.0801C58.2031 35.0652 58.2328 35.0355 58.2625 35.0207C58.2922 35.0059 58.3219 34.991 58.3516 34.991C58.3812 34.991 58.4109 35.0059 58.4406 35.0207C58.4703 35.0355 58.4852 35.0652 58.5148 35.0949L58.8711 35.6738C58.693 35.8223 58.5 35.9262 58.2625 36.0004C58.025 36.1191 57.7875 36.1488 57.55 36.1488Z" fill="#5DC091"/>
</svg>
