<svg width="41" height="41" viewBox="0 0 41 41" fill="none" xmlns="http://www.w3.org/2000/svg">
<path d="M17.7172 15.8598C15.5209 17.2134 14.6526 19.8949 15.4698 22.2444C15.4442 22.2444 15.4187 22.27 15.4187 22.27L4.59043 28.9866C0.478747 21.3506 2.41966 11.9014 9.0341 6.4617C9.46826 6.10416 9.57041 5.51678 9.26395 5.03155L9.13626 4.85278C8.77872 4.29094 8.01257 4.16325 7.5018 4.5974C-0.364021 11.0331 -2.40709 22.4487 3.1092 31.3106C8.62549 40.1724 19.7602 43.3647 29.0051 39.1764C29.618 38.8955 29.8479 38.1548 29.4904 37.593L29.3627 37.4142C29.0817 36.9545 28.4688 36.7758 27.9836 37.0056C20.1688 40.5299 10.8473 38.1038 5.81627 31.0296L16.6445 24.313C16.6701 24.313 16.6701 24.2875 16.6956 24.2875C18.4322 26.0496 21.2159 26.4583 23.4122 25.0792C25.9405 23.4958 26.7067 20.1758 25.1488 17.6475C23.5654 15.0681 20.2455 14.2764 17.7172 15.8598ZM22.1353 22.985C20.7307 23.8533 18.8919 23.4192 18.0236 22.0146C17.1553 20.61 17.5895 18.7712 18.9941 17.9029C20.3987 17.0346 22.2375 17.4687 23.1058 18.8478C23.9741 20.278 23.5399 22.1167 22.1353 22.985Z" fill="#EF4444"/>
<path d="M33.78 12.3866C37.8917 18.9755 36.6403 27.3776 31.2006 32.5364C30.6388 33.0471 29.745 32.9194 29.3619 32.281C29.0554 31.7958 29.1576 31.1573 29.5662 30.7487C34.1376 26.3816 35.2102 19.2564 31.7114 13.6635C28.2127 8.07059 21.3684 5.87429 15.4179 8.04506C14.8816 8.24936 14.2687 8.04505 13.9622 7.55982C13.6047 6.99798 13.7835 6.23183 14.3453 5.89983C14.4219 5.84875 14.473 5.82321 14.5496 5.79768C21.5982 3.19276 29.6939 5.79768 33.78 12.3866Z" fill="#5DC091"/>
<path d="M29.4135 15.0936C32.0184 19.3075 31.6098 24.5173 28.7495 28.2204C28.2387 28.8844 27.2172 28.8078 26.783 28.1182C26.5021 27.6841 26.5532 27.1222 26.8596 26.7136C29.107 23.7767 29.4135 19.665 27.3449 16.345C25.2762 13.025 21.4455 11.4927 17.8446 12.2078C17.3338 12.31 16.823 12.1057 16.5676 11.6715C16.1335 10.9564 16.5166 10.0115 17.3338 9.85827C21.9307 8.96443 26.8085 10.9053 29.4135 15.0936Z" fill="#5DC091"/>
<path d="M37.8406 9.67945C43.3569 18.5413 41.2883 30.008 33.397 36.4181C32.8862 36.8268 32.12 36.7246 31.788 36.1628L31.6604 35.9584C31.3794 35.4988 31.4816 34.8858 31.8902 34.5538C38.8366 28.8843 40.6499 18.7967 35.7976 10.9564C31.3794 3.8567 22.8496 0.868709 15.1881 3.16716C14.4219 3.39701 13.6558 3.67793 12.8896 4.03547C12.4044 4.26531 11.817 4.11208 11.5361 3.65239C11.4339 3.47362 11.3318 3.29485 11.2807 3.09055C11.153 2.57978 11.4084 2.06901 11.8936 1.83917C12.6853 1.48163 13.5026 1.17517 14.3453 0.919785C23.0795 -1.78728 32.8096 1.58378 37.8406 9.67945Z" fill="#5DC091"/>
</svg>
