<svg width="22" height="22" viewBox="0 0 22 22" fill="none" xmlns="http://www.w3.org/2000/svg">
<g clip-path="url(#clip0_1400_99734)">
<rect width="22" height="22" fill="white" fill-opacity="0.01"/>
<path d="M16.5984 2.37869C15.081 2.37869 13.8484 3.61128 13.8484 5.12869C13.8484 6.35882 14.6611 7.40235 15.7759 7.75347V10.1082L6.28591 13.2166V6.23605C7.37117 5.86775 8.15198 4.83896 8.15198 3.63092C8.15198 2.11351 6.91939 0.88092 5.40198 0.88092C3.88457 0.88092 2.65198 2.11351 2.65198 3.63092C2.65198 4.83896 3.43278 5.8653 4.51805 6.23605V15.7604C3.43278 16.1287 2.65198 17.1575 2.65198 18.3655C2.65198 19.8829 3.88457 21.1155 5.40198 21.1155C6.91939 21.1155 8.15198 19.8829 8.15198 18.3655C8.15198 17.1575 7.37117 16.1311 6.28591 15.7604V15.0778L16.6843 11.6722C16.9341 11.591 17.1516 11.4327 17.3055 11.22C17.4595 11.0074 17.5421 10.7513 17.5413 10.4887V7.71172C18.5946 7.32378 19.3484 6.31217 19.3484 5.12869C19.3484 3.61128 18.1158 2.37869 16.5984 2.37869ZM4.22341 3.63092C4.2297 3.32251 4.35664 3.02885 4.57698 2.81297C4.79732 2.59708 5.0935 2.47616 5.40198 2.47616C5.71045 2.47616 6.00664 2.59708 6.22698 2.81297C6.44732 3.02885 6.57425 3.32251 6.58055 3.63092C6.57425 3.93933 6.44732 4.23299 6.22698 4.44887C6.00664 4.66476 5.71045 4.78568 5.40198 4.78568C5.0935 4.78568 4.79732 4.66476 4.57698 4.44887C4.35664 4.23299 4.2297 3.93933 4.22341 3.63092ZM6.58055 18.3631C6.57425 18.6715 6.44732 18.9651 6.22698 19.181C6.00664 19.3969 5.71045 19.5178 5.40198 19.5178C5.0935 19.5178 4.79732 19.3969 4.57698 19.181C4.35664 18.9651 4.2297 18.6715 4.22341 18.3631C4.2297 18.0547 4.35664 17.761 4.57698 17.5451C4.79732 17.3292 5.0935 17.2083 5.40198 17.2083C5.71045 17.2083 6.00664 17.3292 6.22698 17.5451C6.44732 17.761 6.57425 18.0547 6.58055 18.3631ZM16.5984 6.30726C16.29 6.30096 15.9963 6.17403 15.7805 5.95369C15.5646 5.73335 15.4436 5.43716 15.4436 5.12869C15.4436 4.82021 15.5646 4.52403 15.7805 4.30369C15.9963 4.08335 16.29 3.95641 16.5984 3.95012C16.9068 3.95641 17.2005 4.08335 17.4164 4.30369C17.6322 4.52403 17.7532 4.82021 17.7532 5.12869C17.7532 5.43716 17.6322 5.73335 17.4164 5.95369C17.2005 6.17403 16.9068 6.30096 16.5984 6.30726Z" fill="#0EAF8F"/>
</g>
<defs>
<clipPath id="clip0_1400_99734">
<rect width="22" height="22" fill="white"/>
</clipPath>
</defs>
</svg>
