<svg width="24" height="24" viewBox="0 0 24 24" fill="none" xmlns="http://www.w3.org/2000/svg">
<g clip-path="url(#clip0_2204_122619)">
<path d="M23.1429 2.57129H0.857143C0.383036 2.57129 0 2.95432 0 3.42843V20.5713C0 21.0454 0.383036 21.4284 0.857143 21.4284H23.1429C23.617 21.4284 24 21.0454 24 20.5713V3.42843C24 2.95432 23.617 2.57129 23.1429 2.57129ZM20.9786 5.48825L12.5277 12.0641C12.3188 12.2275 12.0268 12.2275 11.8179 12.0641L3.36429 5.48825C3.33242 5.46366 3.30905 5.42971 3.29744 5.39117C3.28584 5.35262 3.28659 5.31141 3.29958 5.27332C3.31258 5.23522 3.33717 5.20214 3.3699 5.17872C3.40264 5.1553 3.44189 5.14271 3.48214 5.14272H20.8607C20.901 5.14271 20.9402 5.1553 20.973 5.17872C21.0057 5.20214 21.0303 5.23522 21.0433 5.27332C21.0563 5.31141 21.057 5.35262 21.0454 5.39117C21.0338 5.42971 21.0104 5.46366 20.9786 5.48825Z" fill="white"/>
</g>
<defs>
<clipPath id="clip0_2204_122619">
<rect width="24" height="24" fill="white"/>
</clipPath>
</defs>
</svg>
