<svg width="18" height="18" viewBox="0 0 18 18" fill="none" xmlns="http://www.w3.org/2000/svg">
<g clip-path="url(#clip0_7587_3598)">
<path d="M3.75 6.38598C3.75 3.68753 6.10051 1.5 9 1.5C11.8995 1.5 14.25 3.68753 14.25 6.38598C14.25 9.06328 12.5744 12.1874 9.96005 13.3047C9.35061 13.5651 8.64939 13.5651 8.03995 13.3047C5.42562 12.1874 3.75 9.06328 3.75 6.38598Z" stroke="#00AEEF" stroke-width="1.5"/>
<path d="M10.5 6.75C10.5 7.57843 9.82843 8.25 9 8.25C8.17157 8.25 7.5 7.57843 7.5 6.75C7.5 5.92157 8.17157 5.25 9 5.25C9.82843 5.25 10.5 5.92157 10.5 6.75Z" stroke="#00AEEF" stroke-width="1.5"/>
<path d="M15.7204 11.625C16.2194 12.0769 16.5 12.5862 16.5 13.125C16.5 14.989 13.1421 16.5 9 16.5C4.85786 16.5 1.5 14.989 1.5 13.125C1.5 12.5862 1.78059 12.0769 2.2796 11.625" stroke="#00AEEF" stroke-width="1.5" stroke-linecap="round"/>
</g>
<defs>
<clipPath id="clip0_7587_3598">
<rect width="18" height="18" fill="white"/>
</clipPath>
</defs>
</svg>
