<svg width="24" height="24" viewBox="0 0 24 24" fill="none" xmlns="http://www.w3.org/2000/svg">
<rect width="24" height="24" rx="2" fill="#0EAF8F" fill-opacity="0.1"/>
<g clip-path="url(#clip0_1387_100001)">
<rect width="18" height="18" transform="translate(3 3)" fill="white" fill-opacity="0.01"/>
<path d="M10.875 6.3573C10.875 6.65567 10.9935 6.94182 11.2045 7.1528C11.4155 7.36377 11.7016 7.4823 12 7.4823C12.2984 7.4823 12.5845 7.36377 12.7955 7.1528C13.0065 6.94182 13.125 6.65567 13.125 6.3573C13.125 6.05893 13.0065 5.77278 12.7955 5.5618C12.5845 5.35083 12.2984 5.2323 12 5.2323C11.7016 5.2323 11.4155 5.35083 11.2045 5.5618C10.9935 5.77278 10.875 6.05893 10.875 6.3573ZM10.875 11.9823C10.875 12.2807 10.9935 12.5668 11.2045 12.7778C11.4155 12.9888 11.7016 13.1073 12 13.1073C12.2984 13.1073 12.5845 12.9888 12.7955 12.7778C13.0065 12.5668 13.125 12.2807 13.125 11.9823C13.125 11.6839 13.0065 11.3978 12.7955 11.1868C12.5845 10.9758 12.2984 10.8573 12 10.8573C11.7016 10.8573 11.4155 10.9758 11.2045 11.1868C10.9935 11.3978 10.875 11.6839 10.875 11.9823ZM10.875 17.6073C10.875 17.9057 10.9935 18.1918 11.2045 18.4028C11.4155 18.6138 11.7016 18.7323 12 18.7323C12.2984 18.7323 12.5845 18.6138 12.7955 18.4028C13.0065 18.1918 13.125 17.9057 13.125 17.6073C13.125 17.3089 13.0065 17.0228 12.7955 16.8118C12.5845 16.6008 12.2984 16.4823 12 16.4823C11.7016 16.4823 11.4155 16.6008 11.2045 16.8118C10.9935 17.0228 10.875 17.3089 10.875 17.6073Z" fill="#0EAF8F"/>
</g>
<defs>
<clipPath id="clip0_1387_100001">
<rect width="18" height="18" fill="white" transform="translate(3 3)"/>
</clipPath>
</defs>
</svg>
