<svg width="18" height="18" viewBox="0 0 18 18" fill="none" xmlns="http://www.w3.org/2000/svg">
    <rect width="18" height="18" rx="2" fill="white" />
    <defs>
        <linearGradient id="paint0_linear_2414_125816" x1="9.03869" y1="2.07715" x2="9.03869"
            y2="16.0771" gradientUnits="userSpaceOnUse">
            <stop stop-color="#FF0000" />
            <stop offset="1" stop-color="#007AFF" />
        </linearGradient>
        <clipPath id="clip0_2414_125816">
            <rect width="14" height="14" fill="white" transform="translate(2 2)" />
        </clipPath>
    </defs>
    <g clip-path="url(#clip0_2414_125816)">
        <path
            d="M9.03869 2.07715C5.19391 2.07715 2.07715 5.21113 2.07715 9.07715C2.07715 10.4995 2.50026 11.8219 3.22503 12.9265L2.07715 15.9953L5.09938 14.8481C6.21973 15.6228 7.5763 16.0771 9.03869 16.0771C12.8835 16.0771 16.0002 12.9432 16.0002 9.07715C16.0002 5.21113 12.8835 2.07715 9.03869 2.07715Z"
            fill="url(#paint0_linear_2414_125816)" />
        <path
            d="M4.76904 11.0201L8.46175 7.13428L10.2501 8.87494L13.3085 7.30694L9.93296 11.0201L8.02859 9.22183L4.76904 11.0201Z"
            fill="white" />
    </g>
</svg>
