<svg width="18" height="18" viewBox="0 0 18 18" fill="none" xmlns="http://www.w3.org/2000/svg">
<rect width="18" height="18" rx="2" fill="white"/>
<g clip-path="url(#clip0_2414_124790)">
<path d="M15.5 3.5H2.5C2.22344 3.5 2 3.72344 2 4V14C2 14.2766 2.22344 14.5 2.5 14.5H15.5C15.7766 14.5 16 14.2766 16 14V4C16 3.72344 15.7766 3.5 15.5 3.5ZM14.2375 5.20156L9.30781 9.0375C9.18594 9.13281 9.01563 9.13281 8.89375 9.0375L3.9625 5.20156C3.94391 5.18722 3.93028 5.16741 3.92351 5.14493C3.91674 5.12245 3.91718 5.09841 3.92476 5.07618C3.93234 5.05396 3.94668 5.03466 3.96578 5.021C3.98488 5.00734 4.00777 5 4.03125 5H14.1687C14.1922 5 14.2151 5.00734 14.2342 5.021C14.2533 5.03466 14.2677 5.05396 14.2752 5.07618C14.2828 5.09841 14.2833 5.12245 14.2765 5.14493C14.2697 5.16741 14.2561 5.18722 14.2375 5.20156Z" fill="#FF6259"/>
</g>
<defs>
<clipPath id="clip0_2414_124790">
<rect width="14" height="14" fill="white" transform="translate(2 2)"/>
</clipPath>
</defs>
</svg>
