<svg width="17" height="18" viewBox="0 0 17 18" fill="none" xmlns="http://www.w3.org/2000/svg">
<path fill-rule="evenodd" clip-rule="evenodd" d="M0.583496 4.83317C0.583496 2.53198 2.3557 0.666504 4.54183 0.666504H12.4585C14.6446 0.666504 16.4168 2.53198 16.4168 4.83317V13.1665C16.4168 15.4677 14.6446 17.3332 12.4585 17.3332H4.54183C2.3557 17.3332 0.583496 15.4677 0.583496 13.1665V4.83317ZM4.54183 2.33317C3.23015 2.33317 2.16683 3.45246 2.16683 4.83317V13.1665C2.16683 14.5472 3.23015 15.6665 4.54183 15.6665H12.4585C13.7702 15.6665 14.8335 14.5472 14.8335 13.1665V4.83317C14.8335 3.45246 13.7702 2.33317 12.4585 2.33317H4.54183ZM8.50016 4.83317C8.93739 4.83317 9.29183 5.20627 9.29183 5.6665V8.99984C9.29183 9.46007 8.93739 9.83317 8.50016 9.83317C8.06294 9.83317 7.7085 9.46007 7.7085 8.99984V5.6665C7.7085 5.20627 8.06294 4.83317 8.50016 4.83317Z" fill="#EF4444"/>
</svg>
