<svg width="105" height="70" viewBox="0 0 105 70" fill="none" xmlns="http://www.w3.org/2000/svg">
<g clip-path="url(#clip0_3374_142013)">
<g clip-path="url(#clip1_3374_142013)">
<path d="M52.5 39.7032C70.1731 39.7032 84.5 36.5925 84.5 32.7552C84.5 28.9179 70.1731 25.8071 52.5 25.8071C34.8269 25.8071 20.5 28.9179 20.5 32.7552C20.5 36.5925 34.8269 39.7032 52.5 39.7032Z" fill="#F5F5F5"/>
<path d="M75.5 13.6653L65.354 2.24866C64.867 1.47048 64.156 1 63.407 1H41.593C40.844 1 40.133 1.47048 39.646 2.24767L29.5 13.6663V22.8367H75.5V13.6653Z" stroke="#D9D9D9"/>
<path d="M62.113 16.8126C62.113 15.2195 63.107 13.9043 64.34 13.9033H75.5V31.9057C75.5 34.0129 74.18 35.74 72.55 35.74H32.45C30.82 35.74 29.5 34.0119 29.5 31.9057V13.9033H40.66C41.893 13.9033 42.887 15.2165 42.887 16.8096V16.8314C42.887 18.4245 43.892 19.7109 45.124 19.7109H59.876C61.108 19.7109 62.113 18.4126 62.113 16.8195V16.8126V16.8126Z" fill="#FAFAFA" stroke="#D9D9D9"/>
</g>
<path d="M2.80273 54.0469V64H1.4834V54.0469H2.80273ZM8.81152 54.0469L4.67578 58.6885L2.35156 61.1016L2.13281 59.6934L3.88281 57.7656L7.22559 54.0469H8.81152ZM7.54004 64L3.85547 59.1465L4.6416 58.1006L9.1123 64H7.54004ZM11.3477 53.5V64H10.083V53.5H11.3477ZM11.0469 60.0215L10.5205 60.001C10.5251 59.4951 10.6003 59.028 10.7461 58.5996C10.8919 58.1667 11.097 57.7907 11.3613 57.4717C11.6257 57.1527 11.9401 56.9066 12.3047 56.7334C12.6738 56.5557 13.0817 56.4668 13.5283 56.4668C13.8929 56.4668 14.221 56.5169 14.5127 56.6172C14.8044 56.7129 15.0527 56.8678 15.2578 57.082C15.4674 57.2962 15.627 57.5742 15.7363 57.916C15.8457 58.2533 15.9004 58.6657 15.9004 59.1533V64H14.6289V59.1396C14.6289 58.7523 14.5719 58.4424 14.458 58.21C14.3441 57.973 14.1777 57.8021 13.959 57.6973C13.7402 57.5879 13.4714 57.5332 13.1523 57.5332C12.8379 57.5332 12.5508 57.5993 12.291 57.7314C12.0358 57.8636 11.8148 58.0459 11.6279 58.2783C11.4456 58.5107 11.3021 58.7773 11.1973 59.0781C11.097 59.3743 11.0469 59.6888 11.0469 60.0215ZM17.459 60.3838V60.2266C17.459 59.6934 17.5365 59.1989 17.6914 58.7432C17.8464 58.2829 18.0697 57.8841 18.3613 57.5469C18.653 57.2051 19.0062 56.9408 19.4209 56.7539C19.8356 56.5625 20.3005 56.4668 20.8154 56.4668C21.335 56.4668 21.8021 56.5625 22.2168 56.7539C22.6361 56.9408 22.9915 57.2051 23.2832 57.5469C23.5794 57.8841 23.805 58.2829 23.96 58.7432C24.1149 59.1989 24.1924 59.6934 24.1924 60.2266V60.3838C24.1924 60.917 24.1149 61.4115 23.96 61.8672C23.805 62.3229 23.5794 62.7217 23.2832 63.0635C22.9915 63.4007 22.6383 63.665 22.2236 63.8564C21.8135 64.0433 21.3486 64.1367 20.8291 64.1367C20.3096 64.1367 19.8424 64.0433 19.4277 63.8564C19.013 63.665 18.6576 63.4007 18.3613 63.0635C18.0697 62.7217 17.8464 62.3229 17.6914 61.8672C17.5365 61.4115 17.459 60.917 17.459 60.3838ZM18.7236 60.2266V60.3838C18.7236 60.7529 18.7669 61.1016 18.8535 61.4297C18.9401 61.7533 19.07 62.0404 19.2432 62.291C19.4209 62.5417 19.6419 62.7399 19.9062 62.8857C20.1706 63.027 20.4782 63.0977 20.8291 63.0977C21.1755 63.0977 21.4785 63.027 21.7383 62.8857C22.0026 62.7399 22.2214 62.5417 22.3945 62.291C22.5677 62.0404 22.6976 61.7533 22.7842 61.4297C22.8753 61.1016 22.9209 60.7529 22.9209 60.3838V60.2266C22.9209 59.862 22.8753 59.5179 22.7842 59.1943C22.6976 58.8662 22.5654 58.5768 22.3877 58.3262C22.2145 58.071 21.9958 57.8704 21.7314 57.7246C21.4717 57.5788 21.1663 57.5059 20.8154 57.5059C20.4691 57.5059 20.1637 57.5788 19.8994 57.7246C19.6396 57.8704 19.4209 58.071 19.2432 58.3262C19.07 58.5768 18.9401 58.8662 18.8535 59.1943C18.7669 59.5179 18.7236 59.862 18.7236 60.2266ZM21.1436 53.5L22.8389 55.3662V55.4346H21.7861L20.7607 54.2793L19.7422 55.4346H18.7031V55.3594L20.3779 53.5H21.1436ZM27.043 58.1826V64H25.7783V56.6035H26.9746L27.043 58.1826ZM26.7422 60.0215L26.2158 60.001C26.2204 59.4951 26.2956 59.028 26.4414 58.5996C26.5872 58.1667 26.7923 57.7907 27.0566 57.4717C27.321 57.1527 27.6354 56.9066 28 56.7334C28.3691 56.5557 28.777 56.4668 29.2236 56.4668C29.5882 56.4668 29.9163 56.5169 30.208 56.6172C30.4997 56.7129 30.748 56.8678 30.9531 57.082C31.1628 57.2962 31.3223 57.5742 31.4316 57.916C31.541 58.2533 31.5957 58.6657 31.5957 59.1533V64H30.3242V59.1396C30.3242 58.7523 30.2673 58.4424 30.1533 58.21C30.0394 57.973 29.873 57.8021 29.6543 57.6973C29.4355 57.5879 29.1667 57.5332 28.8477 57.5332C28.5332 57.5332 28.2461 57.5993 27.9863 57.7314C27.7311 57.8636 27.5101 58.0459 27.3232 58.2783C27.141 58.5107 26.9974 58.7773 26.8926 59.0781C26.7923 59.3743 26.7422 59.6888 26.7422 60.0215ZM38.3086 56.6035H39.457V63.8428C39.457 64.4945 39.3249 65.0505 39.0605 65.5107C38.7962 65.971 38.4271 66.3197 37.9531 66.5566C37.4837 66.7982 36.9414 66.9189 36.3262 66.9189C36.071 66.9189 35.7702 66.8779 35.4238 66.7959C35.082 66.7184 34.7448 66.584 34.4121 66.3926C34.084 66.2057 33.8083 65.9528 33.585 65.6338L34.248 64.8818C34.5579 65.2555 34.8815 65.5153 35.2188 65.6611C35.5605 65.807 35.8978 65.8799 36.2305 65.8799C36.6315 65.8799 36.9779 65.8047 37.2695 65.6543C37.5612 65.5039 37.7868 65.2806 37.9463 64.9844C38.1104 64.6927 38.1924 64.3327 38.1924 63.9043V58.2305L38.3086 56.6035ZM33.2158 60.3838V60.2402C33.2158 59.6751 33.2819 59.1624 33.4141 58.7021C33.5508 58.2373 33.7445 57.8385 33.9951 57.5059C34.2503 57.1732 34.5579 56.918 34.918 56.7402C35.278 56.5579 35.6836 56.4668 36.1348 56.4668C36.5996 56.4668 37.0052 56.5488 37.3516 56.7129C37.7025 56.8724 37.9987 57.1071 38.2402 57.417C38.4863 57.7223 38.68 58.0915 38.8213 58.5244C38.9626 58.9574 39.0605 59.4473 39.1152 59.9941V60.623C39.0651 61.1654 38.9671 61.653 38.8213 62.0859C38.68 62.5189 38.4863 62.888 38.2402 63.1934C37.9987 63.4987 37.7025 63.7334 37.3516 63.8975C37.0007 64.057 36.5905 64.1367 36.1211 64.1367C35.679 64.1367 35.278 64.0433 34.918 63.8564C34.5625 63.6696 34.2572 63.4076 34.002 63.0703C33.7467 62.7331 33.5508 62.3366 33.4141 61.8809C33.2819 61.4206 33.2158 60.9215 33.2158 60.3838ZM34.4805 60.2402V60.3838C34.4805 60.7529 34.5169 61.0993 34.5898 61.4229C34.6673 61.7464 34.7835 62.0312 34.9385 62.2773C35.098 62.5234 35.3008 62.7171 35.5469 62.8584C35.793 62.9951 36.0869 63.0635 36.4287 63.0635C36.848 63.0635 37.1943 62.9746 37.4678 62.7969C37.7412 62.6191 37.9577 62.3844 38.1172 62.0928C38.2812 61.8011 38.4089 61.4844 38.5 61.1426V59.4951C38.4499 59.2445 38.3724 59.0029 38.2676 58.7705C38.1673 58.5335 38.0352 58.3239 37.8711 58.1416C37.7116 57.9548 37.5133 57.8066 37.2764 57.6973C37.0394 57.5879 36.7614 57.5332 36.4424 57.5332C36.096 57.5332 35.7975 57.6061 35.5469 57.752C35.3008 57.8932 35.098 58.0892 34.9385 58.3398C34.7835 58.5859 34.6673 58.873 34.5898 59.2012C34.5169 59.5247 34.4805 59.8711 34.4805 60.2402ZM47.8105 63.0977C48.1113 63.0977 48.3893 63.0361 48.6445 62.9131C48.8997 62.79 49.1094 62.6214 49.2734 62.4072C49.4375 62.1885 49.5309 61.9401 49.5537 61.6621H50.7568C50.734 62.0996 50.5859 62.5075 50.3125 62.8857C50.0436 63.2594 49.6904 63.5625 49.2529 63.7949C48.8154 64.0228 48.3346 64.1367 47.8105 64.1367C47.2546 64.1367 46.7692 64.0387 46.3545 63.8428C45.9443 63.6468 45.6025 63.3779 45.3291 63.0361C45.0602 62.6943 44.8574 62.3024 44.7207 61.8604C44.5885 61.4137 44.5225 60.9421 44.5225 60.4453V60.1582C44.5225 59.6615 44.5885 59.1921 44.7207 58.75C44.8574 58.3034 45.0602 57.9092 45.3291 57.5674C45.6025 57.2256 45.9443 56.9567 46.3545 56.7607C46.7692 56.5648 47.2546 56.4668 47.8105 56.4668C48.3893 56.4668 48.8952 56.5853 49.3281 56.8223C49.7611 57.0547 50.1006 57.3737 50.3467 57.7793C50.5973 58.1803 50.734 58.6361 50.7568 59.1465H49.5537C49.5309 58.8411 49.4443 58.5654 49.2939 58.3193C49.1481 58.0732 48.9476 57.8773 48.6924 57.7314C48.4417 57.5811 48.1478 57.5059 47.8105 57.5059C47.4232 57.5059 47.0973 57.5833 46.833 57.7383C46.5732 57.8887 46.3659 58.0938 46.2109 58.3535C46.0605 58.6087 45.9512 58.8936 45.8828 59.208C45.819 59.5179 45.7871 59.8346 45.7871 60.1582V60.4453C45.7871 60.7689 45.819 61.0879 45.8828 61.4023C45.9466 61.7168 46.0537 62.0016 46.2041 62.2568C46.359 62.512 46.5664 62.7171 46.8262 62.8721C47.0905 63.0225 47.4186 63.0977 47.8105 63.0977ZM51.8438 60.3838V60.2266C51.8438 59.6934 51.9212 59.1989 52.0762 58.7432C52.2311 58.2829 52.4544 57.8841 52.7461 57.5469C53.0378 57.2051 53.391 56.9408 53.8057 56.7539C54.2204 56.5625 54.6852 56.4668 55.2002 56.4668C55.7197 56.4668 56.1868 56.5625 56.6016 56.7539C57.0208 56.9408 57.3763 57.2051 57.668 57.5469C57.9642 57.8841 58.1898 58.2829 58.3447 58.7432C58.4997 59.1989 58.5771 59.6934 58.5771 60.2266V60.3838C58.5771 60.917 58.4997 61.4115 58.3447 61.8672C58.1898 62.3229 57.9642 62.7217 57.668 63.0635C57.3763 63.4007 57.0231 63.665 56.6084 63.8564C56.1982 64.0433 55.7334 64.1367 55.2139 64.1367C54.6943 64.1367 54.2272 64.0433 53.8125 63.8564C53.3978 63.665 53.0423 63.4007 52.7461 63.0635C52.4544 62.7217 52.2311 62.3229 52.0762 61.8672C51.9212 61.4115 51.8438 60.917 51.8438 60.3838ZM53.1084 60.2266V60.3838C53.1084 60.7529 53.1517 61.1016 53.2383 61.4297C53.3249 61.7533 53.4548 62.0404 53.6279 62.291C53.8057 62.5417 54.0267 62.7399 54.291 62.8857C54.5553 63.027 54.863 63.0977 55.2139 63.0977C55.5602 63.0977 55.8633 63.027 56.123 62.8857C56.3874 62.7399 56.6061 62.5417 56.7793 62.291C56.9525 62.0404 57.0824 61.7533 57.1689 61.4297C57.2601 61.1016 57.3057 60.7529 57.3057 60.3838V60.2266C57.3057 59.862 57.2601 59.5179 57.1689 59.1943C57.0824 58.8662 56.9502 58.5768 56.7725 58.3262C56.5993 58.071 56.3805 57.8704 56.1162 57.7246C55.8564 57.5788 55.5511 57.5059 55.2002 57.5059C54.8538 57.5059 54.5485 57.5788 54.2842 57.7246C54.0244 57.8704 53.8057 58.071 53.6279 58.3262C53.4548 58.5768 53.3249 58.8662 53.2383 59.1943C53.1517 59.5179 53.1084 59.862 53.1084 60.2266ZM54.4482 55.5098L55.7744 53.5H57.2988L55.4668 55.5098H54.4482ZM68.2979 62.5645V53.5H69.5693V64H68.4072L68.2979 62.5645ZM63.3213 60.3838V60.2402C63.3213 59.6751 63.3896 59.1624 63.5264 58.7021C63.6676 58.2373 63.8659 57.8385 64.1211 57.5059C64.3809 57.1732 64.6885 56.918 65.0439 56.7402C65.404 56.5579 65.805 56.4668 66.2471 56.4668C66.7119 56.4668 67.1175 56.5488 67.4639 56.7129C67.8148 56.8724 68.111 57.1071 68.3525 57.417C68.5986 57.7223 68.7923 58.0915 68.9336 58.5244C69.0749 58.9574 69.1729 59.4473 69.2275 59.9941V60.623C69.1774 61.1654 69.0794 61.653 68.9336 62.0859C68.7923 62.5189 68.5986 62.888 68.3525 63.1934C68.111 63.4987 67.8148 63.7334 67.4639 63.8975C67.113 64.057 66.7028 64.1367 66.2334 64.1367C65.8005 64.1367 65.404 64.0433 65.0439 63.8564C64.6885 63.6696 64.3809 63.4076 64.1211 63.0703C63.8659 62.7331 63.6676 62.3366 63.5264 61.8809C63.3896 61.4206 63.3213 60.9215 63.3213 60.3838ZM64.5928 60.2402V60.3838C64.5928 60.7529 64.6292 61.0993 64.7021 61.4229C64.7796 61.7464 64.8981 62.0312 65.0576 62.2773C65.2171 62.5234 65.4199 62.7171 65.666 62.8584C65.9121 62.9951 66.2061 63.0635 66.5479 63.0635C66.9671 63.0635 67.3112 62.9746 67.5801 62.7969C67.8535 62.6191 68.0723 62.3844 68.2363 62.0928C68.4004 61.8011 68.528 61.4844 68.6191 61.1426V59.4951C68.5645 59.2445 68.4847 59.0029 68.3799 58.7705C68.2796 58.5335 68.1475 58.3239 67.9834 58.1416C67.8239 57.9548 67.6257 57.8066 67.3887 57.6973C67.1562 57.5879 66.8805 57.5332 66.5615 57.5332C66.2152 57.5332 65.9167 57.6061 65.666 57.752C65.4199 57.8932 65.2171 58.0892 65.0576 58.3398C64.8981 58.5859 64.7796 58.873 64.7021 59.2012C64.6292 59.5247 64.5928 59.8711 64.5928 60.2402ZM78.4629 56.0088H79.4336C79.4336 56.5055 79.3675 56.9225 79.2354 57.2598C79.1077 57.597 78.8822 57.8499 78.5586 58.0186C78.235 58.1872 77.7793 58.2715 77.1914 58.2715V57.4922C77.6016 57.4922 77.8955 57.4421 78.0732 57.3418C78.251 57.237 78.3604 57.0752 78.4014 56.8564C78.4424 56.6377 78.4629 56.3551 78.4629 56.0088ZM76.0635 62.291V56.6035H77.335V64H76.125L76.0635 62.291ZM76.3027 60.7324L76.8291 60.7188C76.8291 61.2109 76.7767 61.6667 76.6719 62.0859C76.5716 62.5007 76.4076 62.8607 76.1797 63.166C75.9518 63.4714 75.6533 63.7106 75.2842 63.8838C74.915 64.0524 74.4661 64.1367 73.9375 64.1367C73.5775 64.1367 73.2471 64.0843 72.9463 63.9795C72.6501 63.8747 72.3949 63.7129 72.1807 63.4941C71.9665 63.2754 71.8001 62.9906 71.6816 62.6396C71.5677 62.2887 71.5107 61.8672 71.5107 61.375V56.6035H72.7754V61.3887C72.7754 61.7214 72.8118 61.9971 72.8848 62.2158C72.9622 62.43 73.0648 62.6009 73.1924 62.7285C73.3245 62.8516 73.4704 62.9382 73.6299 62.9883C73.7939 63.0384 73.9626 63.0635 74.1357 63.0635C74.6735 63.0635 75.0996 62.9609 75.4141 62.7559C75.7285 62.5462 75.9541 62.266 76.0908 61.915C76.2321 61.5596 76.3027 61.1654 76.3027 60.7324ZM76.1113 53.7803L76.9658 53.8555C76.9658 54.1882 76.8997 54.4798 76.7676 54.7305C76.6354 54.9811 76.4577 55.1748 76.2344 55.3115C76.0156 55.4482 75.7673 55.5166 75.4893 55.5166C75.2568 55.5166 75.0654 55.4847 74.915 55.4209C74.7646 55.3525 74.6302 55.2773 74.5117 55.1953C74.3932 55.1087 74.2679 55.0335 74.1357 54.9697C74.0081 54.9014 73.8486 54.8672 73.6572 54.8672C73.4658 54.8672 73.304 54.9401 73.1719 55.0859C73.0443 55.2318 72.9805 55.4118 72.9805 55.626L72.126 55.585C72.126 55.2523 72.1898 54.9606 72.3174 54.71C72.4495 54.4548 72.6273 54.2565 72.8506 54.1152C73.0739 53.9694 73.3223 53.8965 73.5957 53.8965C73.7917 53.8965 73.9626 53.9307 74.1084 53.999C74.2588 54.0628 74.4001 54.138 74.5322 54.2246C74.6644 54.3066 74.8011 54.3818 74.9424 54.4502C75.0837 54.514 75.2454 54.5459 75.4277 54.5459C75.6191 54.5459 75.7809 54.473 75.9131 54.3271C76.0452 54.1768 76.1113 53.9945 76.1113 53.7803ZM85.0527 53.5V64H83.7812V53.5H85.0527ZM88.457 56.6035V64H87.1855V56.6035H88.457ZM87.0898 54.6416C87.0898 54.4365 87.1514 54.2633 87.2744 54.1221C87.402 53.9808 87.5889 53.9102 87.835 53.9102C88.0765 53.9102 88.2611 53.9808 88.3887 54.1221C88.5208 54.2633 88.5869 54.4365 88.5869 54.6416C88.5869 54.8376 88.5208 55.0062 88.3887 55.1475C88.2611 55.2842 88.0765 55.3525 87.835 55.3525C87.5889 55.3525 87.402 55.2842 87.2744 55.1475C87.1514 55.0062 87.0898 54.8376 87.0898 54.6416ZM93.5566 64.1367C93.0417 64.1367 92.5745 64.0501 92.1553 63.877C91.7406 63.6992 91.3828 63.4508 91.082 63.1318C90.7858 62.8128 90.5579 62.4346 90.3984 61.9971C90.2389 61.5596 90.1592 61.0811 90.1592 60.5615V60.2744C90.1592 59.6729 90.248 59.1374 90.4258 58.668C90.6035 58.194 90.8451 57.793 91.1504 57.4648C91.4557 57.1367 91.8021 56.8883 92.1895 56.7197C92.5768 56.5511 92.9779 56.4668 93.3926 56.4668C93.9212 56.4668 94.377 56.5579 94.7598 56.7402C95.1471 56.9225 95.4639 57.1777 95.71 57.5059C95.9561 57.8294 96.1383 58.2122 96.2568 58.6543C96.3753 59.0918 96.4346 59.5703 96.4346 60.0898V60.6572H90.9111V59.625H95.1699V59.5293C95.1517 59.2012 95.0833 58.8822 94.9648 58.5723C94.8509 58.2624 94.6686 58.0072 94.418 57.8066C94.1673 57.6061 93.8255 57.5059 93.3926 57.5059C93.1055 57.5059 92.8411 57.5674 92.5996 57.6904C92.3581 57.8089 92.1507 57.9867 91.9775 58.2236C91.8044 58.4606 91.6699 58.75 91.5742 59.0918C91.4785 59.4336 91.4307 59.8278 91.4307 60.2744V60.5615C91.4307 60.9124 91.4785 61.2428 91.5742 61.5527C91.6745 61.8581 91.818 62.127 92.0049 62.3594C92.1963 62.5918 92.4264 62.7741 92.6953 62.9062C92.9688 63.0384 93.2786 63.1045 93.625 63.1045C94.0716 63.1045 94.4499 63.0133 94.7598 62.8311C95.0697 62.6488 95.3408 62.4049 95.5732 62.0996L96.3389 62.708C96.1794 62.9495 95.9766 63.1797 95.7305 63.3984C95.4844 63.6172 95.1813 63.7949 94.8213 63.9316C94.4658 64.0684 94.0443 64.1367 93.5566 64.1367ZM93.7686 53.5L95.4639 55.3662V55.4346H94.4111L93.3857 54.2793L92.3672 55.4346H91.3281V55.3594L93.0029 53.5H93.7686ZM92.0801 65.6816C92.0801 65.4766 92.1439 65.3034 92.2715 65.1621C92.3945 65.0208 92.5791 64.9502 92.8252 64.9502C93.0667 64.9502 93.2536 65.0208 93.3857 65.1621C93.5133 65.3034 93.5771 65.4766 93.5771 65.6816C93.5771 65.8776 93.5133 66.0439 93.3857 66.1807C93.2536 66.3219 93.0667 66.3926 92.8252 66.3926C92.5791 66.3926 92.3945 66.3219 92.2715 66.1807C92.1439 66.0439 92.0801 65.8776 92.0801 65.6816ZM102.437 62.291V56.6035H103.708V64H102.498L102.437 62.291ZM102.676 60.7324L103.202 60.7188C103.202 61.2109 103.15 61.6667 103.045 62.0859C102.945 62.5007 102.781 62.8607 102.553 63.166C102.325 63.4714 102.026 63.7106 101.657 63.8838C101.288 64.0524 100.839 64.1367 100.311 64.1367C99.9505 64.1367 99.6201 64.0843 99.3193 63.9795C99.0231 63.8747 98.7679 63.7129 98.5537 63.4941C98.3395 63.2754 98.1732 62.9906 98.0547 62.6396C97.9408 62.2887 97.8838 61.8672 97.8838 61.375V56.6035H99.1484V61.3887C99.1484 61.7214 99.1849 61.9971 99.2578 62.2158C99.3353 62.43 99.4378 62.6009 99.5654 62.7285C99.6976 62.8516 99.8434 62.9382 100.003 62.9883C100.167 63.0384 100.336 63.0635 100.509 63.0635C101.047 63.0635 101.473 62.9609 101.787 62.7559C102.102 62.5462 102.327 62.266 102.464 61.915C102.605 61.5596 102.676 61.1654 102.676 60.7324Z" fill="black" fill-opacity="0.25"/>
</g>
<defs>
<clipPath id="clip0_3374_142013">
<rect width="105" height="70" fill="white"/>
</clipPath>
<clipPath id="clip1_3374_142013">
<rect width="64" height="40" fill="white" transform="translate(20.5)"/>
</clipPath>
</defs>
</svg>
