<svg width="306" height="254" viewBox="0 0 306 254" fill="none" xmlns="http://www.w3.org/2000/svg">
<g clip-path="url(#clip0_3374_142121)">
<path d="M278.686 66.6307V57.5926C278.686 57.5082 278.67 57.4246 278.639 57.3467C278.608 57.2687 278.562 57.1978 278.505 57.1381C278.448 57.0784 278.379 57.0311 278.305 56.9988C278.23 56.9665 278.149 56.9499 278.068 56.9499H271.695C271.555 56.9494 271.419 56.8995 271.31 56.8084C271.201 56.7173 271.125 56.5904 271.094 56.4484C270.507 53.8386 269.515 51.3461 268.156 49.0694C268.082 48.9462 268.049 48.8002 268.064 48.6554C268.08 48.5106 268.142 48.3755 268.24 48.2721L272.749 43.5787C272.864 43.4581 272.929 43.2946 272.929 43.1241C272.929 42.9537 272.864 42.7902 272.749 42.6696L266.609 36.2772C266.493 36.1567 266.336 36.089 266.172 36.089C266.009 36.089 265.852 36.1567 265.736 36.2772L261.228 40.9709C261.128 41.0735 260.999 41.138 260.86 41.154C260.721 41.17 260.581 41.1364 260.462 41.0589C258.275 39.6444 255.881 38.6114 253.375 38.0004C253.238 37.9681 253.117 37.8887 253.029 37.7751C252.942 37.6615 252.894 37.5204 252.893 37.3748V30.7385C252.893 30.568 252.828 30.4045 252.712 30.284C252.597 30.1634 252.44 30.0957 252.276 30.0957H243.595C243.431 30.0957 243.274 30.1634 243.158 30.284C243.043 30.4045 242.978 30.568 242.978 30.7385V37.3748C242.977 37.5204 242.929 37.6615 242.842 37.7751C242.754 37.8887 242.632 37.9681 242.496 38.0004C239.989 38.6112 237.596 39.6443 235.409 41.0589C235.291 41.1366 235.15 41.1702 235.011 41.1543C234.872 41.1384 234.742 41.0739 234.643 40.9712L230.135 36.2772C230.078 36.2175 230.01 36.1701 229.935 36.1378C229.86 36.1055 229.779 36.0888 229.698 36.0888C229.617 36.0888 229.537 36.1055 229.462 36.1378C229.387 36.1701 229.319 36.2175 229.262 36.2772L223.124 42.6692C223.009 42.7898 222.944 42.9532 222.944 43.1236C222.944 43.294 223.009 43.4575 223.124 43.578L227.632 48.2714C227.731 48.3747 227.793 48.5097 227.808 48.6545C227.823 48.7992 227.791 48.9451 227.717 49.0683C226.358 51.3453 225.366 53.838 224.779 56.448C224.748 56.59 224.672 56.7169 224.563 56.808C224.454 56.899 224.318 56.9489 224.179 56.9495H217.805C217.641 56.9495 217.484 57.0172 217.368 57.1378C217.253 57.2583 217.188 57.4218 217.188 57.5923V66.6303C217.187 66.8008 217.253 66.9643 217.368 67.0848C217.484 67.2054 217.641 67.2731 217.805 67.2731H224.179C224.318 67.2736 224.454 67.3235 224.563 67.4146C224.672 67.5057 224.749 67.6326 224.779 67.7746C225.366 70.3844 226.358 72.8769 227.717 75.1536C227.792 75.2768 227.824 75.4227 227.808 75.5674C227.793 75.7121 227.731 75.8472 227.633 75.9505L223.125 80.6446C223.067 80.7043 223.022 80.7751 222.991 80.8531C222.96 80.931 222.944 81.0146 222.944 81.099C222.944 81.1834 222.96 81.267 222.991 81.3449C223.022 81.4229 223.067 81.4937 223.125 81.5534L229.262 87.9434C229.378 88.0638 229.535 88.1315 229.698 88.1315C229.862 88.1315 230.019 88.0638 230.135 87.9434L234.643 83.2496C234.742 83.147 234.872 83.0824 235.011 83.0665C235.15 83.0506 235.29 83.0843 235.408 83.162C237.595 84.5764 239.989 85.6093 242.496 86.2201C242.632 86.2524 242.754 86.3318 242.842 86.4454C242.929 86.559 242.977 86.7001 242.978 86.8457V93.4821C242.978 93.6525 243.043 93.816 243.158 93.9366C243.274 94.0571 243.431 94.1248 243.595 94.1248H252.276C252.44 94.1248 252.597 94.0571 252.712 93.9366C252.828 93.816 252.893 93.6525 252.893 93.4821V86.8443C252.894 86.6987 252.942 86.5576 253.029 86.4441C253.117 86.3305 253.238 86.2512 253.375 86.2191C255.882 85.608 258.276 84.575 260.463 83.1609C260.581 83.0832 260.721 83.0495 260.86 83.0655C260.999 83.0814 261.129 83.1459 261.228 83.2486L265.736 87.942C265.852 88.0624 266.009 88.1301 266.172 88.1301C266.336 88.1301 266.493 88.0624 266.609 87.942L272.749 81.552C272.864 81.4314 272.929 81.2679 272.929 81.0974C272.929 80.927 272.864 80.7635 272.749 80.6429L268.24 75.9491C268.141 75.8458 268.08 75.7107 268.064 75.566C268.049 75.4212 268.081 75.2754 268.156 75.1522C269.514 72.8755 270.507 70.3832 271.094 67.7736C271.125 67.6316 271.201 67.5046 271.31 67.4136C271.419 67.3225 271.554 67.2726 271.694 67.272H278.068C278.232 67.272 278.389 67.2045 278.504 67.0843C278.62 66.964 278.685 66.8009 278.686 66.6307ZM248.383 76.4408C245.622 76.5342 242.898 75.7612 240.565 74.2223C238.232 72.6833 236.398 70.4494 235.3 67.8108C234.202 65.1722 233.891 62.2509 234.409 59.4262C234.926 56.6015 236.247 54.0041 238.2 51.9712C240.154 49.9383 242.649 48.564 245.362 48.0267C248.076 47.4895 250.881 47.8141 253.415 48.9584C255.949 50.1028 258.094 52.0139 259.571 54.4437C261.048 56.8735 261.789 59.7096 261.698 62.5836C261.584 66.222 260.144 69.6788 257.671 72.2523C255.198 74.8258 251.877 76.3233 248.383 76.4408Z" fill="#DEE8F5"/>
<path d="M306 247.361H0C3.35298 238.459 9.54494 230.906 18.2736 228.666C31.0426 225.393 44.5552 234.392 57.2956 231.009C64.5327 229.088 70.2326 223.491 76.2205 218.844C98.8105 201.309 129.768 196.126 156.499 205.407C170.472 210.257 183.204 218.737 197.518 222.343C216.027 227.007 235.382 223.139 254.416 222.502C272.953 221.881 299.514 229.745 306 247.361Z" fill="#F3F5FD"/>
<path d="M205.365 3.09229H110.407C103.135 3.09229 97.2402 9.22971 97.2402 16.8006V230.615C97.2402 238.186 103.135 244.324 110.407 244.324H205.365C212.636 244.324 218.531 238.186 218.531 230.615V16.8006C218.531 9.22971 212.636 3.09229 205.365 3.09229Z" fill="white"/>
<path d="M205.364 247.416H110.406C106.128 247.411 102.026 245.639 99.0012 242.489C95.976 239.339 94.2743 235.069 94.2695 230.615V16.8005C94.2744 12.3461 95.9762 8.07574 99.0015 4.92613C102.027 1.77652 106.128 0.0049161 110.407 0L205.365 0C209.643 0.00500902 213.744 1.77666 216.77 4.92627C219.795 8.07589 221.496 12.3462 221.501 16.8005V230.615C221.496 235.069 219.795 239.34 216.77 242.489C213.744 245.639 209.643 247.411 205.364 247.416ZM110.407 6.18426C107.703 6.18723 105.111 7.30665 103.199 9.29691C101.288 11.2872 100.212 13.9857 100.209 16.8005V230.615C100.212 233.429 101.288 236.128 103.199 238.118C105.111 240.108 107.703 241.228 110.406 241.231H205.364C208.067 241.228 210.659 240.108 212.571 238.118C214.482 236.128 215.558 233.429 215.561 230.615V16.8005C215.558 13.9858 214.482 11.2874 212.571 9.29716C210.659 7.30691 208.067 6.18741 205.364 6.18426H110.407Z" fill="#DEE8F5"/>
<path d="M137.094 3.09229H178.677V11.4922C178.677 13.1597 178.041 14.7589 176.908 15.938C175.776 17.1171 174.239 17.7795 172.638 17.7795H143.133C141.531 17.7795 139.995 17.117 138.863 15.9379C137.73 14.7587 137.094 13.1594 137.094 11.4918V3.09229Z" fill="#DEE8F5"/>
<path d="M134.168 30.168H108.372V57.0253H134.168V30.168Z" fill="#DEE8F5"/>
<path d="M207.399 45.7612H140.17V52.883H207.399V45.7612Z" fill="#DEE8F5"/>
<path d="M188.051 33.0059H140.17V40.1276H188.051V33.0059Z" fill="#DEE8F5"/>
<path d="M207.399 64.7139H108.372V142.406H207.399V64.7139Z" fill="#DEE8F5"/>
<path d="M207.399 152.531H108.372V191.377H207.399V152.531Z" fill="#DEE8F5"/>
<path d="M207.399 201.613H108.372V230.223H207.399V201.613Z" fill="#DEE8F5"/>
<path d="M17.2314 116.25L17.1338 116.11H17.1372L17.2314 116.25Z" fill="#0EAF8F"/>
<path d="M158.868 86.4175H156.902V120.337H158.868V86.4175Z" fill="white"/>
<path d="M174.175 102.354H141.596V104.4H174.175V102.354Z" fill="white"/>
<path d="M270.058 191.17C270.058 191.17 267.455 189.733 268.036 182.353L262.657 181.315C262.657 181.315 263.262 187.931 260.541 190.032L270.058 191.17Z" fill="#E98862"/>
<path opacity="0.15" d="M261.645 188.649L266.112 185.091L262.603 185.053C262.501 186.303 262.176 187.523 261.645 188.649Z" fill="black"/>
<path d="M271.088 179.492C270.716 181.731 269.542 183.851 267.645 184.574C265.393 185.432 263.725 185.49 261.129 185.49C257.586 185.49 257.703 181.644 257.604 177.767C257.503 173.875 257.801 169.7 259.201 168.344C261.995 165.636 270.2 167.351 271.197 171.879C271.712 174.221 271.443 177.361 271.088 179.492Z" fill="#E98862"/>
<path d="M255.705 170.594C255.705 170.594 254.254 170.257 254.651 168.751C254.915 167.752 256.144 167.974 256.144 167.974C256.144 167.974 254.98 167.752 254.98 166.694C254.98 166.028 255.472 164.898 256.956 165.543C258.698 166.3 260.684 166.203 262.194 165.939C263.049 165.744 263.916 165.617 264.789 165.557H264.793C265.796 165.539 266.796 165.679 267.76 165.971C270.46 166.812 274.545 169.332 273.677 175.045C272.707 181.422 269.833 183.86 268.569 184.643C268.494 184.689 268.41 184.718 268.323 184.726C268.236 184.734 268.148 184.722 268.067 184.689C267.985 184.657 267.912 184.606 267.852 184.54C267.792 184.473 267.748 184.394 267.722 184.307C267.363 183.112 266.745 180.105 266.918 173.905C258.62 173.481 256.232 173.352 256.232 173.352C256.232 173.352 254.278 173.429 254.278 171.943C254.278 170.457 255.705 170.594 255.705 170.594Z" fill="#0F1011"/>
<path d="M262.666 177.768C262.936 177.768 263.154 177.54 263.154 177.26C263.154 176.979 262.936 176.752 262.666 176.752C262.397 176.752 262.179 176.979 262.179 177.26C262.179 177.54 262.397 177.768 262.666 177.768Z" fill="#0F1011"/>
<path d="M258.819 177.439C259.088 177.439 259.307 177.212 259.307 176.932C259.307 176.651 259.088 176.424 258.819 176.424C258.549 176.424 258.331 176.651 258.331 176.932C258.331 177.212 258.549 177.439 258.819 177.439Z" fill="#0F1011"/>
<path d="M259.266 175.594L257.974 175.611" stroke="#0F1011" stroke-width="1.362" stroke-miterlimit="10" stroke-linecap="round"/>
<path d="M263.719 176.101L262.445 175.782" stroke="#0F1011" stroke-width="1.362" stroke-miterlimit="10" stroke-linecap="round"/>
<path d="M265.204 178.502C265.167 179.067 265.346 179.623 265.7 180.052C266.055 180.481 266.557 180.747 267.099 180.793C267.64 180.839 268.177 180.661 268.594 180.298C269.011 179.935 269.273 179.416 269.325 178.853C269.352 178.57 269.324 178.285 269.243 178.013C269.162 177.742 269.029 177.491 268.852 177.274C268.676 177.058 268.459 176.88 268.216 176.753C267.972 176.625 267.706 176.55 267.434 176.531C265.96 176.483 265.297 177.317 265.204 178.502Z" fill="#E98862"/>
<g opacity="0.15">
<path d="M260.502 180.076C260.542 180.076 260.581 180.061 260.611 180.034C260.642 180.006 260.662 179.969 260.668 179.927C260.674 179.885 260.666 179.843 260.644 179.808C260.623 179.772 260.59 179.746 260.551 179.733L259.559 179.418L260.253 177.809C260.27 177.767 260.271 177.719 260.255 177.676C260.239 177.633 260.208 177.598 260.167 177.579C260.127 177.56 260.081 177.559 260.04 177.575C259.998 177.591 259.964 177.624 259.946 177.665L259.174 179.455C259.164 179.478 259.159 179.502 259.159 179.527C259.159 179.552 259.164 179.577 259.174 179.599C259.184 179.622 259.198 179.642 259.216 179.659C259.234 179.675 259.255 179.687 259.278 179.695L260.452 180.07C260.468 180.075 260.485 180.077 260.502 180.076Z" fill="black"/>
</g>
<path d="M262.441 181.259C262.441 181.259 260.641 181.457 259.378 180.998C259.378 180.998 259.388 182.232 260.813 182.354C262.237 182.475 262.441 181.259 262.441 181.259Z" fill="#F8FCFF"/>
<path d="M248.92 245.37C248.281 245.258 241.065 243.975 241.065 243.975L242.255 236.721C242.255 236.721 249.451 238 250.089 238.112L248.92 245.37Z" fill="#E98862"/>
<path d="M236.95 252.329C236.919 252.524 236.928 252.724 236.975 252.916C237.022 253.107 237.106 253.287 237.223 253.443C237.339 253.6 237.486 253.729 237.653 253.824C237.819 253.919 238.003 253.977 238.193 253.994C238.455 254.018 238.719 253.964 238.952 253.837C239.186 253.71 239.38 253.517 239.512 253.279L243.589 245.305C243.668 245.15 243.713 244.98 243.722 244.805C243.731 244.631 243.704 244.456 243.643 244.294C243.056 242.997 242.883 241.539 243.151 240.133C243.404 239.045 243.944 238.053 244.711 237.27C244.786 237.203 244.84 237.114 244.868 237.016C244.896 236.917 244.897 236.812 244.869 236.714C244.842 236.615 244.789 236.526 244.715 236.458C244.642 236.389 244.551 236.344 244.453 236.327L240.485 235.635C240.368 235.615 240.248 235.619 240.133 235.647C240.017 235.675 239.908 235.726 239.812 235.798C239.715 235.87 239.633 235.961 239.571 236.066C239.508 236.171 239.466 236.288 239.447 236.41L236.95 252.329Z" fill="#C1D8ED"/>
<path d="M271.257 225.749C274.251 225.878 277.301 225.97 280.351 226.048L284.934 226.153L289.512 226.239L289.968 226.248C291.858 226.285 293.665 227.067 295.024 228.436C296.383 229.805 297.193 231.66 297.29 233.627C297.387 235.593 296.765 237.525 295.548 239.032C294.331 240.539 292.611 241.51 290.734 241.749L245.493 247.469L243.651 233.548L288.69 226.309L289.913 241.819L285.264 242.132L280.619 242.424C277.517 242.611 274.414 242.786 271.256 242.92L271.257 225.749Z" fill="#262626"/>
<path d="M282.669 242.322C276.423 241.375 275.802 241.2 275.596 241.144L277.433 234.037C277.412 234.032 277.385 234.024 277.352 234.017C277.864 234.133 281.038 234.638 283.686 235.039L282.669 242.322Z" fill="#E98862"/>
<path d="M290.471 248.648C290.536 248.833 290.564 249.031 290.553 249.229C290.542 249.426 290.492 249.619 290.406 249.796C290.32 249.972 290.2 250.129 290.053 250.255C289.906 250.381 289.737 250.474 289.554 250.528C289.301 250.604 289.032 250.602 288.779 250.524C288.527 250.446 288.301 250.295 288.128 250.087L282.671 243.063C282.567 242.927 282.492 242.769 282.451 242.6C282.41 242.43 282.405 242.254 282.436 242.082C282.776 240.693 282.68 239.227 282.16 237.9C281.714 236.882 281.003 236.015 280.107 235.398C280.021 235.346 279.952 235.271 279.906 235.179C279.861 235.088 279.841 234.985 279.85 234.883C279.858 234.78 279.895 234.682 279.955 234.601C280.014 234.519 280.096 234.457 280.188 234.421L283.958 232.958C284.07 232.914 284.188 232.895 284.306 232.899C284.425 232.904 284.542 232.933 284.65 232.984C284.757 233.036 284.854 233.109 284.935 233.2C285.016 233.29 285.078 233.397 285.119 233.513L290.471 248.648Z" fill="#C1D8ED"/>
<path d="M261.21 241.659C259.315 241.492 257.42 241.37 255.525 241.256C253.631 241.151 251.736 241.046 249.842 240.976L247.001 240.862L244.161 240.777C242.267 240.711 240.374 240.684 238.48 240.647L239.136 226.485C242.681 227.001 246.23 227.475 249.777 227.961C253.325 228.446 256.877 228.893 260.428 229.348L265.758 230.002L271.091 230.625C274.649 231.023 278.207 231.418 281.772 231.744L280.207 245.703C276.666 245.165 273.116 244.697 269.566 244.231L264.24 243.559L258.909 242.917C255.352 242.509 251.797 242.093 248.238 241.714C244.679 241.336 241.12 240.947 237.557 240.6C235.848 240.433 234.262 239.6 233.117 238.269C231.973 236.937 231.353 235.204 231.383 233.417C231.413 231.63 232.089 229.921 233.278 228.631C234.466 227.342 236.079 226.567 237.792 226.462L238.214 226.438C240.104 226.322 241.995 226.217 243.885 226.074L246.72 225.872L249.554 225.641C251.444 225.493 253.333 225.309 255.222 225.127C257.111 224.935 259 224.736 260.888 224.49L261.21 241.659Z" fill="#262626"/>
<path d="M278.135 223.599L279.131 241.018L250.354 240.666L252.527 225.244L278.135 223.599Z" fill="#262626"/>
<path d="M287.741 219.66L280.115 195.042C279.799 193.76 279.143 192.597 278.221 191.686C276.682 190.085 274.026 189.051 270.788 189.047C270.546 191.013 259.081 191.02 258.994 189.093C258.556 189.1 258.216 189.107 258.004 189.117C253.372 189.325 251.507 191.181 250.915 193.976L241.193 218.47C240.955 219.07 240.873 219.724 240.957 220.367C241.04 221.011 241.285 221.62 241.667 222.132C242.05 222.645 242.556 223.043 243.133 223.287C243.711 223.53 244.341 223.61 244.958 223.518L250.27 222.73C250.008 224.108 249.967 225.179 250.484 226.417C251.894 229.792 279.607 231.194 279.978 225.257C279.981 225.199 279.982 225.141 279.984 225.082L284.589 224.636C285.136 224.583 285.665 224.403 286.136 224.109C286.608 223.814 287.01 223.413 287.312 222.936C287.615 222.458 287.811 221.916 287.885 221.348C287.959 220.781 287.91 220.204 287.741 219.66ZM250.09 215.324L251.848 210.896C251.828 212.48 251.747 213.87 251.63 215.095L250.09 215.324ZM279.351 217.471L278.007 217.601C277.345 215.407 277.011 213.119 277.016 210.819C277.016 210.551 277.026 210.285 277.043 210.02L279.351 217.471Z" fill="#0EAF8F"/>
<path d="M268.562 200.826L269.752 219.288C269.766 219.505 269.737 219.724 269.666 219.929C269.596 220.135 269.486 220.323 269.343 220.482C269.2 220.642 269.027 220.769 268.834 220.855C268.642 220.942 268.435 220.987 268.225 220.987H243.458C243.08 220.987 242.715 220.841 242.434 220.577C242.153 220.313 241.976 219.95 241.937 219.558L240.105 201.095C240.083 200.873 240.106 200.649 240.172 200.437C240.239 200.225 240.347 200.03 240.491 199.864C240.634 199.699 240.809 199.566 241.005 199.476C241.201 199.385 241.412 199.338 241.627 199.338H267.036C267.424 199.339 267.798 199.492 268.081 199.768C268.365 200.045 268.537 200.423 268.562 200.826Z" fill="#9EBCEA"/>
<path d="M245.527 220.987H271.549C272.139 220.987 272.617 220.49 272.617 219.876C272.617 219.262 272.139 218.764 271.549 218.764H245.527C244.938 218.764 244.46 219.262 244.46 219.876C244.46 220.49 244.938 220.987 245.527 220.987Z" fill="#9EBCEA"/>
<path d="M254.271 212.617C255.573 212.617 256.628 211.519 256.628 210.164C256.628 208.809 255.573 207.71 254.271 207.71C252.97 207.71 251.915 208.809 251.915 210.164C251.915 211.519 252.97 212.617 254.271 212.617Z" fill="white"/>
<path d="M257.667 223.332C259.178 224.303 261.518 224.762 263.557 224.93L263.672 221.061C262.712 221.033 261.238 220.928 259.794 220.988C259.141 220.433 258.766 220.269 258.096 219.572C257.383 218.829 255.512 218.384 255.159 219.572C254.805 220.76 256.34 222.477 257.667 223.332Z" fill="#E98862"/>
<path d="M258.994 189.093C259.081 191.02 260.088 193.856 263.195 194.069C267.335 194.353 270.546 191.013 270.789 189.047H270.779C266.702 189.047 261.371 189.054 258.994 189.093Z" fill="#E98862"/>
<path d="M243.267 191.236L237.941 187.732H212.694V166.338H243.267V191.236Z" fill="#C1D8ED"/>
<path d="M217.188 176.837L224.068 173.361V174.721L218.61 177.366V177.397L224.068 180.056V181.401L217.188 177.925V176.837Z" fill="white" stroke="white" stroke-miterlimit="10"/>
<path d="M225.651 182.005L229.193 171.049H230.442L226.9 182.005H225.651Z" fill="white" stroke="white" stroke-miterlimit="10"/>
<path d="M238.774 177.955L231.894 181.401V180.056L237.438 177.397V177.366L231.894 174.705V173.36L238.774 176.806V177.955Z" fill="white" stroke="white" stroke-miterlimit="10"/>
<path d="M51.0867 243.569L44.0674 242.7C44.3835 239.934 44.7406 236.611 44.7645 236.066C44.7645 236.101 44.7645 236.13 44.7645 236.153H51.8333C51.832 236.373 51.832 237.044 51.0867 243.569Z" fill="#E98862"/>
<path d="M22.9204 244.449L15.8516 244.426C15.8516 244.426 15.8755 236.825 15.8755 236.153H22.9443C22.9443 236.827 22.9204 244.449 22.9204 244.449Z" fill="#E98862"/>
<path d="M53.6948 241.024C53.1101 225.601 53.0745 209.402 52.8913 193.938C50.46 177.258 49.1822 158.964 46.1813 142.402L46.0915 142.43L45.8286 140.562L20.2199 138.915C20.2199 138.915 19.552 151.98 19.3194 156.333C18.0713 179.671 15.538 217.181 14.0303 240.827L26.4408 241.919C28.657 218.663 31.9346 181.614 33.9378 158.692C36.1359 170.371 38.545 183.524 40.4967 195.342C40.9238 210.44 41.281 226.172 41.2423 241.245L53.6948 241.024Z" fill="#262626"/>
<path d="M31.5145 247.296C31.7046 247.295 31.8926 247.253 32.0666 247.173C32.2406 247.094 32.3969 246.977 32.5257 246.832C32.6546 246.686 32.7532 246.514 32.8154 246.327C32.8776 246.14 32.902 245.942 32.8872 245.744C32.8667 245.471 32.7716 245.209 32.613 244.99C32.4545 244.771 32.239 244.603 31.9921 244.507L23.765 241.638C23.6056 241.583 23.4367 241.565 23.2699 241.584C23.103 241.603 22.9421 241.66 22.7983 241.75C21.6671 242.567 20.3141 242.985 18.938 242.942C17.8662 242.863 16.8374 242.471 15.9688 241.813C15.8925 241.747 15.7999 241.706 15.7019 241.694C15.6039 241.681 15.5045 241.698 15.4153 241.742C15.3261 241.786 15.2508 241.856 15.1982 241.943C15.1456 242.03 15.1178 242.13 15.1182 242.233V246.422C15.1182 246.546 15.1416 246.668 15.1871 246.782C15.2327 246.896 15.2994 247 15.3835 247.087C15.4676 247.174 15.5674 247.243 15.6772 247.29C15.787 247.337 15.9046 247.361 16.0233 247.361L31.5145 247.296Z" fill="#C1D8ED"/>
<path d="M59.7001 247.296C59.8902 247.295 60.0781 247.253 60.252 247.173C60.426 247.093 60.5822 246.977 60.711 246.831C60.8398 246.686 60.9383 246.514 61.0005 246.327C61.0627 246.14 61.0872 245.941 61.0724 245.744C61.0519 245.471 60.9567 245.209 60.7981 244.99C60.6396 244.771 60.4242 244.603 60.1774 244.507L51.9496 241.638C51.7902 241.583 51.6213 241.565 51.4544 241.584C51.2876 241.603 51.1267 241.66 50.9829 241.75C49.8517 242.567 48.4987 242.985 47.1226 242.942C46.0509 242.862 45.0222 242.471 44.1537 241.813C44.0773 241.747 43.9848 241.706 43.8868 241.694C43.7888 241.681 43.6894 241.698 43.6002 241.742C43.511 241.786 43.4356 241.856 43.383 241.943C43.3303 242.03 43.3025 242.13 43.3027 242.233V246.422C43.3027 246.546 43.3262 246.668 43.3717 246.782C43.4172 246.896 43.484 247 43.5681 247.087C43.6522 247.174 43.752 247.243 43.8618 247.29C43.9716 247.337 44.0892 247.361 44.2079 247.36L59.7001 247.296Z" fill="#C1D8ED"/>
<path d="M58.3793 114.293L58.5359 114.363L56.5781 114.691L58.4998 118.511C58.4998 118.511 65.6272 120.248 68.9617 116.342C69.0467 116.242 69.1008 116.118 69.117 115.986C69.1332 115.854 69.1107 115.72 69.0525 115.601C68.9944 115.483 68.9031 115.385 68.7908 115.322C68.6785 115.258 68.5504 115.231 68.4231 115.244C66.5014 115.448 63.074 115.689 61.5307 115.055C62.2093 114.709 63.1097 114.177 62.9684 113.859C62.5961 113.026 59.3696 114.126 58.3793 114.293Z" fill="#E98862"/>
<path d="M137.986 49.2539H51.8428V116.838H137.986V49.2539Z" fill="#99CAFF"/>
<path d="M79.5017 114.293L79.6583 114.363L77.7002 114.691L79.6222 118.511C79.6222 118.511 86.7493 120.248 90.0841 116.342C90.1689 116.242 90.2229 116.118 90.239 115.986C90.2551 115.854 90.2326 115.72 90.1744 115.602C90.1163 115.483 90.0251 115.386 89.913 115.322C89.8008 115.258 89.6727 115.231 89.5455 115.244C87.6235 115.448 84.1965 115.689 82.6531 115.055C83.3317 114.709 84.2321 114.177 84.0908 113.859C83.7185 113.026 80.492 114.126 79.5017 114.293Z" fill="#E98862"/>
<path d="M28.0859 102.461C28.0859 102.461 30.793 101.25 30.793 93.8463L36.2343 93.269C36.2343 93.269 35.1127 99.8118 37.6592 102.136L28.0859 102.461Z" fill="#E98862"/>
<path d="M27.9759 90.7348C28.1714 92.9981 29.1745 95.2109 31.0081 96.093C33.0018 97.1205 35.2068 97.6245 37.4306 97.5611C43.3375 97.5611 43.2708 83.5713 40.6974 80.6355C38.124 77.6997 29.8141 78.7104 28.4643 83.1382C27.7662 85.4284 27.7901 88.5808 27.9759 90.7348Z" fill="#E98862"/>
<path d="M36.5454 89.7339C36.8147 89.7339 37.0331 89.5065 37.0331 89.2261C37.0331 88.9456 36.8147 88.7183 36.5454 88.7183C36.276 88.7183 36.0576 88.9456 36.0576 89.2261C36.0576 89.5065 36.276 89.7339 36.5454 89.7339Z" fill="#0EAF8F"/>
<path d="M35.5863 88.2205C35.5283 88.2207 35.4724 88.1981 35.4299 88.1571C35.3874 88.1161 35.3613 88.0599 35.3571 87.9997C35.3528 87.9396 35.3706 87.88 35.4069 87.8329C35.4432 87.7859 35.4952 87.7549 35.5526 87.7463L36.8472 87.536C36.9073 87.5263 36.9686 87.5419 37.0177 87.5792C37.0668 87.6166 37.0996 87.6727 37.1089 87.7353C37.1182 87.7978 37.1033 87.8617 37.0674 87.9128C37.0316 87.9639 36.9776 87.998 36.9176 88.0078L35.6229 88.218C35.6108 88.22 35.5985 88.2208 35.5863 88.2205Z" fill="#0EAF8F"/>
<path d="M43.8089 86.0174C43.8089 86.0174 43.4366 76.0464 32.8304 77.5821C32.0503 77.7096 31.2953 77.9679 30.5946 78.3468C30.0837 77.8381 29.4694 77.4556 28.7972 77.2276C28.125 76.9996 27.4122 76.932 26.7115 77.0298C26.0108 77.1276 25.3402 77.3883 24.7494 77.7925C24.1586 78.1967 23.6628 78.7342 23.2986 79.365C22.9343 79.9958 22.7111 80.7039 22.6454 81.4368C22.5797 82.1696 22.6732 82.9085 22.919 83.5986C23.1648 84.2887 23.5565 84.9124 24.0652 85.4235C24.574 85.9346 25.1866 86.32 25.8578 86.5511C25.8578 86.6363 25.8578 86.72 25.8632 86.8062C26.1577 93.2691 29.0994 96.3062 30.3277 96.8014C35.5081 98.8905 37.6675 96.2596 39.8938 86.3226C41.2047 86.3348 42.5144 86.2327 43.8089 86.0174Z" fill="#0F1011"/>
<path d="M78.4834 113.424L60.6598 119.434L59.4076 116.838H54.9778L52.3691 113.07H52.3657L47.5286 105.973C45.7345 103.012 44.3443 101.473 40.0794 101.284C38.7262 101.221 32.132 101.21 27.305 101.21C24.0601 101.21 21.3975 102.248 19.8592 103.849C14.5575 109.369 21.0642 118.776 21.0642 126.135C21.0642 133.495 17.8664 136.796 18.1021 140.574C18.4723 146.515 46.1855 145.109 47.5959 141.738C48.8952 138.633 46.6837 136.583 46.2865 128.087L52.0493 125.073L53.7391 127.236C54.0835 127.676 54.5178 128.031 55.0104 128.274C55.5029 128.518 56.0415 128.645 56.5868 128.645C56.9696 128.643 57.35 128.581 57.7144 128.459L80.7454 120.693L78.4834 113.424ZM46.6197 119.361C46.6601 119.003 46.7005 118.649 46.7409 118.292L47.2997 119.007L46.6197 119.361Z" fill="#0EAF8F"/>
<path d="M40.369 91.3817C40.362 91.9479 40.1411 92.4884 39.7541 92.8862C39.3671 93.2841 38.8452 93.5071 38.3013 93.5071C37.7575 93.5071 37.2355 93.2841 36.8485 92.8862C36.4615 92.4884 36.2406 91.9479 36.2337 91.3817C36.229 91.0977 36.2793 90.8156 36.3816 90.5522C36.4839 90.2889 36.636 90.0496 36.8289 89.8487C37.0218 89.6479 37.2515 89.4894 37.5045 89.3829C37.7574 89.2764 38.0284 89.224 38.3012 89.2288C39.7738 89.3042 40.369 90.1926 40.369 91.3817Z" fill="#E98862"/>
<g opacity="0.61">
<path d="M72.8597 81.9946C79.1297 81.9946 84.2126 76.7026 84.2126 70.1745C84.2126 63.6465 79.1297 58.3545 72.8597 58.3545C66.5897 58.3545 61.5068 63.6465 61.5068 70.1745C61.5068 76.7026 66.5897 81.9946 72.8597 81.9946Z" fill="white"/>
<path d="M128.321 101.377H61.5068V107.411H128.321V101.377Z" fill="white"/>
<path d="M128.321 88.5532H61.5068V94.5871H128.321V88.5532Z" fill="white"/>
<path d="M128.321 73.5698H87.7979V79.6037H128.321V73.5698Z" fill="white"/>
<path d="M128.321 60.7451H87.7979V66.779H128.321V60.7451Z" fill="white"/>
</g>
</g>
<defs>
<clipPath id="clip0_3374_142121">
<rect width="306" height="254" fill="white"/>
</clipPath>
</defs>
</svg>
