<svg width="22" height="22" viewBox="0 0 22 22" fill="none" xmlns="http://www.w3.org/2000/svg">
<path d="M4.125 2.75V17.875H12.375V2.75H4.125ZM3.4375 1.375H13.0625C13.2448 1.375 13.4197 1.44743 13.5486 1.57636C13.6776 1.7053 13.75 1.88016 13.75 2.0625V18.5625C13.75 18.7448 13.6776 18.9197 13.5486 19.0486C13.4197 19.1776 13.2448 19.25 13.0625 19.25H3.4375C3.25516 19.25 3.0803 19.1776 2.95136 19.0486C2.82243 18.9197 2.75 18.7448 2.75 18.5625V2.0625C2.75 1.88016 2.82243 1.7053 2.95136 1.57636C3.0803 1.44743 3.25516 1.375 3.4375 1.375Z" fill="#0EAF8F"/>
<path d="M5.5 5.5H11V6.875H5.5V5.5ZM5.5 9.625H11V11H5.5V9.625ZM5.5 13.75H11V15.125H5.5V13.75ZM13.75 11H16.5V12.375H13.75V11ZM13.75 13.75H16.5V15.125H13.75V13.75ZM1.375 17.875H20.625V19.25H1.375V17.875Z" fill="#0EAF8F"/>
<path d="M13.75 8.25V17.875H17.875V8.25H13.75ZM13.0625 6.875H18.5625C18.7448 6.875 18.9197 6.94743 19.0486 7.07636C19.1776 7.2053 19.25 7.38016 19.25 7.5625V18.5625C19.25 18.7448 19.1776 18.9197 19.0486 19.0486C18.9197 19.1776 18.7448 19.25 18.5625 19.25H13.0625C12.8802 19.25 12.7053 19.1776 12.5764 19.0486C12.4474 18.9197 12.375 18.7448 12.375 18.5625V7.5625C12.375 7.38016 12.4474 7.2053 12.5764 7.07636C12.7053 6.94743 12.8802 6.875 13.0625 6.875Z" fill="#0EAF8F"/>
</svg>
