<svg width="24" height="23" viewBox="0 0 24 23" fill="none" xmlns="http://www.w3.org/2000/svg">
<g filter="url(#filter0_d_3720_143531)">
<g clip-path="url(#clip0_3720_143531)">
<rect width="24" height="20.8142" rx="2" fill="#EF4444"/>
<path d="M12.2734 6.33578L8.97852 15.4071H7.63184L11.4258 5.45395H12.2939L12.2734 6.33578ZM15.0352 15.4071L11.7334 6.33578L11.7129 5.45395H12.5811L16.3887 15.4071H15.0352ZM14.8643 11.7225V12.8026H9.27246V11.7225H14.8643Z" fill="white"/>
<g clip-path="url(#clip1_3720_143531)">
<rect width="14" height="14" transform="translate(5 3)" fill="#EF4444"/>
<path d="M14.073 12.4535C14.0614 12.4374 14.0461 12.4243 14.0285 12.4154C14.0108 12.4064 13.9912 12.4018 13.9714 12.402H13.2808C13.1792 12.402 13.1198 12.5176 13.1792 12.6004L14.3323 14.1957C14.3823 14.2645 14.4839 14.2645 14.5339 14.1957L16.3183 11.727C16.3777 11.6442 16.3183 11.5285 16.2167 11.5285H15.5245C15.4839 11.5285 15.4464 11.5473 15.423 11.5801L14.4308 12.952L14.073 12.4535ZM14.7495 6.77853V6.02853C14.7495 5.95978 14.6933 5.90353 14.6245 5.90353H8.62453C8.55578 5.90353 8.49953 5.95978 8.49953 6.02853V6.77853C8.49953 6.84728 8.55578 6.90353 8.62453 6.90353H14.6245C14.6933 6.90353 14.7495 6.84728 14.7495 6.77853ZM8.62453 8.15353C8.55578 8.15353 8.49953 8.20978 8.49953 8.27853V9.02853C8.49953 9.09728 8.55578 9.15353 8.62453 9.15353H11.4995C11.5683 9.15353 11.6245 9.09728 11.6245 9.02853V8.27853C11.6245 8.20978 11.5683 8.15353 11.4995 8.15353H8.62453ZM11.4995 15.3098H7.24953V4.30978H15.9995V8.93478C15.9995 9.00353 16.0558 9.05978 16.1245 9.05978H16.9995C17.0683 9.05978 17.1245 9.00353 17.1245 8.93478V3.68478C17.1245 3.40822 16.9011 3.18478 16.6245 3.18478H6.62453C6.34796 3.18478 6.12453 3.40822 6.12453 3.68478V15.9348C6.12453 16.2113 6.34796 16.4348 6.62453 16.4348H11.4995C11.5683 16.4348 11.6245 16.3785 11.6245 16.3098V15.4348C11.6245 15.366 11.5683 15.3098 11.4995 15.3098ZM17.7902 10.2973L14.7902 9.2551C14.7761 9.25041 14.7636 9.24885 14.7495 9.24885C14.7355 9.24885 14.7214 9.25041 14.7089 9.2551L11.7089 10.2973C11.6844 10.3056 11.6631 10.3214 11.648 10.3424C11.6328 10.3634 11.6246 10.3886 11.6245 10.4145V14.3379C11.6245 14.377 11.6417 14.4129 11.673 14.4363L14.673 16.7832C14.6948 16.8004 14.723 16.8098 14.7495 16.8098C14.7761 16.8098 14.8042 16.8004 14.8261 16.7832L17.8261 14.4363C17.8558 14.4129 17.8745 14.377 17.8745 14.3379V10.4145C17.8745 10.3613 17.8402 10.3145 17.7902 10.2973ZM16.9058 13.9301L14.7495 15.616L12.5933 13.9301V11.0129L14.7495 10.2629L16.9058 11.0129V13.9301Z" fill="white"/>
</g>
</g>
<rect x="0.5" y="0.5" width="23" height="19.8142" rx="1.5" stroke="#EF4444"/>
</g>
<defs>
<filter id="filter0_d_3720_143531" x="0" y="0" width="24" height="22.8141" filterUnits="userSpaceOnUse" color-interpolation-filters="sRGB">
<feFlood flood-opacity="0" result="BackgroundImageFix"/>
<feColorMatrix in="SourceAlpha" type="matrix" values="0 0 0 0 0 0 0 0 0 0 0 0 0 0 0 0 0 0 127 0" result="hardAlpha"/>
<feOffset dy="2"/>
<feColorMatrix type="matrix" values="0 0 0 0 0 0 0 0 0 0 0 0 0 0 0 0 0 0 0.043 0"/>
<feBlend mode="normal" in2="BackgroundImageFix" result="effect1_dropShadow_3720_143531"/>
<feBlend mode="normal" in="SourceGraphic" in2="effect1_dropShadow_3720_143531" result="shape"/>
</filter>
<clipPath id="clip0_3720_143531">
<rect width="24" height="20.8142" rx="2" fill="white"/>
</clipPath>
<clipPath id="clip1_3720_143531">
<rect width="14" height="14" fill="white" transform="translate(5 3)"/>
</clipPath>
</defs>
</svg>
