<svg width="22" height="22" viewBox="0 0 22 22" fill="none" xmlns="http://www.w3.org/2000/svg">
<g clip-path="url(#clip0_1521_99374)">
<rect width="22" height="22" fill="white" fill-opacity="0.01"/>
<path d="M14.2575 14.8553C14.2393 14.83 14.2153 14.8095 14.1876 14.7954C14.1598 14.7813 14.129 14.7741 14.0979 14.7743H13.0126C12.853 14.7743 12.7597 14.956 12.853 15.0861L14.6651 17.5931C14.7437 17.7011 14.9033 17.7011 14.9818 17.5931L17.7858 13.7136C17.8791 13.5835 17.7858 13.4018 17.6262 13.4018H16.5385C16.4747 13.4018 16.4158 13.4312 16.3789 13.4828L14.8198 15.6386L14.2575 14.8553ZM15.3207 5.93748V4.75891C15.3207 4.65088 15.2323 4.56248 15.1242 4.56248H5.69566C5.58763 4.56248 5.49923 4.65088 5.49923 4.75891V5.93748C5.49923 6.04552 5.58763 6.13391 5.69566 6.13391H15.1242C15.2323 6.13391 15.3207 6.04552 15.3207 5.93748ZM5.69566 8.0982C5.58763 8.0982 5.49923 8.18659 5.49923 8.29463V9.4732C5.49923 9.58123 5.58763 9.66963 5.69566 9.66963H10.2135C10.3216 9.66963 10.4099 9.58123 10.4099 9.4732V8.29463C10.4099 8.18659 10.3216 8.0982 10.2135 8.0982H5.69566ZM10.2135 19.3437H3.53495V2.05802H17.2849V9.32588C17.2849 9.43391 17.3733 9.5223 17.4814 9.5223H18.8564C18.9644 9.5223 19.0528 9.43391 19.0528 9.32588V1.07588C19.0528 0.641277 18.7017 0.290161 18.2671 0.290161H2.5528C2.11821 0.290161 1.76709 0.641277 1.76709 1.07588V20.3259C1.76709 20.7605 2.11821 21.1116 2.5528 21.1116H10.2135C10.3216 21.1116 10.4099 21.0232 10.4099 20.9152V19.5402C10.4099 19.4321 10.3216 19.3437 10.2135 19.3437ZM20.0988 11.4669L15.3845 9.82922C15.3624 9.82186 15.3428 9.8194 15.3207 9.8194C15.2986 9.8194 15.2765 9.82186 15.2568 9.82922L10.5425 11.4669C10.504 11.48 10.4705 11.5048 10.4468 11.5378C10.423 11.5708 10.4101 11.6104 10.4099 11.6511V17.8165C10.4099 17.8779 10.437 17.9344 10.4861 17.9712L15.2003 21.6591C15.2347 21.6861 15.2789 21.7009 15.3207 21.7009C15.3624 21.7009 15.4066 21.6861 15.441 21.6591L20.1553 17.9712C20.2019 17.9344 20.2314 17.8779 20.2314 17.8165V11.6511C20.2314 11.5676 20.1774 11.494 20.0988 11.4669ZM18.7091 17.1757L15.3207 19.825L11.9323 17.1757V12.5915L15.3207 11.4129L18.7091 12.5915V17.1757Z" fill="#0EAF8F"/>
</g>
<defs>
<clipPath id="clip0_1521_99374">
<rect width="22" height="22" fill="white"/>
</clipPath>
</defs>
</svg>
