<svg width="22" height="22" viewBox="0 0 22 22" fill="none" xmlns="http://www.w3.org/2000/svg">
<g clip-path="url(#clip0_1521_99367)">
<rect width="22" height="22" fill="white" fill-opacity="0.01"/>
<g clip-path="url(#clip1_1521_99367)">
<path d="M19.4115 5.51473L14.1276 0.230804C13.9802 0.0834822 13.7813 0 13.5726 0H3.14228C2.70768 0 2.35657 0.351116 2.35657 0.785714V21.2143C2.35657 21.6489 2.70768 22 3.14228 22H18.8566C19.2912 22 19.6423 21.6489 19.6423 21.2143V6.0721C19.6423 5.86339 19.5588 5.66205 19.4115 5.51473ZM17.8302 6.43304H13.2092V1.81205L17.8302 6.43304ZM17.8744 20.2321H4.12442V1.76786H11.5396V7.07143C11.5396 7.34493 11.6483 7.60724 11.8417 7.80063C12.035 7.99403 12.2973 8.10268 12.5709 8.10268H17.8744V20.2321ZM10.803 13.6027H6.28514C6.1771 13.6027 6.08871 13.6911 6.08871 13.7991V14.9777C6.08871 15.0857 6.1771 15.1741 6.28514 15.1741H10.803C10.911 15.1741 10.9994 15.0857 10.9994 14.9777V13.7991C10.9994 13.6911 10.911 13.6027 10.803 13.6027ZM6.08871 10.4598V11.6384C6.08871 11.7464 6.1771 11.8348 6.28514 11.8348H15.7137C15.8217 11.8348 15.9101 11.7464 15.9101 11.6384V10.4598C15.9101 10.3518 15.8217 10.2634 15.7137 10.2634H6.28514C6.1771 10.2634 6.08871 10.3518 6.08871 10.4598Z" fill="#0EAF8F"/>
</g>
</g>
<defs>
<clipPath id="clip0_1521_99367">
<rect width="22" height="22" fill="white"/>
</clipPath>
<clipPath id="clip1_1521_99367">
<rect width="22" height="22" fill="white"/>
</clipPath>
</defs>
</svg>
