<svg width="143" height="121" viewBox="0 0 143 121" fill="none" xmlns="http://www.w3.org/2000/svg">
<path d="M130.701 120.387C132.296 120.388 133.874 120.035 135.34 119.35C136.807 118.666 138.131 117.664 139.234 116.406C140.336 115.147 141.194 113.657 141.755 112.026C142.316 110.396 142.569 108.658 142.498 106.918C142.11 97.3193 136.525 83.5633 121.304 71.1396C100.184 53.9018 114.108 14.5428 86.3855 10.4319C40.8175 3.67634 49.4382 47.8574 21.3011 63.965C3.39036 74.2183 0.133937 94.2803 0.132812 107.509C0.135745 110.927 1.38131 114.204 3.59561 116.619C5.80991 119.034 8.81164 120.39 11.9407 120.387H130.701Z" fill="#F3F5FD"/>
<path d="M103.024 2.11536H57.0125C53.4891 2.11536 50.6328 5.23546 50.6328 9.08429V111.638C50.6328 115.487 53.4891 118.607 57.0125 118.607H103.024C106.547 118.607 109.403 115.487 109.403 111.638V9.08429C109.403 5.23546 106.547 2.11536 103.024 2.11536Z" fill="white"/>
<path d="M103.024 120.414H57.0127C54.8827 120.411 52.8406 119.486 51.3344 117.841C49.8283 116.195 48.981 113.965 48.9785 111.638V9.08455C48.981 6.75779 49.8283 4.5271 51.3344 2.88183C52.8406 1.23656 54.8827 0.31106 57.0127 0.30835H103.024C105.154 0.31106 107.196 1.23656 108.702 2.88183C110.209 4.5271 111.056 6.75779 111.058 9.08455V111.638C111.056 113.965 110.209 116.195 108.702 117.841C107.196 119.486 105.154 120.411 103.024 120.414ZM57.0127 3.92246C55.7601 3.9242 54.5592 4.46853 53.6735 5.43608C52.7877 6.40363 52.2894 7.71541 52.2878 9.08373V111.638C52.2894 113.006 52.7876 114.318 53.6734 115.286C54.5592 116.253 55.7601 116.797 57.0127 116.799H103.024C104.277 116.797 105.478 116.253 106.363 115.286C107.249 114.318 107.747 113.006 107.749 111.638V9.08455C107.747 7.71623 107.249 6.40445 106.363 5.4369C105.478 4.46935 104.277 3.92502 103.024 3.92328L57.0127 3.92246Z" fill="#DEE8F5"/>
<path d="M69.9435 2.11536H90.0924V6.38569C90.0924 6.80546 90.0167 7.22112 89.8696 7.60894C89.7226 7.99675 89.507 8.34913 89.2353 8.64596C88.9636 8.94278 88.641 9.17823 88.286 9.33887C87.9309 9.49951 87.5504 9.58219 87.1661 9.58219H72.8696C72.0935 9.58219 71.3492 9.24542 70.8004 8.64596C70.2517 8.0465 69.9434 7.23345 69.9434 6.38569V2.11536H69.9435Z" fill="#DEE8F5"/>
<path d="M16.5592 27.6681C16.5303 24.6227 17.6322 22.7356 19.126 21.6994C20.6001 20.677 25.2226 19.7871 26.9751 23.4985C28.1188 25.9204 27.6673 26.7861 27.9913 30.6651C28.3153 34.544 29.5599 34.9512 30.8225 39.6528C31.8125 43.3409 26.2664 45.2987 21.4644 45.1295C16.6625 44.9604 13.6177 43.7982 13.3391 40.4625C12.9384 35.6742 16.6154 33.6359 16.5592 27.6681Z" fill="#0F1011"/>
<path d="M19.4219 36.089C19.4219 36.089 20.8645 35.2347 20.5047 30.9255L23.4948 30.2887C23.4948 30.2887 23.1907 34.1596 24.7164 35.3709L19.4219 36.089Z" fill="#E98862"/>
<g opacity="0.15">
<path d="M24.0918 34.5677L21.5859 32.5133L23.5402 32.4723C23.603 33.2022 23.7901 33.9129 24.0918 34.5677Z" fill="black"/>
</g>
<path d="M18.7901 29.2687C19.0086 30.575 19.6725 31.8084 20.7326 32.2194C21.8885 32.7071 23.136 32.8786 24.3665 32.7188C27.6431 32.3921 26.9261 24.2541 25.3561 22.6877C23.786 21.1213 19.2249 22.1689 18.6917 24.8204C18.4159 26.1924 18.5824 28.0259 18.7901 29.2687Z" fill="#E98862"/>
<path d="M23.4689 28.2146C23.619 28.2146 23.7406 28.0818 23.7406 27.9179C23.7406 27.754 23.619 27.6211 23.4689 27.6211C23.3189 27.6211 23.1973 27.754 23.1973 27.9179C23.1973 28.0818 23.3189 28.2146 23.4689 28.2146Z" fill="#0F1011"/>
<path d="M25.6135 28.001C25.7635 28.001 25.8852 27.8681 25.8852 27.7042C25.8852 27.5403 25.7635 27.4075 25.6135 27.4075C25.4634 27.4075 25.3418 27.5403 25.3418 27.7042C25.3418 27.8681 25.4634 28.001 25.6135 28.001Z" fill="#0F1011"/>
<path d="M26.0748 27.0673C26.1087 27.0673 26.1412 27.0526 26.1651 27.0264C26.1891 27.0003 26.2025 26.9648 26.2025 26.9278C26.2025 26.8908 26.1891 26.8554 26.1651 26.8292C26.1412 26.803 26.1087 26.7883 26.0748 26.7883L25.3552 26.7859C25.3222 26.7873 25.291 26.8026 25.2681 26.8285C25.2452 26.8545 25.2324 26.8892 25.2324 26.9253C25.2324 26.9613 25.2452 26.996 25.2681 27.022C25.291 27.048 25.3222 27.0633 25.3552 27.0646L26.0748 27.0673Z" fill="#0F1011"/>
<path d="M22.8776 27.3858C22.888 27.3858 22.8985 27.3844 22.9087 27.3817L23.6167 27.1881C23.6488 27.1784 23.6762 27.1554 23.693 27.124C23.7098 27.0925 23.7147 27.0552 23.7066 27.0199C23.6985 26.9845 23.6781 26.9541 23.6497 26.935C23.6214 26.9158 23.5873 26.9096 23.5548 26.9176L22.8468 27.1113C22.8166 27.1195 22.7901 27.1395 22.7725 27.1675C22.7548 27.1955 22.7472 27.2296 22.7509 27.2634C22.7547 27.2972 22.7697 27.3283 22.793 27.3508C22.8163 27.3733 22.8464 27.3858 22.8776 27.3858Z" fill="#0F1011"/>
<path d="M23.6152 30.2539C23.6152 30.2539 24.6191 30.3593 25.3198 30.0839C25.3198 30.0839 25.3198 30.8054 24.5272 30.8845C23.7347 30.9635 23.6152 30.2539 23.6152 30.2539Z" fill="white"/>
<path d="M20.9684 25.8573C20.8972 31.7667 20.3758 34.0622 20.3758 34.0622C20.3758 34.0622 17.8142 30.681 17.4276 27.0986C17.0651 23.7416 19.3155 21.7346 20.8441 21.3451C26.6527 19.8651 27.056 24.4932 27.056 24.4932C26.681 26.0721 20.3394 27.0517 20.3394 27.0517" fill="#0F1011"/>
<path d="M22.1072 29.2104C22.1336 29.5419 22.0387 29.8713 21.8433 30.1265C21.6478 30.3817 21.3678 30.542 21.0645 30.5723C20.7612 30.6025 20.4592 30.5003 20.2247 30.2879C19.9902 30.0756 19.8422 29.7704 19.8132 29.4392C19.7969 29.2741 19.8111 29.1072 19.855 28.9482C19.8989 28.7893 19.9717 28.6417 20.0689 28.5141C20.1662 28.3865 20.2859 28.2816 20.4211 28.2056C20.5562 28.1297 20.704 28.0842 20.8555 28.0719C21.6762 28.0344 22.0493 28.5186 22.1072 29.2104Z" fill="#E98862"/>
<g opacity="0.15">
<path d="M24.6893 29.5515C24.6669 29.5514 24.6453 29.5427 24.6284 29.5268C24.6115 29.5109 24.6003 29.4889 24.5968 29.4648C24.5934 29.4407 24.5979 29.4161 24.6097 29.3953C24.6214 29.3745 24.6395 29.359 24.6608 29.3516L25.2118 29.1607L24.8181 28.2243C24.8125 28.212 24.8092 28.1986 24.8085 28.185C24.8077 28.1713 24.8095 28.1576 24.8137 28.1447C24.8179 28.1318 24.8244 28.1199 24.8328 28.1098C24.8413 28.0997 24.8515 28.0915 24.8629 28.0858C24.8743 28.0801 24.8866 28.0769 24.8991 28.0765C24.9116 28.076 24.9241 28.0784 24.9358 28.0833C24.9475 28.0882 24.9582 28.0957 24.9672 28.1052C24.9762 28.1147 24.9834 28.1261 24.9883 28.1387L25.4272 29.1803C25.4328 29.1935 25.4357 29.2078 25.4358 29.2222C25.436 29.2367 25.4333 29.251 25.428 29.2643C25.4227 29.2776 25.4148 29.2894 25.405 29.2991C25.3952 29.3089 25.3836 29.3162 25.371 29.3206L24.7189 29.5459C24.7093 29.5495 24.6993 29.5514 24.6893 29.5515Z" fill="black"/>
</g>
<path d="M44.0488 45.3487C44.0488 45.3487 45.1515 43.9193 46.3245 43.6928C47.4974 43.4663 47.2044 44.2034 46.5076 44.7533C45.8109 45.3032 44.2389 46.4104 44.2389 46.4104" fill="#E98862"/>
<path d="M44.8555 44.9148C44.8555 44.9148 47.0441 43.9425 47.9821 44.3822C47.9821 44.3822 48.7998 45.2586 47.9985 46.4099C47.2297 47.514 45.2235 47.9241 45.2235 47.9241L44.8555 44.9148Z" fill="#E98862"/>
<path d="M31.9452 117.988L28.0352 117.48C28.2112 115.864 28.4101 113.922 28.4236 113.603C28.4236 113.624 28.4236 113.641 28.4236 113.654H32.3611C32.3603 113.783 32.3603 114.175 31.9452 117.988Z" fill="#E98862"/>
<path d="M16.2558 118.502L12.3184 118.488C12.3184 118.488 12.3315 114.047 12.3315 113.655H16.2689C16.2689 114.048 16.2558 118.502 16.2558 118.502Z" fill="#E98862"/>
<path d="M26.4611 116.63L33.3984 116.501C33.1101 108.521 33.0609 99.3935 32.9835 91.134C32.962 89.0868 32.8205 87.0433 32.5597 85.0159C31.4438 76.2657 30.7157 67.5659 29.2133 58.8657L29.1631 58.8819L29.0166 57.7902L14.7525 56.8286L14.0101 67.0078C14.0101 67.0078 12.152 102.225 11.3047 116.385L18.2175 117.023C19.463 103.139 21.3905 82.9102 22.576 68.3253C23.9374 75.4262 24.8634 82.7785 26.0473 89.8185C26.283 98.6318 26.483 107.844 26.4611 116.63Z" fill="#262626"/>
<path d="M21.028 119.902C21.1339 119.902 21.2386 119.877 21.3354 119.831C21.4323 119.784 21.5194 119.716 21.5911 119.631C21.6628 119.546 21.7177 119.446 21.7524 119.336C21.787 119.227 21.8006 119.111 21.7924 118.996C21.781 118.836 21.728 118.683 21.6397 118.555C21.5513 118.427 21.4314 118.329 21.2939 118.273L16.7109 116.596C16.6221 116.564 16.5281 116.553 16.4351 116.565C16.3422 116.576 16.2526 116.609 16.1724 116.662C15.5424 117.139 14.7887 117.383 14.0222 117.358C13.4252 117.312 12.8522 117.083 12.3685 116.698C12.326 116.66 12.2744 116.636 12.2198 116.628C12.1653 116.621 12.1099 116.631 12.0602 116.657C12.0105 116.682 11.9686 116.723 11.9392 116.774C11.9099 116.825 11.8944 116.884 11.8945 116.944V119.392C11.8945 119.464 11.9076 119.535 11.933 119.602C11.9583 119.669 11.9955 119.729 12.0423 119.78C12.0892 119.831 12.1448 119.872 12.2059 119.899C12.2671 119.926 12.3326 119.94 12.3987 119.94L21.028 119.902Z" fill="#0EAF8F"/>
<path d="M36.7409 120.165C36.8468 120.165 36.9514 120.141 37.0483 120.094C37.1452 120.047 37.2322 119.979 37.3039 119.894C37.3756 119.809 37.4305 119.709 37.4651 119.599C37.4998 119.49 37.5134 119.374 37.5051 119.259C37.4938 119.099 37.4408 118.946 37.3524 118.818C37.2641 118.69 37.1441 118.592 37.0066 118.536L32.4238 116.859C32.335 116.827 32.2409 116.816 32.148 116.828C32.0551 116.839 31.9655 116.872 31.8853 116.925C31.2552 117.402 30.5016 117.646 29.7351 117.621C29.1381 117.575 28.565 117.346 28.0812 116.961C28.0387 116.923 27.9871 116.899 27.9326 116.892C27.878 116.884 27.8227 116.894 27.7731 116.92C27.7234 116.946 27.6815 116.986 27.6522 117.037C27.6228 117.088 27.6073 117.147 27.6074 117.207V119.655C27.6074 119.727 27.6205 119.798 27.6458 119.865C27.6712 119.932 27.7084 119.992 27.7552 120.043C27.8021 120.094 27.8577 120.135 27.9188 120.162C27.98 120.189 28.0455 120.203 28.1116 120.203L36.7409 120.165Z" fill="#0EAF8F"/>
<path d="M34.4045 52.4615C34.0622 52.4616 33.7258 52.3641 33.4285 52.1788C33.1312 51.9935 32.8832 51.7267 32.7092 51.4047L25.9297 38.8714L29.3196 36.6832L35.2837 47.7091L44.7091 44.1873L45.984 48.2567L35.042 52.3454C34.8368 52.4223 34.6214 52.4615 34.4045 52.4615Z" fill="#0EAF8F"/>
<path d="M30.2019 58.6592C29.4163 60.6316 13.9798 61.4508 13.7735 57.9813C13.6423 55.7734 15.4235 53.8461 15.4235 49.543C15.4235 45.2399 11.7992 39.7448 14.7523 36.519C15.6091 35.5831 17.0885 34.9789 18.8922 34.9768C19.0272 36.1258 25.4133 36.1299 25.462 35.0034C25.7057 35.0075 25.8951 35.0116 26.0132 35.0178C32.2343 35.3106 29.5007 43.0444 29.4407 48.7258C29.3675 55.3738 31.0119 56.6273 30.2019 58.6592Z" fill="#0EAF8F"/>
<path d="M39.9406 54.4511C39.4622 54.4511 39.0019 54.2514 38.654 53.8928L29.5557 44.5149C29.3753 44.3307 29.2299 44.1094 29.128 43.8636C29.0261 43.6179 28.9696 43.3525 28.9619 43.0829C28.9541 42.8132 28.9952 42.5446 29.0827 42.2923C29.1703 42.04 29.3026 41.8092 29.4721 41.6129C29.6416 41.4167 29.8449 41.259 30.0704 41.1488C30.2958 41.0387 30.539 40.9783 30.7859 40.9711C31.0328 40.9639 31.2785 41.01 31.509 41.1069C31.7396 41.2037 31.9503 41.3494 32.1291 41.5355L39.8371 49.4801L55.8649 30.1868C56.0294 29.984 56.2292 29.8188 56.4526 29.7009C56.676 29.5829 56.9186 29.5146 57.1663 29.4999C57.4141 29.4851 57.662 29.5242 57.8958 29.6149C58.1296 29.7056 58.3446 29.8461 58.5284 30.0282C58.7121 30.2103 58.8609 30.4305 58.9662 30.6759C59.0715 30.9213 59.1311 31.1871 59.1417 31.4579C59.1522 31.7287 59.1134 31.999 59.0276 32.2533C58.9418 32.5076 58.8106 32.7408 58.6417 32.9393L41.3291 53.7794C41.1616 53.981 40.959 54.1442 40.733 54.2593C40.5071 54.3744 40.2624 54.4391 40.0133 54.4497C39.9891 54.4505 39.9647 54.4511 39.9406 54.4511Z" fill="#00BA56"/>
<path d="M25.4585 35.0034C25.4098 36.1299 24.8492 37.7868 23.1186 37.9118C20.8124 38.0777 19.0237 36.1258 18.8887 34.9768H18.8943C21.1649 34.9766 24.1348 34.9807 25.4585 35.0034Z" fill="#E98862"/>
<path d="M30.7066 50.7722C30.7066 50.7722 30.2726 48.0746 32.0577 47.8516C33.184 47.7109 36.0156 46.0007 36.5527 47.4301C37.0187 48.6702 34.3146 50.1465 33.3466 50.4203C32.479 50.6639 30.7066 50.7722 30.7066 50.7722Z" fill="#E98862"/>
<path d="M31.4492 48.0666C31.4492 48.0666 33.7496 46.6886 34.379 46.7208C34.9363 46.7492 33.9883 47.9267 33.9883 47.9267L31.4492 48.0666Z" fill="#E98862"/>
<path d="M21.4322 55.1862C21.0374 55.1861 20.6511 55.0612 20.32 54.8265C19.9888 54.5918 19.7269 54.2573 19.5661 53.8635L13.8379 39.8544L17.5707 38.033L22.5613 50.2398L32.1695 47.0185L33.3695 51.2874L22.0322 55.0875C21.8378 55.1528 21.6356 55.1861 21.4322 55.1862Z" fill="#0EAF8F"/>
<path d="M49.0984 44.8138C49.1474 44.7364 49.1709 44.643 49.1649 44.5491C49.1589 44.4552 49.1239 44.3662 49.0656 44.2969C48.7813 43.9612 48.2537 43.4289 47.9065 43.6257C47.4113 43.9061 46.4208 44.948 46.6958 45.4895C46.9709 46.031 47.5396 46.6254 47.9071 46.4452C48.1849 46.309 48.7808 45.3185 49.0984 44.8138Z" fill="#E98862"/>
<path d="M78.3759 78.62H60.2246V87.1095H78.3759V78.62Z" fill="#0CBC8B"/>
<path d="M99.8056 78.6201H81.6543V87.1096H99.8056V78.6201Z" fill="#C1D8ED"/>
<path d="M128.099 120.387H95.8402C94.071 115.358 99.3869 112.878 101.077 116.137C100.069 114.193 99.8007 111.729 101.895 110.143C104.089 108.885 106.732 110.323 107.136 112.597C106.598 109.569 109.161 106.551 112.013 105.864C119.334 104.104 120.966 111.992 120.302 113.232C122.236 109.618 130.23 114.078 128.099 120.387Z" fill="#C1EDCB"/>
<path d="M93.1126 40.1442C93.1174 43.8435 91.8049 47.3999 89.4527 50.0612C87.6865 45.7499 84.1222 42.8067 80.0179 42.8067C75.9099 42.8067 72.3456 45.754 70.5794 50.0653C69.0929 48.3785 68.0082 46.319 67.4203 44.0675C66.8324 41.816 66.7593 39.4413 67.2075 37.1517C67.6557 34.8622 68.6114 32.7278 69.9908 30.9357C71.3701 29.1437 73.1311 27.7489 75.119 26.8736C77.107 25.9984 79.2612 25.6694 81.3926 25.9156C83.5241 26.1619 85.5677 26.9757 87.3441 28.2858C89.1205 29.5959 90.5753 31.3623 91.5811 33.4298C92.5869 35.4973 93.1127 37.8029 93.1126 40.1442Z" fill="#C1D8ED"/>
<path d="M80.0133 41.6182C82.877 41.6182 85.1985 39.0823 85.1985 35.9541C85.1985 32.8259 82.877 30.29 80.0133 30.29C77.1496 30.29 74.8281 32.8259 74.8281 35.9541C74.8281 39.0823 77.1496 41.6182 80.0133 41.6182Z" fill="#F3F5FD"/>
<path d="M89.4553 50.0613C88.2338 51.4488 86.7685 52.5527 85.1471 53.3069C83.5258 54.0611 81.7817 54.45 80.0195 54.4504C78.2572 54.4508 76.5131 54.0626 74.8914 53.3091C73.2698 52.5557 71.804 51.4524 70.582 50.0654C72.3482 45.7541 75.9125 42.8069 80.0206 42.8069C84.1248 42.8069 87.6891 45.75 89.4553 50.0613Z" fill="#F3F5FD"/>
<path d="M99.8029 60.1125H60.2246V61.8389H99.8029V60.1125Z" fill="#DEE8F5"/>
<path d="M99.8029 64.8126H60.2246V66.539H99.8029V64.8126Z" fill="#DEE8F5"/>
<path d="M78.3759 69.6736H60.2246V71.3999H78.3759V69.6736Z" fill="#DEE8F5"/>
</svg>
