<svg width="13" height="14" viewBox="0 0 13 14" fill="none" xmlns="http://www.w3.org/2000/svg">
<path fill-rule="evenodd" clip-rule="evenodd" d="M2.28125 4.81269C2.28125 2.56384 4.19297 0.78125 6.5 0.78125C8.75497 0.78125 10.6323 2.4843 10.7158 4.66118L11.0145 4.76071C11.3039 4.85718 11.5576 4.94173 11.7589 5.03536C11.9765 5.13658 12.1759 5.26696 12.3283 5.47846C12.4808 5.68996 12.5414 5.92037 12.5686 6.15879C12.5938 6.37935 12.5938 6.64676 12.5938 6.95186V10.5445C12.5938 10.9254 12.5938 11.2503 12.5642 11.511C12.5331 11.7852 12.4636 12.0547 12.2753 12.2846C12.1671 12.4166 12.0358 12.5278 11.8878 12.6128C11.6301 12.7608 11.3528 12.7851 11.0772 12.7707C10.8152 12.757 10.4947 12.7035 10.119 12.6409L10.093 12.6366C9.285 12.5019 8.95945 12.451 8.64212 12.4775C8.52603 12.4873 8.41071 12.5046 8.2969 12.5295C7.98588 12.5974 7.68678 12.7432 6.94752 13.1128C6.92182 13.1257 6.8964 13.1384 6.87126 13.151C6.00711 13.5832 5.4747 13.8495 4.90019 13.9327C4.7274 13.9577 4.55301 13.9701 4.37841 13.9698C3.79793 13.9687 3.23747 13.7818 2.32835 13.4786C2.30205 13.4698 2.27546 13.4609 2.24857 13.452L2.00884 13.3721L1.98552 13.3643C1.69608 13.2678 1.44239 13.1833 1.24112 13.0896C1.02354 12.9884 0.824134 12.858 0.671693 12.6465C0.519252 12.435 0.458618 12.2046 0.431397 11.9662C0.406217 11.7457 0.406233 11.4782 0.406251 11.1731L0.406251 8.03577C0.406232 7.54445 0.406216 7.13029 0.448307 6.80592C0.492241 6.46735 0.591577 6.13632 0.86414 5.88737C0.944262 5.81419 1.03258 5.75053 1.12734 5.69766C1.44971 5.51781 1.79517 5.52826 2.13026 5.59364C2.19823 5.60691 2.26943 5.62324 2.34387 5.64221C2.30257 5.36356 2.28125 5.08577 2.28125 4.81269ZM2.59293 6.69331C2.32545 6.60704 2.12015 6.54685 1.95071 6.51379C1.70374 6.4656 1.62279 6.49479 1.58412 6.51636C1.55253 6.53399 1.52309 6.55521 1.49638 6.5796C1.46369 6.60946 1.41039 6.67703 1.37801 6.92656C1.34469 7.18334 1.34375 7.53593 1.34375 8.0675V11.1486C1.34375 11.4855 1.34446 11.6988 1.36285 11.8599C1.37987 12.0089 1.40771 12.0644 1.43223 12.0984C1.45675 12.1324 1.50052 12.1763 1.63656 12.2396C1.78353 12.308 1.98568 12.3761 2.30531 12.4827L2.54503 12.5626C3.55977 12.9008 3.96931 13.0315 4.38019 13.0323C4.50924 13.0325 4.63813 13.0234 4.76585 13.0049C5.17239 12.946 5.56308 12.7569 6.52826 12.2743C6.54781 12.2645 6.56713 12.2549 6.58625 12.2453C7.24917 11.9137 7.65753 11.7095 8.09687 11.6135C8.25085 11.5799 8.40688 11.5565 8.56394 11.5433C9.01206 11.5058 9.459 11.5804 10.1841 11.7013C10.2049 11.7048 10.2259 11.7083 10.2471 11.7118C10.6561 11.78 10.9237 11.8238 11.1262 11.8344C11.3211 11.8446 11.3881 11.8186 11.4209 11.7998C11.4703 11.7715 11.514 11.7344 11.5501 11.6904C11.5741 11.6611 11.6107 11.5993 11.6327 11.4054C11.6555 11.2039 11.6563 10.9327 11.6563 10.5181V6.97642C11.6563 6.63951 11.6555 6.42618 11.6372 6.26514C11.6201 6.11607 11.5923 6.06065 11.5678 6.02663C11.5433 5.99261 11.4995 5.94867 11.3634 5.88538C11.2165 5.81701 11.0143 5.74888 10.6947 5.64234L10.6579 5.63008C10.5391 6.44345 10.2498 7.26458 9.8233 7.99747C9.25301 8.97753 8.41858 9.83116 7.37318 10.2872C6.81835 10.5293 6.18165 10.5293 5.62682 10.2872C4.58142 9.83116 3.747 8.97753 3.17671 7.99747C2.9367 7.585 2.74013 7.14457 2.59293 6.69331ZM6.5 1.71875C4.6649 1.71875 3.21875 3.1263 3.21875 4.81269C3.21875 5.69859 3.49215 6.67553 3.98701 7.52596C4.482 8.37663 5.17971 9.06934 6.00168 9.42793C6.31749 9.56569 6.68252 9.56569 6.99832 9.42793C7.8203 9.06934 8.518 8.37663 9.01299 7.52596C9.50785 6.67553 9.78125 5.69859 9.78125 4.81269C9.78125 3.1263 8.33511 1.71875 6.5 1.71875ZM6.5 4.21875C6.06853 4.21875 5.71875 4.56853 5.71875 5C5.71875 5.43147 6.06853 5.78125 6.5 5.78125C6.93147 5.78125 7.28125 5.43147 7.28125 5C7.28125 4.56853 6.93147 4.21875 6.5 4.21875ZM4.78125 5C4.78125 4.05076 5.55076 3.28125 6.5 3.28125C7.44924 3.28125 8.21875 4.05076 8.21875 5C8.21875 5.94924 7.44924 6.71875 6.5 6.71875C5.55076 6.71875 4.78125 5.94924 4.78125 5Z" fill="#00AEEF"/>
</svg>
