<svg width="30" height="30" viewBox="0 0 30 30" fill="none" xmlns="http://www.w3.org/2000/svg">
<path d="M9.54545 27.2727H4.09091C3.72925 27.2727 3.3824 27.1291 3.12667 26.8733C2.87094 26.6176 2.72727 26.2708 2.72727 25.9091V20.4545C2.72727 20.0929 2.5836 19.746 2.32787 19.4903C2.07214 19.2346 1.7253 19.0909 1.36364 19.0909C1.00198 19.0909 0.655131 19.2346 0.3994 19.4903C0.143668 19.746 0 20.0929 0 20.4545V25.9091C0 26.9941 0.431005 28.0346 1.1982 28.8018C1.96539 29.569 3.00593 30 4.09091 30H9.54545C9.90711 30 10.254 29.8563 10.5097 29.6006C10.7654 29.3449 10.9091 28.998 10.9091 28.6364C10.9091 28.2747 10.7654 27.9279 10.5097 27.6721C10.254 27.4164 9.90711 27.2727 9.54545 27.2727ZM28.6364 19.0909C28.2747 19.0909 27.9279 19.2346 27.6721 19.4903C27.4164 19.746 27.2727 20.0929 27.2727 20.4545V25.9091C27.2727 26.2708 27.1291 26.6176 26.8733 26.8733C26.6176 27.1291 26.2708 27.2727 25.9091 27.2727H20.4545C20.0929 27.2727 19.746 27.4164 19.4903 27.6721C19.2346 27.9279 19.0909 28.2747 19.0909 28.6364C19.0909 28.998 19.2346 29.3449 19.4903 29.6006C19.746 29.8563 20.0929 30 20.4545 30H25.9091C26.9941 30 28.0346 29.569 28.8018 28.8018C29.569 28.0346 30 26.9941 30 25.9091V20.4545C30 20.0929 29.8563 19.746 29.6006 19.4903C29.3449 19.2346 28.998 19.0909 28.6364 19.0909ZM25.9091 0H20.4545C20.0929 0 19.746 0.143668 19.4903 0.3994C19.2346 0.655131 19.0909 1.00198 19.0909 1.36364C19.0909 1.7253 19.2346 2.07214 19.4903 2.32787C19.746 2.5836 20.0929 2.72727 20.4545 2.72727H25.9091C26.2708 2.72727 26.6176 2.87094 26.8733 3.12667C27.1291 3.3824 27.2727 3.72925 27.2727 4.09091V9.54545C27.2727 9.90711 27.4164 10.254 27.6721 10.5097C27.9279 10.7654 28.2747 10.9091 28.6364 10.9091C28.998 10.9091 29.3449 10.7654 29.6006 10.5097C29.8563 10.254 30 9.90711 30 9.54545V4.09091C30 3.00593 29.569 1.96539 28.8018 1.1982C28.0346 0.431005 26.9941 0 25.9091 0ZM1.36364 10.9091C1.7253 10.9091 2.07214 10.7654 2.32787 10.5097C2.5836 10.254 2.72727 9.90711 2.72727 9.54545V4.09091C2.72727 3.72925 2.87094 3.3824 3.12667 3.12667C3.3824 2.87094 3.72925 2.72727 4.09091 2.72727H9.54545C9.90711 2.72727 10.254 2.5836 10.5097 2.32787C10.7654 2.07214 10.9091 1.7253 10.9091 1.36364C10.9091 1.00198 10.7654 0.655131 10.5097 0.3994C10.254 0.143668 9.90711 0 9.54545 0H4.09091C3.00593 0 1.96539 0.431005 1.1982 1.1982C0.431005 1.96539 0 3.00593 0 4.09091V9.54545C0 9.90711 0.143668 10.254 0.3994 10.5097C0.655131 10.7654 1.00198 10.9091 1.36364 10.9091ZM12.2727 5.45455H6.81818C6.45652 5.45455 6.10968 5.59821 5.85395 5.85395C5.59821 6.10968 5.45455 6.45652 5.45455 6.81818V12.2727C5.45455 12.6344 5.59821 12.9812 5.85395 13.237C6.10968 13.4927 6.45652 13.6364 6.81818 13.6364H12.2727C12.6344 13.6364 12.9812 13.4927 13.237 13.237C13.4927 12.9812 13.6364 12.6344 13.6364 12.2727V6.81818C13.6364 6.45652 13.4927 6.10968 13.237 5.85395C12.9812 5.59821 12.6344 5.45455 12.2727 5.45455ZM10.9091 10.9091H8.18182V8.18182H10.9091V10.9091ZM17.7273 13.6364H23.1818C23.5435 13.6364 23.8903 13.4927 24.1461 13.237C24.4018 12.9812 24.5455 12.6344 24.5455 12.2727V6.81818C24.5455 6.45652 24.4018 6.10968 24.1461 5.85395C23.8903 5.59821 23.5435 5.45455 23.1818 5.45455H17.7273C17.3656 5.45455 17.0188 5.59821 16.763 5.85395C16.5073 6.10968 16.3636 6.45652 16.3636 6.81818V12.2727C16.3636 12.6344 16.5073 12.9812 16.763 13.237C17.0188 13.4927 17.3656 13.6364 17.7273 13.6364ZM19.0909 8.18182H21.8182V10.9091H19.0909V8.18182ZM12.2727 16.3636H6.81818C6.45652 16.3636 6.10968 16.5073 5.85395 16.763C5.59821 17.0188 5.45455 17.3656 5.45455 17.7273V23.1818C5.45455 23.5435 5.59821 23.8903 5.85395 24.1461C6.10968 24.4018 6.45652 24.5455 6.81818 24.5455H12.2727C12.6344 24.5455 12.9812 24.4018 13.237 24.1461C13.4927 23.8903 13.6364 23.5435 13.6364 23.1818V17.7273C13.6364 17.3656 13.4927 17.0188 13.237 16.763C12.9812 16.5073 12.6344 16.3636 12.2727 16.3636ZM10.9091 21.8182H8.18182V19.0909H10.9091V21.8182ZM17.7273 20.4545C18.0889 20.4545 18.4358 20.3109 18.6915 20.0551C18.9472 19.7994 19.0909 19.4526 19.0909 19.0909C19.4526 19.0909 19.7994 18.9472 20.0551 18.6915C20.3109 18.4358 20.4545 18.0889 20.4545 17.7273C20.4545 17.3656 20.3109 17.0188 20.0551 16.763C19.7994 16.5073 19.4526 16.3636 19.0909 16.3636H17.7273C17.3656 16.3636 17.0188 16.5073 16.763 16.763C16.5073 17.0188 16.3636 17.3656 16.3636 17.7273V19.0909C16.3636 19.4526 16.5073 19.7994 16.763 20.0551C17.0188 20.3109 17.3656 20.4545 17.7273 20.4545ZM23.1818 16.3636C22.8202 16.3636 22.4733 16.5073 22.2176 16.763C21.9618 17.0188 21.8182 17.3656 21.8182 17.7273V21.8182C21.4565 21.8182 21.1097 21.9618 20.8539 22.2176C20.5982 22.4733 20.4545 22.8202 20.4545 23.1818C20.4545 23.5435 20.5982 23.8903 20.8539 24.1461C21.1097 24.4018 21.4565 24.5455 21.8182 24.5455H23.1818C23.5435 24.5455 23.8903 24.4018 24.1461 24.1461C24.4018 23.8903 24.5455 23.5435 24.5455 23.1818V17.7273C24.5455 17.3656 24.4018 17.0188 24.1461 16.763C23.8903 16.5073 23.5435 16.3636 23.1818 16.3636ZM17.7273 21.8182C17.4576 21.8182 17.1939 21.8982 16.9697 22.048C16.7454 22.1978 16.5706 22.4108 16.4674 22.66C16.3642 22.9092 16.3372 23.1833 16.3898 23.4479C16.4425 23.7124 16.5723 23.9553 16.763 24.1461C16.9537 24.3368 17.1967 24.4666 17.4612 24.5193C17.7258 24.5719 17.9999 24.5449 18.2491 24.4417C18.4983 24.3384 18.7113 24.1637 18.8611 23.9394C19.0109 23.7152 19.0909 23.4515 19.0909 23.1818C19.0909 22.8202 18.9472 22.4733 18.6915 22.2176C18.4358 21.9618 18.0889 21.8182 17.7273 21.8182Z" fill="white"/>
</svg>
