<svg width="12" height="12" viewBox="0 0 12 12" fill="none" xmlns="http://www.w3.org/2000/svg">
<path d="M0.859375 6.54688H1.72891C1.78906 6.54688 1.83828 6.49766 1.83828 6.4375V2.94707H9.06524V3.93965C9.06524 3.96563 9.07344 3.99024 9.08984 4.01075C9.09906 4.02255 9.11051 4.03242 9.12356 4.03978C9.1366 4.04714 9.15097 4.05185 9.16584 4.05363C9.18071 4.05541 9.19578 4.05422 9.21019 4.05015C9.22461 4.04608 9.23807 4.03919 9.24981 4.02989L11.209 2.4918C11.2678 2.42344 11.2582 2.35098 11.209 2.31133L9.24981 0.774613C9.22964 0.758486 9.20453 0.749796 9.17871 0.750004C9.11582 0.750004 9.06387 0.801957 9.06387 0.864847V1.85743H1.73027C1.19023 1.85743 0.75 2.29766 0.75 2.83907V6.4375C0.75 6.49766 0.799219 6.54688 0.859375 6.54688ZM11.1406 5.45313H10.2711C10.2109 5.45313 10.1617 5.50235 10.1617 5.5625V9.05293H2.93477V8.06035C2.93477 8.03438 2.92656 8.00977 2.91016 7.98926C2.90095 7.97745 2.88949 7.96758 2.87645 7.96022C2.8634 7.95286 2.84903 7.94816 2.83416 7.94638C2.81929 7.9446 2.80422 7.94578 2.78981 7.94986C2.77539 7.95393 2.76193 7.96082 2.7502 7.97012L0.791016 9.50821C0.732227 9.57656 0.741797 9.64903 0.791016 9.68867L2.7502 11.2254C2.7707 11.2418 2.79531 11.25 2.82129 11.25C2.88418 11.25 2.93613 11.198 2.93613 11.1352V10.1426H10.2725C10.8125 10.1426 11.2527 9.70235 11.2527 9.16094V5.5625C11.25 5.50235 11.2008 5.45313 11.1406 5.45313Z" fill="white"/>
</svg>
