<svg width="14" height="14" viewBox="0 0 14 14" fill="none" xmlns="http://www.w3.org/2000/svg">
<g clip-path="url(#clip0_4256_2851)">
<rect width="14" height="14" fill="white" fill-opacity="0.01"/>
<path d="M1.85938 7.54688H2.72891C2.78906 7.54688 2.83828 7.49766 2.83828 7.4375V3.94707H10.0652V4.93965C10.0652 4.96563 10.0734 4.99024 10.0898 5.01075C10.0991 5.02255 10.1105 5.03242 10.1236 5.03978C10.1366 5.04714 10.151 5.05185 10.1658 5.05363C10.1807 5.05541 10.1958 5.05422 10.2102 5.05015C10.2246 5.04608 10.2381 5.03919 10.2498 5.02989L12.209 3.4918C12.2678 3.42344 12.2582 3.35098 12.209 3.31133L10.2498 1.77461C10.2296 1.75849 10.2045 1.7498 10.1787 1.75C10.1158 1.75 10.0639 1.80196 10.0639 1.86485V2.85743H2.73027C2.19023 2.85743 1.75 3.29766 1.75 3.83907V7.4375C1.75 7.49766 1.79922 7.54688 1.85938 7.54688ZM12.1406 6.45313H11.2711C11.2109 6.45313 11.1617 6.50235 11.1617 6.5625V10.0529H3.93477V9.06035C3.93477 9.03438 3.92656 9.00977 3.91016 8.98926C3.90095 8.97745 3.88949 8.96758 3.87645 8.96022C3.8634 8.95286 3.84903 8.94816 3.83416 8.94638C3.81929 8.9446 3.80422 8.94578 3.78981 8.94986C3.77539 8.95393 3.76193 8.96082 3.7502 8.97012L1.79102 10.5082C1.73223 10.5766 1.7418 10.649 1.79102 10.6887L3.7502 12.2254C3.7707 12.2418 3.79531 12.25 3.82129 12.25C3.88418 12.25 3.93613 12.198 3.93613 12.1352V11.1426H11.2725C11.8125 11.1426 12.2527 10.7023 12.2527 10.1609V6.5625C12.25 6.50235 12.2008 6.45313 12.1406 6.45313Z" fill="black" fill-opacity="0.85"/>
</g>
<defs>
<clipPath id="clip0_4256_2851">
<rect width="14" height="14" fill="white"/>
</clipPath>
</defs>
</svg>
