<svg width="14" height="14" viewBox="0 0 14 14" fill="none" xmlns="http://www.w3.org/2000/svg">
<g clip-path="url(#clip0_1885_5754)">
<rect width="14" height="14" fill="white" fill-opacity="0.01"/>
<path d="M9.59848 9.03384C9.9766 8.83071 10.4094 8.71509 10.8704 8.71509H10.8719C10.9188 8.71509 10.9407 8.65884 10.9063 8.62759C10.4269 8.1974 9.87936 7.84995 9.28598 7.59946C9.27973 7.59634 9.27348 7.59478 9.26723 7.59165C10.2375 6.88696 10.8688 5.74165 10.8688 4.44946C10.8688 2.30884 9.13754 0.574463 7.0016 0.574463C4.86566 0.574463 3.13598 2.30884 3.13598 4.44946C3.13598 5.74165 3.76723 6.88696 4.7391 7.59165C4.73285 7.59478 4.7266 7.59634 4.72035 7.59946C4.02191 7.89477 3.39535 8.31821 2.85629 8.85884C2.32034 9.39382 1.89365 10.028 1.60004 10.726C1.31115 11.4096 1.15524 12.1419 1.14066 12.8838C1.14025 12.9005 1.14317 12.9171 1.14927 12.9326C1.15536 12.9482 1.1645 12.9623 1.17615 12.9743C1.1878 12.9862 1.20172 12.9957 1.2171 13.0022C1.23247 13.0086 1.24898 13.012 1.26566 13.012H2.2016C2.26879 13.012 2.32504 12.9573 2.3266 12.8901C2.35785 11.6838 2.84066 10.5542 3.69535 9.6979C4.57816 8.81196 5.75316 8.32446 7.00316 8.32446C7.8891 8.32446 8.7391 8.56978 9.47192 9.02915C9.49074 9.04098 9.51235 9.04764 9.53457 9.04846C9.55679 9.04929 9.57883 9.04424 9.59848 9.03384ZM7.00316 7.13696C6.28754 7.13696 5.6141 6.85728 5.10629 6.34946C4.85644 6.10026 4.65836 5.80408 4.52348 5.47799C4.38859 5.1519 4.31956 4.80235 4.32035 4.44946C4.32035 3.73228 4.60004 3.05728 5.10629 2.54946C5.61254 2.04165 6.28598 1.76196 7.00316 1.76196C7.72035 1.76196 8.39223 2.04165 8.90004 2.54946C9.14989 2.79867 9.34797 3.09484 9.48285 3.42093C9.61774 3.74702 9.68677 4.09658 9.68598 4.44946C9.68598 5.16665 9.40629 5.84165 8.90004 6.34946C8.39223 6.85728 7.71879 7.13696 7.00316 7.13696ZM12.75 10.8557H11.4375V9.54321C11.4375 9.47446 11.3813 9.41821 11.3125 9.41821H10.4375C10.3688 9.41821 10.3125 9.47446 10.3125 9.54321V10.8557H9.00004C8.93129 10.8557 8.87504 10.912 8.87504 10.9807V11.8557C8.87504 11.9245 8.93129 11.9807 9.00004 11.9807H10.3125V13.2932C10.3125 13.362 10.3688 13.4182 10.4375 13.4182H11.3125C11.3813 13.4182 11.4375 13.362 11.4375 13.2932V11.9807H12.75C12.8188 11.9807 12.875 11.9245 12.875 11.8557V10.9807C12.875 10.912 12.8188 10.8557 12.75 10.8557Z" fill="#0EAF8F"/>
</g>
<defs>
<clipPath id="clip0_1885_5754">
<rect width="14" height="14" fill="white"/>
</clipPath>
</defs>
</svg>
