<svg width="19" height="21" viewBox="0 0 19 21" fill="none" xmlns="http://www.w3.org/2000/svg">
<path fill-rule="evenodd" clip-rule="evenodd" d="M9.49999 0.197754C9.02125 0.197754 8.58043 0.341778 8.09778 0.583408C7.63172 0.816725 7.09042 1.1606 6.41637 1.5888L4.77959 2.62858C3.95233 3.15409 3.29029 3.57464 2.77912 3.98788C2.24955 4.41599 1.84166 4.86677 1.54463 5.47738C1.2486 6.08596 1.11542 6.74493 1.05156 7.5297C0.989567 8.29143 0.989572 9.22827 0.989578 10.4065V10.5932C0.989572 11.7714 0.989567 12.7082 1.05156 13.47C1.11542 14.2547 1.2486 14.9137 1.54463 15.5223C1.84167 16.1329 2.24955 16.5837 2.77912 17.0118C3.29029 17.425 3.95232 17.8456 4.77958 18.3711L6.4163 19.4108C7.09038 19.8391 7.63171 20.1829 8.09778 20.4163C8.58043 20.6579 9.02125 20.8019 9.49999 20.8019C9.97874 20.8019 10.4196 20.6579 10.9022 20.4163C11.3683 20.183 11.9096 19.8391 12.5836 19.4109L14.2204 18.3711C15.0476 17.8456 15.7097 17.425 16.2209 17.0118C16.7504 16.5837 17.1583 16.1329 17.4554 15.5223C17.7514 14.9137 17.8846 14.2547 17.9484 13.47C18.0104 12.7082 18.0104 11.7714 18.0104 10.5932V10.4064C18.0104 9.22826 18.0104 8.29143 17.9484 7.5297C17.8846 6.74493 17.7514 6.08596 17.4554 5.47738C17.1583 4.86677 16.7504 4.41599 16.2209 3.98788C15.7097 3.57464 15.0477 3.15409 14.2204 2.62857L12.5836 1.58881C11.9096 1.16061 11.3683 0.816728 10.9022 0.583408C10.4196 0.341778 9.97874 0.197754 9.49999 0.197754ZM6.94355 2.87733C7.6479 2.42988 8.1415 2.1171 8.5516 1.91179C8.95076 1.71196 9.23119 1.63525 9.49999 1.63525C9.7688 1.63525 10.0492 1.71196 10.4484 1.91179C10.8585 2.1171 11.3521 2.42988 12.0564 2.87733L13.6398 3.88315C14.5025 4.43117 15.1085 4.81723 15.5614 5.18332C15.7848 5.36392 15.9603 5.53163 16.1021 5.70026L13.4653 7.29621L6.73625 3.00902L6.94355 2.87733ZM5.49785 3.79571L5.36021 3.88315C4.49754 4.43117 3.89146 4.81723 3.43861 5.18331C3.2152 5.36392 3.03964 5.53163 2.89792 5.70026L9.49999 9.69625L12.1578 8.08761L5.66095 3.94837C5.59784 3.90816 5.54318 3.85613 5.49785 3.79571ZM2.32566 6.96106C2.28568 7.16603 2.25546 7.39879 2.23334 7.67063C2.17774 8.35374 2.17708 9.2199 2.17708 10.4438V10.5559C2.17708 11.7798 2.17774 12.6459 2.23334 13.3291C2.28771 13.9972 2.391 14.4292 2.5679 14.7929C2.74381 15.1545 2.99825 15.4604 3.43861 15.8164C3.89146 16.1824 4.49754 16.5685 5.36021 17.1165L6.94355 18.1223C7.6479 18.5698 8.1415 18.8826 8.5516 19.0879C8.68109 19.1527 8.79809 19.2046 8.90624 19.2451V10.944L2.32566 6.96106ZM10.0937 19.2451C10.2019 19.2046 10.3189 19.1527 10.4484 19.0879C10.8585 18.8826 11.3521 18.5698 12.0564 18.1223L13.6398 17.1165C14.5025 16.5685 15.1085 16.1824 15.5614 15.8164C16.0017 15.4604 16.2562 15.1545 16.4321 14.7929C16.609 14.4292 16.7123 13.9972 16.7667 13.3291C16.8222 12.6459 16.8229 11.7798 16.8229 10.5559V10.4438C16.8229 9.2199 16.8222 8.35374 16.7667 7.67063C16.7445 7.39879 16.7143 7.16603 16.6743 6.96106L14.0521 8.54821V11.4582C14.0521 11.8551 13.7862 12.1769 13.4583 12.1769C13.1304 12.1769 12.8646 11.8551 12.8646 11.4582V9.26696L10.0937 10.944V19.2451Z" fill="#EF4444"/>
</svg>
