<svg width="18" height="18" viewBox="0 0 18 18" fill="none" xmlns="http://www.w3.org/2000/svg">
<path d="M12.5366 4.01421C12.5366 3.92582 12.4642 3.8535 12.3758 3.8535H4.66155C4.57316 3.8535 4.50084 3.92582 4.50084 4.01421V4.9785C4.50084 5.06689 4.57316 5.13921 4.66155 5.13921H12.3758C12.4642 5.13921 12.5366 5.06689 12.5366 4.9785V4.01421ZM12.3758 6.74636H4.66155C4.57316 6.74636 4.50084 6.81868 4.50084 6.90707V7.87136C4.50084 7.95975 4.57316 8.03207 4.66155 8.03207H12.3758C12.4642 8.03207 12.5366 7.95975 12.5366 7.87136V6.90707C12.5366 6.81868 12.4642 6.74636 12.3758 6.74636ZM8.35798 9.63921H4.66155C4.57316 9.63921 4.50084 9.71153 4.50084 9.79993V10.7642C4.50084 10.8526 4.57316 10.9249 4.66155 10.9249H8.35798C8.44637 10.9249 8.51869 10.8526 8.51869 10.7642V9.79993C8.51869 9.71153 8.44637 9.63921 8.35798 9.63921ZM7.39369 15.8267H2.89369V1.68386H14.1437V8.59457C14.1437 8.68296 14.216 8.75528 14.3044 8.75528H15.4294C15.5178 8.75528 15.5901 8.68296 15.5901 8.59457V0.880284C15.5901 0.524704 15.3028 0.237427 14.9473 0.237427H2.09012C1.73454 0.237427 1.44727 0.524704 1.44727 0.880284V16.6303C1.44727 16.9859 1.73454 17.2731 2.09012 17.2731H7.39369C7.48209 17.2731 7.55441 17.2008 7.55441 17.1124V15.9874C7.55441 15.899 7.48209 15.8267 7.39369 15.8267ZM14.5616 14.3321C15.1441 13.8037 15.5098 13.0403 15.5098 12.1906C15.5098 10.5935 14.214 9.2977 12.6169 9.2977C11.0198 9.2977 9.72405 10.5935 9.72405 12.1906C9.72405 13.0403 10.0897 13.8037 10.6723 14.3321C9.52718 14.985 8.73968 16.1943 8.67941 17.5885C8.67539 17.6789 8.74972 17.7553 8.84012 17.7553H9.80642C9.89079 17.7553 9.96111 17.689 9.96713 17.6026C10.0455 16.2124 11.2046 15.1035 12.6169 15.1035C14.0292 15.1035 15.1883 16.2124 15.2667 17.6026C15.2707 17.687 15.341 17.7553 15.4274 17.7553H16.3937C16.4861 17.7553 16.5584 17.6789 16.5544 17.5885C16.4962 16.1923 15.7066 14.985 14.5616 14.3321ZM12.6169 10.5834C13.5049 10.5834 14.2241 11.3026 14.2241 12.1906C14.2241 13.0785 13.5049 13.7977 12.6169 13.7977C11.729 13.7977 11.0098 13.0785 11.0098 12.1906C11.0098 11.3026 11.729 10.5834 12.6169 10.5834Z" fill="#0EAF8F"/>
</svg>
