<svg width="12" height="12" viewBox="0 0 12 12" fill="none" xmlns="http://www.w3.org/2000/svg">
<path d="M4.10431 6.58333C4.10431 6.34171 3.90844 6.14583 3.66681 6.14583C3.42519 6.14583 3.22931 6.34171 3.22931 6.58333V8.91667C3.22931 9.15829 3.42519 9.35417 3.66681 9.35417C3.90844 9.35417 4.10431 9.15829 4.10431 8.91667V6.58333Z" fill="white"/>
<path d="M8.33348 6.14583C8.5751 6.14583 8.77098 6.34171 8.77098 6.58333V8.91667C8.77098 9.15829 8.5751 9.35417 8.33348 9.35417C8.09186 9.35417 7.89598 9.15829 7.89598 8.91667V6.58333C7.89598 6.34171 8.09186 6.14583 8.33348 6.14583Z" fill="white"/>
<path d="M6.43765 6.58333C6.43765 6.34171 6.24177 6.14583 6.00015 6.14583C5.75852 6.14583 5.56265 6.34171 5.56265 6.58333V8.91667C5.56265 9.15829 5.75852 9.35417 6.00015 9.35417C6.24177 9.35417 6.43765 9.15829 6.43765 8.91667V6.58333Z" fill="white"/>
<path fill-rule="evenodd" clip-rule="evenodd" d="M9.07653 1.0259C8.79912 0.917485 8.48835 0.899181 8.08962 0.896283C7.92588 0.551152 7.57421 0.3125 7.16681 0.3125H4.83348C4.42608 0.3125 4.07442 0.551152 3.91067 0.896283C3.51194 0.899182 3.20117 0.917485 2.92377 1.0259C2.59233 1.15544 2.30403 1.37565 2.09187 1.66134C1.87782 1.94956 1.77735 2.31898 1.63905 2.82744L1.27279 4.17082C1.04675 4.28657 0.848953 4.44245 0.683947 4.65379C0.321118 5.11849 0.256862 5.67198 0.321407 6.30688C0.38404 6.92296 0.577995 7.69874 0.82079 8.66987L0.836189 8.73146C0.989708 9.34558 1.11435 9.8442 1.2626 10.2333C1.41717 10.6391 1.6134 10.9716 1.93693 11.2242C2.26046 11.4768 2.63066 11.5865 3.06175 11.6381C3.47523 11.6875 3.9892 11.6875 4.62222 11.6875H7.37802C8.01104 11.6875 8.52501 11.6875 8.93849 11.6381C9.36958 11.5865 9.73978 11.4768 10.0633 11.2242C10.3868 10.9716 10.5831 10.6391 10.7376 10.2333C10.8859 9.8442 11.0105 9.34558 11.1641 8.73146L11.1794 8.6699C11.4222 7.69877 11.6162 6.92296 11.6788 6.30688C11.7434 5.67198 11.6791 5.11849 11.3163 4.65379C11.1513 4.44247 10.9535 4.2866 10.7275 4.17085L10.3612 2.82744C10.2229 2.31898 10.1225 1.94956 9.90843 1.66134C9.69626 1.37565 9.40797 1.15544 9.07653 1.0259ZM3.24229 1.84087C3.3705 1.79076 3.52542 1.77601 3.91149 1.77211C4.07559 2.11631 4.42676 2.35417 4.83348 2.35417H7.16681C7.57353 2.35417 7.9247 2.11631 8.0888 1.77211C8.47487 1.77601 8.62979 1.79076 8.75801 1.84087C8.93648 1.91062 9.09171 2.0292 9.20596 2.18303C9.30869 2.32136 9.36897 2.51463 9.53866 3.13697L9.74492 3.89341C9.13953 3.81248 8.35797 3.81249 7.38694 3.8125H4.61331C3.6423 3.81249 2.86076 3.81248 2.25538 3.8934L2.46164 3.13697C2.63133 2.51463 2.69161 2.32136 2.79434 2.18303C2.90858 2.0292 3.06382 1.91062 3.24229 1.84087ZM4.83348 1.1875C4.75294 1.1875 4.68765 1.25279 4.68765 1.33333C4.68765 1.41387 4.75294 1.47917 4.83348 1.47917H7.16681C7.24736 1.47917 7.31265 1.41387 7.31265 1.33333C7.31265 1.25279 7.24736 1.1875 7.16681 1.1875H4.83348ZM1.37363 5.19227C1.53628 4.98395 1.79352 4.84401 2.32503 4.76712C2.8679 4.68859 3.60397 4.6875 4.64951 4.6875H7.35074C8.39627 4.6875 9.13234 4.68859 9.67521 4.76712C10.2067 4.84401 10.464 4.98395 10.6266 5.19227C10.7893 5.4006 10.8626 5.68409 10.8083 6.21838C10.7528 6.76409 10.5754 7.47845 10.3218 8.49276C10.1601 9.13971 10.0474 9.58728 9.91997 9.92183C9.7967 10.2454 9.676 10.4165 9.52483 10.5345C9.37365 10.6526 9.17839 10.7282 8.8346 10.7693C8.47912 10.8118 8.0176 10.8125 7.35074 10.8125H4.64951C3.98265 10.8125 3.52113 10.8118 3.16565 10.7693C2.82185 10.7282 2.6266 10.6526 2.47542 10.5345C2.32424 10.4165 2.20354 10.2454 2.08028 9.92183C1.95282 9.58728 1.84018 9.13971 1.67844 8.49276C1.42486 7.47845 1.2474 6.76409 1.19192 6.21838C1.1376 5.68409 1.21097 5.4006 1.37363 5.19227Z" fill="white"/>
</svg>
