<svg width="102" height="68" viewBox="0 0 102 68" fill="none" xmlns="http://www.w3.org/2000/svg">
<g clip-path="url(#clip0_2182_121140)">
<path d="M83.1689 55.4965L82.9772 55.4561C83.0172 55.2666 83.0543 55.0737 83.0873 54.8828L83.2803 54.9162C83.2466 55.1095 83.2091 55.3047 83.1689 55.4965Z" fill="#292A2E"/>
<path d="M67.8771 67.9997L67.8757 67.804C68.2643 67.8009 68.6578 67.7829 69.0453 67.7504L69.0617 67.9454C68.6693 67.9783 68.2708 67.9966 67.8771 67.9997ZM66.6917 67.9646C66.2994 67.9382 65.9026 67.8961 65.5123 67.8409L65.5399 67.6472C65.9255 67.7021 66.3174 67.7432 66.7053 67.7694L66.6917 67.9646ZM70.2382 67.8019L70.2072 67.6086C70.5908 67.5469 70.9771 67.4698 71.3552 67.3793L71.4008 67.5696C71.0178 67.6613 70.6267 67.7394 70.2382 67.8019ZM64.3454 67.6304C63.96 67.546 63.5737 67.4463 63.1973 67.334L63.2534 67.1465C63.6255 67.2574 64.0066 67.3559 64.3873 67.4392L64.3454 67.6304ZM72.5427 67.2503L72.4827 67.0644C72.8522 66.9459 73.2226 66.8116 73.5834 66.6651L73.6572 66.8464C73.2917 66.9944 72.9167 67.1304 72.5427 67.2503ZM62.0743 66.9522C61.7063 66.8113 61.3393 66.6548 60.9833 66.4868L61.067 66.3097C61.4184 66.4761 61.7809 66.6303 62.1441 66.7697L62.0743 66.9522ZM74.7384 66.3593L74.6512 66.184C74.9992 66.0113 75.3453 65.8231 75.6794 65.6246L75.7794 65.7929C75.441 65.9938 75.0906 66.1842 74.7383 66.3593H74.7384ZM59.9309 65.9402C59.5889 65.7458 59.2496 65.5356 58.9223 65.3157L59.0318 65.1533C59.3549 65.3706 59.6895 65.578 60.0273 65.7698L59.9309 65.9402ZM76.7765 65.1503L76.6643 64.99C76.983 64.7671 77.2973 64.53 77.5982 64.2837L77.7222 64.4353C77.4171 64.6841 77.099 64.9248 76.7762 65.1503H76.7765ZM57.9648 64.6166C57.656 64.3729 57.3523 64.1143 57.0622 63.8477L57.1948 63.7037C57.4813 63.9669 57.7811 64.2223 58.0859 64.4631L57.9648 64.6166ZM78.6113 63.6515L78.4765 63.5096C78.7583 63.2419 79.0336 62.9602 79.2947 62.6721L79.4398 62.8034C79.1755 63.0952 78.8968 63.3805 78.6113 63.6515ZM56.2195 63.0134C55.9504 62.726 55.6888 62.4249 55.4422 62.1185L55.5947 61.9958C55.8384 62.2985 56.0967 62.5959 56.3625 62.8798L56.2195 63.0134ZM80.2024 61.8957L80.0476 61.7756C80.2863 61.4687 80.5162 61.1493 80.731 60.8249L80.8942 60.9331C80.6767 61.2609 80.4439 61.5846 80.2023 61.8957L80.2024 61.8957ZM54.7338 61.168C54.5106 60.8439 54.2969 60.5074 54.0985 60.1675L54.2677 60.0688C54.4636 60.4045 54.6747 60.737 54.8951 61.0573L54.7338 61.168ZM81.5113 59.921L81.3404 59.8256C81.5299 59.4864 81.7089 59.1355 81.8724 58.7827L82.0501 58.8648C81.8846 59.2219 81.7034 59.5773 81.5113 59.921ZM53.5397 59.1224C53.3671 58.7685 53.206 58.4036 53.0608 58.0384L53.2428 57.9661C53.3862 58.3269 53.5453 58.6871 53.7157 59.0367L53.5397 59.1224ZM82.5072 57.7719L82.3238 57.7034C82.4598 57.3402 82.5837 56.9666 82.6924 56.5928L82.8805 56.6473C82.7705 57.025 82.6448 57.4035 82.5072 57.7712V57.7719Z" fill="#292A2E"/>
<path d="M52.6623 56.9127C52.6036 56.7257 52.5483 56.5349 52.4969 56.3451L52.6859 56.2939C52.7367 56.4809 52.7916 56.6693 52.8493 56.8541L52.6623 56.9127Z" fill="#292A2E"/>
<path d="M7.63716 39.7835C7.44768 39.7274 7.25789 39.665 7.0733 39.598L7.14019 39.4141C7.32106 39.4797 7.50702 39.5413 7.69279 39.5958L7.63716 39.7835Z" fill="#292A2E"/>
<path d="M5.98328 39.1251C5.6301 38.9452 5.28837 38.7436 4.96005 38.5216L5.06982 38.3596C5.39148 38.5771 5.72627 38.7745 6.0723 38.9507L5.98328 39.1251ZM4.01927 37.7966C3.7211 37.5356 3.43925 37.2566 3.17534 36.9611L3.32145 36.8308C3.57999 37.1203 3.85611 37.3937 4.14824 37.6493L4.01927 37.7966ZM2.4404 36.0287C2.21481 35.7031 2.0093 35.3641 1.82503 35.0136L1.99836 34.9226C2.17896 35.2661 2.38034 35.5982 2.60139 35.9172L2.4404 36.0287ZM1.33814 33.9311C1.19812 33.5607 1.08097 33.182 0.987373 32.7973L1.17774 32.7511C1.2694 33.128 1.38416 33.499 1.52137 33.8619L1.33814 33.9311ZM0.778594 31.6293C0.736395 31.2642 0.71511 30.8969 0.714844 30.5294V30.444L0.910696 30.4456V30.5294C0.910835 30.8894 0.931597 31.2491 0.97288 31.6068L0.778594 31.6293ZM0.994032 29.2858L0.799942 29.2599C0.852453 28.8674 0.928913 28.4785 1.02889 28.0954L1.21838 28.1443C1.12036 28.5199 1.04534 28.9011 0.993738 29.2858H0.994032ZM1.57924 27.039L1.397 26.967C1.5427 26.5987 1.7109 26.2396 1.90063 25.8919L2.07259 25.9857C1.88668 26.3263 1.72191 26.6781 1.57924 27.039ZM2.69198 25.0013L2.53294 24.887C2.76441 24.5655 3.01551 24.2586 3.28482 23.968L3.42838 24.1011C3.16461 24.3858 2.91867 24.6864 2.69198 25.0013ZM4.27026 23.2985L4.14403 23.1488C4.44707 22.8937 4.7654 22.6573 5.09724 22.4409L5.20428 22.6048C4.87911 22.8168 4.56719 23.0484 4.27026 23.2983V23.2985ZM6.21595 22.0302L6.12978 21.8541C6.48575 21.6799 6.85202 21.5276 7.22655 21.3979L7.2906 21.5829C6.92362 21.71 6.56473 21.8593 6.21595 22.03V22.0302Z" fill="#292A2E"/>
<path d="M8.4151 21.2703L8.37427 21.0788C8.56689 21.0378 8.76343 21.0023 8.9584 20.9731L8.98778 21.1668C8.79633 21.1953 8.60381 21.23 8.4151 21.2703Z" fill="#292A2E"/>
<path d="M17.4754 42.7871C17.4769 41.7387 17.216 40.7066 16.7164 39.7846C16.2169 38.8627 15.4945 38.0802 14.6152 37.5085C13.7358 36.9367 12.7273 36.5938 11.6815 36.5109C10.6357 36.428 9.58575 36.6078 8.6272 37.0339C7.66865 37.46 6.83195 38.1189 6.19323 38.9506C5.55452 39.7824 5.13407 40.7605 4.97015 41.796C4.80623 42.8316 4.90405 43.8917 5.2547 44.8798C5.60534 45.8679 6.19769 46.7527 6.97783 47.4537C7.67817 48.0732 8.23989 48.8334 8.6263 49.6846C9.01271 50.5358 9.21513 51.4589 9.22034 52.3936V52.4004L13.126 52.405V52.3982C13.1325 51.4645 13.3362 50.5426 13.7238 49.693C14.1113 48.8433 14.674 48.085 15.375 47.4677C16.0356 46.8797 16.5643 46.1586 16.9263 45.352C17.2883 44.5453 17.4754 43.6712 17.4754 42.7871Z" fill="#0EAF8F"/>
<path opacity="0.8" d="M17.4754 42.7871C17.4769 41.7387 17.216 40.7066 16.7164 39.7846C16.2169 38.8627 15.4945 38.0802 14.6152 37.5085C13.7358 36.9367 12.7273 36.5938 11.6815 36.5109C10.6357 36.428 9.58575 36.6078 8.6272 37.0339C7.66865 37.46 6.83195 38.1189 6.19323 38.9506C5.55452 39.7824 5.13407 40.7605 4.97015 41.796C4.80623 42.8316 4.90405 43.8917 5.2547 44.8798C5.60534 45.8679 6.19769 46.7527 6.97783 47.4537C7.67817 48.0732 8.23989 48.8334 8.6263 49.6846C9.01271 50.5358 9.21513 51.4589 9.22034 52.3936V52.4004L13.126 52.405V52.3982C13.1325 51.4645 13.3362 50.5426 13.7238 49.693C14.1113 48.8433 14.674 48.085 15.375 47.4677C16.0356 46.8797 16.5643 46.1586 16.9263 45.352C17.2883 44.5453 17.4754 43.6712 17.4754 42.7871Z" fill="white"/>
<path d="M10.4002 52.4186L8.86944 43.6744C8.85613 43.5976 8.87135 43.5186 8.91223 43.4522C8.95311 43.3859 9.01684 43.3367 9.09144 43.314C9.24134 43.2613 9.4007 43.2409 9.55906 43.254C9.71743 43.2671 9.87123 43.3136 10.0104 43.3903C10.0597 43.4203 10.1062 43.4548 10.1493 43.4932C10.294 43.3641 10.4656 43.2689 10.6517 43.2145C11.2207 43.0388 11.5735 43.2628 11.7691 43.4818C11.811 43.5288 11.8492 43.579 11.8834 43.6319C12.1505 43.3383 12.4568 43.1859 12.7374 43.2176C12.806 43.2199 12.8734 43.236 12.9355 43.265C12.9977 43.2939 13.0534 43.3351 13.0992 43.3862C13.1469 43.4461 13.1695 43.5221 13.1622 43.5983L11.9125 52.4174L11.7185 52.39L12.9683 43.5708C12.9691 43.56 12.9711 43.4411 12.7154 43.4122C12.4826 43.3856 12.218 43.5339 11.9835 43.8144C12.1598 44.1975 12.1781 44.6544 12.0601 44.9235C12.0383 44.99 11.997 45.0485 11.9417 45.0913C11.8863 45.1342 11.8194 45.1595 11.7495 45.164C11.6843 45.1691 11.6191 45.1554 11.5615 45.1245C11.5039 45.0937 11.4563 45.047 11.4244 44.99C11.2766 44.7175 11.4612 44.2199 11.6952 43.873C11.7137 43.8456 11.7325 43.819 11.7516 43.7931C11.7152 43.7284 11.6721 43.6677 11.623 43.6121C11.3941 43.3559 11.0867 43.285 10.7096 43.4015C10.5514 43.4465 10.4054 43.5264 10.2822 43.6353C10.4501 43.8709 10.5598 44.1428 10.6024 44.4288C10.6768 44.8266 10.5565 44.9941 10.4782 45.0585C10.4389 45.0915 10.3913 45.1132 10.3406 45.1212C10.2899 45.1293 10.238 45.1234 10.1904 45.1041C9.96514 45.0148 9.79426 44.6306 9.80924 44.2478C9.81455 44.0279 9.88748 43.8149 10.0181 43.6379C9.98423 43.6077 9.94769 43.5806 9.90893 43.557C9.79315 43.495 9.66564 43.458 9.53465 43.4483C9.40365 43.4386 9.27208 43.4565 9.14843 43.5008C9.11955 43.5097 9.0949 43.5288 9.0791 43.5545C9.06331 43.5802 9.05746 43.6109 9.06265 43.6406L10.5934 52.3848L10.4002 52.4186ZM11.8462 43.9991C11.6186 44.3437 11.5091 44.735 11.5967 44.8964C11.6112 44.9222 11.6334 44.943 11.6602 44.9558C11.687 44.9686 11.717 44.9728 11.7463 44.9679C11.8 44.967 11.8452 44.9254 11.8807 44.8445C11.9679 44.645 11.9568 44.3035 11.8462 43.9991ZM10.1512 43.7876C10.0602 43.9271 10.0093 44.0891 10.0043 44.2556C9.9908 44.5999 10.1453 44.876 10.2621 44.9224C10.2771 44.9286 10.2936 44.9304 10.3096 44.9278C10.3257 44.9252 10.3407 44.9182 10.353 44.9075C10.3812 44.8842 10.4688 44.7836 10.4092 44.4648C10.3729 44.2231 10.2849 43.9921 10.1512 43.7875V43.7876Z" fill="white"/>
<path d="M9.22034 52.4004L13.1261 52.4049L13.1259 52.6329C13.1253 53.1505 12.919 53.6467 12.5523 54.0122C12.1856 54.3778 11.6887 54.5828 11.1708 54.5822C10.9143 54.582 10.6604 54.5312 10.4236 54.4328C10.1868 54.3345 9.97163 54.1905 9.79049 54.0091C9.60935 53.8276 9.46575 53.6123 9.36787 53.3754C9.27 53.1385 9.21978 52.8847 9.22007 52.6284L9.22034 52.4004Z" fill="#0EAF8F"/>
<path opacity="0.5" d="M9.22034 52.4004L13.1261 52.4049L13.1259 52.6329C13.1253 53.1505 12.919 53.6467 12.5523 54.0122C12.1856 54.3778 11.6887 54.5828 11.1708 54.5822C10.9143 54.582 10.6604 54.5312 10.4236 54.4328C10.1868 54.3345 9.97163 54.1905 9.79049 54.0091C9.60935 53.8276 9.46575 53.6123 9.36787 53.3754C9.27 53.1385 9.21978 52.8847 9.22007 52.6284L9.22034 52.4004Z" fill="white"/>
<path d="M10.9579 5.89484L10.7828 5.80725C10.871 5.6311 10.9663 5.45495 11.0652 5.28516L11.2345 5.38361C11.1376 5.54987 11.0445 5.72192 10.9579 5.89484Z" fill="#292A2E"/>
<path d="M28.0081 8.51714C27.9491 8.15124 27.8679 7.78926 27.765 7.43321L27.9531 7.3788C28.0582 7.74251 28.1412 8.11226 28.2015 8.48602L28.0081 8.51714ZM27.3912 6.38687C27.2454 6.04608 27.0791 5.71446 26.893 5.39386L27.0623 5.29599C27.2525 5.62348 27.4226 5.96226 27.5715 6.31044L27.3912 6.38687ZM26.2772 4.46876C26.0531 4.17368 25.811 3.89261 25.5525 3.62714L25.6928 3.49013C25.9571 3.76144 26.2045 4.04872 26.4335 4.35035L26.2772 4.46876ZM11.8513 4.45897L11.6954 4.34056C11.9248 4.03915 12.1725 3.7521 12.4371 3.48103L12.5773 3.61804C12.3184 3.88329 12.0761 4.16423 11.8517 4.45927L11.8513 4.45897ZM24.7286 2.88074C24.439 2.64923 24.1354 2.43572 23.8195 2.24141L23.9222 2.07504C24.2449 2.27359 24.5551 2.49171 24.8511 2.72818L24.7286 2.88074ZM13.4015 2.87252L13.2793 2.71956C13.5754 2.48336 13.8858 2.26556 14.2086 2.06741L14.3111 2.23378C13.9953 2.42798 13.6916 2.6414 13.4019 2.87282L13.4015 2.87252ZM22.8394 1.71775C22.5024 1.56294 22.1564 1.42879 21.8031 1.31602L21.8625 1.12959C22.2234 1.24475 22.577 1.38178 22.9212 1.53993L22.8394 1.71775ZM15.2927 1.71256L15.2114 1.53455C15.556 1.3774 15.9099 1.24135 16.2711 1.12714L16.3299 1.31377C15.9764 1.42558 15.63 1.55875 15.2927 1.71256ZM20.7259 1.04465C20.3614 0.976416 19.9931 0.93066 19.623 0.907639L19.6351 0.711914C20.0132 0.735318 20.3896 0.781989 20.7619 0.851662L20.7259 1.04465ZM17.4085 1.04406L17.3726 0.851368C17.745 0.782149 18.1214 0.735709 18.4995 0.712305L18.5115 0.908031C18.1414 0.930821 17.773 0.97615 17.4085 1.04377V1.04406Z" fill="#292A2E"/>
<path d="M28.3154 10.2131L28.1195 10.2076C28.1249 10.0152 28.1241 9.81976 28.1171 9.62677L28.3129 9.61963C28.3203 9.81682 28.3208 10.0166 28.3154 10.2131Z" fill="#292A2E"/>
<path d="M8.03535 21.6618C12.4731 21.6618 16.0707 18.0666 16.0707 13.6317C16.0707 9.19677 12.4731 5.60156 8.03535 5.60156C3.59755 5.60156 0 9.19677 0 13.6317C0 18.0666 3.59755 21.6618 8.03535 21.6618Z" fill="#0EAF8F"/>
<path opacity="0.8" d="M8.03535 21.6618C12.4731 21.6618 16.0707 18.0666 16.0707 13.6317C16.0707 9.19677 12.4731 5.60156 8.03535 5.60156C3.59755 5.60156 0 9.19677 0 13.6317C0 18.0666 3.59755 21.6618 8.03535 21.6618Z" fill="white"/>
<path d="M9.76797 13.7397C9.49905 14.3224 9.05362 14.8059 8.49469 15.1217C7.93575 15.4375 7.2916 15.5697 6.65336 15.4996C6.01512 15.4294 5.41509 15.1605 4.93816 14.7309C4.46123 14.3013 4.13154 13.7327 3.99572 13.1055C3.85991 12.4784 3.92485 11.8244 4.18135 11.2362C4.43785 10.648 4.87293 10.1552 5.42505 9.82763C5.97717 9.50005 6.61837 9.35426 7.25796 9.41085C7.89754 9.46745 8.50313 9.72358 8.98906 10.143C9.49099 10.5775 9.83828 11.163 9.97873 11.8116C10.1192 12.4601 10.0452 13.1368 9.76797 13.7397ZM4.82895 11.468C4.57628 12.0147 4.54041 12.6368 4.72858 13.209C4.91675 13.7811 5.31496 14.2607 5.84294 14.551C6.37093 14.8413 6.98941 14.9208 7.57372 14.7734C8.15803 14.626 8.6647 14.2628 8.99161 13.7569C9.31851 13.2509 9.44132 12.64 9.3353 12.0471C9.22927 11.4543 8.90229 10.9237 8.42026 10.5622C7.93824 10.2008 7.33702 10.0354 6.7378 10.0994C6.13859 10.1634 5.58595 10.4521 5.19128 10.9072C5.0448 11.0762 4.92283 11.265 4.82895 11.468Z" fill="white"/>
<path d="M12.1127 17.6646C12.0892 17.7155 12.0536 17.7598 12.009 17.7937C11.9644 17.8277 11.9121 17.8502 11.8568 17.8593C11.8015 17.8684 11.7448 17.8639 11.6917 17.8461C11.6385 17.8283 11.5905 17.7978 11.5519 17.7572L8.64692 14.7011C8.61586 14.6684 8.59155 14.6299 8.57537 14.5879C8.55918 14.5458 8.55145 14.501 8.5526 14.4559C8.55376 14.4109 8.56378 14.3665 8.5821 14.3253C8.60041 14.2842 8.62667 14.247 8.65936 14.2159C8.69205 14.1849 8.73053 14.1606 8.77262 14.1444C8.8147 14.1283 8.85957 14.1205 8.90464 14.1217C8.94972 14.1228 8.99412 14.1329 9.03533 14.1512C9.07653 14.1695 9.11372 14.1957 9.14478 14.2284L12.0496 17.2845C12.0969 17.3343 12.1283 17.3971 12.1395 17.4649C12.1508 17.5326 12.1415 17.6022 12.1127 17.6646Z" fill="white"/>
<path d="M55.8783 13.8022L55.6922 13.7422C55.7521 13.5563 55.8157 13.3681 55.8812 13.1831L56.0659 13.2485C56.0006 13.4317 55.9376 13.6179 55.8783 13.8022Z" fill="#292A2E"/>
<path d="M93.7332 15.6632C93.6518 15.2891 93.5584 14.9127 93.4553 14.5444L93.6439 14.4917C93.748 14.8636 93.8425 15.2439 93.9245 15.6216L93.7332 15.6632ZM93.1122 13.4438C92.9877 13.0817 92.8508 12.719 92.7052 12.3649L92.8863 12.2906C93.0332 12.6481 93.1717 13.0147 93.2976 13.3801L93.1122 13.4438ZM56.4825 12.1729L56.302 12.0969C56.452 11.7409 56.6148 11.3845 56.7856 11.0377L56.9613 11.1241C56.7921 11.4675 56.6308 11.8204 56.4825 12.1729ZM92.2354 11.3117C92.0689 10.9667 91.8909 10.6222 91.7051 10.2878L91.8764 10.1928C92.064 10.5304 92.2441 10.8784 92.412 11.2269L92.2354 11.3117ZM57.5009 10.1054L57.3306 10.0088C57.5217 9.67254 57.7253 9.33775 57.9357 9.01373L58.0997 9.12079C57.8917 9.44109 57.6901 9.77256 57.5009 10.1054ZM91.1163 9.29694C90.9106 8.974 90.6937 8.65222 90.47 8.34161L90.6289 8.22731C90.8548 8.54047 91.0744 8.86557 91.2816 9.19203L91.1163 9.29694ZM58.7571 8.17152L58.5995 8.05536C58.8291 7.74396 59.071 7.4354 59.3186 7.13819L59.4691 7.26346C59.224 7.55773 58.9845 7.86316 58.7571 8.17152ZM89.7691 7.42532C89.5277 7.12841 89.2741 6.83472 89.0151 6.55229L89.1595 6.42008C89.4209 6.70535 89.677 7.00207 89.9208 7.30182L89.7691 7.42532ZM60.2336 6.39923L60.0908 6.26526C60.3552 5.98332 60.6321 5.70548 60.9134 5.43959L61.048 5.58169C60.7696 5.84504 60.4956 6.12003 60.2336 6.39923ZM88.2112 5.72496C87.936 5.45809 87.6496 5.1965 87.3592 4.94656L87.4871 4.7983C87.7798 5.05049 88.0692 5.31501 88.3471 5.58453L88.2112 5.72496ZM61.9091 4.81366L61.783 4.66384C62.0787 4.41527 62.3861 4.17188 62.6965 3.94053L62.814 4.09711C62.5057 4.3265 62.2014 4.56744 61.9091 4.81366ZM86.4638 4.21983C86.1594 3.98751 85.8439 3.76125 85.5262 3.54732L85.6355 3.38497C85.9566 3.60105 86.2752 3.82966 86.5826 4.06423L86.4638 4.21983ZM63.758 3.43556L63.6503 3.27213C63.9735 3.05967 64.307 2.85397 64.6421 2.66069L64.74 2.83019C64.4081 3.02151 64.0778 3.22526 63.758 3.43556ZM84.5496 2.93138C84.2205 2.73702 83.8806 2.54971 83.5396 2.37473L83.6291 2.20054C83.9735 2.37738 84.3168 2.56664 84.6493 2.76286L84.5496 2.93138ZM65.7555 2.28313L65.6674 2.10816C66.0131 1.93484 66.3683 1.76945 66.7235 1.61659L66.801 1.79637C66.4496 1.94746 66.0978 2.11148 65.7555 2.28313ZM82.4989 1.87896C82.1489 1.72463 81.7893 1.57843 81.4304 1.44445L81.4989 1.26106C81.8613 1.3964 82.2246 1.54398 82.5781 1.69987L82.4989 1.87896ZM67.8738 1.37145L67.8069 1.18746C68.1705 1.05555 68.5426 0.933022 68.9134 0.822437L68.9695 1.01004C68.6022 1.11935 68.2336 1.2409 67.8738 1.37145ZM80.3388 1.07208C79.9719 0.958857 79.5978 0.855221 79.227 0.764013L79.2738 0.573866C79.6482 0.666053 80.026 0.770765 80.3966 0.885069L80.3388 1.07208ZM70.0836 0.713614L70.0387 0.523075C70.4155 0.434999 70.7995 0.356709 71.18 0.29026L71.2134 0.483147C70.8367 0.54803 70.4567 0.62632 70.0836 0.713614ZM78.0985 0.521118C77.7215 0.45144 77.3379 0.392135 76.9584 0.344966L76.9826 0.150806C77.3659 0.198465 77.7534 0.258455 78.1341 0.32872L78.0985 0.521118ZM72.3547 0.319423L72.3326 0.12497C72.7168 0.0814216 73.1071 0.0488334 73.493 0.0280866L73.5035 0.223812C73.1216 0.244069 72.735 0.276364 72.3547 0.319423ZM75.8097 0.23624C75.4278 0.211481 75.04 0.19778 74.6568 0.195725L74.6578 0C75.045 0.00205511 75.4368 0.0158537 75.8224 0.0409065L75.8097 0.23624Z" fill="#292A2E"/>
<path d="M94.0268 17.3811C94.0027 17.1886 93.9753 16.9938 93.9454 16.8025L94.139 16.7725C94.1692 16.9656 94.1968 17.1622 94.2212 17.3567L94.0268 17.3811Z" fill="#292A2E"/>
<path d="M97.4696 24.0219C97.3277 23.8903 97.181 23.76 97.0336 23.6343L97.1609 23.4854C97.3105 23.6126 97.4592 23.745 97.6032 23.8785L97.4696 24.0219Z" fill="#292A2E"/>
<path d="M88.5826 47.7252L88.5774 47.5295C88.9585 47.5197 89.3437 47.4931 89.7223 47.4512L89.7439 47.6457C89.3599 47.6883 88.9692 47.715 88.5826 47.7252ZM87.4186 47.7071C87.0323 47.6848 86.6426 47.6458 86.2603 47.5911L86.288 47.3975C86.6648 47.4513 87.0491 47.4897 87.4299 47.5117L87.4186 47.7071ZM90.895 47.4691L90.8571 47.2771C91.2313 47.2034 91.6067 47.1129 91.9727 47.0083L92.0267 47.1963C91.6549 47.3026 91.2741 47.3947 90.8946 47.4691H90.895ZM93.1314 46.8293L93.0619 46.6464C93.4185 46.5109 93.7733 46.3585 94.1166 46.1936L94.2014 46.3698C93.8526 46.5373 93.4929 46.6919 93.131 46.8293H93.1314ZM95.2285 45.8213L95.1289 45.6527C95.4574 45.4589 95.7814 45.2487 96.0916 45.0279L96.2053 45.1874C95.89 45.4117 95.5614 45.625 95.2281 45.8217L95.2285 45.8213ZM97.1247 44.4728L96.9979 44.3235C97.2883 44.0775 97.5721 43.8154 97.8415 43.5448L97.9803 43.6829C97.7066 43.9578 97.4187 44.224 97.1243 44.4732L97.1247 44.4728ZM98.766 42.8247L98.6162 42.6987C98.8621 42.4066 99.0982 42.1017 99.3178 41.7912L99.4777 41.9042C99.2546 42.2193 99.015 42.5289 98.7656 42.8251L98.766 42.8247ZM100.109 40.9275L99.9406 40.8283C100.134 40.5003 100.315 40.1598 100.479 39.8162L100.655 39.9007C100.489 40.2497 100.305 40.5951 100.109 40.9279L100.109 40.9275ZM101.114 38.8311L100.931 38.7619C101.065 38.4056 101.186 38.0392 101.29 37.6729L101.479 37.7264C101.373 38.0984 101.25 38.4696 101.113 38.8317L101.114 38.8311ZM101.748 36.5947L101.556 36.5574C101.628 36.184 101.686 35.8024 101.727 35.4234L101.921 35.4443C101.88 35.8291 101.821 36.2162 101.748 36.5951L101.748 36.5947ZM101.997 34.2834L101.801 34.279C101.803 34.1754 101.805 34.0719 101.805 33.9685C101.805 33.6906 101.796 33.4094 101.779 33.1323L101.975 33.1204C101.992 33.4013 102.001 33.6866 102.001 33.9685C102 34.0736 101.999 34.1787 101.996 34.2838L101.997 34.2834ZM101.661 31.9916C101.605 31.6145 101.533 31.2354 101.447 30.8648L101.638 30.8202C101.726 31.1962 101.798 31.5807 101.854 31.9633L101.661 31.9916ZM101.138 29.7599C101.021 29.3978 100.886 29.0357 100.738 28.6851L100.919 28.609C101.069 28.9651 101.205 29.332 101.325 29.6995L101.138 29.7599ZM100.249 27.6477C100.071 27.3105 99.8775 26.9768 99.6723 26.6559L99.8374 26.5505C100.046 26.876 100.242 27.2146 100.422 27.5568L100.249 27.6477ZM99.0137 25.7165C98.7822 25.4146 98.5345 25.1185 98.2775 24.8364L98.4223 24.7046C98.6831 24.9908 98.9343 25.2912 99.1692 25.5975L99.0137 25.7165Z" fill="#292A2E"/>
<path d="M85.1126 47.3775C84.9213 47.3333 84.7283 47.2844 84.5389 47.232L84.5911 47.0435C84.7779 47.095 84.9681 47.1433 85.1567 47.1867L85.1126 47.3775Z" fill="#292A2E"/>
<path d="M95.0327 25.4543C98.8266 25.4543 101.902 22.3808 101.902 18.5895C101.902 14.7981 98.8266 11.7246 95.0327 11.7246C91.2389 11.7246 88.1634 14.7981 88.1634 18.5895C88.1634 22.3808 91.2389 25.4543 95.0327 25.4543Z" fill="white"/>
<path opacity="0.2" d="M95.0327 25.4543C98.8266 25.4543 101.902 22.3808 101.902 18.5895C101.902 14.7981 98.8266 11.7246 95.0327 11.7246C91.2389 11.7246 88.1634 14.7981 88.1634 18.5895C88.1634 22.3808 91.2389 25.4543 95.0327 25.4543Z" fill="#0EAF8F"/>
<path d="M95.0327 23.8391C97.9339 23.8391 100.286 21.4888 100.286 18.5895C100.286 15.6902 97.9339 13.3398 95.0327 13.3398C92.1315 13.3398 89.7797 15.6902 89.7797 18.5895C89.7797 21.4888 92.1315 23.8391 95.0327 23.8391Z" fill="white"/>
<path opacity="0.2" d="M95.0327 22.2237C97.0412 22.2237 98.6694 20.5966 98.6694 18.5894C98.6694 16.5822 97.0412 14.9551 95.0327 14.9551C93.0243 14.9551 91.3961 16.5822 91.3961 18.5894C91.3961 20.5966 93.0243 22.2237 95.0327 22.2237Z" fill="#0EAF8F"/>
<path d="M95.0327 20.6085C96.1486 20.6085 97.0532 19.7045 97.0532 18.5894C97.0532 17.4743 96.1486 16.5703 95.0327 16.5703C93.9169 16.5703 93.0123 17.4743 93.0123 18.5894C93.0123 19.7045 93.9169 20.6085 95.0327 20.6085Z" fill="white"/>
<path opacity="0.2" d="M95.0327 19.2277C95.3854 19.2277 95.6714 18.9419 95.6714 18.5894C95.6714 18.2369 95.3854 17.9512 95.0327 17.9512C94.68 17.9512 94.394 18.2369 94.394 18.5894C94.394 18.9419 94.68 19.2277 95.0327 19.2277Z" fill="#0EAF8F"/>
<path d="M97.9438 50.8827H96.4915C96.3761 50.8829 96.2635 50.8472 96.1693 50.7806C96.0751 50.7139 96.0039 50.6197 95.9657 50.5109C95.8545 50.1919 95.7231 49.8804 95.5721 49.5782C95.5199 49.4737 95.502 49.3554 95.521 49.2401C95.54 49.1249 95.5948 49.0185 95.6778 48.9362L96.7099 47.9048C96.8148 47.7999 96.8737 47.6577 96.8737 47.5094C96.8737 47.3611 96.8148 47.2189 96.7099 47.114L94.4801 44.8867C94.3752 44.7819 94.2329 44.723 94.0845 44.723C93.9361 44.723 93.7938 44.7819 93.6889 44.8867L92.6383 45.9367C92.5565 46.0187 92.4511 46.0732 92.3368 46.0925C92.2225 46.1118 92.1051 46.095 92.0008 46.0443C91.7043 45.8995 91.3988 45.7737 91.0863 45.6675C90.9762 45.63 90.8806 45.559 90.8129 45.4644C90.7453 45.3697 90.709 45.2563 90.7092 45.1401V43.6525C90.7092 43.5792 90.6948 43.5065 90.6667 43.4387C90.6386 43.3709 90.5974 43.3093 90.5455 43.2574C90.4936 43.2055 90.4319 43.1643 90.3641 43.1363C90.2963 43.1082 90.2236 43.0937 90.1501 43.0938H86.9978C86.9243 43.0937 86.8516 43.1081 86.7837 43.1362C86.7159 43.1643 86.6542 43.2054 86.6023 43.2573C86.5503 43.3092 86.5091 43.3708 86.481 43.4386C86.4529 43.5065 86.4385 43.5791 86.4385 43.6525V45.1401C86.4387 45.2563 86.4025 45.3697 86.3349 45.4643C86.2673 45.559 86.1717 45.63 86.0616 45.6675C85.749 45.7736 85.4435 45.8995 85.1469 46.0443C85.0426 46.095 84.9252 46.1118 84.8109 46.0925C84.6966 46.0732 84.5912 46.0187 84.5094 45.9367L83.4586 44.8866C83.3537 44.7818 83.2114 44.7229 83.063 44.7229C82.9146 44.7229 82.7723 44.7818 82.6674 44.8866L80.4377 47.1139C80.3328 47.2188 80.2738 47.361 80.2738 47.5093C80.2738 47.6576 80.3328 47.7998 80.4377 47.9047L81.4697 48.9361C81.5527 49.0185 81.6075 49.1248 81.6265 49.24C81.6455 49.3553 81.6277 49.4736 81.5756 49.5781C81.4245 49.8801 81.2933 50.1917 81.1829 50.5108C81.1443 50.6196 81.0729 50.7138 80.9786 50.7804C80.8842 50.847 80.7715 50.8827 80.656 50.8826H79.2037C79.1303 50.8826 79.0576 50.8971 78.9897 50.9251C78.9219 50.9532 78.8603 50.9944 78.8083 51.0463C78.7564 51.0982 78.7152 51.1598 78.6872 51.2276C78.6591 51.2954 78.6446 51.368 78.6447 51.4414V54.5926C78.6446 54.666 78.6591 54.7387 78.6872 54.8065C78.7152 54.8743 78.7564 54.9359 78.8083 54.9878C78.8603 55.0396 78.9219 55.0808 78.9897 55.1089C79.0576 55.137 79.1303 55.1514 79.2037 55.1514H80.6178C80.7354 55.1513 80.8501 55.1883 80.9454 55.2572C81.0407 55.3261 81.1118 55.4233 81.1485 55.535C81.2577 55.8626 81.3882 56.1826 81.5394 56.4931C81.5906 56.5977 81.608 56.7156 81.589 56.8305C81.57 56.9454 81.5157 57.0515 81.4335 57.1341L80.4377 58.1294C80.3857 58.1812 80.3445 58.2427 80.3164 58.3105C80.2882 58.3782 80.2738 58.4509 80.2738 58.5242C80.2738 58.5976 80.2882 58.6702 80.3164 58.738C80.3445 58.8057 80.3857 58.8673 80.4377 58.9191L82.6674 61.1474C82.7723 61.2522 82.9146 61.3111 83.063 61.3111C83.2114 61.3111 83.3537 61.2522 83.4586 61.1474L84.435 60.1717C84.5182 60.0888 84.6254 60.0342 84.7414 60.0156C84.8574 59.997 84.9764 60.0153 85.0814 60.068C85.3972 60.2257 85.7234 60.3617 86.0577 60.4751C86.1685 60.5126 86.2649 60.5838 86.3332 60.6787C86.4015 60.7737 86.4384 60.8876 86.4386 61.0046V62.3805C86.4385 62.454 86.4529 62.5268 86.4809 62.5947C86.509 62.6626 86.5501 62.7243 86.6021 62.7763C86.654 62.8283 86.7157 62.8695 86.7836 62.8977C86.8516 62.9258 86.9244 62.9403 86.9979 62.9403H90.1501C90.2236 62.9403 90.2964 62.9258 90.3643 62.8976C90.4322 62.8695 90.4939 62.8282 90.5458 62.7762C90.5977 62.7242 90.6389 62.6625 90.6669 62.5946C90.6949 62.5267 90.7093 62.454 90.7092 62.3805V61.0046C90.7094 60.8876 90.7463 60.7737 90.8146 60.6787C90.8829 60.5838 90.9793 60.5126 91.0901 60.4751C91.4244 60.3617 91.7506 60.2257 92.0664 60.068C92.1714 60.0153 92.2904 59.997 92.4064 60.0156C92.5224 60.0342 92.6295 60.0889 92.7128 60.1717L93.6891 61.1474C93.794 61.2522 93.9363 61.3111 94.0847 61.3111C94.2331 61.3111 94.3754 61.2522 94.4803 61.1474L96.7101 58.9191C96.7621 58.8673 96.8033 58.8057 96.8314 58.738C96.8596 58.6702 96.874 58.5976 96.874 58.5242C96.874 58.4509 96.8596 58.3782 96.8314 58.3105C96.8033 58.2427 96.7621 58.1812 96.7101 58.1294L95.7142 57.1341C95.632 57.0515 95.5777 56.9454 95.5587 56.8305C95.5398 56.7156 95.5572 56.5977 95.6084 56.4931C95.7595 56.1826 95.89 55.8626 95.9992 55.535C96.0359 55.4233 96.107 55.3261 96.2023 55.2572C96.2976 55.1883 96.4123 55.1513 96.5299 55.1514H97.944C98.0174 55.1514 98.0902 55.137 98.158 55.1089C98.2259 55.0809 98.2875 55.0397 98.3395 54.9878C98.3914 54.9359 98.4326 54.8743 98.4607 54.8065C98.4887 54.7387 98.5032 54.666 98.5031 54.5926V51.4414C98.5032 51.368 98.4887 51.2953 98.4606 51.2275C98.4325 51.1597 98.3913 51.0981 98.3393 51.0462C98.2874 50.9943 98.2257 50.9532 98.1578 50.9251C98.09 50.8971 98.0172 50.8827 97.9438 50.8827ZM88.5742 57.6734C87.6525 57.6735 86.7515 57.4005 85.9851 56.8888C85.2188 56.3771 84.6214 55.6499 84.2687 54.7989C83.9159 53.948 83.8236 53.0116 84.0034 52.1082C84.1832 51.2049 84.627 50.3751 85.2787 49.7238C85.9304 49.0725 86.7608 48.629 87.6647 48.4493C88.5687 48.2696 89.5057 48.3619 90.3572 48.7144C91.2087 49.0669 91.9364 49.6639 92.4484 50.4298C92.9604 51.1956 93.2336 52.096 93.2335 53.0171C93.2334 54.252 92.7425 55.4362 91.8688 56.3094C90.995 57.1826 89.81 57.6732 88.5744 57.6734H88.5742Z" fill="#0EAF8F"/>
<path opacity="0.8" d="M97.9438 50.8827H96.4915C96.3761 50.8829 96.2635 50.8472 96.1693 50.7806C96.0751 50.7139 96.0039 50.6197 95.9657 50.5109C95.8545 50.1919 95.7231 49.8804 95.5721 49.5782C95.5199 49.4737 95.502 49.3554 95.521 49.2401C95.54 49.1249 95.5948 49.0185 95.6778 48.9362L96.7099 47.9048C96.8148 47.7999 96.8737 47.6577 96.8737 47.5094C96.8737 47.3611 96.8148 47.2189 96.7099 47.114L94.4801 44.8867C94.3752 44.7819 94.2329 44.723 94.0845 44.723C93.9361 44.723 93.7938 44.7819 93.6889 44.8867L92.6383 45.9367C92.5565 46.0187 92.4511 46.0732 92.3368 46.0925C92.2225 46.1118 92.1051 46.095 92.0008 46.0443C91.7043 45.8995 91.3988 45.7737 91.0863 45.6675C90.9762 45.63 90.8806 45.559 90.8129 45.4644C90.7453 45.3697 90.709 45.2563 90.7092 45.1401V43.6525C90.7092 43.5792 90.6948 43.5065 90.6667 43.4387C90.6386 43.3709 90.5974 43.3093 90.5455 43.2574C90.4936 43.2055 90.4319 43.1643 90.3641 43.1363C90.2963 43.1082 90.2236 43.0937 90.1501 43.0938H86.9978C86.9243 43.0937 86.8516 43.1081 86.7837 43.1362C86.7159 43.1643 86.6542 43.2054 86.6023 43.2573C86.5503 43.3092 86.5091 43.3708 86.481 43.4386C86.4529 43.5065 86.4385 43.5791 86.4385 43.6525V45.1401C86.4387 45.2563 86.4025 45.3697 86.3349 45.4643C86.2673 45.559 86.1717 45.63 86.0616 45.6675C85.749 45.7736 85.4435 45.8995 85.1469 46.0443C85.0426 46.095 84.9252 46.1118 84.8109 46.0925C84.6966 46.0732 84.5912 46.0187 84.5094 45.9367L83.4586 44.8866C83.3537 44.7818 83.2114 44.7229 83.063 44.7229C82.9146 44.7229 82.7723 44.7818 82.6674 44.8866L80.4377 47.1139C80.3328 47.2188 80.2738 47.361 80.2738 47.5093C80.2738 47.6576 80.3328 47.7998 80.4377 47.9047L81.4697 48.9361C81.5527 49.0185 81.6075 49.1248 81.6265 49.24C81.6455 49.3553 81.6277 49.4736 81.5756 49.5781C81.4245 49.8801 81.2933 50.1917 81.1829 50.5108C81.1443 50.6196 81.0729 50.7138 80.9786 50.7804C80.8842 50.847 80.7715 50.8827 80.656 50.8826H79.2037C79.1303 50.8826 79.0576 50.8971 78.9897 50.9251C78.9219 50.9532 78.8603 50.9944 78.8083 51.0463C78.7564 51.0982 78.7152 51.1598 78.6872 51.2276C78.6591 51.2954 78.6446 51.368 78.6447 51.4414V54.5926C78.6446 54.666 78.6591 54.7387 78.6872 54.8065C78.7152 54.8743 78.7564 54.9359 78.8083 54.9878C78.8603 55.0396 78.9219 55.0808 78.9897 55.1089C79.0576 55.137 79.1303 55.1514 79.2037 55.1514H80.6178C80.7354 55.1513 80.8501 55.1883 80.9454 55.2572C81.0407 55.3261 81.1118 55.4233 81.1485 55.535C81.2577 55.8626 81.3882 56.1826 81.5394 56.4931C81.5906 56.5977 81.608 56.7156 81.589 56.8305C81.57 56.9454 81.5157 57.0515 81.4335 57.1341L80.4377 58.1294C80.3857 58.1812 80.3445 58.2427 80.3164 58.3105C80.2882 58.3782 80.2738 58.4509 80.2738 58.5242C80.2738 58.5976 80.2882 58.6702 80.3164 58.738C80.3445 58.8057 80.3857 58.8673 80.4377 58.9191L82.6674 61.1474C82.7723 61.2522 82.9146 61.3111 83.063 61.3111C83.2114 61.3111 83.3537 61.2522 83.4586 61.1474L84.435 60.1717C84.5182 60.0888 84.6254 60.0342 84.7414 60.0156C84.8574 59.997 84.9764 60.0153 85.0814 60.068C85.3972 60.2257 85.7234 60.3617 86.0577 60.4751C86.1685 60.5126 86.2649 60.5838 86.3332 60.6787C86.4015 60.7737 86.4384 60.8876 86.4386 61.0046V62.3805C86.4385 62.454 86.4529 62.5268 86.4809 62.5947C86.509 62.6626 86.5501 62.7243 86.6021 62.7763C86.654 62.8283 86.7157 62.8695 86.7836 62.8977C86.8516 62.9258 86.9244 62.9403 86.9979 62.9403H90.1501C90.2236 62.9403 90.2964 62.9258 90.3643 62.8976C90.4322 62.8695 90.4939 62.8282 90.5458 62.7762C90.5977 62.7242 90.6389 62.6625 90.6669 62.5946C90.6949 62.5267 90.7093 62.454 90.7092 62.3805V61.0046C90.7094 60.8876 90.7463 60.7737 90.8146 60.6787C90.8829 60.5838 90.9793 60.5126 91.0901 60.4751C91.4244 60.3617 91.7506 60.2257 92.0664 60.068C92.1714 60.0153 92.2904 59.997 92.4064 60.0156C92.5224 60.0342 92.6295 60.0889 92.7128 60.1717L93.6891 61.1474C93.794 61.2522 93.9363 61.3111 94.0847 61.3111C94.2331 61.3111 94.3754 61.2522 94.4803 61.1474L96.7101 58.9191C96.7621 58.8673 96.8033 58.8057 96.8314 58.738C96.8596 58.6702 96.874 58.5976 96.874 58.5242C96.874 58.4509 96.8596 58.3782 96.8314 58.3105C96.8033 58.2427 96.7621 58.1812 96.7101 58.1294L95.7142 57.1341C95.632 57.0515 95.5777 56.9454 95.5587 56.8305C95.5398 56.7156 95.5572 56.5977 95.6084 56.4931C95.7595 56.1826 95.89 55.8626 95.9992 55.535C96.0359 55.4233 96.107 55.3261 96.2023 55.2572C96.2976 55.1883 96.4123 55.1513 96.5299 55.1514H97.944C98.0174 55.1514 98.0902 55.137 98.158 55.1089C98.2259 55.0809 98.2875 55.0397 98.3395 54.9878C98.3914 54.9359 98.4326 54.8743 98.4607 54.8065C98.4887 54.7387 98.5032 54.666 98.5031 54.5926V51.4414C98.5032 51.368 98.4887 51.2953 98.4606 51.2275C98.4325 51.1597 98.3913 51.0981 98.3393 51.0462C98.2874 50.9943 98.2257 50.9532 98.1578 50.9251C98.09 50.8971 98.0172 50.8827 97.9438 50.8827ZM88.5742 57.6734C87.6525 57.6735 86.7515 57.4005 85.9851 56.8888C85.2188 56.3771 84.6214 55.6499 84.2687 54.7989C83.9159 53.948 83.8236 53.0116 84.0034 52.1082C84.1832 51.2049 84.627 50.3751 85.2787 49.7238C85.9304 49.0725 86.7608 48.629 87.6647 48.4493C88.5687 48.2696 89.5057 48.3619 90.3572 48.7144C91.2087 49.0669 91.9364 49.6639 92.4484 50.4298C92.9604 51.1956 93.2336 52.096 93.2335 53.0171C93.2334 54.252 92.7425 55.4362 91.8688 56.3094C90.995 57.1826 89.81 57.6732 88.5744 57.6734H88.5742Z" fill="white"/>
<path d="M84.2376 5.69922H18.1678C16.5453 5.69922 15.23 7.01366 15.23 8.6351V56.9768C15.23 58.5982 16.5453 59.9126 18.1678 59.9126H84.2376C85.8601 59.9126 87.1754 58.5982 87.1754 56.9768V8.6351C87.1754 7.01366 85.8601 5.69922 84.2376 5.69922Z" fill="white"/>
<path d="M84.2377 60.0107H18.1679C17.363 60.0098 16.5914 59.6898 16.0223 59.1211C15.4532 58.5524 15.1331 57.7813 15.1321 56.977V8.6353C15.1331 7.83099 15.4532 7.05989 16.0223 6.49115C16.5914 5.92242 17.363 5.60249 18.1679 5.60156H84.2377C85.0425 5.60249 85.8141 5.92242 86.3832 6.49115C86.9523 7.05989 87.2725 7.83099 87.2734 8.6353V56.977C87.2725 57.7813 86.9523 58.5524 86.3832 59.1211C85.8141 59.6898 85.0425 60.0098 84.2377 60.0107ZM18.1679 5.79729C17.4149 5.79812 16.6931 6.09739 16.1607 6.62944C15.6283 7.16149 15.3288 7.88287 15.328 8.6353V56.977C15.3288 57.7294 15.6283 58.4507 16.1607 58.9828C16.6931 59.5148 17.4149 59.8141 18.1679 59.815H84.2377C84.9906 59.8141 85.7124 59.5148 86.2448 58.9828C86.7772 58.4507 87.0767 57.7294 87.0776 56.977V8.6353C87.0767 7.88288 86.7772 7.16151 86.2448 6.62947C85.7124 6.09742 84.9906 5.79814 84.2377 5.79729H18.1679Z" fill="#292A2E"/>
<path d="M82.35 45.1836H19.8556C18.9888 45.1836 18.2861 45.8859 18.2861 46.7521V55.3958C18.2861 56.262 18.9888 56.9643 19.8556 56.9643H82.35C83.2168 56.9643 83.9196 56.262 83.9196 55.3958V46.7521C83.9196 45.8859 83.2168 45.1836 82.35 45.1836Z" fill="#0EAF8F"/>
<path d="M82.35 30.0122H19.8556C18.9888 30.0122 18.2861 30.7145 18.2861 31.5807V40.2244C18.2861 41.0906 18.9888 41.7929 19.8556 41.7929H82.35C83.2168 41.7929 83.9196 41.0906 83.9196 40.2244V31.5807C83.9196 30.7145 83.2168 30.0122 82.35 30.0122Z" fill="#0EAF8F"/>
<g opacity="0.9">
<path d="M82.35 45.1836H19.8556C18.9888 45.1836 18.2861 45.8859 18.2861 46.7521V55.3958C18.2861 56.262 18.9888 56.9643 19.8556 56.9643H82.35C83.2168 56.9643 83.9196 56.262 83.9196 55.3958V46.7521C83.9196 45.8859 83.2168 45.1836 82.35 45.1836Z" fill="white"/>
</g>
<g opacity="0.9">
<path d="M82.35 30.0122H19.8556C18.9888 30.0122 18.2861 30.7145 18.2861 31.5807V40.2244C18.2861 41.0906 18.9888 41.7929 19.8556 41.7929H82.35C83.2168 41.7929 83.9196 41.0906 83.9196 40.2244V31.5807C83.9196 30.7145 83.2168 30.0122 82.35 30.0122Z" fill="white"/>
</g>
<path d="M82.35 14.8408H19.8556C18.9888 14.8408 18.2861 15.5431 18.2861 16.4094V25.053C18.2861 25.9193 18.9888 26.6215 19.8556 26.6215H82.35C83.2168 26.6215 83.9196 25.9193 83.9196 25.053V16.4094C83.9196 15.5431 83.2168 14.8408 82.35 14.8408Z" fill="#0EAF8F"/>
<path opacity="0.2" d="M82.35 14.8408H19.8556C18.9888 14.8408 18.2861 15.5431 18.2861 16.4094V25.053C18.2861 25.9193 18.9888 26.6215 19.8556 26.6215H82.35C83.2168 26.6215 83.9196 25.9193 83.9196 25.053V16.4094C83.9196 15.5431 83.2168 14.8408 82.35 14.8408Z" fill="white"/>
<path d="M82.35 26.7196H19.8556C19.4135 26.7191 18.9896 26.5433 18.677 26.2308C18.3644 25.9184 18.1886 25.4947 18.1882 25.0529V16.4097C18.1887 15.9679 18.3645 15.5443 18.6771 15.2319C18.9897 14.9194 19.4135 14.7437 19.8556 14.7432H82.35C82.7921 14.7437 83.216 14.9194 83.5286 15.2318C83.8412 15.5442 84.0171 15.9678 84.0176 16.4097V25.0529C84.0171 25.4948 83.8413 25.9184 83.5287 26.2309C83.216 26.5433 82.7921 26.7191 82.35 26.7196ZM19.8556 14.9389C19.4655 14.9394 19.0914 15.0945 18.8155 15.3702C18.5397 15.6459 18.3845 16.0198 18.3841 16.4097V25.0529C18.3845 25.4428 18.5397 25.8166 18.8155 26.0924C19.0914 26.3681 19.4655 26.5232 19.8556 26.5237H82.35C82.7402 26.5232 83.1143 26.3681 83.3902 26.0924C83.6661 25.8167 83.8213 25.4428 83.8217 25.0529V16.4097C83.8213 16.0197 83.6661 15.6459 83.3902 15.3702C83.1143 15.0944 82.7402 14.9393 82.35 14.9389H19.8556Z" fill="#292A2E"/>
<path d="M38.4644 16.8877H21.5281C21.0908 16.8877 20.7362 17.242 20.7362 17.6791C20.7362 18.1162 21.0908 18.4705 21.5281 18.4705H38.4644C38.9018 18.4705 39.2563 18.1162 39.2563 17.6791C39.2563 17.242 38.9018 16.8877 38.4644 16.8877Z" fill="white"/>
<path d="M52.5914 24.6825H20.736C20.71 24.6825 20.6851 24.6722 20.6667 24.6539C20.6484 24.6355 20.6381 24.6106 20.6381 24.5847C20.6381 24.5587 20.6484 24.5338 20.6667 24.5155C20.6851 24.4971 20.71 24.4868 20.736 24.4868H52.5914C52.6174 24.4868 52.6423 24.4971 52.6607 24.5155C52.679 24.5338 52.6894 24.5587 52.6894 24.5847C52.6894 24.6106 52.679 24.6355 52.6607 24.6539C52.6423 24.6722 52.6174 24.6825 52.5914 24.6825Z" fill="white"/>
<path d="M81.1859 22.603H20.736C20.71 22.603 20.6851 22.5926 20.6667 22.5743C20.6484 22.5559 20.6381 22.531 20.6381 22.5051C20.6381 22.4791 20.6484 22.4542 20.6667 22.4359C20.6851 22.4175 20.71 22.4072 20.736 22.4072H81.1859C81.2119 22.4072 81.2368 22.4175 81.2552 22.4359C81.2735 22.4542 81.2839 22.4791 81.2839 22.5051C81.2839 22.531 81.2735 22.5559 81.2552 22.5743C81.2368 22.5926 81.2119 22.603 81.1859 22.603Z" fill="white"/>
<path d="M81.1859 20.5229H20.736C20.71 20.5229 20.6851 20.5126 20.6667 20.4942C20.6484 20.4759 20.6381 20.451 20.6381 20.425C20.6381 20.3991 20.6484 20.3742 20.6667 20.3558C20.6851 20.3375 20.71 20.3271 20.736 20.3271H81.1859C81.2119 20.3271 81.2368 20.3375 81.2552 20.3558C81.2735 20.3742 81.2839 20.3991 81.2839 20.425C81.2839 20.451 81.2735 20.4759 81.2552 20.4942C81.2368 20.5126 81.2119 20.5229 81.1859 20.5229Z" fill="white"/>
<path d="M82.35 41.891H19.8556C19.4135 41.8905 18.9897 41.7147 18.6771 41.4023C18.3645 41.0899 18.1887 40.6663 18.1882 40.2245V31.581C18.1887 31.1392 18.3645 30.7156 18.6771 30.4032C18.9897 30.0908 19.4135 29.915 19.8556 29.9146H82.35C82.7921 29.915 83.216 30.0907 83.5286 30.4031C83.8412 30.7155 84.0171 31.1391 84.0176 31.581V40.2245C84.0171 40.6663 83.8412 41.0899 83.5286 41.4023C83.216 41.7147 82.7921 41.8905 82.35 41.891ZM19.8556 30.1103C19.4655 30.1107 19.0914 30.2658 18.8155 30.5415C18.5397 30.8172 18.3845 31.191 18.3841 31.581V40.2245C18.3845 40.6144 18.5397 40.9882 18.8155 41.2639C19.0914 41.5397 19.4655 41.6948 19.8556 41.6952H82.35C82.7402 41.6948 83.1143 41.5397 83.3902 41.264C83.6661 40.9882 83.8213 40.6144 83.8217 40.2245V31.581C83.8213 31.191 83.6661 30.8172 83.3902 30.5415C83.1142 30.2658 82.7402 30.1107 82.35 30.1103H19.8556Z" fill="#292A2E"/>
<path d="M82.35 57.0623H19.8556C19.4135 57.0617 18.9897 56.886 18.6771 56.5736C18.3646 56.2612 18.1887 55.8377 18.1882 55.3959V46.7522C18.1886 46.3104 18.3644 45.8867 18.677 45.5742C18.9896 45.2618 19.4135 45.086 19.8556 45.0854H82.35C82.7921 45.0859 83.2159 45.2617 83.5286 45.5741C83.8412 45.8865 84.017 46.31 84.0176 46.7519V55.3955C84.0172 55.8373 83.8413 56.261 83.5287 56.5735C83.2161 56.886 82.7921 57.0618 82.35 57.0623ZM19.8556 45.2812C19.4655 45.2816 19.0914 45.4367 18.8156 45.7124C18.5397 45.9882 18.3845 46.362 18.3841 46.7519V55.3955C18.3845 55.7854 18.5397 56.1592 18.8156 56.4349C19.0914 56.7106 19.4655 56.8657 19.8556 56.8661H82.35C82.7402 56.8657 83.1142 56.7106 83.3901 56.4349C83.666 56.1592 83.8212 55.7854 83.8217 55.3955V46.7522C83.8214 46.3623 83.6662 45.9883 83.3903 45.7125C83.1143 45.4368 82.7402 45.2816 82.35 45.2812H19.8556Z" fill="#292A2E"/>
<path d="M87.1754 8.6351V11.5894H15.2305V8.6351C15.2305 7.85645 15.54 7.1097 16.0909 6.55912C16.6419 6.00853 17.3891 5.69922 18.1683 5.69922H84.2376C85.0168 5.69922 85.764 6.00853 86.3149 6.55912C86.8659 7.1097 87.1754 7.85645 87.1754 8.6351Z" fill="#292A2E"/>
<path d="M81.8025 35.5963L80.9496 34.2323L79.5703 35.0609L82.1027 24.5166L84.335 25.052L81.8025 35.5963Z" fill="#007AFF"/>
<path d="M81.8025 35.6943C81.7859 35.6943 81.7696 35.6901 81.755 35.682C81.7405 35.674 81.7283 35.6624 81.7195 35.6483L80.9176 34.3663L79.6207 35.1454C79.6042 35.1553 79.5851 35.1602 79.5658 35.1593C79.5465 35.1584 79.5279 35.1519 79.5124 35.1405C79.4968 35.1291 79.4849 35.1134 79.4783 35.0953C79.4716 35.0771 79.4705 35.0575 79.475 35.0387L82.0076 24.4943C82.0136 24.4692 82.0294 24.4475 82.0514 24.434C82.0734 24.4204 82.0999 24.4161 82.1251 24.422L84.3578 24.9575C84.3703 24.9605 84.3821 24.9659 84.3925 24.9735C84.4029 24.9811 84.4117 24.9906 84.4184 25.0015C84.4252 25.0125 84.4297 25.0247 84.4317 25.0374C84.4337 25.0501 84.4332 25.063 84.4302 25.0755L81.8977 35.6193C81.8932 35.6381 81.8832 35.6551 81.8691 35.6682C81.855 35.6813 81.8373 35.6899 81.8183 35.693C81.8131 35.6939 81.8078 35.6943 81.8025 35.6943ZM80.9496 34.1346C80.9662 34.1346 80.9825 34.1388 80.9971 34.1468C81.0116 34.1549 81.0239 34.1665 81.0327 34.1806L81.7618 35.3467L84.2167 25.1245L82.1749 24.6352L79.7199 34.8569L80.8992 34.1486C80.9144 34.1395 80.9319 34.1348 80.9496 34.1349V34.1346Z" fill="#292A2E"/>
<path d="M84.7972 35.5963L85.65 34.2323L87.0295 35.0609L84.497 24.5166L82.2648 25.052L84.7972 35.5963Z" fill="#007AFF"/>
<path d="M84.7973 35.6939C84.792 35.6939 84.7867 35.6935 84.7815 35.6927C84.7625 35.6896 84.7448 35.6809 84.7307 35.6678C84.7165 35.6547 84.7066 35.6377 84.7021 35.619L82.17 25.0747C82.167 25.0622 82.1665 25.0492 82.1685 25.0365C82.1705 25.0238 82.175 25.0116 82.1817 25.0007C82.1884 24.9897 82.1973 24.9802 82.2077 24.9726C82.2181 24.9651 82.2299 24.9596 82.2424 24.9566L84.4751 24.4211C84.5003 24.4151 84.5269 24.4193 84.5491 24.4329C84.5712 24.4465 84.587 24.4682 84.5931 24.4935L87.1251 35.0379C87.1296 35.0566 87.1284 35.0762 87.1218 35.0943C87.1151 35.1124 87.1033 35.1281 87.0877 35.1395C87.0722 35.1509 87.0536 35.1575 87.0344 35.1584C87.0151 35.1593 86.996 35.1544 86.9795 35.1445L85.6825 34.3654L84.8807 35.6474C84.8719 35.6617 84.8597 35.6734 84.845 35.6815C84.8304 35.6897 84.814 35.6939 84.7973 35.6939ZM82.3828 25.1241L84.8379 35.3463L85.567 34.1802C85.5806 34.1584 85.6022 34.1429 85.6272 34.1369C85.6522 34.1309 85.6785 34.1349 85.7005 34.1482L86.8798 34.8565L84.4247 24.6343L82.3828 25.1241Z" fill="#292A2E"/>
<path d="M89.0204 26.5418C89.0204 27.1232 88.2901 27.5822 88.1195 28.1069C87.9432 28.6507 88.2575 29.4498 87.9279 29.9024C87.5949 30.3596 86.735 30.3057 86.2775 30.6384C85.8246 30.9678 85.6116 31.8036 85.0678 31.9802C84.5429 32.1505 83.8815 31.6049 83.2997 31.6049C82.7179 31.6049 82.056 32.1505 81.5314 31.9802C80.9873 31.804 80.7747 30.9678 80.3217 30.6384C79.8643 30.3056 79.0042 30.3595 78.6714 29.9024C78.3418 29.4497 78.6565 28.6506 78.4798 28.1069C78.3094 27.5822 77.5789 27.1232 77.5789 26.5418C77.5789 25.9604 78.3093 25.5013 78.4798 24.9766C78.6561 24.4328 78.3418 23.6337 78.6714 23.1811C79.0043 22.7239 79.8643 22.7778 80.3217 22.445C80.7747 22.1156 80.9876 21.2798 81.5315 21.1032C82.0565 20.933 82.7178 21.4786 83.2997 21.4786C83.8816 21.4786 84.5429 20.933 85.0678 21.1032C85.612 21.2799 85.8247 22.1157 86.2776 22.4451C86.735 22.7779 87.595 22.7239 87.928 23.1811C88.2576 23.6337 87.9428 24.4328 88.1195 24.9766C88.2904 25.5013 89.0204 25.9603 89.0204 26.5418Z" fill="#007AFF"/>
<path d="M84.8493 32.1109C84.5909 32.1109 84.3196 32.0058 84.0549 31.9035C83.7997 31.8048 83.5359 31.7028 83.2999 31.7028C83.0639 31.7028 82.7999 31.8048 82.5448 31.9035C82.1934 32.0394 81.8299 32.1799 81.5014 32.0733C81.157 31.9615 80.942 31.626 80.7341 31.3015C80.5846 31.0682 80.4434 30.8477 80.264 30.7176C80.0818 30.585 79.8136 30.5145 79.5551 30.4464C79.1849 30.3485 78.8021 30.2482 78.5922 29.96C78.3847 29.6751 78.4061 29.2823 78.4273 28.9024C78.4421 28.6334 78.4575 28.3552 78.3867 28.1371C78.32 27.9316 78.1561 27.7325 77.9827 27.5214C77.7361 27.2214 77.4811 26.9112 77.4811 26.5418C77.4811 26.1723 77.7357 25.8621 77.9827 25.5621C78.1561 25.3511 78.32 25.1517 78.3867 24.9464C78.4576 24.7284 78.4422 24.4501 78.4274 24.181C78.4065 23.8011 78.3847 23.4079 78.5922 23.1235C78.8021 22.8352 79.1849 22.7345 79.5551 22.6372C79.814 22.5687 80.0818 22.4986 80.2641 22.3659C80.4432 22.2357 80.5845 22.0152 80.7342 21.7819C80.9422 21.4575 81.1571 21.122 81.5015 21.0102C81.8305 20.9037 82.1936 21.0442 82.5449 21.18C82.8 21.2787 83.064 21.3808 83.3 21.3808C83.536 21.3808 83.7994 21.2787 84.055 21.18C84.4064 21.0442 84.7698 20.9036 85.0984 21.0102C85.4428 21.1221 85.6578 21.4575 85.8657 21.782C86.0152 22.0153 86.1564 22.2357 86.3358 22.366C86.5181 22.4986 86.7862 22.569 87.0448 22.6372C87.4149 22.735 87.7978 22.8353 88.0077 23.1235C88.2151 23.4084 88.1937 23.8011 88.1725 24.181C88.1577 24.4502 88.1423 24.7284 88.2132 24.9464C88.2799 25.1519 88.4437 25.3511 88.6173 25.5622C88.8638 25.8621 89.1187 26.1723 89.1187 26.5418C89.1187 26.9112 88.8641 27.2214 88.6173 27.5214C88.4437 27.7325 88.2799 27.9318 88.2132 28.1371C88.1423 28.3552 88.1577 28.6334 88.1725 28.9025C88.1934 29.2824 88.2151 29.6751 88.0077 29.96C87.7978 30.2482 87.4149 30.3489 87.0448 30.4464C86.7858 30.5149 86.5181 30.585 86.3357 30.7176C86.1567 30.8478 86.0155 31.0682 85.8656 31.3015C85.6577 31.626 85.4427 31.9616 85.0983 32.0733C85.0178 32.0989 84.9337 32.1116 84.8493 32.1109ZM83.2999 31.507C83.5724 31.507 83.8536 31.6159 84.1256 31.721C84.4597 31.8502 84.7753 31.9724 85.0378 31.8873C85.3155 31.7972 85.5026 31.5057 85.7007 31.1961C85.8534 30.9578 86.0112 30.7114 86.2197 30.56C86.4318 30.4057 86.7177 30.3305 86.9941 30.2578C87.3467 30.165 87.6796 30.0774 87.8485 29.8455C88.015 29.617 87.9961 29.2756 87.9758 28.914C87.9601 28.6269 87.9437 28.3301 88.0258 28.0773C88.1041 27.8368 88.2874 27.6137 88.4648 27.3979C88.6895 27.1246 88.9218 26.8418 88.9218 26.5425C88.9218 26.2431 88.6895 25.9604 88.4648 25.687C88.2874 25.4717 88.1039 25.248 88.0258 25.0075C87.9437 24.7548 87.9601 24.458 87.9759 24.171C87.9955 23.8095 88.0151 23.4679 87.8486 23.2394C87.6798 23.0076 87.3468 22.9199 86.9942 22.8271C86.7178 22.7544 86.4319 22.6791 86.2198 22.5249C86.011 22.373 85.8531 22.1266 85.7008 21.8882C85.5027 21.5792 85.3157 21.2872 85.0379 21.1971C84.7753 21.1119 84.4601 21.234 84.1257 21.3635C83.8537 21.4686 83.5725 21.5774 83.3 21.5774C83.0274 21.5774 82.7462 21.4686 82.4742 21.3634C82.14 21.2341 81.8244 21.112 81.562 21.197C81.2842 21.2871 81.0972 21.5792 80.8992 21.8882C80.7464 22.1265 80.5886 22.3729 80.3802 22.5249C80.1681 22.6791 79.8821 22.7544 79.6057 22.8271C79.2532 22.9199 78.9202 23.0075 78.7514 23.2393C78.5849 23.4678 78.6038 23.8094 78.6241 24.1709C78.6398 24.458 78.6562 24.7547 78.574 25.0075C78.4957 25.248 78.3125 25.4713 78.1351 25.687C77.9099 25.9604 77.678 26.243 77.678 26.5425C77.678 26.8419 77.9104 27.1246 78.135 27.3979C78.3125 27.6132 78.4959 27.8368 78.574 28.0773C78.6562 28.3301 78.6398 28.6269 78.624 28.9139C78.6044 29.2755 78.5848 29.617 78.7513 29.8455C78.9202 30.0774 79.2532 30.1649 79.6057 30.2578C79.8821 30.3305 80.168 30.4057 80.3801 30.56C80.589 30.7119 80.7469 30.9583 80.8991 31.1961C81.0972 31.5053 81.2842 31.7972 81.562 31.8873C81.8242 31.9724 82.1397 31.8504 82.4741 31.721C82.7461 31.6159 83.0272 31.507 83.2999 31.507Z" fill="#292A2E"/>
<path d="M83.2999 29.0769C84.7011 29.0769 85.837 27.9417 85.837 26.5414C85.837 25.1411 84.7011 24.0059 83.2999 24.0059C81.8986 24.0059 80.7627 25.1411 80.7627 26.5414C80.7627 27.9417 81.8986 29.0769 83.2999 29.0769Z" fill="white"/>
<path d="M83.2999 29.175C82.7787 29.175 82.2693 29.0205 81.8359 28.7312C81.4026 28.4418 81.0648 28.0305 80.8654 27.5493C80.6659 27.0682 80.6138 26.5387 80.7154 26.0278C80.8171 25.517 81.0681 25.0478 81.4366 24.6795C81.8051 24.3112 82.2747 24.0604 82.7858 23.9588C83.297 23.8572 83.8268 23.9093 84.3083 24.1087C84.7898 24.308 85.2014 24.6455 85.4909 25.0786C85.7805 25.5116 85.935 26.0208 85.935 26.5416C85.9342 27.2398 85.6563 27.9091 85.1623 28.4028C84.6683 28.8965 83.9985 29.1742 83.2999 29.175ZM83.2999 24.1039C82.8175 24.1039 82.3459 24.2469 81.9447 24.5147C81.5436 24.7826 81.2309 25.1633 81.0463 25.6087C80.8617 26.0542 80.8134 26.5443 80.9075 27.0172C81.0016 27.49 81.234 27.9244 81.5751 28.2653C81.9162 28.6062 82.3509 28.8383 82.824 28.9324C83.2972 29.0265 83.7876 28.9782 84.2334 28.7937C84.6791 28.6092 85.06 28.2967 85.3281 27.8959C85.5961 27.495 85.7391 27.0237 85.7391 26.5416C85.7385 25.8952 85.4813 25.2755 85.024 24.8185C84.5667 24.3614 83.9467 24.1043 83.2999 24.1035V24.1039Z" fill="#292A2E"/>
</g>
<defs>
<clipPath id="clip0_2182_121140">
<rect width="102" height="68" fill="white"/>
</clipPath>
</defs>
</svg>
