<svg width="14" height="14" viewBox="0 0 14 14" fill="none" xmlns="http://www.w3.org/2000/svg">
<g clip-path="url(#clip0_1668_359)">
<rect width="14" height="14" fill="white" fill-opacity="0.01"/>
<g clip-path="url(#clip1_1668_359)">
<path d="M8.875 12.875H5.125C5.05625 12.875 5 12.9312 5 13V13.5C5 13.7766 5.22344 14 5.5 14H8.5C8.77656 14 9 13.7766 9 13.5V13C9 12.9312 8.94375 12.875 8.875 12.875ZM7 0C4.17031 0 1.875 2.29531 1.875 5.125C1.875 7.02187 2.90625 8.67812 4.4375 9.56406V11.375C4.4375 11.6516 4.66094 11.875 4.9375 11.875H9.0625C9.33906 11.875 9.5625 11.6516 9.5625 11.375V9.56406C11.0938 8.67812 12.125 7.02187 12.125 5.125C12.125 2.29531 9.82969 0 7 0ZM8.99844 8.59062L8.4375 8.91562V10.75H5.5625V8.91562L5.00156 8.59062C3.77188 7.87969 3 6.57031 3 5.125C3 2.91563 4.79063 1.125 7 1.125C9.20937 1.125 11 2.91563 11 5.125C11 6.57031 10.2281 7.87969 8.99844 8.59062Z" fill="black" fill-opacity="0.85"/>
</g>
</g>
<defs>
<clipPath id="clip0_1668_359">
<rect width="14" height="14" fill="white"/>
</clipPath>
<clipPath id="clip1_1668_359">
<rect width="14" height="14" fill="white"/>
</clipPath>
</defs>
</svg>
