<svg width="24" height="24" viewBox="0 0 24 24" fill="none" xmlns="http://www.w3.org/2000/svg">
<path d="M21.9111 5.57746V2.14621C21.9111 1.6721 21.5281 1.28906 21.054 1.28906H2.94686C2.47276 1.28906 2.08972 1.6721 2.08972 2.14621V5.57746C1.6424 5.60424 1.28615 5.97656 1.28615 6.43192V9.9596C1.28443 10.6079 1.41571 11.2497 1.67186 11.8453C1.78704 12.1185 1.92901 12.3757 2.08972 12.6194V21.8605C2.08972 22.3319 2.47276 22.7176 2.94686 22.7176H21.054C21.5281 22.7176 21.9111 22.3346 21.9111 21.8605V12.6194C22.0744 12.3751 22.2143 12.1159 22.329 11.8453C22.5835 11.248 22.7147 10.6132 22.7147 9.9596V6.43192C22.7147 5.97656 22.3585 5.60424 21.9111 5.57746ZM4.01829 3.21763H19.9826V5.57478H4.01829V3.21763ZM13.7147 20.7917H10.2861V18.0033H13.7147V20.7917ZM19.9826 20.7917H15.429V17.1462C15.429 16.6721 15.046 16.2891 14.5719 16.2891H9.42901C8.9549 16.2891 8.57186 16.6721 8.57186 17.1462V20.7917H4.01829V14.3042C4.09597 14.3417 4.17633 14.3792 4.25936 14.4114C4.85669 14.6632 5.49151 14.7891 6.14508 14.7891C6.79865 14.7891 7.43079 14.6632 8.03079 14.4114C8.40044 14.256 8.74865 14.0578 9.0674 13.8194C9.07276 13.8167 9.07811 13.8167 9.08347 13.8194C9.40321 14.0588 9.7514 14.2577 10.1201 14.4114C10.7174 14.6632 11.3522 14.7891 12.0058 14.7891C12.6594 14.7891 13.2915 14.6632 13.8915 14.4114C14.2611 14.256 14.6094 14.0578 14.9281 13.8194C14.9335 13.8167 14.9388 13.8167 14.9442 13.8194C15.2639 14.0588 15.6121 14.2577 15.9808 14.4114C16.5781 14.6632 17.2129 14.7891 17.8665 14.7891C18.5201 14.7891 19.1522 14.6632 19.7522 14.4114C19.8326 14.3766 19.9129 14.3417 19.9933 14.3042V20.7917H19.9826ZM20.7861 9.9596C20.7861 11.5614 19.4736 12.8605 17.8585 12.8605C16.7656 12.8605 15.812 12.2685 15.3085 11.39C15.2308 11.256 15.0915 11.173 14.9361 11.173H14.9201C14.7674 11.173 14.6254 11.256 14.5478 11.39C14.2908 11.8381 13.9197 12.2103 13.4723 12.4686C13.0249 12.7268 12.5171 12.8621 12.0004 12.8605C10.9103 12.8605 9.95936 12.2712 9.45579 11.3953C9.37544 11.2587 9.23079 11.173 9.07276 11.173C8.91472 11.173 8.7674 11.2587 8.68972 11.3953C8.43124 11.8418 8.05971 12.2122 7.61252 12.4695C7.16534 12.7267 6.65828 12.8615 6.1424 12.8605C4.52722 12.8605 3.21472 11.5614 3.21472 9.9596V7.51674C3.21472 7.50871 3.22008 7.50335 3.22811 7.50335H20.7728C20.7808 7.50335 20.7861 7.50871 20.7861 7.51674V9.9596Z" fill="black" fill-opacity="0.85"/>
</svg>
