<svg width="46" height="43" viewBox="0 0 46 43" fill="none" xmlns="http://www.w3.org/2000/svg">
<path d="M21.469 7.28137H10.469C9.83689 7.28137 9.32617 7.79209 9.32617 8.42423V19.4242C9.32617 19.5814 9.45474 19.7099 9.61189 19.7099H21.469C21.6262 19.7099 21.7547 19.5814 21.7547 19.4242V7.56709C21.7547 7.40994 21.6262 7.28137 21.469 7.28137ZM19.469 17.4242H11.6119V9.56709H19.469V17.4242ZM14.5405 14.7814H16.5405C16.6976 14.7814 16.8262 14.6528 16.8262 14.4957V12.4957C16.8262 12.3385 16.6976 12.2099 16.5405 12.2099H14.5405C14.3833 12.2099 14.2547 12.3385 14.2547 12.4957V14.4957C14.2547 14.6528 14.3833 14.7814 14.5405 14.7814ZM21.469 22.2814H9.61189C9.45474 22.2814 9.32617 22.4099 9.32617 22.5671V33.5671C9.32617 34.1992 9.83689 34.7099 10.469 34.7099H21.469C21.6262 34.7099 21.7547 34.5814 21.7547 34.4242V22.5671C21.7547 22.4099 21.6262 22.2814 21.469 22.2814ZM19.469 32.4242H11.6119V24.5671H19.469V32.4242ZM14.5405 29.7814H16.5405C16.6976 29.7814 16.8262 29.6528 16.8262 29.4957V27.4957C16.8262 27.3385 16.6976 27.2099 16.5405 27.2099H14.5405C14.3833 27.2099 14.2547 27.3385 14.2547 27.4957V29.4957C14.2547 29.6528 14.3833 29.7814 14.5405 29.7814ZM35.6119 7.28137H24.6119C24.4547 7.28137 24.3262 7.40994 24.3262 7.56709V19.4242C24.3262 19.5814 24.4547 19.7099 24.6119 19.7099H36.469C36.6262 19.7099 36.7547 19.5814 36.7547 19.4242V8.42423C36.7547 7.79209 36.244 7.28137 35.6119 7.28137ZM34.469 17.4242H26.6119V9.56709H34.469V17.4242ZM29.5405 14.7814H31.5405C31.6976 14.7814 31.8262 14.6528 31.8262 14.4957V12.4957C31.8262 12.3385 31.6976 12.2099 31.5405 12.2099H29.5405C29.3833 12.2099 29.2547 12.3385 29.2547 12.4957V14.4957C29.2547 14.6528 29.3833 14.7814 29.5405 14.7814ZM36.469 22.2814H34.7547C34.5976 22.2814 34.469 22.4099 34.469 22.5671V27.3528H31.6833V22.5671C31.6833 22.4099 31.5547 22.2814 31.3976 22.2814H24.6119C24.4547 22.2814 24.3262 22.4099 24.3262 22.5671V34.4242C24.3262 34.5814 24.4547 34.7099 24.6119 34.7099H26.3262C26.4833 34.7099 26.6119 34.5814 26.6119 34.4242V25.7099H29.3976V29.3528C29.3976 29.5099 29.5262 29.6385 29.6833 29.6385H36.469C36.6262 29.6385 36.7547 29.5099 36.7547 29.3528V22.5671C36.7547 22.4099 36.6262 22.2814 36.469 22.2814ZM31.3976 32.4242H29.6833C29.5262 32.4242 29.3976 32.5528 29.3976 32.7099V34.4242C29.3976 34.5814 29.5262 34.7099 29.6833 34.7099H31.3976C31.5547 34.7099 31.6833 34.5814 31.6833 34.4242V32.7099C31.6833 32.5528 31.5547 32.4242 31.3976 32.4242ZM36.469 32.4242H34.7547C34.5976 32.4242 34.469 32.5528 34.469 32.7099V34.4242C34.469 34.5814 34.5976 34.7099 34.7547 34.7099H36.469C36.6262 34.7099 36.7547 34.5814 36.7547 34.4242V32.7099C36.7547 32.5528 36.6262 32.4242 36.469 32.4242Z" fill="black" fill-opacity="0.85"/>
<path d="M7.60297 2.52094H2.56109V7.56281" stroke="#0EAF8F" stroke-width="2" stroke-linecap="round" stroke-linejoin="round"/>
<path d="M37.5201 2.52094H42.562V7.56281" stroke="#0EAF8F" stroke-width="2" stroke-linecap="round" stroke-linejoin="round"/>
<path d="M37.5201 40.0418H42.562V34.9999" stroke="#0EAF8F" stroke-width="2" stroke-linecap="round" stroke-linejoin="round"/>
<path d="M7.56195 40.0418H2.52008V34.9999" stroke="#0EAF8F" stroke-width="2" stroke-linecap="round" stroke-linejoin="round"/>
</svg>
