<svg width="15" height="14" viewBox="0 0 15 14" fill="none" xmlns="http://www.w3.org/2000/svg">
<path d="M11.25 9.375C10.8047 9.375 10.3937 9.53125 10.0719 9.79219L6.83437 7.45C6.88859 7.15245 6.88859 6.84755 6.83437 6.55L10.0719 4.20781C10.3937 4.46875 10.8047 4.625 11.25 4.625C12.2844 4.625 13.125 3.78438 13.125 2.75C13.125 1.71563 12.2844 0.875 11.25 0.875C10.2156 0.875 9.375 1.71563 9.375 2.75C9.375 2.93125 9.4 3.10469 9.44844 3.27031L6.37344 5.49688C5.91719 4.89219 5.19219 4.5 4.375 4.5C2.99375 4.5 1.875 5.61875 1.875 7C1.875 8.38125 2.99375 9.5 4.375 9.5C5.19219 9.5 5.91719 9.10781 6.37344 8.50313L9.44844 10.7297C9.4 10.8953 9.375 11.0703 9.375 11.25C9.375 12.2844 10.2156 13.125 11.25 13.125C12.2844 13.125 13.125 12.2844 13.125 11.25C13.125 10.2156 12.2844 9.375 11.25 9.375ZM11.25 1.9375C11.6984 1.9375 12.0625 2.30156 12.0625 2.75C12.0625 3.19844 11.6984 3.5625 11.25 3.5625C10.8016 3.5625 10.4375 3.19844 10.4375 2.75C10.4375 2.30156 10.8016 1.9375 11.25 1.9375ZM4.375 8.375C3.61719 8.375 3 7.75781 3 7C3 6.24219 3.61719 5.625 4.375 5.625C5.13281 5.625 5.75 6.24219 5.75 7C5.75 7.75781 5.13281 8.375 4.375 8.375ZM11.25 12.0625C10.8016 12.0625 10.4375 11.6984 10.4375 11.25C10.4375 10.8016 10.8016 10.4375 11.25 10.4375C11.6984 10.4375 12.0625 10.8016 12.0625 11.25C12.0625 11.6984 11.6984 12.0625 11.25 12.0625Z" fill="#0E0D0D"/>
</svg>
