<svg width="24" height="24" viewBox="0 0 24 24" fill="none" xmlns="http://www.w3.org/2000/svg">
<g clip-path="url(#clip0_2330_124071)">
<rect width="24" height="24" fill="white" fill-opacity="0.01"/>
<path d="M20.363 17.037C19.6925 16.366 18.9091 15.8184 18.0487 15.4192C19.2621 14.4361 20.0362 12.9361 20.0362 11.254C20.0362 8.28612 17.5612 5.8513 14.5933 5.89683C11.671 5.94237 9.31656 8.32362 9.31656 11.254C9.31656 12.9361 10.0933 14.4361 11.3041 15.4192C10.4434 15.8181 9.66 16.3658 8.98977 17.037C7.52727 18.5022 6.69691 20.4361 6.64334 22.4986C6.64263 22.5272 6.64764 22.5557 6.65809 22.5823C6.66854 22.6089 6.68421 22.6332 6.70418 22.6536C6.72415 22.6741 6.74801 22.6904 6.77437 22.7015C6.80072 22.7126 6.82903 22.7183 6.85763 22.7183H8.35763C8.47281 22.7183 8.56924 22.6272 8.57191 22.512C8.62281 20.9584 9.25227 19.504 10.3585 18.4004C10.9246 17.8313 11.5979 17.3801 12.3396 17.073C13.0812 16.7659 13.8764 16.6089 14.6791 16.6111C16.3103 16.6111 17.8451 17.2459 18.9996 18.4004C20.1032 19.504 20.7326 20.9584 20.7862 22.512C20.7889 22.6272 20.8853 22.7183 21.0005 22.7183H22.5005C22.5291 22.7183 22.5574 22.7126 22.5837 22.7015C22.6101 22.6904 22.634 22.6741 22.6539 22.6536C22.6739 22.6332 22.6896 22.6089 22.7 22.5823C22.7105 22.5557 22.7155 22.5272 22.7148 22.4986C22.6612 20.4361 21.8308 18.5022 20.363 17.037ZM14.6791 14.6825C13.763 14.6825 12.9005 14.3263 12.2549 13.6781C11.931 13.3567 11.6751 12.9733 11.5025 12.5508C11.3299 12.1284 11.2442 11.6755 11.2505 11.2192C11.2585 10.3406 11.6094 9.49148 12.2228 8.86201C12.8657 8.20308 13.7255 7.83612 14.6442 7.82541C15.5523 7.81737 16.4335 8.17094 17.0817 8.80576C17.746 9.45666 18.1103 10.3272 18.1103 11.254C18.1103 12.17 17.7541 13.0299 17.1058 13.6781C16.7878 13.9976 16.4096 14.2509 15.993 14.4233C15.5765 14.5958 15.1299 14.6839 14.6791 14.6825ZM7.96924 11.9611C7.94513 11.7281 7.93174 11.4924 7.93174 11.254C7.93174 10.8281 7.97191 10.4129 8.04691 10.0084C8.06566 9.91201 8.01477 9.81291 7.92638 9.77273C7.56209 9.60933 7.22727 9.38433 6.93799 9.10041C6.59711 8.76989 6.32887 8.37195 6.15039 7.93197C5.97191 7.49199 5.8871 7.01964 5.90138 6.54505C5.92549 5.68523 6.27102 4.86826 6.8737 4.25219C7.53531 3.57451 8.42459 3.20487 9.37013 3.21558C10.2246 3.22362 11.0496 3.55308 11.6737 4.13701C11.8853 4.33523 12.0675 4.55487 12.2201 4.79058C12.2737 4.87362 12.3782 4.90844 12.4692 4.8763C12.9407 4.71291 13.4389 4.59773 13.9505 4.54416C14.1005 4.52808 14.1862 4.36737 14.1192 4.23344C13.2487 2.51112 11.4701 1.32183 9.41299 1.28969C6.44245 1.24416 3.96745 3.67898 3.96745 6.64416C3.96745 8.3263 4.74156 9.8263 5.95495 10.8093C5.10316 11.2031 4.31834 11.7468 3.63799 12.4272C2.17013 13.8924 1.33977 15.8263 1.2862 17.8915C1.28548 17.9201 1.2905 17.9485 1.30095 17.9751C1.3114 18.0017 1.32707 18.026 1.34704 18.0465C1.36701 18.0669 1.39087 18.0832 1.41723 18.0943C1.44358 18.1054 1.47189 18.1111 1.50049 18.1111H3.00316C3.11834 18.1111 3.21477 18.02 3.21745 17.9049C3.26834 16.3513 3.89781 14.8968 5.00406 13.7933C5.79156 13.0058 6.75584 12.4593 7.80852 12.1942C7.91299 12.1674 7.98263 12.0683 7.96924 11.9611Z" fill="#0EAF8F"/>
</g>
<defs>
<clipPath id="clip0_2330_124071">
<rect width="24" height="24" fill="white"/>
</clipPath>
</defs>
</svg>
