<svg width="22" height="22" viewBox="0 0 22 22" fill="none" xmlns="http://www.w3.org/2000/svg">
<g clip-path="url(#clip0_1400_99739)">
<rect width="22" height="22" fill="white" fill-opacity="0.01"/>
<path d="M5.697 4.56248C5.58897 4.56248 5.50058 4.65088 5.50058 4.75891V5.93748C5.50058 6.04552 5.58897 6.13391 5.697 6.13391H15.1256C15.2336 6.13391 15.322 6.04552 15.322 5.93748V4.75891C15.322 4.65088 15.2336 4.56248 15.1256 4.56248H5.697ZM10.2149 8.0982H5.697C5.58897 8.0982 5.50058 8.18659 5.50058 8.29463V9.4732C5.50058 9.58123 5.58897 9.66963 5.697 9.66963H10.2149C10.3229 9.66963 10.4113 9.58123 10.4113 9.4732V8.29463C10.4113 8.18659 10.3229 8.0982 10.2149 8.0982ZM9.03629 19.3437H3.53629V2.05802H17.2863V9.91516C17.2863 10.0232 17.3747 10.1116 17.4827 10.1116H18.8577C18.9658 10.1116 19.0541 10.0232 19.0541 9.91516V1.07588C19.0541 0.641277 18.703 0.290161 18.2684 0.290161H2.55415C2.11955 0.290161 1.76843 0.641277 1.76843 1.07588V20.3259C1.76843 20.7605 2.11955 21.1116 2.55415 21.1116H9.03629C9.14433 21.1116 9.23272 21.0232 9.23272 20.9152V19.5402C9.23272 19.4321 9.14433 19.3437 9.03629 19.3437ZM19.8399 17.183H16.3041V16.2844C17.441 15.9455 18.2684 14.8946 18.2684 13.6473C18.2684 12.1274 17.0383 10.8973 15.5184 10.8973C13.9986 10.8973 12.7684 12.1274 12.7684 13.6473C12.7684 14.8922 13.5959 15.9455 14.7327 16.2844V17.183H11.197C10.9809 17.183 10.8041 17.3598 10.8041 17.5759V21.308C10.8041 21.5241 10.9809 21.7009 11.197 21.7009H19.8399C20.0559 21.7009 20.2327 21.5241 20.2327 21.308V17.5759C20.2327 17.3598 20.0559 17.183 19.8399 17.183ZM14.2908 13.6473C14.2908 12.9696 14.8408 12.4196 15.5184 12.4196C16.1961 12.4196 16.7461 12.9696 16.7461 13.6473C16.7461 14.325 16.1961 14.875 15.5184 14.875C14.8408 14.875 14.2908 14.325 14.2908 13.6473ZM18.7104 20.1786H12.3265V18.7053H18.7104V20.1786Z" fill="#0EAF8F"/>
</g>
<defs>
<clipPath id="clip0_1400_99739">
<rect width="22" height="22" fill="white"/>
</clipPath>
</defs>
</svg>
