<svg width="14" height="14" viewBox="0 0 14 14" fill="none" xmlns="http://www.w3.org/2000/svg">
<g clip-path="url(#clip0_2517_132478)">
<rect width="14" height="14" fill="white" fill-opacity="0.01"/>
<g clip-path="url(#clip1_2517_132478)">
<path d="M13.7656 5.4375H9.76558C9.69683 5.4375 9.64058 5.49375 9.64058 5.5625V6.3125C9.64058 6.38125 9.69683 6.4375 9.76558 6.4375H13.7656C13.8343 6.4375 13.8906 6.38125 13.8906 6.3125V5.5625C13.8906 5.49375 13.8343 5.4375 13.7656 5.4375ZM11.6718 7.5625H9.76558C9.69683 7.5625 9.64058 7.61875 9.64058 7.6875V8.4375C9.64058 8.50625 9.69683 8.5625 9.76558 8.5625H11.6718C11.7406 8.5625 11.7968 8.50625 11.7968 8.4375V7.6875C11.7968 7.61875 11.7406 7.5625 11.6718 7.5625ZM6.45776 4.03906H5.7812C5.68433 4.03906 5.6062 4.11719 5.6062 4.21406V8.08906C5.6062 8.14531 5.63276 8.19688 5.67808 8.22969L8.00464 9.92656C8.08276 9.98281 8.19214 9.96719 8.24839 9.88906L8.64995 9.34062V9.33906C8.7062 9.26094 8.68901 9.15156 8.61089 9.09531L6.6312 7.66406V4.21406C6.63276 4.11719 6.55308 4.03906 6.45776 4.03906Z" fill="#0EAF8F"/>
<path d="M11.575 9.52958H10.6719C10.5844 9.52958 10.5016 9.57489 10.4547 9.64989C10.256 9.96491 10.0228 10.2568 9.75939 10.5202C9.30593 10.9751 8.76835 11.3376 8.17657 11.5874C7.56251 11.8468 6.91095 11.978 6.23907 11.978C5.56564 11.978 4.91407 11.8468 4.30157 11.5874C3.70939 11.3374 3.17657 10.978 2.71876 10.5202C2.26095 10.0624 1.90157 9.52958 1.65157 8.93739C1.3922 8.32489 1.26095 7.67333 1.26095 6.99989C1.26095 6.32645 1.3922 5.67645 1.65157 5.06239C1.90157 4.4702 2.26095 3.93739 2.71876 3.47958C3.17657 3.02177 3.70939 2.66239 4.30157 2.41239C4.91407 2.15302 5.5672 2.02177 6.23907 2.02177C6.91251 2.02177 7.56407 2.15302 8.17657 2.41239C8.76876 2.66239 9.30157 3.02177 9.75939 3.47958C10.0228 3.74297 10.256 4.03487 10.4547 4.34989C10.5016 4.42489 10.5844 4.4702 10.6719 4.4702H11.575C11.6828 4.4702 11.7516 4.3577 11.7031 4.26239C10.6844 2.23583 8.61876 0.918641 6.31251 0.892078C2.93595 0.849891 0.131261 3.61395 0.125011 6.98739C0.118761 10.3671 2.85782 13.1093 6.23751 13.1093C8.57345 13.1093 10.6734 11.7874 11.7031 9.73739C11.7141 9.71553 11.7193 9.69122 11.7183 9.66677C11.7172 9.64233 11.7099 9.61856 11.6971 9.59774C11.6842 9.57691 11.6663 9.55972 11.6449 9.54779C11.6235 9.53586 11.5995 9.52959 11.575 9.52958Z" fill="#0EAF8F"/>
</g>
</g>
<defs>
<clipPath id="clip0_2517_132478">
<rect width="14" height="14" fill="white"/>
</clipPath>
<clipPath id="clip1_2517_132478">
<rect width="14" height="14" fill="white"/>
</clipPath>
</defs>
</svg>
