<svg width="14" height="14" viewBox="0 0 14 14" fill="none" xmlns="http://www.w3.org/2000/svg">
<g clip-path="url(#clip0_3217_2637)">
<rect width="14" height="14" fill="white"/>
<path d="M12.5628 7.52312L7.37685 1.54655C7.32997 1.49247 7.27202 1.4491 7.20692 1.41938C7.14181 1.38965 7.07108 1.37427 6.99951 1.37427C6.92794 1.37427 6.85721 1.38965 6.7921 1.41938C6.727 1.4491 6.66904 1.49247 6.62216 1.54655L1.43779 7.52312C1.42212 7.54113 1.41197 7.56327 1.40853 7.58689C1.40509 7.61052 1.40851 7.63463 1.41839 7.65637C1.42827 7.6781 1.44419 7.69654 1.46425 7.70948C1.48431 7.72242 1.50767 7.72933 1.53154 7.72937H2.79716C2.86904 7.72937 2.93779 7.69812 2.98623 7.64343L6.40654 3.70124V12.4997C6.40654 12.5684 6.46279 12.6247 6.53154 12.6247H7.46904C7.53779 12.6247 7.59404 12.5684 7.59404 12.4997V3.70124L11.0144 7.64343C11.0612 7.69812 11.13 7.72937 11.2034 7.72937H12.469C12.5753 7.72937 12.6331 7.60437 12.5628 7.52312Z" fill="#0EAF8F"/>
</g>
<defs>
<clipPath id="clip0_3217_2637">
<rect width="14" height="14" fill="white"/>
</clipPath>
</defs>
</svg>
