<svg width="14" height="14" viewBox="0 0 14 14" fill="none" xmlns="http://www.w3.org/2000/svg">
<g clip-path="url(#clip0_3217_2601)">
<rect width="14" height="14" fill="white"/>
<path d="M12.4357 1.62524H1.56382C1.49351 1.62524 1.43726 1.68149 1.43726 1.75024V2.68774C1.43726 2.75649 1.49351 2.81274 1.56382 2.81274H12.4357C12.506 2.81274 12.5623 2.75649 12.5623 2.68774V1.75024C12.5623 1.68149 12.506 1.62524 12.4357 1.62524ZM7.09819 4.54712C7.0865 4.53218 7.07156 4.5201 7.05451 4.51179C7.03745 4.50348 7.01873 4.49916 6.99976 4.49916C6.98078 4.49916 6.96206 4.50348 6.94501 4.51179C6.92795 4.5201 6.91301 4.53218 6.90132 4.54712L5.15132 6.76118C5.13689 6.7796 5.12794 6.80172 5.12549 6.82499C5.12303 6.84826 5.12718 6.87175 5.13745 6.89277C5.14772 6.9138 5.16369 6.93151 5.18355 6.94389C5.20342 6.95626 5.22636 6.96279 5.24976 6.96274H6.40444V12.2502C6.40444 12.319 6.46069 12.3752 6.52944 12.3752H7.46694C7.53569 12.3752 7.59194 12.319 7.59194 12.2502V6.96431H8.74976C8.85444 6.96431 8.91226 6.84399 8.84819 6.76274L7.09819 4.54712Z" fill="#0EAF8F"/>
</g>
<defs>
<clipPath id="clip0_3217_2601">
<rect width="14" height="14" fill="white"/>
</clipPath>
</defs>
</svg>
