<svg width="15" height="15" viewBox="0 0 15 15" fill="none" xmlns="http://www.w3.org/2000/svg">
<g clip-path="url(#clip0_7551_26900)">
<path fill-rule="evenodd" clip-rule="evenodd" d="M3.28133 3.75C3.28133 2.1104 4.61049 0.78125 6.25008 0.78125C7.88968 0.78125 9.21883 2.1104 9.21883 3.75C9.21883 5.3896 7.88968 6.71875 6.25008 6.71875C4.61049 6.71875 3.28133 5.3896 3.28133 3.75ZM6.25008 1.71875C5.12826 1.71875 4.21883 2.62817 4.21883 3.75C4.21883 4.87183 5.12826 5.78125 6.25008 5.78125C7.37191 5.78125 8.28133 4.87183 8.28133 3.75C8.28133 2.62817 7.37191 1.71875 6.25008 1.71875Z" fill="#00AEEF"/>
<path fill-rule="evenodd" clip-rule="evenodd" d="M2.48474 8.54021C3.47191 7.98493 4.80411 7.65625 6.25008 7.65625C7.69605 7.65625 9.02826 7.98493 10.0154 8.54021C10.9879 9.08723 11.7188 9.91629 11.7188 10.9375L11.7189 11.0012C11.7196 11.7274 11.7205 12.6387 10.9211 13.2897C10.5277 13.6101 9.97729 13.8379 9.2337 13.9884C8.48805 14.1393 7.51619 14.2188 6.25008 14.2188C4.98397 14.2188 4.01212 14.1393 3.26646 13.9884C2.52288 13.8379 1.97251 13.6101 1.57909 13.2897C0.7797 12.6387 0.780586 11.7274 0.781292 11.0012L0.781334 10.9375C0.781334 9.91629 1.51226 9.08723 2.48474 8.54021ZM2.94436 9.35731C2.1072 9.82822 1.71883 10.4054 1.71883 10.9375C1.71883 11.7549 1.74403 12.215 2.17108 12.5628C2.40266 12.7513 2.78979 12.9354 3.45245 13.0695C4.11305 13.2033 5.01619 13.2812 6.25008 13.2812C7.48398 13.2812 8.38712 13.2033 9.04772 13.0695C9.71038 12.9354 10.0975 12.7513 10.3291 12.5628C10.7561 12.215 10.7813 11.7549 10.7813 10.9375C10.7813 10.4054 10.393 9.82822 9.55581 9.35731C8.73334 8.89467 7.56554 8.59375 6.25008 8.59375C4.93463 8.59375 3.76683 8.89467 2.94436 9.35731Z" fill="#00AEEF"/>
<path fill-rule="evenodd" clip-rule="evenodd" d="M14.2188 6.06045C14.2188 5.37471 13.8673 4.81327 13.284 4.60881C12.8282 4.44902 12.3228 4.53922 11.8751 4.83394C11.4274 4.53922 10.9219 4.44902 10.4661 4.60881C9.88287 4.81327 9.53133 5.37472 9.53133 6.06046C9.53133 6.54161 9.80709 6.96741 10.0781 7.28083C10.3615 7.60842 10.712 7.89545 10.9996 8.10642L11.0436 8.13891C11.2632 8.30124 11.513 8.48597 11.8751 8.48597C12.2371 8.48597 12.487 8.30124 12.7065 8.13891L12.7506 8.10642C13.0381 7.89545 13.3887 7.60843 13.672 7.28084C13.9431 6.96741 14.2188 6.54161 14.2188 6.06045ZM12.1993 5.77067C12.5277 5.45616 12.8175 5.43868 12.9739 5.49352C13.1172 5.54376 13.2813 5.70042 13.2813 6.06045C13.2813 6.19457 13.1931 6.40147 12.9629 6.66758C12.745 6.91953 12.4572 7.15889 12.196 7.35056C12.0546 7.4543 11.9875 7.50214 11.9338 7.53049C11.8998 7.54843 11.8904 7.54847 11.8751 7.54847C11.8598 7.54847 11.8504 7.54843 11.8164 7.53049C11.7627 7.50214 11.6956 7.4543 11.5542 7.35055C11.2929 7.15888 11.0051 6.91953 10.7872 6.66758C10.5571 6.40146 10.4688 6.19457 10.4688 6.06046C10.4688 5.70042 10.6329 5.54377 10.7763 5.49352C10.9327 5.43868 11.2224 5.45616 11.5509 5.77067C11.7322 5.94423 12.018 5.94423 12.1993 5.77067Z" fill="#00AEEF"/>
</g>
<defs>
<clipPath id="clip0_7551_26900">
<rect width="15" height="15" fill="white"/>
</clipPath>
</defs>
</svg>
