<svg width="38" height="29" viewBox="0 0 38 29" fill="none" xmlns="http://www.w3.org/2000/svg">
<path fill-rule="evenodd" clip-rule="evenodd" d="M33.376 5.71533H8.94996C7.82671 5.71533 6.91406 6.62533 6.91406 7.74533C6.91406 13.1587 6.91406 18.572 6.91406 23.9853C6.91406 25.1053 7.82671 26.0153 8.94996 26.0153H33.376C34.4993 26.0153 35.4119 25.1053 35.4119 23.9853V7.75C35.4119 6.62533 34.4993 5.71533 33.376 5.71533Z" fill="#0EAF8F"/>
<path fill-rule="evenodd" clip-rule="evenodd" d="M33.3745 5.71533H22.1935C21.9033 6.16333 21.6225 6.616 21.351 7.08733C17.5975 13.5693 16.507 20.5787 17.9064 26.0153H33.3698C34.4931 26.0153 35.4057 25.1053 35.4057 23.9853V7.75C35.4104 6.62533 34.4978 5.71533 33.3745 5.71533Z" fill="#40CDB1"/>
<path fill-rule="evenodd" clip-rule="evenodd" d="M26.5647 17.3867H25.1513C24.7675 17.3867 24.4492 17.6994 24.4492 18.0867V18.7214C24.4492 19.1041 24.7628 19.4214 25.1513 19.4214H26.5647C26.9485 19.4214 27.2667 19.1087 27.2667 18.7214V18.0867C27.2667 17.6994 26.9531 17.3867 26.5647 17.3867Z" fill="#0EAF8F"/>
<path fill-rule="evenodd" clip-rule="evenodd" d="M22.4146 17.3867H9.77332C9.38954 17.3867 9.07129 17.6994 9.07129 18.0867V18.7214C9.07129 19.1041 9.38486 19.4214 9.77332 19.4214H22.4146C22.7984 19.4214 23.1166 19.1087 23.1166 18.7214V18.0867C23.1166 17.6994 22.8031 17.3867 22.4146 17.3867Z" fill="#FF720B"/>
<path fill-rule="evenodd" clip-rule="evenodd" d="M28.8262 2.0708H4.40015C3.2769 2.0708 2.36426 2.9808 2.36426 4.1008V6.19613H5.18175C5.79486 4.72147 7.24573 3.69013 8.94465 3.69013H30.82C30.6281 2.76613 29.8091 2.0708 28.8262 2.0708Z" fill="#FF720B"/>
<path fill-rule="evenodd" clip-rule="evenodd" d="M28.8255 2.0708H24.9456C24.4916 2.5888 24.0517 3.12547 23.6211 3.68547H30.8193C30.6274 2.76613 29.8083 2.0708 28.8255 2.0708Z" fill="#0EAF8F"/>
<path fill-rule="evenodd" clip-rule="evenodd" d="M33.3761 3.68519H32.88C32.6694 1.63653 30.9378 0.0405273 28.827 0.0405273H4.40089C2.14971 0.0405273 0.329102 1.85586 0.329102 4.10053V20.3359C0.329102 22.5759 2.14971 24.3959 4.40089 24.3959H4.897C5.10761 26.4445 6.83929 28.0405 8.94539 28.0405H33.3715C35.618 28.0405 37.4433 26.2252 37.4433 23.9805V7.74053C37.4479 5.50519 35.6227 3.68519 33.3761 3.68519ZM33.3761 5.71519C34.4994 5.71519 35.412 6.62519 35.412 7.74519V9.84053H6.90949V7.74519C6.90949 6.62519 7.82214 5.71519 8.94539 5.71519H33.3761ZM4.8736 22.3659H4.40089C3.27764 22.3659 2.365 21.4559 2.365 20.3359V11.2032H4.8736V22.3659ZM5.18249 6.19119H2.365V4.10053C2.365 2.98053 3.27764 2.07053 4.40089 2.07053H28.827C29.8098 2.07053 30.6289 2.76586 30.8207 3.68519H8.94539C7.25115 3.68519 5.7956 4.72119 5.18249 6.19119ZM33.3761 26.0105H8.94539C7.82214 26.0105 6.90949 25.1005 6.90949 23.9805V14.8479H35.4074V23.9805C35.412 25.1052 34.4994 26.0105 33.3761 26.0105Z" fill="#083237"/>
</svg>
