<svg width="18" height="14" viewBox="0 0 18 14" fill="none" xmlns="http://www.w3.org/2000/svg">
<path d="M11.4135 3.67733L12.4335 4.68019L6.65346 10.363L5.63346 9.36019L11.4135 3.67733ZM2.23346 0.334473H15.8335C16.777 0.334473 17.5335 1.07826 17.5335 2.0059V5.34876C17.0826 5.34876 16.6502 5.52486 16.3314 5.83831C16.0126 6.15176 15.8335 6.5769 15.8335 7.02019C15.8335 7.46348 16.0126 7.88861 16.3314 8.20206C16.6502 8.51552 17.0826 8.69162 17.5335 8.69162V12.0345C17.5335 12.9621 16.777 13.7059 15.8335 13.7059H2.23346C1.78259 13.7059 1.35019 13.5298 1.03138 13.2164C0.712569 12.9029 0.533463 12.4778 0.533463 12.0345V8.69162C1.47696 8.69162 2.23346 7.94783 2.23346 7.02019C2.23346 6.5769 2.05436 6.15176 1.73554 5.83831C1.41673 5.52486 0.984331 5.34876 0.533463 5.34876V2.0059C0.533463 1.56261 0.712569 1.13748 1.03138 0.824023C1.35019 0.510569 1.78259 0.334473 2.23346 0.334473ZM2.23346 2.0059V4.12862C2.74999 4.42145 3.17897 4.84287 3.47723 5.35047C3.77549 5.85808 3.93253 6.43396 3.93253 7.02019C3.93253 7.60641 3.77549 8.1823 3.47723 8.6899C3.17897 9.19751 2.74999 9.61893 2.23346 9.91176V12.0345H15.8335V9.91176C15.3169 9.61893 14.888 9.19751 14.5897 8.6899C14.2914 8.1823 14.1344 7.60641 14.1344 7.02019C14.1344 6.43396 14.2914 5.85808 14.5897 5.35047C14.888 4.84287 15.3169 4.42145 15.8335 4.12862V2.0059H2.23346ZM6.90846 3.67733C7.61396 3.67733 8.18346 4.23726 8.18346 4.9309C8.18346 5.62454 7.61396 6.18447 6.90846 6.18447C6.20296 6.18447 5.63346 5.62454 5.63346 4.9309C5.63346 4.23726 6.20296 3.67733 6.90846 3.67733ZM11.1585 7.8559C11.864 7.8559 12.4335 8.41583 12.4335 9.10947C12.4335 9.80312 11.864 10.363 11.1585 10.363C10.453 10.363 9.88346 9.80312 9.88346 9.10947C9.88346 8.41583 10.453 7.8559 11.1585 7.8559Z" fill="#EF4444"/>
</svg>
