<svg width="24" height="24" viewBox="0 0 24 24" fill="none" xmlns="http://www.w3.org/2000/svg">
<g clip-path="url(#clip0_2791_5832)">
<rect width="24" height="24" fill="white" fill-opacity="0.01"/>
<path d="M10.714 2.14447H2.57115C2.33544 2.14447 2.14258 2.33733 2.14258 2.57304V10.7159C2.14258 10.9516 2.33544 11.1445 2.57115 11.1445H10.714C10.9497 11.1445 11.1426 10.9516 11.1426 10.7159V2.57304C11.1426 2.33733 10.9497 2.14447 10.714 2.14447ZM9.32115 9.32304H3.96401V3.9659H9.32115V9.32304ZM21.4283 2.14447H13.2854C13.0497 2.14447 12.8569 2.33733 12.8569 2.57304V10.7159C12.8569 10.9516 13.0497 11.1445 13.2854 11.1445H21.4283C21.664 11.1445 21.8569 10.9516 21.8569 10.7159V2.57304C21.8569 2.33733 21.664 2.14447 21.4283 2.14447ZM20.0354 9.32304H14.6783V3.9659H20.0354V9.32304ZM10.714 12.8588H2.57115C2.33544 12.8588 2.14258 13.0516 2.14258 13.2873V21.4302C2.14258 21.6659 2.33544 21.8588 2.57115 21.8588H10.714C10.9497 21.8588 11.1426 21.6659 11.1426 21.4302V13.2873C11.1426 13.0516 10.9497 12.8588 10.714 12.8588ZM9.32115 20.0373H3.96401V14.6802H9.32115V20.0373ZM21.4283 12.8588H13.2854C13.0497 12.8588 12.8569 13.0516 12.8569 13.2873V21.4302C12.8569 21.6659 13.0497 21.8588 13.2854 21.8588H21.4283C21.664 21.8588 21.8569 21.6659 21.8569 21.4302V13.2873C21.8569 13.0516 21.664 12.8588 21.4283 12.8588ZM20.0354 20.0373H14.6783V14.6802H20.0354V20.0373Z" fill="#2C2C2C"/>
</g>
<defs>
<clipPath id="clip0_2791_5832">
<rect width="24" height="24" fill="white"/>
</clipPath>
</defs>
</svg>
