<svg width="18" height="18" viewBox="0 0 18 18" fill="none" xmlns="http://www.w3.org/2000/svg">
<rect width="18" height="18" rx="2" fill="white"/>
<g clip-path="url(#clip0_2414_124779)">
<path fill-rule="evenodd" clip-rule="evenodd" d="M8.37886 2.04639H9.61562C11.3142 2.04639 12.3068 2.29587 13.1879 2.76828C14.0691 3.24069 14.7644 3.93074 15.2315 4.81189C15.7039 5.69302 15.9534 6.68562 15.9534 8.38418V9.61565C15.9534 11.3142 15.7039 12.3068 15.2315 13.1879C14.7591 14.0691 14.0691 14.7645 13.1879 15.2316C12.3068 15.704 11.3142 15.9535 9.61562 15.9535H8.38415C6.68559 15.9535 5.69299 15.704 4.81186 15.2316C3.93073 14.7591 3.23538 14.0691 2.76828 13.1879C2.29586 12.3068 2.04639 11.3142 2.04639 9.61565V8.38418C2.04639 6.68562 2.29586 5.69302 2.76828 4.81189C3.24069 3.93074 3.93073 3.23539 4.81186 2.76828C5.6877 2.29587 6.68559 2.04639 8.37886 2.04639Z" fill="#007AFF"/>
<path opacity="0.12" fill-rule="evenodd" clip-rule="evenodd" d="M15.9534 9.4126V9.61582C15.9534 11.3144 15.704 12.307 15.2315 13.1881C14.7591 14.0692 14.0691 14.7646 13.1879 15.2317C12.3068 15.7041 11.3142 15.9536 9.61564 15.9536H8.3842C6.99433 15.9536 6.07714 15.7866 5.30691 15.467L4.03711 14.1595L15.9534 9.4126Z" fill="#001A33"/>
<path fill-rule="evenodd" clip-rule="evenodd" d="M4.17802 14.205C4.82843 14.2769 5.64161 14.0914 6.219 13.8111C8.7262 15.1969 12.6454 15.1307 15.0177 13.6125C15.1098 13.4745 15.1957 13.331 15.2755 13.1822C15.7496 12.2978 16 11.3016 16 9.59685V8.3609C16 6.65612 15.7496 5.65991 15.2755 4.77556C14.8067 3.89122 14.1088 3.19866 13.2245 2.72452C12.3401 2.25039 11.3439 2 9.63914 2H8.39787C6.94593 2 6.0034 2.18277 5.21147 2.5317C5.16819 2.57046 5.12571 2.60989 5.08413 2.64998C2.76076 4.88968 2.58414 9.7446 4.55428 12.3819C4.55648 12.3858 4.55891 12.3897 4.56159 12.3937C4.86525 12.8412 4.57225 13.6243 4.11409 14.0824C4.03951 14.1517 4.06615 14.1943 4.17802 14.205Z" fill="white"/>
<path d="M7.75776 6.75977H5.03476V7.34365H6.9244L5.06128 9.65264C5.0029 9.73757 4.96045 9.8172 4.96045 9.99766V10.1463H7.5295C7.6569 10.1463 7.76308 10.0401 7.76308 9.91273V9.59955H5.77788L7.5295 7.40203C7.55605 7.37019 7.60382 7.31181 7.62507 7.28527L7.63568 7.26934C7.73654 7.12071 7.75776 6.99331 7.75776 6.8394V6.75977Z" fill="#007AFF"/>
<path d="M11.2237 10.1463H11.6112V6.75977H11.0273V9.94989C11.0273 10.0561 11.1123 10.1463 11.2237 10.1463Z" fill="#007AFF"/>
<path d="M9.22788 7.51367C8.49537 7.51367 7.90088 8.10817 7.90088 8.84068C7.90088 9.57318 8.49537 10.1677 9.22788 10.1677C9.96039 10.1677 10.5549 9.57318 10.5549 8.84068C10.5602 8.10817 9.96571 7.51367 9.22788 7.51367ZM9.22788 9.62095C8.79794 9.62095 8.44761 9.27062 8.44761 8.84068C8.44761 8.41074 8.79794 8.0604 9.22788 8.0604C9.65782 8.0604 10.0082 8.41074 10.0082 8.84068C10.0082 9.27062 9.66314 9.62095 9.22788 9.62095Z" fill="#007AFF"/>
<path d="M13.3362 7.49268C12.5983 7.49268 11.9985 8.09249 11.9985 8.83029C11.9985 9.56812 12.5983 10.1679 13.3362 10.1679C14.074 10.1679 14.6738 9.56812 14.6738 8.83029C14.6738 8.09249 14.074 7.49268 13.3362 7.49268ZM13.3362 9.62121C12.9009 9.62121 12.5506 9.27087 12.5506 8.83561C12.5506 8.40035 12.9009 8.05002 13.3362 8.05002C13.7714 8.05002 14.1217 8.40035 14.1217 8.83561C14.1217 9.27087 13.7714 9.62121 13.3362 9.62121Z" fill="#007AFF"/>
<path d="M10.2477 10.1464H10.5609V7.58789H10.0142V9.91813C10.0142 10.0402 10.1203 10.1464 10.2477 10.1464Z" fill="#007AFF"/>
</g>
<defs>
<clipPath id="clip0_2414_124779">
<rect width="14" height="14" fill="white" transform="translate(2 2)"/>
</clipPath>
</defs>
</svg>
