<svg width="24" height="24" viewBox="0 0 24 24" fill="none" xmlns="http://www.w3.org/2000/svg">
<g clip-path="url(#clip0_2204_122604)">
<path fill-rule="evenodd" clip-rule="evenodd" d="M10.9358 0.0795898H13.0559C15.9677 0.0795898 17.6693 0.507267 19.1798 1.31712C20.6904 2.12697 21.8824 3.30991 22.6831 4.82045C23.493 6.33096 23.9207 8.03256 23.9207 10.9444V13.0555C23.9207 15.9673 23.493 17.6689 22.6831 19.1794C21.8733 20.6899 20.6904 21.882 19.1798 22.6827C17.6693 23.4926 15.9677 23.9203 13.0559 23.9203H10.9448C8.033 23.9203 6.3314 23.4926 4.82089 22.6827C3.31039 21.8729 2.11836 20.6899 1.31761 19.1794C0.50775 17.6689 0.0800781 15.9673 0.0800781 13.0555V10.9444C0.0800781 8.03256 0.50775 6.33096 1.31761 4.82045C2.12746 3.30991 3.31039 2.11788 4.82089 1.31712C6.32233 0.507267 8.033 0.0795898 10.9358 0.0795898Z" fill="#F2FFFC"/>
<path opacity="0.12" fill-rule="evenodd" clip-rule="evenodd" d="M23.9201 12.7075V13.0559C23.9201 15.9677 23.4925 17.6693 22.6826 19.1798C21.8728 20.6904 20.6898 21.8824 19.1793 22.6832C17.6688 23.493 15.9672 23.9207 13.0554 23.9207H10.9443C8.56171 23.9207 6.98938 23.6343 5.66899 23.0866L3.49219 20.845L23.9201 12.7075Z" fill="#0E0D0D"/>
<path fill-rule="evenodd" clip-rule="evenodd" d="M3.73431 20.9228C4.8493 21.0461 6.24332 20.7281 7.23313 20.2476C11.5312 22.6233 18.2498 22.5098 22.3167 19.9071C22.4744 19.6705 22.6218 19.4245 22.7585 19.1694C23.5714 17.6534 24.0006 15.9456 24.0006 13.0232V10.9044C24.0006 7.98192 23.5714 6.27413 22.7585 4.75811C21.9549 3.24209 20.7585 2.05485 19.2425 1.24204C17.7265 0.429235 16.0187 0 13.0962 0H10.9683C8.4793 0 6.86353 0.313322 5.50594 0.911486C5.43173 0.977938 5.35892 1.04553 5.28764 1.11425C1.30471 4.95374 1.00195 13.2765 4.37933 17.7975C4.3831 17.8042 4.38727 17.8109 4.39186 17.8177C4.91242 18.5849 4.41012 19.9274 3.62472 20.7128C3.49686 20.8315 3.54252 20.9046 3.73431 20.9228Z" fill="white"/>
<path d="M9.87059 8.16016H5.20259V9.1611H8.44196L5.24804 13.1194C5.14796 13.265 5.0752 13.4015 5.0752 13.7108V13.9656H9.47929C9.69769 13.9656 9.87971 13.7836 9.87971 13.5652V13.0284H6.47651L9.47929 9.26118C9.5248 9.2066 9.60668 9.10652 9.64312 9.06102L9.66131 9.03371C9.8342 8.77892 9.87059 8.56052 9.87059 8.29667V8.16016Z" fill="#0EAF8F"/>
<path d="M15.8123 13.9656H16.4765V8.16016H15.4756V13.6289C15.4756 13.811 15.6212 13.9656 15.8123 13.9656Z" fill="#0EAF8F"/>
<path d="M12.3911 9.45215C11.1353 9.45215 10.1162 10.4713 10.1162 11.727C10.1162 12.9827 11.1353 14.0019 12.3911 14.0019C13.6468 14.0019 14.6659 12.9827 14.6659 11.727C14.6751 10.4713 13.6559 9.45215 12.3911 9.45215ZM12.3911 13.0646C11.654 13.0646 11.0535 12.4641 11.0535 11.727C11.0535 10.99 11.654 10.3894 12.3911 10.3894C13.1281 10.3894 13.7287 10.99 13.7287 11.727C13.7287 12.4641 13.1372 13.0646 12.3911 13.0646Z" fill="#0EAF8F"/>
<path d="M19.4337 9.41602C18.1688 9.41602 17.1406 10.4443 17.1406 11.7091C17.1406 12.9739 18.1688 14.0022 19.4337 14.0022C20.6985 14.0022 21.7267 12.9739 21.7267 11.7091C21.7267 10.4443 20.6985 9.41602 19.4337 9.41602ZM19.4337 13.0649C18.6875 13.0649 18.0869 12.4644 18.0869 11.7182C18.0869 10.972 18.6875 10.3715 19.4337 10.3715C20.1798 10.3715 20.7804 10.972 20.7804 11.7182C20.7804 12.4644 20.1798 13.0649 19.4337 13.0649Z" fill="#0EAF8F"/>
<path d="M14.1386 13.9655H14.6755V9.57959H13.7383V13.5743C13.7383 13.7836 13.9202 13.9655 14.1386 13.9655Z" fill="#0EAF8F"/>
</g>
<defs>
<clipPath id="clip0_2204_122604">
<rect width="24" height="24" fill="white"/>
</clipPath>
</defs>
</svg>
