<?xml version="1.0" encoding="utf-8"?>
<!-- Generator: Adobe Illustrator 23.0.5, SVG Export Plug-In . SVG Version: 6.00 Build 0)  -->
<svg version="1.1" id="Layer_1" xmlns="http://www.w3.org/2000/svg" xmlns:xlink="http://www.w3.org/1999/xlink" x="0px" y="0px"
	 viewBox="0 0 512 512" style="enable-background:new 0 0 512 512;" xml:space="preserve">
<style type="text/css">
	.st0{fill:#EF4444;}
	.st1{fill:#5DC091;}
</style>
<g>
	<g>
		<path class="st0" fill="#EF4444" d="M243.4,186.2c-8.6,5.3-12,15.8-8.8,25c-0.1,0-0.2,0.1-0.2,0.1L192,237.6c-16.1-29.9-8.5-66.9,17.4-88.2
			c1.7-1.4,2.1-3.7,0.9-5.6l-0.5-0.7c-1.4-2.2-4.4-2.7-6.4-1c-30.8,25.2-38.8,69.9-17.2,104.6c21.6,34.7,65.2,47.2,101.4,30.8
			c2.4-1.1,3.3-4,1.9-6.2l-0.5-0.7c-1.1-1.8-3.5-2.5-5.4-1.6c-30.6,13.8-67.1,4.3-86.8-23.4l42.4-26.3c0.1,0,0.1-0.1,0.2-0.1
			c6.8,6.9,17.7,8.5,26.3,3.1c9.9-6.2,12.9-19.2,6.8-29.1C266.3,183.1,253.3,180,243.4,186.2z M260.7,214.1
			c-5.5,3.4-12.7,1.7-16.1-3.8c-3.4-5.5-1.7-12.7,3.8-16.1c5.5-3.4,12.7-1.7,16.1,3.7C267.9,203.5,266.2,210.7,260.7,214.1z"/>
		<g>
			<path class="st1" d="M306.3,172.6c16.1,25.8,11.2,58.7-10.1,78.9c-2.2,2-5.7,1.5-7.2-1l0,0c-1.2-1.9-0.8-4.4,0.8-6
				c17.9-17.1,22.1-45,8.4-66.9s-40.5-30.5-63.8-22c-2.1,0.8-4.5,0-5.7-1.9c-1.4-2.2-0.7-5.2,1.5-6.5c0.3-0.2,0.5-0.3,0.8-0.4
				C258.6,136.6,290.3,146.8,306.3,172.6z"/>
			<path class="st1" d="M289.2,183.2c10.2,16.5,8.6,36.9-2.6,51.4c-2,2.6-6,2.3-7.7-0.4h0c-1.1-1.7-0.9-3.9,0.3-5.5
				c8.8-11.5,10-27.6,1.9-40.6c-8.1-13-23.1-19-37.2-16.2c-2,0.4-4-0.4-5-2.1l0,0c-1.7-2.8-0.2-6.5,3-7.1
				C259.9,159.2,279,166.8,289.2,183.2z"/>
			<path class="st1" d="M322.2,162c21.6,34.7,13.5,79.6-17.4,104.7c-2,1.6-5,1.2-6.3-1l-0.5-0.8c-1.1-1.8-0.7-4.2,0.9-5.5
				c27.2-22.2,34.3-61.7,15.3-92.4c-17.3-27.8-50.7-39.5-80.7-30.5c-3,0.9-6,2-9,3.4c-1.9,0.9-4.2,0.3-5.3-1.5l0,0
				c-0.4-0.7-0.8-1.4-1-2.2c-0.5-2,0.5-4,2.4-4.9c3.1-1.4,6.3-2.6,9.6-3.6C264.4,117.1,302.5,130.3,322.2,162z"/>
		</g>
	</g>
	<g>
		<path class="st0" fill="#EF4444" d="M95.5,316.7v7.3H81.2v40.3h-8.9V324H58v-7.3H95.5z"/>
		<path class="st0" fill="#EF4444" d="M95.4,364.3v-33.8h4.8c0.8,0,1.4,0.2,1.7,0.5c0.3,0.3,0.5,0.8,0.7,1.6l0.5,4.1c1.2-2.1,2.6-3.7,4.2-4.9
			c1.6-1.2,3.4-1.8,5.5-1.8c1.7,0,3,0.4,4.1,1.2l-1.1,6.1c-0.1,0.4-0.2,0.7-0.4,0.8c-0.2,0.2-0.5,0.2-0.9,0.2
			c-0.3,0-0.8-0.1-1.3-0.2c-0.6-0.2-1.3-0.2-2.3-0.2c-1.7,0-3.1,0.5-4.3,1.4c-1.2,0.9-2.2,2.3-3.1,4.1v21H95.4z"/>
		<path class="st0" fill="#EF4444" d="M129.8,330.5V352c0,2.1,0.5,3.7,1.4,4.8s2.4,1.7,4.3,1.7c1.4,0,2.7-0.3,3.9-0.9c1.2-0.6,2.4-1.5,3.5-2.6
			v-24.4h8.1v33.8h-5c-1.1,0-1.7-0.5-2.1-1.5l-0.6-2.7c-0.7,0.7-1.4,1.3-2.2,1.9c-0.7,0.6-1.5,1.1-2.4,1.5c-0.8,0.4-1.8,0.7-2.7,1
			s-2,0.3-3.1,0.3c-1.8,0-3.5-0.3-4.9-0.9c-1.4-0.6-2.6-1.5-3.6-2.6c-1-1.1-1.7-2.5-2.2-4.1c-0.5-1.6-0.7-3.3-0.7-5.2v-21.5H129.8z"
			/>
		<path class="st0" fill="#EF4444" d="M173.7,330c2.1,0,4.1,0.3,5.9,1c1.8,0.7,3.3,1.7,4.6,3c1.3,1.3,2.3,2.9,3,4.8s1.1,4.1,1.1,6.5
			c0,0.6,0,1.1-0.1,1.5c-0.1,0.4-0.2,0.7-0.3,1c-0.1,0.2-0.3,0.4-0.6,0.5c-0.2,0.1-0.5,0.1-0.9,0.1h-20.9c0.2,3.5,1.2,6,2.8,7.6
			c1.6,1.6,3.8,2.4,6.4,2.4c1.3,0,2.5-0.2,3.4-0.5s1.8-0.6,2.5-1c0.7-0.4,1.3-0.7,1.9-1c0.5-0.3,1.1-0.5,1.6-0.5
			c0.3,0,0.6,0.1,0.9,0.2c0.2,0.1,0.4,0.3,0.6,0.6l2.4,3c-0.9,1.1-1.9,1.9-3,2.6c-1.1,0.7-2.3,1.3-3.5,1.7s-2.5,0.7-3.7,0.9
			c-1.3,0.2-2.5,0.3-3.7,0.3c-2.3,0-4.5-0.4-6.5-1.2c-2-0.8-3.8-1.9-5.3-3.5c-1.5-1.5-2.7-3.4-3.5-5.7c-0.9-2.2-1.3-4.9-1.3-7.8
			c0-2.3,0.4-4.5,1.1-6.5c0.7-2,1.8-3.8,3.2-5.3c1.4-1.5,3.1-2.7,5.1-3.6S171.2,330,173.7,330z M173.8,335.8c-2.4,0-4.2,0.7-5.6,2
			c-1.3,1.3-2.2,3.2-2.6,5.7H181c0-1.1-0.1-2-0.4-3c-0.3-0.9-0.7-1.7-1.3-2.5c-0.6-0.7-1.3-1.3-2.2-1.7
			C176.1,336,175.1,335.8,173.8,335.8z"/>
		<path class="st1" d="M240.8,353.1c0.5,0,0.9,0.2,1.3,0.6l3.5,3.8c-1.9,2.4-4.3,4.2-7.1,5.5c-2.8,1.3-6.2,1.9-10.1,1.9
			c-3.5,0-6.7-0.6-9.5-1.8c-2.8-1.2-5.2-2.9-7.2-5c-2-2.1-3.5-4.7-4.6-7.7c-1.1-3-1.6-6.2-1.6-9.8c0-3.6,0.6-6.8,1.8-9.8
			c1.2-3,2.9-5.5,5-7.7c2.1-2.1,4.7-3.8,7.7-5c3-1.2,6.3-1.8,9.9-1.8c3.5,0,6.6,0.6,9.3,1.7c2.6,1.1,4.9,2.6,6.8,4.5l-3,4.1
			c-0.2,0.3-0.4,0.5-0.7,0.7c-0.3,0.2-0.7,0.3-1.1,0.3c-0.5,0-1-0.2-1.5-0.6c-0.5-0.4-1.2-0.8-2-1.3c-0.8-0.5-1.8-0.9-3.1-1.3
			c-1.2-0.4-2.8-0.6-4.7-0.6c-2.2,0-4.3,0.4-6.2,1.2c-1.9,0.8-3.5,1.9-4.8,3.3c-1.3,1.4-2.4,3.2-3.2,5.3c-0.8,2.1-1.1,4.4-1.1,7
			c0,2.7,0.4,5.1,1.1,7.1c0.8,2.1,1.8,3.8,3.1,5.3c1.3,1.4,2.8,2.5,4.6,3.3s3.6,1.1,5.7,1.1c1.2,0,2.3-0.1,3.3-0.2
			c1-0.1,1.9-0.3,2.7-0.6c0.8-0.3,1.6-0.7,2.3-1.1c0.7-0.4,1.5-1,2.2-1.7c0.2-0.2,0.4-0.4,0.7-0.5
			C240.2,353.1,240.5,353.1,240.8,353.1z"/>
		<path class="st1" d="M266.1,330c2.5,0,4.8,0.4,6.9,1.2s3.8,2,5.2,3.5c1.4,1.5,2.6,3.3,3.4,5.5c0.8,2.1,1.2,4.6,1.2,7.2
			c0,2.7-0.4,5.1-1.2,7.2c-0.8,2.2-1.9,4-3.4,5.5c-1.4,1.5-3.2,2.7-5.2,3.5c-2.1,0.8-4.3,1.2-6.9,1.2s-4.8-0.4-6.9-1.2
			c-2.1-0.8-3.8-2-5.3-3.5c-1.5-1.5-2.6-3.3-3.4-5.5c-0.8-2.1-1.2-4.6-1.2-7.2c0-2.7,0.4-5.1,1.2-7.2c0.8-2.1,1.9-4,3.4-5.5
			c1.5-1.5,3.2-2.6,5.3-3.5S263.6,330,266.1,330z M266.1,358.5c2.8,0,4.9-0.9,6.2-2.8s2-4.7,2-8.3s-0.7-6.4-2-8.3s-3.4-2.9-6.2-2.9
			c-2.9,0-5,1-6.3,2.9c-1.4,1.9-2,4.7-2,8.3s0.7,6.4,2,8.3C261.2,357.6,263.3,358.5,266.1,358.5z"/>
		<path class="st1" d="M289.1,364.3v-33.8h5c1.1,0,1.7,0.5,2.1,1.5l0.6,2.7c0.7-0.7,1.4-1.3,2.2-1.9c0.8-0.6,1.6-1.1,2.4-1.5
			c0.8-0.4,1.7-0.7,2.7-1c1-0.2,2-0.3,3.2-0.3c1.8,0,3.5,0.3,4.9,0.9c1.4,0.6,2.6,1.5,3.6,2.6s1.7,2.5,2.2,4
			c0.5,1.6,0.7,3.3,0.7,5.2v21.5h-8.1v-21.5c0-2.1-0.5-3.7-1.4-4.8s-2.4-1.7-4.3-1.7c-1.4,0-2.7,0.3-3.9,1c-1.2,0.6-2.4,1.5-3.5,2.6
			v24.4H289.1z"/>
		<path class="st1" d="M326.5,364.3v-33.8h5c1.1,0,1.7,0.5,2.1,1.5l0.6,2.7c0.7-0.7,1.4-1.3,2.2-1.9c0.8-0.6,1.6-1.1,2.4-1.5
			c0.8-0.4,1.7-0.7,2.7-1c1-0.2,2-0.3,3.2-0.3c1.8,0,3.5,0.3,4.9,0.9c1.4,0.6,2.6,1.5,3.6,2.6s1.7,2.5,2.2,4
			c0.5,1.6,0.7,3.3,0.7,5.2v21.5h-8.1v-21.5c0-2.1-0.5-3.7-1.4-4.8s-2.4-1.7-4.3-1.7c-1.4,0-2.7,0.3-3.9,1c-1.2,0.6-2.4,1.5-3.5,2.6
			v24.4H326.5z"/>
		<path class="st1" d="M377.9,330c2.1,0,4.1,0.3,5.9,1c1.8,0.7,3.3,1.7,4.6,3s2.3,2.9,3,4.8s1.1,4.1,1.1,6.5c0,0.6,0,1.1-0.1,1.5
			c-0.1,0.4-0.2,0.7-0.3,1s-0.3,0.4-0.6,0.5c-0.2,0.1-0.5,0.1-0.9,0.1h-20.9c0.2,3.5,1.2,6,2.8,7.6c1.6,1.6,3.8,2.4,6.4,2.4
			c1.3,0,2.5-0.2,3.4-0.5s1.8-0.6,2.5-1c0.7-0.4,1.3-0.7,1.9-1c0.5-0.3,1.1-0.5,1.6-0.5c0.3,0,0.6,0.1,0.9,0.2
			c0.2,0.1,0.4,0.3,0.6,0.6l2.4,3c-0.9,1.1-1.9,1.9-3,2.6c-1.1,0.7-2.3,1.3-3.5,1.7c-1.2,0.4-2.5,0.7-3.7,0.9
			c-1.3,0.2-2.5,0.3-3.7,0.3c-2.3,0-4.5-0.4-6.5-1.2c-2-0.8-3.8-1.9-5.3-3.5c-1.5-1.5-2.7-3.4-3.5-5.7c-0.9-2.2-1.3-4.9-1.3-7.8
			c0-2.3,0.4-4.5,1.1-6.5c0.7-2,1.8-3.8,3.2-5.3c1.4-1.5,3.1-2.7,5.1-3.6S375.4,330,377.9,330z M378.1,335.8c-2.4,0-4.2,0.7-5.6,2
			s-2.2,3.2-2.6,5.7h15.3c0-1.1-0.1-2-0.4-3c-0.3-0.9-0.7-1.7-1.3-2.5c-0.6-0.7-1.3-1.3-2.2-1.7S379.3,335.8,378.1,335.8z"/>
		<path class="st1" d="M422.8,337.7c-0.2,0.3-0.5,0.5-0.7,0.7c-0.2,0.2-0.6,0.3-1,0.3c-0.4,0-0.8-0.1-1.2-0.4
			c-0.4-0.3-0.9-0.5-1.4-0.9c-0.5-0.3-1.2-0.6-2-0.9c-0.8-0.3-1.7-0.4-2.8-0.4c-1.4,0-2.7,0.3-3.8,0.8c-1.1,0.5-2,1.3-2.7,2.2
			c-0.7,1-1.2,2.1-1.6,3.5c-0.4,1.4-0.5,2.9-0.5,4.7c0,1.8,0.2,3.4,0.6,4.8c0.4,1.4,0.9,2.6,1.7,3.5s1.6,1.7,2.6,2.2
			c1,0.5,2.2,0.7,3.5,0.7c1.3,0,2.3-0.2,3.1-0.5c0.8-0.3,1.5-0.7,2-1.1c0.5-0.4,1-0.7,1.4-1.1c0.4-0.3,0.9-0.5,1.4-0.5
			c0.7,0,1.2,0.3,1.5,0.8l2.3,3c-0.9,1.1-1.9,1.9-2.9,2.6c-1.1,0.7-2.1,1.3-3.3,1.7s-2.3,0.7-3.5,0.9c-1.2,0.2-2.4,0.3-3.6,0.3
			c-2.1,0-4-0.4-5.9-1.2c-1.8-0.8-3.4-1.9-4.8-3.4c-1.4-1.5-2.5-3.3-3.3-5.5s-1.2-4.6-1.2-7.4c0-2.5,0.4-4.8,1.1-6.9
			c0.7-2.1,1.8-3.9,3.1-5.5c1.4-1.5,3.1-2.8,5.1-3.6s4.4-1.3,7-1.3c2.5,0,4.7,0.4,6.6,1.2s3.6,2,5.1,3.5L422.8,337.7z"/>
		<path class="st1" d="M441.6,364.8c-2.9,0-5.2-0.8-6.7-2.5c-1.6-1.7-2.4-3.9-2.4-6.9v-18.9h-3.4c-0.4,0-0.8-0.1-1.1-0.4
			c-0.3-0.3-0.5-0.7-0.5-1.3v-3.2l5.4-0.9l1.7-9.2c0.1-0.4,0.3-0.8,0.6-1c0.3-0.2,0.7-0.4,1.2-0.4h4.2v10.6h8.9v5.8h-8.9v18.3
			c0,1.1,0.3,1.9,0.8,2.5s1.2,0.9,2.1,0.9c0.5,0,0.9-0.1,1.3-0.2c0.3-0.1,0.6-0.2,0.9-0.4c0.3-0.1,0.5-0.3,0.7-0.4
			c0.2-0.1,0.4-0.2,0.6-0.2c0.2,0,0.4,0.1,0.6,0.2c0.2,0.1,0.3,0.3,0.5,0.5l2.4,3.9c-1.2,1-2.5,1.7-4.1,2.2
			C444.8,364.6,443.2,364.8,441.6,364.8z"/>
	</g>
</g>
</svg>
